<svg id="Layer_1" data-name="Layer 1" xmlns="http://www.w3.org/2000/svg" xmlns:xlink="http://www.w3.org/1999/xlink" viewBox="0 0 884.7 252.6"><defs><style>.cls-1{fill:#36c;}.cls-2{fill:url(#linear-gradient);}.cls-3{fill:url(#linear-gradient-2);}.cls-4{fill:url(#linear-gradient-3);}.cls-5{fill:url(#linear-gradient-4);}.cls-6{fill:url(#linear-gradient-5);}.cls-7{fill:url(#linear-gradient-6);}.cls-8{isolation:isolate;}.cls-9{fill:#6cbbe8;}</style><linearGradient id="linear-gradient" x1="173.57" y1="-283.68" x2="224.73" y2="-334.84" gradientTransform="matrix(-0.99, -0.11, 0.11, -0.99, 362.19, -95.43)" gradientUnits="userSpaceOnUse"><stop offset="0" stop-color="#fff"/><stop offset="0.25" stop-color="#d3ebf8"/><stop offset="0.6" stop-color="#9cd1ef"/><stop offset="0.86" stop-color="#79c1ea"/><stop offset="1" stop-color="#6cbbe8"/></linearGradient><linearGradient id="linear-gradient-2" x1="940.53" y1="-5.92" x2="995.23" y2="-71.11" gradientTransform="translate(303.44 -749.51) rotate(100.97)" gradientUnits="userSpaceOnUse"><stop offset="0" stop-color="#fff"/><stop offset="0.16" stop-color="#d5ecf8"/><stop offset="0.33" stop-color="#afdaf3"/><stop offset="0.51" stop-color="#92cdee"/><stop offset="0.68" stop-color="#7dc3eb"/><stop offset="0.84" stop-color="#70bde9"/><stop offset="1" stop-color="#6cbbe8"/></linearGradient><linearGradient id="linear-gradient-3" x1="297.04" y1="-179.28" x2="381.28" y2="-179.28" gradientTransform="translate(511.05 61.73) rotate(-169.03)" gradientUnits="userSpaceOnUse"><stop offset="0" stop-color="#fff"/><stop offset="0.13" stop-color="#e9f5fb"/><stop offset="0.55" stop-color="#a6d6f1"/><stop offset="0.85" stop-color="#7cc2ea"/><stop offset="1" stop-color="#6cbbe8"/></linearGradient><linearGradient id="linear-gradient-4" x1="6.75" y1="-514.43" x2="99.46" y2="-607.14" gradientTransform="translate(88.58 -393.51) rotate(175.43)" xlink:href="#linear-gradient"/><linearGradient id="linear-gradient-5" x1="1171.97" y1="-167.06" x2="1271.61" y2="-285.8" gradientTransform="translate(-92.52 -1025.24) rotate(90)" xlink:href="#linear-gradient-2"/><linearGradient id="linear-gradient-6" x1="95.11" y1="-405.99" x2="243.71" y2="-405.99" gradientTransform="translate(265.51 -271.14) rotate(180)" xlink:href="#linear-gradient-3"/></defs><rect class="cls-1" x="304.6" y="16.9" width="3" height="218"/><circle class="cls-1" cx="125.9" cy="125.9" r="125.9"/><path class="cls-2" d="M135.9,157.7c13,1.4,23.6,8.9,28.7,19.1a37.19,37.19,0,0,0-17.6-6.4c-19.7-2.1-37.5,10.8-39.8,28.7-1.8,14.5,7.1,27.9,21,33.5a21.7,21.7,0,0,1-4.2-1.1c-18.4-7.6-30.3-26.2-27.9-45C98.5,168.4,116.3,155.6,135.9,157.7Z"/><path class="cls-3" d="M111.6,197.4c2.5-11.3,13.3-19.5,27.4-22.6a25.89,25.89,0,0,0-9.6,14.6c-3.7,17,13,34.3,37.4,38.7,19.7,3.6,38.4-2.5,46.8-14a8.8,8.8,0,0,1-1.7,3.5c-11.2,15.1-37.1,23.1-62.8,18.5C124.6,231.8,107.9,214.4,111.6,197.4Z"/><path class="cls-4" d="M184.5,182.6C182,194,172.8,202.7,161,206.2a29.38,29.38,0,0,0,8.5-15c3.8-17.2-9.3-34-29.2-37.6-16.1-2.9-31.7,3.8-39.1,15.6a11.45,11.45,0,0,1,1.5-3.6c9.9-15.6,31.5-24.4,52.5-20.6C175.1,148.6,188.2,165.4,184.5,182.6Z"/><path class="cls-5" d="M79.4,107.1a63.43,63.43,0,0,1,56.6,26,64,64,0,0,0-32.8-6.1c-34.7,2.8-60.6,32.7-57.8,66.9,2.3,27.7,22.7,49.7,48.9,55.6a27.63,27.63,0,0,1-7.6-.7c-34.6-8-62.1-38.7-65-74.8C18.8,139.8,44.6,109.8,79.4,107.1Z"/><path class="cls-6" d="M50.4,192.9c0-21.9,15.5-41,38.7-51.4a49.17,49.17,0,0,0-11,30.5c0,33,35.4,59.8,79,59.8,35.4,0,65.3-17.6,75.4-41.9a21,21,0,0,1-1.6,7.1c-13.7,32.1-55.4,55.6-101.4,55.6C85.8,252.7,50.4,225.9,50.4,192.9Z"/><path class="cls-7" d="M170.4,139.1c0,22.1-12.7,41.4-31.6,51.9a57,57,0,0,0,9-30.8c0-33.4-28.9-60.4-64.5-60.4-28.9,0-53.3,17.8-61.5,42.3a24.77,24.77,0,0,1,1.3-7.2c11.2-32.4,45.2-56.2,82.7-56.2C141.6,78.7,170.4,105.8,170.4,139.1Z"/><path class="cls-1" d="M361.1,57.5a105.2,105.2,0,0,1,11-3A72.94,72.94,0,0,1,388.3,53a62.73,62.73,0,0,1,11.4,1A25.66,25.66,0,0,1,410,58.1a23.87,23.87,0,0,1,7.5,8.9c1.9,3.9,2.9,9,2.9,15.4V121a40.7,40.7,0,0,1-6.1.8c-1.8.1-3.4.2-4.8.2s-3-.1-4.9-.2-4.1-.4-6.1-.8V84.6c0-4.6-.9-7.8-2.6-9.8s-4.4-3-7.9-3a15.26,15.26,0,0,0-3,.3,6.53,6.53,0,0,0-2,.5V121a40.7,40.7,0,0,1-6.1.8c-1.8.1-3.4.2-4.8.2s-3-.1-4.9-.2-4.1-.4-6.1-.8Z"/><path class="cls-1" d="M446.2,94.6a11.88,11.88,0,0,0,5,7.5,17.19,17.19,0,0,0,9.4,2.2,40,40,0,0,0,8.4-.9,50.86,50.86,0,0,0,9.2-2.7,43.09,43.09,0,0,1,3.2,8,40,40,0,0,1,1.5,9.7,67.42,67.42,0,0,1-23.5,4.3,43.69,43.69,0,0,1-16-2.6,28.47,28.47,0,0,1-10.9-7.2,28.9,28.9,0,0,1-6.2-10.9,46.56,46.56,0,0,1-2-13.8,45.71,45.71,0,0,1,2.1-13.8,31.57,31.57,0,0,1,6.2-11.2,29.71,29.71,0,0,1,10.3-7.6,36,36,0,0,1,14.5-2.8,30.56,30.56,0,0,1,12.3,2.3,25.48,25.48,0,0,1,9.1,6.4,28.61,28.61,0,0,1,5.8,9.8,37.63,37.63,0,0,1,2,12.5q0,3.15-.3,6.3c-.2,1.9-.4,3.4-.6,4.6Zm20.4-14.8a13.12,13.12,0,0,0-2.8-7.6c-1.7-2-4.1-3-7.3-3a10.23,10.23,0,0,0-7.1,2.6c-2,1.7-3.2,4.4-3.5,8Z"/><path class="cls-1" d="M483.9,54.3c.9-.2,2.6-.3,5-.5s5-.3,7.8-.3c2.2,0,4.4.1,6.5.3,1.4.1,2.8.3,4.2.5l8.4,39.6,9.3-39.6a20.08,20.08,0,0,1,4.8-.8c1.8-.1,3.5-.2,5.2-.2s3.5.1,5.2.2a33.53,33.53,0,0,1,5.4.8l9.2,38.5,8-38.5a27.33,27.33,0,0,1,4-.5q3-.3,6.3-.3c2.8,0,5.4.1,7.6.3s3.8.3,4.7.5l-21,66.6a26.73,26.73,0,0,1-4.8.8c-1.7.1-3.5.2-5.2.2s-3.5-.1-5.2-.2a33.14,33.14,0,0,1-5.5-.8l-9.3-36.2c-1.6,5.8-3.3,11.9-5,18.2s-3.3,12.4-4.8,18a33.53,33.53,0,0,1-5.4.8c-1.8.1-3.5.2-5.2.2s-3.4-.1-5.2-.2a26.73,26.73,0,0,1-4.8-.8Z"/><path class="cls-1" d="M602.2,54.3c.9-.2,2.6-.3,5-.5s5-.3,7.8-.3c2.2,0,4.4.1,6.5.3,1.4.1,2.8.3,4.2.5l8.4,39.6,9.3-39.6a20.08,20.08,0,0,1,4.8-.8c1.8-.1,3.5-.2,5.2-.2s3.5.1,5.2.2a33.53,33.53,0,0,1,5.4.8l9.2,38.5,8-38.5a27.33,27.33,0,0,1,4-.5q3-.3,6.3-.3c2.8,0,5.4.1,7.6.3s3.8.3,4.7.5l-21,66.6a26.73,26.73,0,0,1-4.8.8c-1.7.1-3.5.2-5.2.2s-3.5-.1-5.2-.2a33.14,33.14,0,0,1-5.5-.8l-9.4-36.2c-1.6,5.8-3.3,11.9-5,18.2s-3.3,12.4-4.8,18a33.53,33.53,0,0,1-5.4.8c-1.8.1-3.5.2-5.2.2s-3.4-.1-5.2-.2a26.73,26.73,0,0,1-4.8-.8Z"/><path class="cls-1" d="M737.8,77.8a7,7,0,0,0-1.3-3.9,7.8,7.8,0,0,0-3-2.4,14.19,14.19,0,0,0-4-1.2A34,34,0,0,0,725,70a42.85,42.85,0,0,0-7.2.7,48.42,48.42,0,0,0-8.5,2.3c-.8-1.5-1.4-2.8-2-4a16.27,16.27,0,0,1-1.3-3.7c-.3-1.3-.5-2.6-.7-3.9s-.2-2.9-.2-4.6a88.58,88.58,0,0,1,12.3-3.1,69.4,69.4,0,0,1,11.1-1,41.07,41.07,0,0,1,12.1,1.6,24.26,24.26,0,0,1,9.2,5,23.23,23.23,0,0,1,5.9,8.6,33.21,33.21,0,0,1,2.1,12.5v37.9c-3.3,1-7.2,1.9-11.9,2.9a73.49,73.49,0,0,1-14.8,1.4,63.32,63.32,0,0,1-12.3-1.2,26.16,26.16,0,0,1-9.6-4,19.05,19.05,0,0,1-6.3-7.2,24.3,24.3,0,0,1-2.3-10.9,19.39,19.39,0,0,1,2.7-10.5,21,21,0,0,1,7-6.6,28.68,28.68,0,0,1,9.4-3.4,56.69,56.69,0,0,1,10.1-1Zm0,13.7h-7.4a14.33,14.33,0,0,0-7.6,1.9,6.09,6.09,0,0,0-3.1,5.4,6.18,6.18,0,0,0,1.2,4.1,8,8,0,0,0,2.9,2.3,12.56,12.56,0,0,0,3.8,1,23.08,23.08,0,0,0,3.7.3,20.41,20.41,0,0,0,3.4-.3,30.62,30.62,0,0,0,3.2-.5Z"/><path class="cls-1" d="M755.2,54.3c.9-.2,2.6-.3,5.1-.5s5.1-.3,8-.3c2.2,0,4.5.1,6.7.3,1.5.1,2.9.3,4.4.5l11.8,40.1c2-6.7,3.9-13.4,5.8-20.2s3.7-13.4,5.6-19.9a29.75,29.75,0,0,1,4.3-.5q3.3-.3,6.6-.3c2.8,0,5.5.1,8,.3s4.2.3,5.1.5l-25.3,66.6a33.14,33.14,0,0,1-5.5.8c-1.9.1-3.6.2-5.4.2s-3.5-.1-5.3-.2a26.38,26.38,0,0,1-4.9-.8Z"/><path class="cls-1" d="M844.4,94.6a11.88,11.88,0,0,0,5,7.5,17.19,17.19,0,0,0,9.4,2.2,40,40,0,0,0,8.4-.9,50.86,50.86,0,0,0,9.2-2.7,43.09,43.09,0,0,1,3.2,8,40,40,0,0,1,1.5,9.7,67.42,67.42,0,0,1-23.5,4.3,43.69,43.69,0,0,1-16-2.6,28.47,28.47,0,0,1-10.9-7.2,28.9,28.9,0,0,1-6.2-10.9,46.56,46.56,0,0,1-2-13.8,45.71,45.71,0,0,1,2.1-13.8,31.57,31.57,0,0,1,6.2-11.2,29.71,29.71,0,0,1,10.3-7.6,36,36,0,0,1,14.5-2.8,29.77,29.77,0,0,1,12.2,2.3,25.48,25.48,0,0,1,9.1,6.4,28.61,28.61,0,0,1,5.8,9.8,37.63,37.63,0,0,1,2,12.5q0,3.15-.3,6.3c-.2,1.9-.4,3.4-.6,4.6Zm20.4-14.8a13.12,13.12,0,0,0-2.8-7.6c-1.7-2-4.1-3-7.3-3a10.23,10.23,0,0,0-7.1,2.6c-2,1.7-3.2,4.4-3.5,8Z"/><g class="cls-8"><path class="cls-9" d="M393,149.65l2.37,23q.64,6.44.64,10.38h.89q.07-3.86,1.12-12.82l2.33-20.55h13.28l-10.43,45.5H390.12L388,173.66Q387.2,165,387,160.18h-.81q-.28,5.74-1.08,13.48L383,195.15H369.9l-10.44-45.5h13.29l2.33,20.55q1,9.11,1.12,12.82h.88c0-2.63.22-6.09.64-10.38l2.37-23Z"/><path class="cls-9" d="M454.68,148.9q10.15,0,16,6.23t5.86,17q0,10.83-5.9,17.27a19.79,19.79,0,0,1-15.29,6.44q-9.75,0-15.09-6.69t-5.34-16.67a28.6,28.6,0,0,1,2.61-12.41,19,19,0,0,1,7.31-8.35A18.65,18.65,0,0,1,454.68,148.9Zm1.4,9.59a6.59,6.59,0,0,0-6,3.68Q448,165.86,448,172.25t2,10.2c1.36,2.47,3.22,3.7,5.6,3.7s4.24-1.27,5.66-3.82,2.13-5.93,2.13-10.17q0-6.6-2.15-10.13T456.08,158.49Z"/><path class="cls-9" d="M501.82,149.65h20.1q6.83,0,11.06,2.87a9.27,9.27,0,0,1,4.23,8.15,10.08,10.08,0,0,1-3,7.39q-3,3.06-9.09,4.81,7.59,1,9.4,7.83l3.81,14.45H524l-2.09-12.59a9.52,9.52,0,0,0-1.86-4.66,5.07,5.07,0,0,0-4-1.47h-1.2v18.72h-13Zm13,8.84v9.75h2.85a6.7,6.7,0,0,0,4.66-1.47,4.82,4.82,0,0,0,1.6-3.72,4.16,4.16,0,0,0-1.4-3.42,6.69,6.69,0,0,0-4.26-1.14Z"/><path class="cls-9" d="M562.76,149.65h13v16.4l9.88-16.4H598.6l-10.9,15.5,12.6,30H585.67L579.32,177l-3.52,5v13.11h-13Z"/><path class="cls-9" d="M621,181.55q6.46,4.89,12.2,4.89a8.24,8.24,0,0,0,5-1.53,4.51,4.51,0,0,0,2.09-3.72,4.17,4.17,0,0,0-1.49-3.13A21.11,21.11,0,0,0,633.1,175a28.86,28.86,0,0,1-9-5.26,9.6,9.6,0,0,1-3.14-7.37,11.82,11.82,0,0,1,4.9-9.56c3.26-2.6,7.59-3.89,13-3.89a30.72,30.72,0,0,1,11.52,2.41v10.86Q645.06,158,640.2,158a7.33,7.33,0,0,0-4.18,1.18,3.37,3.37,0,0,0-1.76,2.83,3.52,3.52,0,0,0,1.44,2.81,18.66,18.66,0,0,0,5.22,2.54,29.33,29.33,0,0,1,9.55,5.22,10.3,10.3,0,0,1,3.25,8q0,6.33-5.6,10.79a21.19,21.19,0,0,1-13.66,4.47A34.75,34.75,0,0,1,621,192.81Z"/><path class="cls-9" d="M679.39,149.65h19.94q7.75,0,12,3.37t4.26,9.58a16.27,16.27,0,0,1-1.4,6.47q-1.41,3.26-5.91,5.65A24.06,24.06,0,0,1,697,177.11h-4.41v18H679.39Zm13.16,8.77v9.76h2.88a8.66,8.66,0,0,0,5.1-1.36,4.4,4.4,0,0,0,1.89-3.8,4.14,4.14,0,0,0-1.45-3.46,7.07,7.07,0,0,0-4.38-1.14Z"/><path class="cls-9" d="M746,149.65h13l14.74,45.5H759.47l-2-9H746.75l-2,9H731.34Zm6.23,12.43L748.6,178h7.09Z"/><path class="cls-9" d="M825.07,194a25.81,25.81,0,0,1-9.23,1.86q-9.44,0-15-6.69t-5.58-16.63a28.84,28.84,0,0,1,2.39-11.62,19.62,19.62,0,0,1,7.41-8.76,20.53,20.53,0,0,1,11.47-3.27,25.07,25.07,0,0,1,8.55,1.66V161a10.68,10.68,0,0,0-6.82-2.55,8.31,8.31,0,0,0-7.16,3.72q-2.64,3.72-2.63,10.77,0,6,2.63,9.67a8.19,8.19,0,0,0,7,3.64,13.42,13.42,0,0,0,7-2.45Z"/><path class="cls-9" d="M851.86,149.65h31.91v9.16H864.91v8.39h17.57v8.87H864.91v9.79h18.86v9.29H851.86Z"/></g></svg>