<?xml version="1.0" encoding="utf-8"?>
<!-- Generator: Adobe Illustrator 24.2.0, SVG Export Plug-In . SVG Version: 6.00 Build 0)  -->
<svg version="1.1" id="Layer_1" xmlns="http://www.w3.org/2000/svg" xmlns:xlink="http://www.w3.org/1999/xlink" x="0px" y="0px"
	 viewBox="0 0 251.8 252.6" style="enable-background:new 0 0 251.8 252.6;" xml:space="preserve">
<style type="text/css">
	.st0{fill:#3366CC;}
	.st1{fill:url(#SVGID_1_);}
	.st2{fill:url(#SVGID_2_);}
	.st3{fill:url(#SVGID_3_);}
	.st4{fill:url(#SVGID_4_);}
	.st5{fill:url(#SVGID_5_);}
	.st6{fill:url(#SVGID_6_);}
</style>
<circle class="st0" cx="125.9" cy="125.9" r="125.9"/>
<linearGradient id="SVGID_1_" gradientUnits="userSpaceOnUse" x1="-980.6054" y1="785.188" x2="-929.4454" y2="836.348" gradientTransform="matrix(-0.99 -0.11 -0.11 0.99 -725.2837 -718.8839)">
	<stop  offset="0" style="stop-color:#FFFFFF"/>
	<stop  offset="0.25" style="stop-color:#D3EBF8"/>
	<stop  offset="0.6" style="stop-color:#9CD1EF"/>
	<stop  offset="0.86" style="stop-color:#79C1EA"/>
	<stop  offset="1" style="stop-color:#6CBBE8"/>
</linearGradient>
<path class="st1" d="M135.9,157.7c13,1.4,23.6,8.9,28.7,19.1c-5.2-3.6-11.3-5.8-17.6-6.4c-19.7-2.1-37.5,10.8-39.8,28.7
	c-1.8,14.5,7.1,27.9,21,33.5c-1.4-0.2-2.8-0.6-4.2-1.1c-18.4-7.6-30.3-26.2-27.9-45C98.5,168.4,116.3,155.6,135.9,157.7z"/>
<linearGradient id="SVGID_2_" gradientUnits="userSpaceOnUse" x1="134.047" y1="1237.7064" x2="188.747" y2="1302.8965" gradientTransform="matrix(-0.19 0.98 0.98 0.19 -1056.937 -193.1955)">
	<stop  offset="0" style="stop-color:#FFFFFF"/>
	<stop  offset="0.16" style="stop-color:#D5ECF8"/>
	<stop  offset="0.33" style="stop-color:#AFDAF3"/>
	<stop  offset="0.51" style="stop-color:#92CDEE"/>
	<stop  offset="0.68" style="stop-color:#7DC3EB"/>
	<stop  offset="0.84" style="stop-color:#70BDE9"/>
	<stop  offset="1" style="stop-color:#6CBBE8"/>
</linearGradient>
<path class="st2" d="M111.6,197.4c2.5-11.3,13.3-19.5,27.4-22.6c-4.8,3.6-8.2,8.8-9.6,14.6c-3.7,17,13,34.3,37.4,38.7
	c19.7,3.6,38.4-2.5,46.8-14c-0.3,1.3-0.9,2.5-1.7,3.5c-11.2,15.1-37.1,23.1-62.8,18.5C124.6,231.8,107.9,214.4,111.6,197.4z"/>
<linearGradient id="SVGID_3_" gradientUnits="userSpaceOnUse" x1="-839.744" y1="635.7964" x2="-755.5039" y2="635.7964" gradientTransform="matrix(-0.98 -0.19 -0.19 0.98 -516.2645 -601.647)">
	<stop  offset="0" style="stop-color:#FFFFFF"/>
	<stop  offset="0.13" style="stop-color:#E9F5FB"/>
	<stop  offset="0.55" style="stop-color:#A6D6F1"/>
	<stop  offset="0.85" style="stop-color:#7CC2EA"/>
	<stop  offset="1" style="stop-color:#6CBBE8"/>
</linearGradient>
<path class="st3" d="M184.5,182.6c-2.5,11.4-11.7,20.1-23.5,23.6c4.3-4,7.2-9.3,8.5-15c3.8-17.2-9.3-34-29.2-37.6
	c-16.1-2.9-31.7,3.8-39.1,15.6c0.3-1.3,0.8-2.5,1.5-3.6c9.9-15.6,31.5-24.4,52.5-20.6C175.1,148.6,188.2,165.4,184.5,182.6z"/>
<linearGradient id="SVGID_4_" gradientUnits="userSpaceOnUse" x1="-1166.5221" y1="1127.5713" x2="-1073.8121" y2="1220.2814" gradientTransform="matrix(-1 8.000000e-02 8.000000e-02 1 -1133.7356 -912.7912)">
	<stop  offset="0" style="stop-color:#FFFFFF"/>
	<stop  offset="0.25" style="stop-color:#D3EBF8"/>
	<stop  offset="0.6" style="stop-color:#9CD1EF"/>
	<stop  offset="0.86" style="stop-color:#79C1EA"/>
	<stop  offset="1" style="stop-color:#6CBBE8"/>
</linearGradient>
<path class="st4" d="M79.4,107.1c22.1-1.8,43.6,8,56.6,26c-10.2-4.9-21.5-7-32.8-6.1c-34.7,2.8-60.6,32.7-57.8,66.9
	c2.3,27.7,22.7,49.7,48.9,55.6c-2.6,0.1-5.1-0.1-7.6-0.7c-34.6-8-62.1-38.7-65-74.8C18.8,139.8,44.6,109.8,79.4,107.1z"/>
<linearGradient id="SVGID_5_" gradientUnits="userSpaceOnUse" x1="474.9701" y1="1430.0571" x2="574.6082" y2="1548.8043" gradientTransform="matrix(0 1 1 0 -1355.5201 -328.24)">
	<stop  offset="0" style="stop-color:#FFFFFF"/>
	<stop  offset="0.16" style="stop-color:#D5ECF8"/>
	<stop  offset="0.33" style="stop-color:#AFDAF3"/>
	<stop  offset="0.51" style="stop-color:#92CDEE"/>
	<stop  offset="0.68" style="stop-color:#7DC3EB"/>
	<stop  offset="0.84" style="stop-color:#70BDE9"/>
	<stop  offset="1" style="stop-color:#6CBBE8"/>
</linearGradient>
<path class="st5" d="M50.4,192.9c0-21.9,15.5-41,38.7-51.4c-7,8.9-11,19.4-11,30.5c0,33,35.4,59.8,79,59.8
	c35.4,0,65.3-17.6,75.4-41.9c-0.1,2.5-0.7,4.9-1.6,7.1c-13.7,32.1-55.4,55.6-101.4,55.6C85.8,252.7,50.4,225.9,50.4,192.9z"/>
<linearGradient id="SVGID_6_" gradientUnits="userSpaceOnUse" x1="-1072.89" y1="971.99" x2="-924.29" y2="971.99" gradientTransform="matrix(-1 0 0 1 -902.49 -837.14)">
	<stop  offset="0" style="stop-color:#FFFFFF"/>
	<stop  offset="0.13" style="stop-color:#E9F5FB"/>
	<stop  offset="0.55" style="stop-color:#A6D6F1"/>
	<stop  offset="0.85" style="stop-color:#7CC2EA"/>
	<stop  offset="1" style="stop-color:#6CBBE8"/>
</linearGradient>
<path class="st6" d="M170.4,139.1c0,22.1-12.7,41.4-31.6,51.9c5.9-9.2,9-19.9,9-30.8c0-33.4-28.9-60.4-64.5-60.4
	c-28.9,0-53.3,17.8-61.5,42.3c0.1-2.5,0.5-4.9,1.3-7.2c11.2-32.4,45.2-56.2,82.7-56.2C141.6,78.7,170.4,105.8,170.4,139.1z"/>
</svg>
