<?xml version="1.0" encoding="iso-8859-1"?>
<!-- Generator: Adobe Illustrator 27.7.0, SVG Export Plug-In . SVG Version: 6.00 Build 0)  -->
<svg version="1.1" id="Layer_1" xmlns="http://www.w3.org/2000/svg" xmlns:xlink="http://www.w3.org/1999/xlink" x="0px" y="0px"
	 viewBox="0 0 1613.335 383.014" style="enable-background:new 0 0 1613.335 383.014;" xml:space="preserve">
<g>
	<g>
		<path style="fill:#BB934D;" d="M395.045,319.298h7.066v49.463h-7.066V319.298z"/>
		<path style="fill:#BB934D;" d="M479.274,319.298v49.463h-5.794l-29.678-36.886v36.886h-7.066v-49.463h5.794l29.678,36.885v-36.885
			H479.274z"/>
		<path style="fill:#BB934D;" d="M523.72,325.445h-16.959v-6.147h40.913v6.147h-16.959v43.316h-6.995V325.445z"/>
		<path style="fill:#BB934D;" d="M611.057,362.614v6.147h-35.896v-49.463h34.907v6.147h-27.841v15.192h24.802v6.006h-24.802v15.97
			H611.057z"/>
		<path style="fill:#BB934D;" d="M675.359,368.761l-10.67-15.192c-1.319,0.095-2.356,0.141-3.109,0.141h-12.224v15.051h-7.066
			v-49.463h19.291c6.406,0,11.447,1.531,15.122,4.593c3.675,3.063,5.512,7.278,5.512,12.649c0,3.816-0.943,7.066-2.826,9.751
			c-1.885,2.685-4.57,4.64-8.055,5.865l11.73,16.606H675.359z M671.614,344.806c2.355-1.93,3.533-4.686,3.533-8.267
			c0-3.579-1.178-6.324-3.533-8.232c-2.356-1.908-5.771-2.862-10.246-2.862h-12.012v22.258h12.012
			C665.843,347.704,669.258,346.739,671.614,344.806z"/>
		<path style="fill:#BB934D;" d="M755.984,319.298v49.463h-5.795l-29.678-36.886v36.886h-7.066v-49.463h5.794l29.678,36.885v-36.885
			H755.984z"/>
		<path style="fill:#BB934D;" d="M822.123,356.395h-26.286l-5.441,12.366h-7.278l22.4-49.463h6.995l22.471,49.463h-7.42
			L822.123,356.395z M819.65,350.743l-10.67-24.238l-10.67,24.238H819.65z"/>
		<path style="fill:#BB934D;" d="M869.467,325.445h-16.959v-6.147h40.913v6.147h-16.959v43.316h-6.995V325.445z"/>
		<path style="fill:#BB934D;" d="M920.908,319.298h7.066v49.463h-7.066V319.298z"/>
		<path style="fill:#BB934D;" d="M971.431,366.041c-4.004-2.19-7.149-5.217-9.434-9.08c-2.285-3.861-3.427-8.172-3.427-12.931
			c0-4.757,1.142-9.068,3.427-12.931c2.285-3.862,5.43-6.89,9.434-9.08c4.003-2.19,8.503-3.286,13.497-3.286
			c4.946,0,9.421,1.095,13.426,3.286c4.003,2.19,7.137,5.205,9.399,9.045c2.26,3.84,3.391,8.161,3.391,12.966
			c0,4.805-1.131,9.128-3.391,12.966c-2.261,3.841-5.395,6.854-9.399,9.045c-4.004,2.19-8.48,3.286-13.426,3.286
			C979.934,369.326,975.435,368.231,971.431,366.041z M994.714,360.564c2.898-1.648,5.181-3.922,6.855-6.819
			c1.671-2.897,2.508-6.136,2.508-9.716c0-3.579-0.837-6.819-2.508-9.716c-1.674-2.897-3.957-5.169-6.855-6.819
			c-2.896-1.648-6.159-2.473-9.786-2.473c-3.629,0-6.913,0.825-9.857,2.473c-2.946,1.649-5.254,3.921-6.925,6.819
			c-1.673,2.897-2.509,6.137-2.509,9.716c0,3.58,0.836,6.819,2.509,9.716c1.671,2.897,3.98,5.171,6.925,6.819
			c2.944,1.649,6.228,2.473,9.857,2.473C988.554,363.038,991.817,362.214,994.714,360.564z"/>
		<path style="fill:#BB934D;" d="M1084.278,319.298v49.463h-5.794l-29.677-36.886v36.886h-7.066v-49.463h5.793l29.678,36.885
			v-36.885H1084.278z"/>
		<path style="fill:#BB934D;" d="M1150.417,356.395h-26.286l-5.441,12.366h-7.278l22.399-49.463h6.995l22.471,49.463h-7.42
			L1150.417,356.395z M1147.944,350.743l-10.67-24.238l-10.669,24.238H1147.944z"/>
		<path style="fill:#BB934D;" d="M1190.411,319.298h7.066v43.316h26.781v6.147h-33.847V319.298z"/>
	</g>
	<g>
		<g>
			<path style="fill:#BB934D;" d="M118.983,14.252H39.532c-7.246,0-14.616-0.308-22.805-0.682l-1.455-0.066v3.191l2.908,5.088
				c6.274,11.227,7.333,40.348,7.333,101.376c0,60.556-1.059,89.465-7.326,100.681l-2.915,5.099v3.192l1.455-0.066
				c8.189-0.373,15.559-0.682,22.805-0.682c8.608,0,16.654,0.3,25.174,0.617l3.183,0.118v-3.18l-2.908-5.087
				c-5.13-9.181-6.772-30.608-7.201-71.997h61.204c26.344,0,48.01-6.304,62.656-18.231c14.626-11.911,22.357-29.458,22.357-50.741
				C203.996,39.909,172.216,14.252,118.983,14.252z M57.649,41.268h60.65c33.502,0,50.489,14.001,50.489,41.615
				c0,27.84-16.987,41.956-50.489,41.956H57.65c-0.001-1.229-0.001-2.473-0.001-3.728V41.268z"/>
			<path style="fill:#BB934D;" d="M1093.529,119.01c22.127-6.298,36.58-24.145,36.58-46.023c0-18.223-6.215-32.538-18.473-42.548
				c-13.151-10.74-33.012-16.186-59.033-16.186h-89.004c-7.227,0-14.604-0.309-22.805-0.682l-1.455-0.066v3.191l2.906,5.088
				c6.276,11.227,7.334,40.558,7.334,102.059c0,60.556-1.059,89.466-7.328,100.681l-2.912,5.1v3.19l1.454-0.066
				c8.227-0.372,15.622-0.68,22.807-0.68h92.759c50.67,0,80.921-22.594,80.921-60.441
				C1137.279,140.952,1115.694,124.688,1093.529,119.01z M981.032,107.091V41.268h72.597c27.276,0,42.297,11.748,42.297,33.082
				c0,21.419-14.627,32.741-42.297,32.741H981.032z M1102.069,169.238c0,22.758-16.91,35.811-46.395,35.811h-74.642v-72.306h74.642
				C1085.159,132.743,1102.069,146.045,1102.069,169.238z"/>
			<path style="fill:#BB934D;" d="M1544.523,13.691c-7.681,0.301-14.314,0.561-22.114,0.561c-6.954,0-11.907-0.206-18.178-0.467
				c-1.673-0.069-3.427-0.142-5.321-0.215l-1.445-0.056v3.507l0.557,0.418c2.181,1.634,3.196,4.101,3.196,7.761
				c0,9.47-8.484,23.022-13.553,31.119l-37.636,59.819l-43.182-66.431c-1.235-1.931-2.631-3.945-3.982-5.894
				c-4.646-6.705-9.452-13.638-9.452-19.296c0-2.675,1.185-5.012,3.62-7.145l0.476-0.416v-3.443l-6.544,0.26
				c-6.236,0.256-11.62,0.477-18.398,0.477c-8.811,0-18.295-0.337-27.253-0.682l-1.445-0.056v3.388l0.408,0.408
				c10.334,10.331,18.427,20.339,39.065,52.333l49.611,77.134v17.665c-0.378,33.012-2.571,50.781-7.325,59.398l-2.914,5.099v3.192
				l1.456-0.066c7.242-0.33,15.601-0.682,23.145-0.682c7.746,0,14.053,0.243,21.355,0.523l5.636,0.213v-3.18l-2.903-5.08
				c-4.981-9.027-6.969-24.945-7.336-58.717v-18.368l49.272-77.135l0.003-0.003c5.522-8.704,9.967-15.918,13.538-21.713
				c9.751-15.824,14.2-23.046,21.768-30.613l0.408-0.408v-3.388L1544.523,13.691z"/>
			<path style="fill:#BB934D;" d="M593.319,185.595l-5.187,5.187c-9.153,9.151-16.469,13.926-71.033,13.926H479.58v-80.185
				c0-61.973,1.059-91.514,7.325-102.727l2.915-5.1v-3.179l-3.189,0.118c-8.517,0.317-16.561,0.617-25.167,0.617
				c-7.544,0-15.903-0.352-23.145-0.682l-1.455-0.066v3.191l2.907,5.088c6.273,11.222,7.332,40.555,7.332,102.059
				c0,60.559-1.059,89.47-7.325,100.681l-2.914,5.1v3.19l1.454-0.066c9.964-0.451,18.096-0.679,24.171-0.679h133.481v-1.392
				c0-9.031,0.344-34.491,0.682-43.638l0.054-1.443H593.319z"/>
			<path style="fill:#BB934D;" d="M857.816,16.696v-3.191l-1.456,0.066c-8.189,0.373-15.559,0.682-22.807,0.682h-35.138
				l-56.86,172.612l-58.57-171.669l-0.321-0.943h-36.837c-7.243,0-14.613-0.308-22.802-0.682l-1.456-0.066v3.191l2.907,5.088
				c6.273,11.227,7.332,40.348,7.332,101.376c0,60.555-1.059,89.465-7.325,100.681l-2.914,5.099v3.192l1.456-0.066
				c7.242-0.33,15.601-0.682,23.145-0.682c7.419,0,13.164,0.226,19.817,0.487l6.49,0.248v-3.18l-2.907-5.087
				c-6.273-11.227-7.332-40.769-7.332-102.742V49.944l64.18,182.124h26.898l61.78-181.978v71.704
				c0,61.504-1.059,90.836-7.325,102.047l-2.914,5.099v3.192l1.455-0.066c7.242-0.33,15.601-0.682,23.145-0.682
				c8.605,0,16.652,0.3,25.17,0.617l3.187,0.118v-3.18l-2.91-5.087c-6.312-11.299-7.332-38.938-7.332-100.693
				c0-61.028,1.059-90.148,7.325-101.363L857.816,16.696z"/>
			<path style="fill:#BB934D;" d="M412.122,228.326c-10.781-10.784-17.736-23.813-33.828-63.373l-53.24-129.348
				c-0.213-0.531-0.458-1.121-0.722-1.752c-1.382-3.315-3.275-7.857-3.275-11.042c0-2.838,1.389-4.225,1.982-4.816l0.408-0.408
				v-3.335h-50.911v3.335l0.408,0.408c0.594,0.592,1.983,1.98,1.983,4.816c0,3.665-2.183,9.119-3.487,12.378l-52.388,129.769
				c-16.089,39.554-23.044,52.583-33.825,63.367l-0.408,0.408v3.387l4.563-0.171c8.036-0.303,14.976-0.565,23.11-0.565
				c7.271,0,12.496,0.208,19.11,0.472c1.708,0.068,3.494,0.139,5.413,0.211l1.443,0.053v-3.43l-0.461-0.415
				c-3.056-2.75-3.635-6.076-3.635-11.252c0-12.325,7.477-29.837,12.938-42.623c0.831-1.945,1.608-3.767,2.322-5.476h96.058
				c0.714,1.71,1.49,3.529,2.32,5.471c5.46,12.788,12.94,30.301,12.94,42.628c0,5.176-0.579,8.502-3.635,11.252l-0.461,0.415v3.43
				l1.443-0.053c1.919-0.071,3.704-0.143,5.413-0.211c6.614-0.264,11.84-0.472,19.11-0.472c9.131,0,18.976,0.337,28.276,0.682
				l1.443,0.053v-3.387L412.122,228.326z M334.947,142.589h-74.776l36.974-92.16L334.947,142.589z"/>
			<path style="fill:#BB934D;" d="M1375.696,228.326c-10.778-10.781-17.732-23.81-33.825-63.373l-53.243-129.348
				c-0.213-0.531-0.458-1.121-0.722-1.752c-1.382-3.315-3.275-7.857-3.275-11.042c0-2.838,1.389-4.225,1.982-4.816l0.408-0.408
				v-3.335h-50.908v3.335l0.408,0.408c0.592,0.592,1.98,1.977,1.98,4.816c0,3.68-2.193,9.149-3.503,12.417l-52.371,129.731
				c-16.091,39.558-23.046,52.587-33.825,63.367l-0.408,0.408v3.387l4.561-0.171c8.037-0.303,14.979-0.565,23.112-0.565
				c7.273,0,12.5,0.208,19.117,0.472c1.705,0.068,3.49,0.139,5.406,0.211l1.443,0.053v-3.43l-0.461-0.415
				c-3.056-2.75-3.635-6.076-3.635-11.252c0-12.327,7.48-29.84,12.94-42.628c0.83-1.943,1.606-3.763,2.32-5.471h96.208
				c0.311,0.717,0.629,1.449,0.952,2.191c5.638,12.965,14.158,32.559,14.158,45.907c0,5.176-0.579,8.502-3.635,11.252l-0.461,0.415
				v3.43l1.443-0.053c1.919-0.071,3.704-0.143,5.413-0.211c6.614-0.264,11.84-0.472,19.11-0.472c9.131,0,18.975,0.337,28.276,0.682
				l1.443,0.053v-3.387L1375.696,228.326z M1298.521,142.589h-74.775l36.973-92.16L1298.521,142.589z"/>
		</g>
		<g>
			<path style="fill:#BB934D;" d="M1571.269,26.954c0-2.261,0.433-4.382,1.299-6.364c0.865-1.982,2.04-3.714,3.523-5.196
				c1.482-1.482,3.215-2.656,5.196-3.522c1.982-0.866,4.102-1.299,6.363-1.299c2.26,0,4.382,0.433,6.363,1.299
				c1.982,0.866,3.713,2.04,5.196,3.522c1.482,1.483,2.656,3.215,3.523,5.196c0.866,1.982,1.299,4.103,1.299,6.364
				c0,2.26-0.434,4.381-1.299,6.363c-0.866,1.982-2.041,3.714-3.523,5.196c-1.483,1.483-3.215,2.657-5.196,3.522
				c-1.982,0.866-4.103,1.299-6.363,1.299c-2.261,0-4.381-0.433-6.363-1.299c-1.982-0.865-3.714-2.039-5.196-3.522
				c-1.483-1.483-2.657-3.215-3.523-5.196C1571.702,31.336,1571.269,29.214,1571.269,26.954z M1573.647,26.954
				c0,1.937,0.367,3.758,1.101,5.46c0.734,1.703,1.732,3.186,2.995,4.448c1.262,1.262,2.745,2.261,4.448,2.994
				c1.702,0.734,3.523,1.1,5.46,1.1c1.938,0,3.758-0.366,5.461-1.1c1.702-0.733,3.185-1.732,4.448-2.994
				c1.262-1.262,2.26-2.745,2.995-4.448c0.733-1.702,1.101-3.523,1.101-5.46c0-1.938-0.368-3.758-1.101-5.461
				c-0.734-1.702-1.733-3.185-2.995-4.448c-1.262-1.261-2.745-2.26-4.448-2.994c-1.703-0.733-3.523-1.1-5.461-1.1
				c-1.937,0-3.758,0.367-5.46,1.1c-1.703,0.734-3.186,1.733-4.448,2.994c-1.263,1.263-2.261,2.746-2.995,4.448
				C1574.014,23.197,1573.647,25.017,1573.647,26.954z M1584.084,36.333h-2.378V17.443h7.266c2.142,0,3.669,0.447,4.58,1.343
				c0.91,0.895,1.365,2.194,1.365,3.897c0,0.88-0.125,1.628-0.375,2.245c-0.25,0.617-0.594,1.139-1.035,1.564
				c-0.441,0.426-0.947,0.764-1.519,1.013c-0.573,0.251-1.182,0.434-1.828,0.551l5.637,8.279h-2.686l-5.637-8.279h-3.391V36.333z
				 M1584.084,25.94h3.038c0.646,0,1.292-0.022,1.938-0.066c0.645-0.044,1.225-0.176,1.739-0.396
				c0.513-0.221,0.932-0.543,1.255-0.969c0.323-0.425,0.484-1.035,0.484-1.827c0-0.617-0.125-1.124-0.375-1.52
				c-0.25-0.396-0.573-0.711-0.969-0.947c-0.396-0.234-0.852-0.403-1.365-0.507c-0.514-0.102-1.021-0.154-1.519-0.154h-4.228V25.94z
				"/>
		</g>
	</g>
</g>
</svg>
