<?xml version="1.0" encoding="utf-8" standalone="yes"?>
<!DOCTYPE svg PUBLIC "-//W3C//DTD SVG 1.1//EN" "http://www.w3.org/Graphics/SVG/1.1/DTD/svg11.dtd">
<svg width="629" height="300" viewBox="0 0 629 300" style="fill:none;stroke:none;fill-rule:evenodd;clip-rule:evenodd;stroke-linecap:round;stroke-linejoin:round;stroke-miterlimit:1.5;" version="1.1" xmlns="http://www.w3.org/2000/svg" xmlns:xlink="http://www.w3.org/1999/xlink"><style id="fontImports">@import url("https://fonts.googleapis.com/css2?family=Roboto:wght@400;700&amp;display=block");</style><g id="items" style="isolation: isolate"><g id="blend" style="mix-blend-mode: normal"><g id="g-root--1.cu_sy_145hv2sdx6y32-fill" data-item-order="-44000" transform="translate(227.26953125, 3.1656494140625)"><g id="-1.cu_sy_145hv2sdx6y32-fill" stroke="none" fill="#a3a3a3"><g><path d="M 15.0326 206.541496C 15.9629 207.112496 17.0468 207.444496 18.1904 207.444496L 19.2095 207.444496C 24.2441 213.857896 30.6852 219.848896 37.1417 224.982996L 29.3103 225.260696C 25.9806 225.393796 23.41 228.208396 23.41 231.542096L 23.41 232.952696C 23.5432 236.279696 26.3668 238.848196 29.6965 238.721796L 55.9034 237.809096C 61.4301 241.013396 67.2932 243.994396 73.3864 246.876096L 63.9578 270.929496C 46.3568 262.748596 28.2306 251.796196 14.9511 237.223296C 7.5094 227.592896 9.223 216.307196 15.0326 206.541496ZM 15.133342 110.003595C 7.076442 99.577095 9.706442 87.063395 16.752242 76.799995C 16.204642 77.617195 15.449042 78.809795 14.959442 79.650695C 16.476142 80.525295 17.443242 80.525295 18.546742 80.525295L 19.731442 80.525295C 24.773642 86.939095 30.927942 92.932695 37.386942 98.064495L 29.285442 98.344695C 25.955642 98.477795 23.385142 101.292395 23.385142 104.626095L 23.385142 106.036695C 23.518342 109.363695 26.341942 111.932195 29.671642 111.805795L 56.162042 110.888195C 66.137742 116.666395 77.207042 121.322595 88.745842 126.378595L 89.077642 126.525195L 88.745842 126.670595C 82.647342 129.367795 77.285442 131.582795 73.204342 133.245495C 68.085642 135.395195 62.839142 137.775895 57.604942 140.409495C 42.141042 132.628695 26.768942 122.772395 15.133342 110.003595ZM 135.705342 179.499995L 148.087342 180.001995C 151.296342 180.127995 153.910342 177.729995 154.036342 174.522595L 154.036342 173.244995C 154.036342 170.037795 151.606342 167.349595 148.396342 167.216495L 113.666342 165.834295C 105.899842 161.787995 97.618842 158.040095 89.076842 154.294295C 95.038242 151.663195 100.277342 149.498795 104.284442 147.866195C 109.592042 145.637095 115.037342 143.159795 120.463342 140.409495C 135.730342 148.147695 150.600342 157.992395 162.091342 170.601695C 170.190342 181.083995 167.316342 193.588995 160.247342 203.898995C 160.242342 203.890995 160.236342 203.882995 160.230342 203.874995C 160.236342 203.865995 160.242342 203.857995 160.247342 203.849995C 161.783342 201.609995 163.115342 199.268995 164.176342 196.869995C 163.097342 195.026995 161.468342 193.748995 159.234342 193.748995L 152.217342 193.748995C 147.118342 188.480995 141.266342 183.607995 135.705342 179.499995ZM 113.692421 38.8982L 148.396221 40.2793C 151.606021 40.4124 154.036721 43.1006 154.036721 46.3078L 154.036721 47.5854C 153.910221 50.7926 151.346321 53.2214 148.136521 53.0949L 135.788021 52.6035C 141.347621 56.7126 147.133121 61.5442 152.229621 66.8122L 159.234321 66.8122C 161.474821 66.8122 163.659221 68.2291 164.735421 70.0804C 168.548821 61.6721 169.111421 51.826 162.340421 43.3864C 149.060921 28.8136 130.934721 18.181 113.333621 10L 103.905121 34.0534C 107.242421 35.6318 110.510621 37.2399 113.692421 38.8982Z"></path></g></g></g><g id="g-root-4.cu_sy_zpocycdx6yvb-fill" data-item-order="-43996" transform="translate(306.013916015625, 157.9658203125)"><g id="4.cu_sy_zpocycdx6yvb-fill" stroke="none" fill="#e0cb15"><g><path d="M 69.652 12.374C 72.8619 12.5071 75.2926 15.1953 75.2926 18.4026L 75.2926 19.6801C 75.1661 22.8874 72.6022 25.3161 69.3923 25.1897L 10.000004 22.8259L 10.000004 10L 69.652 12.374ZM 78.8627 52.6209C 79.8051 51.4275 80.6989 50.2193 81.5354 48.9991C 83.0713 46.7592 84.5356 44.1467 85.5964 41.7473C 84.6143 40.2268 82.6713 38.9458 80.4375 38.9458L 10.000004 38.9069L 10.000004 52.6209L 78.8627 52.6209ZM 65.3074 66.4553L 10.000004 68.3809L 10 81.852L 45.9823 80.5926C 51.7414 77.0178 58.6982 72.1444 65.3074 66.4553Z"></path></g></g></g><g id="g-root-3.cu_sy_zpocycdx6yvc-fill" data-item-order="-43992" transform="translate(232.3424072265625, 157.16552734375)"><g id="3.cu_sy_zpocycdx6yvc-fill" stroke="none" fill="#1eabda"><g><path d="M 10.000007 52.6336C 10.898631 53.1539 12.103431 53.454 13.190731 53.454L 83.680831 53.454L 83.680831 39.74L 20.284231 39.74C 17.073131 43.0393 14.074831 46.5121 11.623231 50.0879C 11.050431 50.9232 10.512531 51.7724 10.000007 52.6336ZM 41.933131 21.9974L 83.680831 23.659L 83.680831 10.8331L 62.747331 10C 58.077931 12.3271 53.572131 14.7402 49.281431 17.2997C 47.030131 18.6465 44.544531 20.2237 41.933131 21.9974ZM 18.321731 77.5515C 18.321731 74.2178 20.892231 71.4032 24.222031 71.2701L 83.680831 69.214L 83.680831 82.6851L 24.608231 84.7312C 21.278531 84.8576 18.454931 82.2892 18.321731 78.9621L 18.321731 77.5515Z"></path></g></g></g><g id="g-root-2.cu_sy_v9uutwdx6znl-fill" data-item-order="-43988" transform="translate(306.01373291015625, 31.07073974609375)"><g id="2.cu_sy_v9uutwdx6znl-fill" stroke="none" fill="#92bd39"><g><path d="M 69.652 12.374C 72.8619 12.5071 75.2926 15.1953 75.2926 18.4026L 75.2926 19.6801C 75.1661 22.8874 72.6022 25.3161 69.3923 25.1897L 10.000005 22.8259L 10.000005 10L 69.652 12.374ZM 79.467 52.6209C 80.3141 51.5352 81.1207 50.4377 81.88 49.3302C 83.4557 47.0322 84.8166 44.6281 85.8905 42.1635C 84.8338 40.2434 82.7819 38.9069 80.4902 38.9069L 10.000005 38.9069L 10.000005 52.6209L 79.467 52.6209ZM 66.0837 66.4415L 10.000005 68.3809L 10 81.852L 46.9214 80.5732C 52.6853 76.9594 59.5694 72.0937 66.0837 66.4415Z"></path></g></g></g><g id="g-root-1.cu_sy_v9uutwdx6znm-fill" data-item-order="-43984" transform="translate(232.225830078125, 30.21466064453125)"><g id="1.cu_sy_v9uutwdx6znm-fill" stroke="none" fill="#3cc583"><g><path d="M 20.0608 39.7625C 16.9982 42.9437 14.1971 46.2553 11.843 49.6887C 11.1882 50.6438 10.5755 51.6202 9.999992 52.6087C 10.9079 53.1433 12.006 53.4765 13.1095 53.4765L 83.7879 53.4765L 83.7879 39.7625L 20.0608 39.7625ZM 41.4923 22.0049L 83.7879 23.6815L 83.7879 10.8556L 62.1184 10C 59.1294 11.5014 56.209 13.0397 53.3708 14.6308C 52.0273 15.3839 50.7022 16.1489 49.3971 16.9275C 46.9864 18.3697 44.3071 20.076 41.4923 22.0049ZM 18.4288 77.574C 18.4288 74.2403 20.9994 71.4257 24.3291 71.2926L 83.7879 69.2365L 83.7879 82.7076L 24.7154 84.7537C 21.3856 84.8801 18.562 82.3117 18.4288 78.9847L 18.4288 77.574Z"></path></g></g></g><g id="g-root--1.cu_1_sy_meubo4dx6xaj-fill" data-item-order="-43980" transform="translate(221.74176025390625, 2.9996337890625)"><g id="-1.cu_1_sy_meubo4dx6xaj-fill" stroke="none" fill="#a3a3a3"><g><path d="M 165.986199 203.901093C 156.501099 217.734893 139.638899 230.028993 128.505899 236.689293C 127.200699 237.467793 125.875599 238.232893 124.532099 238.985993C 119.668399 241.712593 114.562999 244.284293 109.284699 246.780993L 118.718699 270.831893C 136.312299 262.651793 154.428199 251.702693 167.701799 237.136293C 176.487799 227.494593 178.106299 218.223493 178.106299 203.901093C 178.106299 189.578793 176.487799 180.307693 167.701799 170.665893C 175.801699 181.148093 173.055099 193.591293 165.986199 203.901093ZM 20.4382 171.12746C 36.0626 154.03646 58.3749 141.92516 78.6817 133.42416C 82.776 131.76136 88.1553 129.54646 94.2736 126.84926C 106.5574 121.48416 118.308 116.12336 128.783 109.89486C 139.952 103.23456 156.869 90.94046 166.385 77.10666C 173.477 66.79686 176.232 54.35366 168.106 43.87146C 176.921 53.51326 178.544 62.78436 178.544 77.10666C 178.544 91.42906 176.921 100.70016 168.106 110.34196C 152.482 127.43266 130.169 139.54386 109.8625 148.04446C 105.7682 149.70746 100.3918 151.92146 94.2736 154.61946C 81.9897 159.98446 70.2362 165.34546 59.7611 171.57446C 48.592 178.23446 31.6752 190.52846 22.1594 204.36246C 15.0676 214.67246 12.3642 227.14346 20.6699 237.59746C 11.8554 227.95546 10 218.68446 10 204.36246C 10 190.03946 11.6237 180.76846 20.4382 171.12746ZM 22.307892 76.930801C 31.793 63.097 48.739594 50.802902 59.872589 44.142601C 61.177796 43.364097 62.502899 42.598999 63.846375 41.845901C 68.710083 39.119301 73.815491 36.5476 79.093781 34.050903L 69.65979 10C 52.066193 18.180099 33.950287 29.129196 20.676697 43.695595C 11.890686 53.337295 10.272187 62.608398 10.272187 76.930801C 10.272187 91.253097 11.890686 100.5242 20.676697 110.166C 12.576782 99.683792 15.238983 87.2406 22.307892 76.930801Z"></path></g></g></g><g id="g-root-tx_hybridwo_18eg590dx8d1r-fill" data-item-order="0" transform="translate(6, 39)"><g id="tx_hybridwo_18eg590dx8d1r-fill" stroke="none" fill="#374840"><g><text style="font-style: normal; font-variant-caps: normal; font-weight: normal; font-stretch: normal; font-size: 20px; line-height: normal; font-family: Roboto, sans-serif; font-size-adjust: none; font-kerning: auto; font-variant-alternates: normal; font-variant-ligatures: normal; font-variant-numeric: normal; font-variant-east-asian: normal; font-variant-position: normal; font-variant-emoji: normal; font-feature-settings: normal; font-optical-sizing: auto; font-variation-settings: normal; white-space: pre;"><tspan x="31" y="34" dominant-baseline="ideographic">Hybrid Work </tspan><tspan x="22" y="58" dominant-baseline="ideographic">Management</tspan></text></g></g></g><g id="g-root-2_92rlp0dwx34b-fill" data-item-order="0" transform="translate(150, 39)"></g><g id="g-root-vend_940gpgdx6wpb-fill" data-item-order="0" transform="translate(414, 39)"></g><g id="g-root-tx_enhanced_9598k4dx6xvq-fill" data-item-order="0" transform="translate(474, 27)"><g id="tx_enhanced_9598k4dx6xvq-fill" stroke="none" fill="#424736"><g><text style="font-style: normal; font-variant-caps: normal; font-weight: normal; font-stretch: normal; font-size: 20px; line-height: normal; font-family: Roboto, sans-serif; font-size-adjust: none; font-kerning: auto; font-variant-alternates: normal; font-variant-ligatures: normal; font-variant-numeric: normal; font-variant-east-asian: normal; font-variant-position: normal; font-variant-emoji: normal; font-feature-settings: normal; font-optical-sizing: auto; font-variation-settings: normal; white-space: pre;"><tspan x="12" y="34" dominant-baseline="ideographic">Enhanced </tspan><tspan x="12" y="58" dominant-baseline="ideographic">Branch </tspan><tspan x="12" y="82" dominant-baseline="ideographic">Experience</tspan></text></g></g></g><g id="g-root-tx_datadriv_1d2dthwdx6zgl-fill" data-item-order="0" transform="translate(30, 171)"><g id="tx_datadriv_1d2dthwdx6zgl-fill" stroke="none" fill="#32444a"><g><text style="font-style: normal; font-variant-caps: normal; font-weight: normal; font-stretch: normal; font-size: 20px; line-height: normal; font-family: Roboto, sans-serif; font-size-adjust: none; font-kerning: auto; font-variant-alternates: normal; font-variant-ligatures: normal; font-variant-numeric: normal; font-variant-east-asian: normal; font-variant-position: normal; font-variant-emoji: normal; font-feature-settings: normal; font-optical-sizing: auto; font-variation-settings: normal; white-space: pre;"><tspan x="13" y="34" dominant-baseline="ideographic">Data-Driven </tspan><tspan x="45" y="58" dominant-baseline="ideographic">Insights</tspan></text></g></g></g><g id="g-root-time_4l2hzodx9s0a-fill" data-item-order="0" transform="translate(150, 171)"></g><g id="g-root-smar_140i2dwdx8cu9-fill" data-item-order="0" transform="translate(414, 171)"></g><g id="g-root-tx_customer_meubo4dx6xak-fill" data-item-order="0" transform="translate(474, 159)"><g id="tx_customer_meubo4dx6xak-fill" stroke="none" fill="#46432d"><g><text style="font-style: normal; font-variant-caps: normal; font-weight: normal; font-stretch: normal; font-size: 20px; line-height: normal; font-family: Roboto, sans-serif; font-size-adjust: none; font-kerning: auto; font-variant-alternates: normal; font-variant-ligatures: normal; font-variant-numeric: normal; font-variant-east-asian: normal; font-variant-position: normal; font-variant-emoji: normal; font-feature-settings: normal; font-optical-sizing: auto; font-variation-settings: normal; white-space: pre;"><tspan x="12" y="34" dominant-baseline="ideographic">Customer-</tspan><tspan x="12" y="58" dominant-baseline="ideographic">Centric </tspan><tspan x="12" y="82" dominant-baseline="ideographic">Engagement</tspan></text></g></g></g><g id="g-root--1.cu_sy_145hv2sdx6y32-stroke" data-item-order="-44000" transform="translate(227.26953125, 3.1656494140625)"><g id="-1.cu_sy_145hv2sdx6y32-stroke" fill="none" stroke-linecap="round" stroke-linejoin="round" stroke-miterlimit="4" stroke="#ffffff" stroke-width="2"><g><path d="M 15.0326 206.541496C 15.9629 207.112496 17.0468 207.444496 18.1904 207.444496L 19.2095 207.444496C 24.2441 213.857896 30.6852 219.848896 37.1417 224.982996L 29.3103 225.260696C 25.9806 225.393796 23.41 228.208396 23.41 231.542096L 23.41 232.952696C 23.5432 236.279696 26.3668 238.848196 29.6965 238.721796L 55.9034 237.809096C 61.4301 241.013396 67.2932 243.994396 73.3864 246.876096L 63.9578 270.929496C 46.3568 262.748596 28.2306 251.796196 14.9511 237.223296C 7.5094 227.592896 9.223 216.307196 15.0326 206.541496ZM 15.133342 110.003595C 7.076542 99.577095 9.706442 87.063395 16.752242 76.799995C 16.204642 77.617195 15.449042 78.809795 14.959442 79.650695C 16.476142 80.525295 17.443242 80.525295 18.546642 80.525295L 19.731442 80.525295C 24.773642 86.939095 30.927942 92.932695 37.386942 98.064495L 29.285442 98.344695C 25.955642 98.477795 23.385142 101.292395 23.385142 104.626095L 23.385142 106.036695C 23.518342 109.363695 26.341942 111.932195 29.671642 111.805795L 56.162042 110.888195C 66.137742 116.666395 77.207042 121.322595 88.745842 126.378595L 89.077642 126.525195L 88.745842 126.670595C 82.647342 129.367795 77.285442 131.582795 73.204342 133.245495C 68.085642 135.395195 62.839142 137.775895 57.604942 140.409495C 42.141042 132.628695 26.768942 122.772395 15.133342 110.003595ZM 135.705442 179.499495L 148.086942 180.001495C 151.296842 180.127895 153.910242 177.729795 154.036842 174.522595L 154.036842 173.244995C 154.036842 170.037795 151.606142 167.349595 148.396242 167.216495L 113.666042 165.834295C 105.899842 161.787995 97.618842 158.040095 89.076842 154.294295C 95.038242 151.663195 100.277342 149.498795 104.284442 147.866195C 109.592042 145.637095 115.037042 143.159795 120.463242 140.409495C 135.730842 148.147695 150.600742 157.992395 162.090942 170.601695C 170.190842 181.083895 167.316442 193.589395 160.247542 203.899295C 160.241942 203.890995 160.236342 203.882795 160.230642 203.874595C 160.236342 203.866295 160.241942 203.858095 160.247642 203.849895C 161.783442 201.609895 163.115242 199.269195 164.176142 196.869795C 163.097642 195.027395 161.468242 193.749395 159.234342 193.749395L 152.217042 193.749395C 147.118042 188.480595 141.266142 183.608295 135.705442 179.499495ZM 113.692421 38.8982L 148.396221 40.2793C 151.606021 40.4124 154.036721 43.1006 154.036721 46.3078L 154.036721 47.5854C 153.910221 50.7926 151.346321 53.2214 148.136521 53.0949L 135.788021 52.6035C 141.347621 56.7126 147.133121 61.5442 152.229621 66.8122L 159.234321 66.8122C 161.474821 66.8122 163.659221 68.2291 164.735421 70.0804C 168.548821 61.6721 169.111421 51.826 162.340421 43.3864C 149.060921 28.8136 130.934721 18.181 113.333621 10L 103.905121 34.0534C 107.242421 35.6318 110.510621 37.2399 113.692421 38.8982Z"></path></g></g></g><g id="g-root-4.cu_sy_zpocycdx6yvb-stroke" data-item-order="-43996" transform="translate(306.013916015625, 157.9658203125)"><g id="4.cu_sy_zpocycdx6yvb-stroke" fill="none" stroke-linecap="round" stroke-linejoin="round" stroke-miterlimit="4" stroke="#ffffff" stroke-width="2"><g><path d="M 69.652 12.374C 72.8619 12.5071 75.2926 15.1953 75.2926 18.4025L 75.2926 19.6801C 75.1661 22.8874 72.6022 25.3161 69.3923 25.1897L 10 22.8259L 10 10L 69.652 12.374ZM 78.8627 52.6209C 79.8051 51.4275 80.6989 50.2193 81.5354 48.9991C 83.0713 46.7592 84.5356 44.1467 85.5964 41.7473C 84.6142 40.2268 82.6713 38.9458 80.4375 38.9458L 10 38.9069L 10 52.6209L 78.8627 52.6209ZM 65.3074 66.4553L 10 68.3809L 10 81.852L 45.9823 80.5926C 51.7414 77.0178 58.6982 72.1444 65.3074 66.4553Z"></path></g></g></g><g id="g-root-3.cu_sy_zpocycdx6yvc-stroke" data-item-order="-43992" transform="translate(232.3424072265625, 157.16552734375)"><g id="3.cu_sy_zpocycdx6yvc-stroke" fill="none" stroke-linecap="round" stroke-linejoin="round" stroke-miterlimit="4" stroke="#ffffff" stroke-width="2"><g><path d="M 10.000031 52.6336C 10.898631 53.1539 12.103431 53.454 13.190731 53.454L 83.680831 53.454L 83.680831 39.74L 20.284231 39.74C 17.073131 43.0393 14.074831 46.5121 11.623131 50.0879C 11.050431 50.9232 10.512531 51.7724 10.000031 52.6336ZM 41.933131 21.9974L 83.680831 23.659L 83.680831 10.8331L 62.747331 10C 58.077931 12.3271 53.572131 14.7402 49.281431 17.2997C 47.030131 18.6465 44.544531 20.2237 41.933131 21.9974ZM 18.321731 77.5515C 18.321731 74.2178 20.892231 71.4032 24.222031 71.2701L 83.680831 69.214L 83.680831 82.6851L 24.608231 84.7312C 21.278531 84.8576 18.454931 82.2892 18.321731 78.9621L 18.321731 77.5515Z"></path></g></g></g><g id="g-root-2.cu_sy_v9uutwdx6znl-stroke" data-item-order="-43988" transform="translate(306.01373291015625, 31.07073974609375)"><g id="2.cu_sy_v9uutwdx6znl-stroke" fill="none" stroke-linecap="round" stroke-linejoin="round" stroke-miterlimit="4" stroke="#ffffff" stroke-width="2"><g><path d="M 69.652 12.374C 72.8619 12.5071 75.2926 15.1953 75.2926 18.4025L 75.2926 19.6801C 75.1661 22.8874 72.6022 25.3161 69.3923 25.1897L 10 22.8259L 10 10L 69.652 12.374ZM 79.467 52.6209C 80.3141 51.5352 81.1207 50.4377 81.88 49.3302C 83.4557 47.0322 84.8166 44.6281 85.8905 42.1635C 84.8338 40.2434 82.7819 38.9069 80.4902 38.9069L 10 38.9069L 10 52.6209L 79.467 52.6209ZM 66.0837 66.4415L 10 68.3809L 10 81.852L 46.9214 80.5732C 52.6853 76.9594 59.5694 72.0937 66.0837 66.4415Z"></path></g></g></g><g id="g-root-1.cu_sy_v9uutwdx6znm-stroke" data-item-order="-43984" transform="translate(232.225830078125, 30.21466064453125)"><g id="1.cu_sy_v9uutwdx6znm-stroke" fill="none" stroke-linecap="round" stroke-linejoin="round" stroke-miterlimit="4" stroke="#ffffff" stroke-width="2"><g><path d="M 20.0608 39.7625C 16.9982 42.9437 14.1971 46.2553 11.843 49.6887C 11.1882 50.6438 10.5755 51.6202 10 52.6087C 10.9079 53.1433 12.006 53.4765 13.1095 53.4765L 83.7879 53.4765L 83.7879 39.7625L 20.0608 39.7625ZM 41.4923 22.0049L 83.7879 23.6815L 83.7879 10.8556L 62.1184 10C 59.1294 11.5014 56.209 13.0397 53.3708 14.6308C 52.0273 15.3839 50.7022 16.1489 49.3971 16.9275C 46.9864 18.3697 44.3071 20.076 41.4923 22.0049ZM 18.4288 77.574C 18.4288 74.2403 20.9994 71.4257 24.3291 71.2926L 83.7879 69.2365L 83.7879 82.7076L 24.7154 84.7537C 21.3856 84.8801 18.562 82.3117 18.4288 78.9847L 18.4288 77.574Z"></path></g></g></g><g id="g-root--1.cu_1_sy_meubo4dx6xaj-stroke" data-item-order="-43980" transform="translate(221.74176025390625, 2.9996337890625)"><g id="-1.cu_1_sy_meubo4dx6xaj-stroke" fill="none" stroke-linecap="round" stroke-linejoin="round" stroke-miterlimit="4" stroke="#ffffff" stroke-width="2"><g><path d="M 165.986199 203.901093C 156.501099 217.734893 139.638899 230.028993 128.505899 236.689293C 127.200699 237.467793 125.875599 238.232893 124.532099 238.985993C 119.668399 241.712593 114.562999 244.284293 109.284699 246.780993L 118.718699 270.831493C 136.312299 262.651793 154.428199 251.702693 167.701799 237.136293C 176.487799 227.494593 178.106299 218.223493 178.106299 203.901093C 178.106299 189.578793 176.487799 180.307693 167.701799 170.665893C 175.801699 181.148093 173.055099 193.591293 165.986199 203.901093ZM 78.6817 133.42416C 58.3749 141.92516 36.0626 154.03626 20.4382 171.12706C 11.6237 180.76876 10 190.03996 10 204.36226C 10 218.68456 11.8554 227.95576 20.6699 237.59746C 12.3642 227.14336 15.0676 214.67206 22.1594 204.36226C 31.6752 190.52846 48.592 178.23436 59.7611 171.57406C 70.2362 165.34556 81.9897 159.98426 94.2736 154.61916C 100.3918 151.92196 105.7682 149.70756 109.8625 148.04486C 130.1694 139.54386 152.4817 127.43266 168.106 110.34196C 176.9206 100.70016 178.5443 91.42906 178.5443 77.10666C 178.5443 62.78436 176.9206 53.51326 168.106 43.87146C 176.2322 54.35366 173.4767 66.79686 166.3849 77.10666C 156.8691 90.94046 139.9523 103.23456 128.7832 109.89486C 118.3081 116.12336 106.5574 121.48416 94.2736 126.84926C 88.1553 129.54646 82.776 131.76136 78.6817 133.42416ZM 22.307892 76.930801C 31.793 63.097 48.739594 50.802902 59.872589 44.142601C 61.177796 43.364097 62.502899 42.598999 63.846375 41.845901C 68.710083 39.119301 73.815491 36.5476 79.093781 34.050903L 69.65979 10.000397C 52.066193 18.180099 33.950287 29.129196 20.676697 43.695595C 11.890686 53.337295 10.272187 62.608398 10.272187 76.930801C 10.272187 91.253097 11.890686 100.5242 20.676697 110.166C 12.576782 99.683792 15.238983 87.2406 22.307892 76.930801Z"></path></g></g></g><g id="g-root-tx_hybridwo_18eg590dx8d1r-stroke" data-item-order="0" transform="translate(6, 39)"></g><g id="g-root-2_92rlp0dwx34b-stroke" data-item-order="0" transform="translate(150, 39)"><g id="2_92rlp0dwx34b-stroke" fill="none" stroke-linecap="round" stroke-linejoin="round" stroke-miterlimit="4" stroke="#3cc583" stroke-width="2"><g><path d="M 55 25.5L 34 11.5L 13 25.5M 47 11.5L 53 11.5L 53 17.5M 20.5 44.5C 23.8137 44.5 26.5 41.813801 26.5 38.5C 26.5 35.186199 23.8137 32.5 20.5 32.5C 17.1863 32.5 14.5 35.186199 14.5 38.5C 14.5 41.813801 17.1863 44.5 20.5 44.5ZM 27.29998 50.5C 25.69998 48.700001 23.299999 47.5 20.5 47.5C 15.5 47.5 11.5 51.5 11.5 56.5M 33.02 56.5L 51.02 56.5C 52.02 56.5 52.82 55.900002 53.220001 54.900002L 56.419998 43.699799C 56.82 42.299801 55.82 40.900002 54.220001 40.900002L 39.220001 40.900002C 38.220001 40.900002 37.419998 41.5 37.02 42.5L 33.02 56.5ZM 24.02002 56.5L 33.02 56.5M 45.0196 49.5C 45.5718 49.5 46.0196 49.0522 46.0196 48.5C 46.0196 47.9478 45.5718 47.5 45.0196 47.5M 45.02 49.5C 44.4678 49.5 44.02 49.0522 44.02 48.5C 44.02 47.9478 44.4678 47.5 45.02 47.5"></path></g></g></g><g id="g-root-vend_940gpgdx6wpb-stroke" data-item-order="0" transform="translate(414, 39)"><g id="vend_940gpgdx6wpb-stroke" fill="none" stroke-linecap="round" stroke-linejoin="round" stroke-miterlimit="4" stroke="#92bd39" stroke-width="2"><g><path d="M 11 57L 11 20.304001C 11.00028 19.453304 11.538662 18.695879 12.342 18.416L 33.341999 11.112C 33.768105 10.963547 34.231895 10.963547 34.658001 11.112L 55.658001 18.416C 56.461338 18.695879 56.999718 19.453304 57 20.304001L 57 57M 17 45L 51 45C 51 45 53 45 53 47L 53 55C 53 55 53 57 51 57L 17 57C 17 57 15 57 15 55L 15 47C 15 47 15 45 17 45M 41 32.001999C 41 34.21114 42.790859 36.001999 45 36.001999C 47.209141 36.001999 49 34.21114 49 32.001999C 49 29.792862 47.209141 28.002001 45 28.002001C 42.790859 28.002001 41 29.792862 41 32.001999M 51 45L 51 44C 51 40.686295 48.313709 38 45 38C 41.686295 38 39 40.686295 39 44L 39 45M 33.714001 45L 32.414001 40.450001C 32.168587 39.591991 31.384417 39.000397 30.492001 39L 21.507999 39C 20.615583 39.000397 19.831413 39.591991 19.586 40.450001L 18.285999 45M 23 39L 23 35M 25 31C 26.10457 31 27 31.89543 27 33C 27 34.104568 26.10457 35 25 35L 21 35C 19.895432 35 19 34.104568 19 33C 19 31.89543 19.895432 31 21 31Z"></path></g></g></g><g id="g-root-tx_enhanced_9598k4dx6xvq-stroke" data-item-order="0" transform="translate(474, 27)"></g><g id="g-root-tx_datadriv_1d2dthwdx6zgl-stroke" data-item-order="0" transform="translate(30, 171)"></g><g id="g-root-time_4l2hzodx9s0a-stroke" data-item-order="0" transform="translate(150, 171)"><g id="time_4l2hzodx9s0a-stroke" fill="none" stroke-linecap="round" stroke-linejoin="round" stroke-miterlimit="4" stroke="#1eabda" stroke-width="2"><g><path d="M 34.5 11.5C 34.5 17.1 42.5 21.70002 53.700001 21.70002L 56.5 21.70002M 56.5 27.700199C 36.700001 27.700199 21.5 20.9002 21.5 12.7002M 40.300201 33.099998C 21.900101 34.700001 12.1001 40.700199 12.1001 47.700199M 32.099998 43.099998C 25.5 45.700001 21.5 49.5 21.5 53.5M 54.5 33.5L 56.5 33.5M 11.5 18.5C 11.5 25.5 21.5 31.5 40.299999 33.099998M 47.5 56.5C 52.4706 56.5 56.5 52.4706 56.5 47.5C 56.5 42.5294 52.4706 38.5 47.5 38.5C 42.5294 38.5 38.5 42.5294 38.5 47.5C 38.5 52.4706 42.5294 56.5 47.5 56.5ZM 47.5 38.5L 47.5 47.5L 56.453201 46.585999"></path></g></g></g><g id="g-root-smar_140i2dwdx8cu9-stroke" data-item-order="0" transform="translate(414, 171)"><g id="smar_140i2dwdx8cu9-stroke" fill="none" stroke-linecap="round" stroke-linejoin="round" stroke-miterlimit="4" stroke="#e0cb15" stroke-width="2"><g><path d="M 40.5 19C 40.776142 19 41 19.223858 41 19.5C 41 19.776142 40.776142 20 40.5 20C 40.223858 20 40 19.776142 40 19.5C 40 19.223858 40.223858 19 40.5 19M 49.5 19C 49.776142 19 50 19.223858 50 19.5C 50 19.776142 49.776142 20 49.5 20C 49.223858 20 49 19.776142 49 19.5C 49 19.223858 49.223858 19 49.5 19M 49 26C 49 28.209139 47.209141 30 45 30C 42.790859 30 41 28.209139 41 26ZM 44.866001 11C 41.675541 11.010678 38.622807 12.301193 36.392128 14.582251C 34.161453 16.863308 32.93943 19.944099 33 23.133999C 32.909966 25.366547 33.451351 27.579231 34.562 29.518002L 31 37L 38.482002 33.436001C 42.855595 36.14727 48.464031 35.803398 52.473644 32.578133C 56.483253 29.352871 58.021049 23.948427 56.310055 19.095407C 54.59906 14.242387 50.011803 10.997408 44.866001 11ZM 43 39L 43 57M 11 57L 11 21C 11 18.790861 12.790861 17 15 17L 30 17M 29 25L 11 25M 21.5 43.5C 21.5 45.985283 23.514719 48 26 48C 28.485281 48 30.5 45.985283 30.5 43.5C 30.5 41.014717 28.485281 39 26 39C 23.514719 39 21.5 41.014717 21.5 43.5ZM 35 57C 33.950928 52.885952 30.245701 50.006985 26 50.006985C 21.754299 50.006985 18.049076 52.885952 17 57M 24 21L 29 21"></path></g></g></g><g id="g-root-tx_customer_meubo4dx6xak-stroke" data-item-order="0" transform="translate(474, 159)"></g></g></g></svg>