<svg height="160" viewBox="0 0 626 160" width="626" xmlns="http://www.w3.org/2000/svg"><g fill-rule="evenodd"><path d="m61 117h168v12h-168z" fill="#3cc583"/><path d="m229 117h168v12h-168z" fill="#4e88e7"/><path d="m397 117h149.713989v-6.5l18.286011 12.5-18.286011 12.5v-6.5h-149.713989z" fill="#92bd39"/></g><g font-family="Helvetica"><g font-size="15"><text fill="#374840" x="105" y="62">experience</text><text fill="#374840" x="77" y="44">improved customer</text><text fill="#374840" x="95" y="26">Efficiency and</text><text fill="#3a4455" x="273" y="62">acquisition</text><text fill="#3a4455" x="268" y="44">from service</text><text fill="#3a4455" x="249" y="26">Increased revenue</text><text fill="#424736" x="441" y="62">profitability</text><text fill="#424736" x="409" y="44">customer loyalty and</text><text fill="#424736" x="412" y="26">Sustained growth in</text></g><text fill="#3cc583" font-size="20" x="92" y="101">3-6 months</text><text fill="#4e88e7" font-size="20" x="254" y="101">6-12 months</text><text fill="#92bd39" font-size="20" x="426" y="101">12+ months</text></g><path d="m61 117h168v12h-168z" fill="none" stroke="#fff" stroke-linecap="round" stroke-linejoin="round" stroke-width="2"/><path d="m229 117h168v12h-168z" fill="none" stroke="#fff" stroke-linecap="round" stroke-linejoin="round" stroke-width="2"/><path d="m397 117h149.714294v-6.5l18.285706 12.5-18.285706 12.5v-6.5h-149.714294z" fill="none" stroke="#fff" stroke-linecap="round" stroke-linejoin="round" stroke-width="2"/></svg>