<?xml version="1.0" encoding="UTF-8" standalone="no"?>
<!DOCTYPE svg PUBLIC "-//W3C//DTD SVG 1.1//EN" "http://www.w3.org/Graphics/SVG/1.1/DTD/svg11.dtd">
<svg width="100%" height="100%" viewBox="0 0 535 143" version="1.1" xmlns="http://www.w3.org/2000/svg" xmlns:xlink="http://www.w3.org/1999/xlink" xml:space="preserve" xmlns:serif="http://www.serif.com/" style="fill-rule:evenodd;clip-rule:evenodd;stroke-linecap:round;stroke-linejoin:round;">
    <g transform="matrix(1,0,0,1,-46,-70)">
        <rect x="0" y="0" width="626" height="230" style="fill:white;"/>
        <g id="items">
            <g id="blend">
                <g id="g-root-tf_18gxff8h922a4-fill" transform="matrix(1,0,0,1,-9,-9)">
                    <g id="tf_18gxff8h922a4-fill">
                        <g>
                            <rect x="10" y="10" width="624" height="228" style="fill:white;"/>
                        </g>
                    </g>
                </g>
                <g id="g-root-1.g-1_fr_htdxlgh90mq0-fill" transform="matrix(1,0,0,1,51,177)">
                    <g id="_1.g-1_fr_htdxlgh90mq0-fill" serif:id="1.g-1_fr_htdxlgh90mq0-fill">
                        <g>
                            <rect x="10" y="10" width="168" height="12" style="fill:rgb(60,197,131);"/>
                        </g>
                    </g>
                </g>
                <g id="g-root-2.g-2_fr_ddkfh0h90nia-fill" transform="matrix(1,0,0,1,219,177)">
                    <g id="_2.g-2_fr_ddkfh0h90nia-fill" serif:id="2.g-2_fr_ddkfh0h90nia-fill">
                        <g>
                            <rect x="10" y="10" width="168" height="12" style="fill:rgb(78,136,231);"/>
                        </g>
                    </g>
                </g>
                <g id="g-root-3.g-3_fr_ddkfh0h90nib-fill" transform="matrix(1,0,0,1,387,170.5)">
                    <g id="_3.g-3_fr_ddkfh0h90nib-fill" serif:id="3.g-3_fr_ddkfh0h90nib-fill">
                        <g>
                            <path d="M10,16.5L159.714,16.5L159.714,10L178,22.5L159.714,35L159.714,28.5L10,28.5L10,16.5Z" style="fill:rgb(146,189,57);"/>
                        </g>
                    </g>
                </g>
                <g id="g-root-tx_shortter_magdw4h90o3y-fill" transform="matrix(1,0,0,1,63,63)">
                    <g id="tx_shortter_magdw4h90o3y-fill">
                        <g>
                            <g>
                                <g transform="matrix(1,0,0,1,33.32,31)">
                                    <g transform="matrix(15,0,0,15,13.9087,0)">
                                    </g>
                                    <g transform="matrix(15,0,0,15,18.0762,0)">
                                    </g>
                                    <text x="0px" y="0px" style="font-family:'Helvetica';font-size:15px;fill:rgb(55,72,64);">Ef<tspan x="13.909px " y="0px ">ﬁ</tspan>ciency and</text>
                                </g>
                                <g transform="matrix(1,0,0,1,15.32,49)">
                                    <text x="0px" y="0px" style="font-family:'Helvetica';font-size:15px;fill:rgb(55,72,64);">improved customer</text>
                                </g>
                                <g transform="matrix(1,0,0,1,43.32,67)">
                                    <text x="0px" y="0px" style="font-family:'Helvetica';font-size:15px;fill:rgb(55,72,64);">experience</text>
                                </g>
                            </g>
                        </g>
                    </g>
                </g>
                <g id="g-root-tx_mediumte_90vas4h90op4-fill" transform="matrix(1,0,0,1,231,63)">
                    <g id="tx_mediumte_90vas4h90op4-fill">
                        <g>
                            <g>
                                <g transform="matrix(1,0,0,1,19.25,31)">
                                    <text x="0px" y="0px" style="font-family:'Helvetica';font-size:15px;fill:rgb(58,68,85);">Increased revenue</text>
                                </g>
                                <g transform="matrix(1,0,0,1,38.25,49)">
                                    <text x="0px" y="0px" style="font-family:'Helvetica';font-size:15px;fill:rgb(58,68,85);">from service</text>
                                </g>
                                <g transform="matrix(1,0,0,1,43.25,67)">
                                    <text x="0px" y="0px" style="font-family:'Helvetica';font-size:15px;fill:rgb(58,68,85);">acquisition</text>
                                </g>
                            </g>
                        </g>
                    </g>
                </g>
                <g id="g-root-tx_longterm_73pskh90oi2-fill" transform="matrix(1,0,0,1,393,63)">
                    <g id="tx_longterm_73pskh90oi2-fill">
                        <g>
                            <g>
                                <g transform="matrix(1,0,0,1,20,31)">
                                    <text x="0px" y="0px" style="font-family:'Helvetica';font-size:15px;fill:rgb(66,71,54);">Sustained growth in</text>
                                </g>
                                <g transform="matrix(1,0,0,1,17,49)">
                                    <text x="0px" y="0px" style="font-family:'Helvetica';font-size:15px;fill:rgb(66,71,54);">customer loyalty and</text>
                                </g>
                                <g transform="matrix(1,0,0,1,49,67)">
                                    <g transform="matrix(15,0,0,15,21.6797,0)">
                                    </g>
                                    <g transform="matrix(15,0,0,15,25.8472,0)">
                                    </g>
                                    <text x="0px" y="0px" style="font-family:'Helvetica';font-size:15px;fill:rgb(66,71,54);">proﬁtability</text>
                                </g>
                            </g>
                        </g>
                    </g>
                </g>
                <g transform="matrix(1,0,0,1,93.03,169)">
                    <g id="g-root-tx_36months_1cymct0h90n47-fill">
                        <g id="tx_36months_1cymct0h90n47-fill">
                            <g>
                                <g>
                                    <text x="0px" y="0px" style="font-family:'Helvetica-Bold', 'Helvetica';font-weight:700;font-size:20px;fill:rgb(60,197,131);">3-6 months</text>
                                </g>
                            </g>
                        </g>
                    </g>
                </g>
                <g transform="matrix(1,0,0,1,255.16,169)">
                    <g id="g-root-tx_612month_144urtgh90mx5-fill">
                        <g id="tx_612month_144urtgh90mx5-fill">
                            <g>
                                <g>
                                    <text x="0px" y="0px" style="font-family:'Helvetica-Bold', 'Helvetica';font-weight:700;font-size:20px;fill:rgb(78,136,231);">6-12 months</text>
                                </g>
                            </g>
                        </g>
                    </g>
                </g>
                <g transform="matrix(1,0,0,1,427.27,169)">
                    <g id="g-root-tx_12months_qv9opgh90nib-fill">
                        <g id="tx_12months_qv9opgh90nib-fill">
                            <g>
                                <g>
                                    <text x="0px" y="0px" style="font-family:'Helvetica-Bold', 'Helvetica';font-weight:700;font-size:20px;fill:rgb(146,189,57);">12+ months</text>
                                </g>
                            </g>
                        </g>
                    </g>
                </g>
                <g id="g-root-1.g-1_fr_htdxlgh90mq0-stroke" transform="matrix(1,0,0,1,51,177)">
                    <g id="_1.g-1_fr_htdxlgh90mq0-stroke" serif:id="1.g-1_fr_htdxlgh90mq0-stroke">
                        <g>
                            <rect x="10" y="10" width="168" height="12" style="fill:none;stroke:white;stroke-width:2px;"/>
                        </g>
                    </g>
                </g>
                <g id="g-root-2.g-2_fr_ddkfh0h90nia-stroke" transform="matrix(1,0,0,1,219,177)">
                    <g id="_2.g-2_fr_ddkfh0h90nia-stroke" serif:id="2.g-2_fr_ddkfh0h90nia-stroke">
                        <g>
                            <rect x="10" y="10" width="168" height="12" style="fill:none;stroke:white;stroke-width:2px;"/>
                        </g>
                    </g>
                </g>
                <g id="g-root-3.g-3_fr_ddkfh0h90nib-stroke" transform="matrix(1,0,0,1,387,170.5)">
                    <g id="_3.g-3_fr_ddkfh0h90nib-stroke" serif:id="3.g-3_fr_ddkfh0h90nib-stroke">
                        <g>
                            <path d="M10,16.5L159.714,16.5L159.714,10L178,22.5L159.714,35L159.714,28.5L10,28.5L10,16.5Z" style="fill:none;stroke:white;stroke-width:2px;"/>
                        </g>
                    </g>
                </g>
            </g>
        </g>
    </g>
</svg>
