<?xml version="1.0" encoding="utf-8" standalone="yes"?>
<!DOCTYPE svg PUBLIC "-//W3C//DTD SVG 1.1//EN" "http://www.w3.org/Graphics/SVG/1.1/DTD/svg11.dtd">
<svg width="590" height="314" viewBox="0 0 590 314" style="fill:none;stroke:none;fill-rule:evenodd;clip-rule:evenodd;stroke-linecap:round;stroke-linejoin:round;stroke-miterlimit:1.5;" version="1.1" xmlns="http://www.w3.org/2000/svg" xmlns:xlink="http://www.w3.org/1999/xlink"><style id="fontImports">@import url("https://fonts.googleapis.com/css2?family=Roboto:wght@400;700&amp;display=block");</style><g id="items" style="isolation: isolate"><g id="blend" style="mix-blend-mode: normal"><g id="g-root-1.cu_sy_1q7luiwdmuqkl-fill" data-item-order="-74502" transform="translate(15, 72)"><g id="1.cu_sy_1q7luiwdmuqkl-fill" stroke="none" fill="#e3fff2"><g><path d="M 28 61C 28 42.7746 42.7746 28 61 28L 139 28C 152.377 28 163.895 35.9597 169.077 47.4013C 172.902 46.4852 176.894 46 181 46L 187.758 46C 181.353 25.154 161.946 10 139 10L 61 10C 32.8335 10 10 32.8335 10 61C 10 89.1665 32.8335 112 61 112L 139 112C 143.106 112 147.098 111.515 150.923 110.599C 172.4 105.4546 188.595 86.7232 189.913 64L 181 64C 177.778 64 174.663 64.4618 171.719 65.3229C 170.009 78.3943 160.649 89.0594 148.281 92.6771C 145.337 93.5382 142.222 94 139 94L 61 94C 42.7746 94 28 79.2254 28 61Z"></path></g></g></g><g id="g-root-2.cu_sy_1q7luiwdmuqkm-fill" data-item-order="-74498" transform="translate(135.0869140625, 108)"><g id="2.cu_sy_1q7luiwdmuqkm-fill" stroke="none" fill="#e8f9ff"><g><path d="M 10 58L 18.9132 58C 22.1355 58 25.2499 57.5382 28.1938 56.6771C 29.9041 43.6057 39.264 32.9406 51.6326 29.3229C 54.5766 28.4618 57.691 28 60.9132 28L 138.913 28C 142.135 28 145.25 28.4618 148.194 29.3229C 160.562 32.9406 169.922 43.6057 171.633 56.6771C 174.577 57.5382 177.691 58 180.913 58L 189.826 58C 188.508 35.2768 172.313 16.5454 150.836 11.4013C 147.012 10.4852 143.019 10 138.913 10L 60.9132 10C 56.8074 10 52.815 10.4852 48.99 11.4013C 27.5133 16.5454 11.3181 35.2768 10 58ZM 138.913 94L 60.9132 94C 47.536 94 36.0178 86.0403 30.8365 74.5987C 27.0115 75.5148 23.019 76 18.9132 76L 12.1548 76C 18.5603 96.846 37.967 112 60.9132 112L 138.913 112C 161.859 112 181.266 96.846 187.672 76L 180.913 76C 176.807 76 172.815 75.5148 168.99 74.5987C 163.809 86.0403 152.291 94 138.913 94Z"></path></g></g></g><g id="g-root-3.cu_sy_1hclbd4dmuo7j-fill" data-item-order="-74494" transform="translate(255.0869140625, 72)"><g id="3.cu_sy_1hclbd4dmuo7j-fill" stroke="none" fill="#f4ffdc"><g><path d="M 18.9132 64L 10 64C 11.3181 86.7232 27.5133 105.4546 48.99 110.599C 52.8149 111.515 56.8074 112 60.9132 112L 138.913 112C 143.019 112 147.012 111.515 150.836 110.599C 172.313 105.4546 188.508 86.7232 189.826 64L 180.913 64C 177.691 64 174.577 64.4618 171.633 65.3229C 169.922 78.3943 160.562 89.0594 148.194 92.6771C 145.25 93.5382 142.135 94 138.913 94L 60.9132 94C 57.691 94 54.5766 93.5382 51.6326 92.6771C 39.264 89.0594 29.9041 78.3943 28.1938 65.3229C 25.2499 64.4618 22.1355 64 18.9132 64ZM 60.9132 28L 138.913 28C 152.29 28 163.809 35.9597 168.99 47.4013C 172.815 46.4852 176.807 46 180.913 46L 187.672 46C 181.266 25.154 161.859 10 138.913 10L 60.9132 10C 37.967 10 18.5602 25.154 12.1548 46L 18.9132 46C 23.019 46 27.0115 46.4852 30.8365 47.4013C 36.0178 35.9597 47.5359 28 60.9132 28Z"></path></g></g></g><g id="g-root-4.cu_sy_1cwrt8odmuozs-fill" data-item-order="-74490" transform="translate(375, 108)"><g id="4.cu_sy_1cwrt8odmuozs-fill" stroke="none" fill="#fffbda"><g><path d="M 138.913 10C 167.08 10 189.913 32.8335 189.913 61C 189.913 89.1665 167.08 112 138.913 112L 60.9132 112C 37.967 112 18.5602 96.846 12.1548 76L 18.9132 76C 23.019 76 27.0115 75.5148 30.8364 74.5987C 36.0177 86.0403 47.5359 94 60.9132 94L 138.913 94C 157.139 94 171.913 79.2254 171.913 61C 171.913 42.7746 157.139 28 138.913 28L 60.9132 28C 57.6909 28 54.5766 28.4618 51.6326 29.3229C 39.264 32.9406 29.904 43.6057 28.1938 56.6771C 25.2498 57.5382 22.1355 58 18.9132 58L 10 58C 11.3181 35.2768 27.5133 16.5454 48.99 11.4013C 52.8149 10.4852 56.8074 10 60.9132 10L 138.913 10Z"></path></g></g></g><g id="g-root-tx_hybridwo_zjg894dmyw3w-fill" data-item-order="0" transform="translate(45, 3)"><g id="tx_hybridwo_zjg894dmyw3w-fill" stroke="none" fill="#484848"><g><text style="font-style: normal; font-variant-caps: normal; font-weight: normal; font-stretch: normal; font-size: 20px; line-height: normal; font-family: Roboto, sans-serif; font-size-adjust: none; font-kerning: auto; font-variant-alternates: normal; font-variant-ligatures: normal; font-variant-numeric: normal; font-variant-east-asian: normal; font-variant-position: normal; font-variant-emoji: normal; font-feature-settings: normal; font-optical-sizing: auto; font-variation-settings: normal; white-space: pre;"><tspan x="12.88" y="34" dominant-baseline="ideographic">Hybrid Work </tspan><tspan x="17.88" y="58" dominant-baseline="ideographic">Scheduling</tspan></text></g></g></g><g id="g-root-tx_producti_8dwawdmxhxm-fill" data-item-order="0" transform="translate(261, 27)"><g id="tx_producti_8dwawdmxhxm-fill" stroke="none" fill="#484848"><g><text style="font-style: normal; font-variant-caps: normal; font-weight: normal; font-stretch: normal; font-size: 20px; line-height: normal; font-family: Roboto, sans-serif; font-size-adjust: none; font-kerning: auto; font-variant-alternates: normal; font-variant-ligatures: normal; font-variant-numeric: normal; font-variant-east-asian: normal; font-variant-position: normal; font-variant-emoji: normal; font-feature-settings: normal; font-optical-sizing: auto; font-variation-settings: normal; white-space: pre;"><tspan x="14.18" y="34" dominant-baseline="ideographic">Productivity Tools</tspan></text></g></g></g><g id="g-root-2_1cwrt8odmuozt-fill" data-item-order="0" transform="translate(85.7608642578125, 103.7608642578125)"></g><g id="g-root-sear_1d15b60dn1p1o-fill" data-item-order="0" transform="translate(325.25, 103.25)"></g><g id="g-root-orde_13z9gw8dn8qgz-fill" data-item-order="0" transform="translate(201, 135)"></g><g id="g-root-moni_18k2y14dmt9n2-fill" data-item-order="0" transform="translate(445.2391357421875, 139.23919677734375)"></g><g id="g-root-tx_bookinge_i0wuywdmxhqj-fill" data-item-order="0" transform="translate(135, 231)"><g id="tx_bookinge_i0wuywdmxhqj-fill" stroke="none" fill="#484848"><g><text style="font-style: normal; font-variant-caps: normal; font-weight: normal; font-stretch: normal; font-size: 20px; line-height: normal; font-family: Roboto, sans-serif; font-size-adjust: none; font-kerning: auto; font-variant-alternates: normal; font-variant-ligatures: normal; font-variant-numeric: normal; font-variant-east-asian: normal; font-variant-position: normal; font-variant-emoji: normal; font-feature-settings: normal; font-optical-sizing: auto; font-variation-settings: normal; white-space: pre;"><tspan x="12.25" y="34" dominant-baseline="ideographic">Booking Experience</tspan></text></g></g></g><g id="g-root-tx_itsuppor_1hgyzm0dmxhxl-fill" data-item-order="0" transform="translate(411, 231)"><g id="tx_itsuppor_1hgyzm0dmxhxl-fill" stroke="none" fill="#484848"><g><text style="font-style: normal; font-variant-caps: normal; font-weight: normal; font-stretch: normal; font-size: 20px; line-height: normal; font-family: Roboto, sans-serif; font-size-adjust: none; font-kerning: auto; font-variant-alternates: normal; font-variant-ligatures: normal; font-variant-numeric: normal; font-variant-east-asian: normal; font-variant-position: normal; font-variant-emoji: normal; font-feature-settings: normal; font-optical-sizing: auto; font-variation-settings: normal; white-space: pre;"><tspan x="15.46" y="34" dominant-baseline="ideographic">IT Support </tspan><tspan x="14.46" y="58" dominant-baseline="ideographic">Integration</tspan></text></g></g></g><g id="g-root-1.cu_sy_1q7luiwdmuqkl-stroke" data-item-order="-74502" transform="translate(15, 72)"><g id="1.cu_sy_1q7luiwdmuqkl-stroke" fill="none" stroke-linecap="round" stroke-linejoin="round" stroke-miterlimit="4" stroke="#3cc583" stroke-width="2"><g><path d="M 28 61C 28 42.7746 42.7746 28 61 28L 139 28C 152.3773 28 163.8955 35.9597 169.0768 47.4013C 172.9017 46.4852 176.8942 46 181 46L 187.7584 46C 181.353 25.154 161.9462 10 139 10L 61 10C 32.8335 10 10 32.8335 10 61C 10 89.1665 32.8335 112 61 112L 139 112C 143.1058 112 147.0983 111.5148 150.9232 110.5987C 172.4 105.4546 188.5951 86.7232 189.9132 64L 181 64C 177.7777 64 174.6633 64.4618 171.7194 65.3229C 170.0092 78.3943 160.6492 89.0594 148.2806 92.6771C 145.3367 93.5382 142.2223 94 139 94L 61 94C 42.7746 94 28 79.2254 28 61Z"></path></g></g></g><g id="g-root-2.cu_sy_1q7luiwdmuqkm-stroke" data-item-order="-74498" transform="translate(135.0869140625, 108)"><g id="2.cu_sy_1q7luiwdmuqkm-stroke" fill="none" stroke-linecap="round" stroke-linejoin="round" stroke-miterlimit="4" stroke="#1eabda" stroke-width="2"><g><path d="M 10 58L 18.9132 58C 22.1355 58 25.2499 57.5382 28.1938 56.6771C 29.9041 43.6057 39.264 32.9406 51.6326 29.3229C 54.5766 28.4618 57.691 28 60.9132 28L 138.9132 28C 142.1355 28 145.2499 28.4618 148.1938 29.3229C 160.5625 32.9406 169.9224 43.6057 171.6326 56.6771C 174.5766 57.5382 177.691 58 180.9132 58L 189.8265 58C 188.5084 35.2768 172.3132 16.5454 150.8365 11.4013C 147.0115 10.4852 143.019 10 138.9132 10L 60.9132 10C 56.8074 10 52.815 10.4852 48.99 11.4013C 27.5133 16.5454 11.3181 35.2768 10 58ZM 138.9132 94L 60.9132 94C 47.536 94 36.0178 86.0403 30.8365 74.5987C 27.0115 75.5148 23.019 76 18.9132 76L 12.1548 76C 18.5603 96.846 37.967 112 60.9132 112L 138.9132 112C 161.8594 112 181.2662 96.846 187.6717 76L 180.9132 76C 176.8074 76 172.8149 75.5148 168.99 74.5987C 163.8087 86.0403 152.2905 94 138.9132 94Z"></path></g></g></g><g id="g-root-3.cu_sy_1hclbd4dmuo7j-stroke" data-item-order="-74494" transform="translate(255.0869140625, 72)"><g id="3.cu_sy_1hclbd4dmuo7j-stroke" fill="none" stroke-linecap="round" stroke-linejoin="round" stroke-miterlimit="4" stroke="#92bd39" stroke-width="2"><g><path d="M 18.9132 64L 10 64C 11.3181 86.7232 27.5133 105.4546 48.99 110.5987C 52.8149 111.5148 56.8074 112 60.9132 112L 138.9132 112C 143.019 112 147.0115 111.5148 150.8365 110.5987C 172.3132 105.4546 188.5084 86.7232 189.8265 64L 180.9132 64C 177.691 64 174.5766 64.4618 171.6326 65.3229C 169.9224 78.3943 160.5624 89.0594 148.1938 92.6771C 145.2499 93.5382 142.1355 94 138.9132 94L 60.9132 94C 57.691 94 54.5766 93.5382 51.6326 92.6771C 39.264 89.0594 29.9041 78.3943 28.1938 65.3229C 25.2499 64.4618 22.1355 64 18.9132 64ZM 60.9132 28L 138.9132 28C 152.2905 28 163.8087 35.9597 168.99 47.4013C 172.8149 46.4852 176.8074 46 180.9132 46L 187.6716 46C 181.2662 25.154 161.8594 10 138.9132 10L 60.9132 10C 37.967 10 18.5602 25.154 12.1548 46L 18.9132 46C 23.019 46 27.0115 46.4852 30.8365 47.4013C 36.0178 35.9597 47.5359 28 60.9132 28Z"></path></g></g></g><g id="g-root-4.cu_sy_1cwrt8odmuozs-stroke" data-item-order="-74490" transform="translate(375, 108)"><g id="4.cu_sy_1cwrt8odmuozs-stroke" fill="none" stroke-linecap="round" stroke-linejoin="round" stroke-miterlimit="4" stroke="#e0cb15" stroke-width="2"><g><path d="M 138.9132 10C 167.0797 10 189.9132 32.8335 189.9132 61C 189.9132 89.1665 167.0797 112 138.9132 112L 60.9132 112C 37.967 112 18.5602 96.846 12.1548 76L 18.9132 76C 23.019 76 27.0115 75.5148 30.8364 74.5987C 36.0177 86.0403 47.5359 94 60.9132 94L 138.9132 94C 157.1386 94 171.9132 79.2254 171.9132 61C 171.9132 42.7746 157.1386 28 138.9132 28L 60.9132 28C 57.6909 28 54.5766 28.4618 51.6326 29.3229C 39.264 32.9406 29.904 43.6057 28.1938 56.6771C 25.2498 57.5382 22.1355 58 18.9132 58L 10 58C 11.3181 35.2768 27.5133 16.5454 48.99 11.4013C 52.8149 10.4852 56.8074 10 60.9132 10L 138.9132 10Z"></path></g></g></g><g id="g-root-tx_hybridwo_zjg894dmyw3w-stroke" data-item-order="0" transform="translate(45, 3)"></g><g id="g-root-tx_producti_8dwawdmxhxm-stroke" data-item-order="0" transform="translate(261, 27)"></g><g id="g-root-2_1cwrt8odmuozt-stroke" data-item-order="0" transform="translate(85.7608642578125, 103.7608642578125)"><g id="2_1cwrt8odmuozt-stroke" fill="none" stroke-linecap="round" stroke-linejoin="round" stroke-miterlimit="4" stroke="#3cc583" stroke-width="2"><g><path d="M 47.275841 27.891273L 47.275841 18.417122C 47.275841 17.134512 46.153557 16.01223 44.870949 16.01223L 13.607353 16.01223C 12.324744 16.01223 11.202461 17.134512 11.202461 18.417122L 11.202461 44.870934C 11.202461 46.153542 12.324744 47.275826 13.607353 47.275826L 22.878149 47.275826M 11.202461 25.631798L 47.275841 25.631798M 11.202461 32.846474L 37.656273 32.846474M 11.202461 40.06115L 23.082884 40.06115M 20.822029 19.539404L 20.822029 11.202446M 10.000015 10M 23.082884 40.06115L 23.082884 25.631798M 37.656273 19.539404L 37.656273 11.202446M 44.870949 32.846474L 37.656273 43.668488L 47.275841 43.668488M 10.000015 10M 44.869347 32.846474L 44.869347 47.275826M 10.000015 10M 27.272593 41.202515L 33.345905 47.275826M 10.000015 10M 33.344303 41.202515L 27.271149 47.275826"></path></g></g></g><g id="g-root-sear_1d15b60dn1p1o-stroke" data-item-order="0" transform="translate(325.25, 103.25)"><g id="sear_1d15b60dn1p1o-stroke" fill="none" stroke-linecap="round" stroke-linejoin="round" stroke-miterlimit="4" stroke="#92bd39" stroke-width="2"><g><path d="M 11.573417 29.99523L 11.573417 17.946083C 11.573417 16.915312 12.409021 16.079708 13.439792 16.079708L 39.847187 16.079708C 40.877956 16.079708 41.713562 16.915312 41.713562 17.946083L 41.713562 20.743999M 11.573417 24.944166L 24.435604 24.944166M 23.191355 11.412125L 30.103855 11.412125C 31.134624 11.412125 31.970228 12.247729 31.970228 13.2785L 31.97023 16.076416L 31.97023 16.076416L 21.32498 16.076416L 21.32498 16.076416L 21.32498 13.2785C 21.324978 12.247729 22.160583 11.412125 23.191353 11.412125ZM 33.362606 33.069645C 33.362072 37.298542 36.790123 40.727028 41.01902 40.727028C 45.247917 40.727028 48.675968 37.298542 48.675438 33.069645C 48.675968 28.840748 45.247917 25.412266 41.01902 25.412266C 36.790123 25.412266 33.362072 28.840748 33.362606 33.069645M 37.835979 40.278397L 34.685856 48.087875M 17.389791 37.360336L 16.290375 35.576252C 16.03327 35.159004 15.562213 34.923161 15.074104 34.967293L 12.002979 35.240501C 11.660881 35.270592 11.344787 35.435478 11.124358 35.698818C 10.903931 35.962162 10.797259 36.302341 10.827854 36.644394L 11.688625 46.315315C 11.753016 47.026638 12.381056 47.551598 13.092521 47.488792L 24.697292 46.456852C 25.409977 46.39333 25.936157 45.763981 25.872417 45.051311L 25.240417 37.961063C 25.210323 37.618965 25.045439 37.302872 24.782097 37.082443C 24.518757 36.862015 24.178576 36.755344 23.836521 36.785938ZM 25.368792 21.693645L 28.194689 21.693645C 28.194689 21.693645 29.127874 21.693645 29.127874 22.626833L 29.127874 27.282896C 29.127874 27.282896 29.127874 28.216084 28.194689 28.216084L 25.368792 28.216084C 25.368792 28.216084 24.435604 28.216084 24.435604 27.282896L 24.435604 22.626833C 24.435604 22.626833 24.435604 21.693645 25.368792 21.693645M 29.12623 24.944166L 31.642708 24.944166"></path></g></g></g><g id="g-root-orde_13z9gw8dn8qgz-stroke" data-item-order="0" transform="translate(201, 135)"><g id="orde_13z9gw8dn8qgz-stroke" fill="none" stroke-linecap="round" stroke-linejoin="round" stroke-miterlimit="4" stroke="#1eabda" stroke-width="2"><g><path d="M 20.674 33.585999L 20.674 39.085999M 20.674 45.085999L 20.674 46.585999C 20.674 48.242855 22.017147 49.586002 23.674 49.586002L 25.174 49.585999M 31.174 49.585999L 36.674 49.585999M 44.753998 32.351997L 53.753998 32.351997C 53.753998 32.351997 56.753998 32.351997 56.753998 35.351997L 56.753998 53.351997C 56.753998 53.351997 56.753998 56.351997 53.753998 56.351997L 44.753998 56.351997C 44.753998 56.351997 41.753998 56.351997 41.753998 53.351997L 41.753998 35.351997C 41.753998 35.351997 41.753998 32.351997 44.753998 32.351997M 41.945999 50.75L 56.754002 50.75M 12.384 24.313999L 13.68 26.846001C 14.279093 28.017784 15.48395 28.755373 16.799999 28.756001L 31.832001 28.756001C 33.14949 28.756876 34.356255 28.019066 34.956001 26.846001L 36.251999 24.313999M 11.246 24.313999L 37.393997 24.313999M 14.087999 24.313999C 14.088175 18.663147 18.669147 14.082315 24.32 14.082315C 29.970856 14.082315 34.551826 18.663147 34.552002 24.313999M 24.32 14.082L 24.32 11.648"></path></g></g></g><g id="g-root-moni_18k2y14dmt9n2-stroke" data-item-order="0" transform="translate(445.2391357421875, 139.23919677734375)"><g id="moni_18k2y14dmt9n2-stroke" fill="none" stroke-linecap="round" stroke-linejoin="round" stroke-miterlimit="4" stroke="#e0cb15" stroke-width="2"><g><path d="M 29.34915 28.081161L 36.75946 20.670851M 37.731037 14.759068C 37.108505 15.377905 36.75877 16.219648 36.75946 17.097433L 36.75946 20.670851L 41.156246 20.670851C 42.034031 20.671545 42.875774 20.321806 43.494614 19.699276L 47.463249 15.730641L 41.699669 15.730641L 41.699669 10.790433ZM 34.28936 48.665363L 24.408941 48.665363C 25.823122 46.739048 26.677904 44.459625 26.879045 42.078419L 31.819254 42.078419C 32.030323 44.457382 32.884136 46.734215 34.28936 48.665363ZM 21.971771 48.731236L 37.582832 48.665363M 12.05842 37.13821L 46.639877 37.13821M 46.639877 23.964321L 46.639877 39.641251C 46.639877 41.005455 45.533978 42.111355 44.169777 42.111355L 14.528524 42.111355C 13.164324 42.111355 12.05842 41.005455 12.05842 39.641251L 12.05842 18.233681C 12.05842 16.86948 13.164324 15.763577 14.528524 15.763577L 30.040779 15.763577M 23.585573 28.081161C 23.585575 31.264299 26.166016 33.844742 29.349152 33.844742C 32.532284 33.844742 35.112728 31.264299 35.112728 28.081163C 35.112728 24.898027 32.532284 22.317587 29.349152 22.317587C 26.166016 22.317587 23.585575 24.898027 23.585575 28.081163"></path></g></g></g><g id="g-root-tx_bookinge_i0wuywdmxhqj-stroke" data-item-order="0" transform="translate(135, 231)"></g><g id="g-root-tx_itsuppor_1hgyzm0dmxhxl-stroke" data-item-order="0" transform="translate(411, 231)"></g></g></g></svg>