<svg height="152" viewBox="0 0 650 152" width="650" xmlns="http://www.w3.org/2000/svg"><g fill-rule="evenodd"><path d="m67 115h168v12h-168z" fill="#3cc583"/><path d="m235 115h168v12h-168z" fill="#4e88e7"/><path d="m403 115h149.713989v-6.5l18.286011 12.5-18.286011 12.5v-6.5h-149.713989z" fill="#92bd39"/></g><g font-family="Helvetica"><g font-size="15"><text fill="#374840" x="109" y="60">hybrid work.</text><text fill="#374840" x="80" y="42">gains from smoother</text><text fill="#374840" x="90" y="24">Initial productivity</text><text fill="#3a4455" x="269" y="60">cultural values</text><text fill="#3a4455" x="260" y="42">collaboration and</text><text fill="#3a4455" x="281" y="24">Increase in</text><text fill="#424736" x="451" y="60">and space</text><text fill="#424736" x="447" y="42">IT overhead</text><text fill="#424736" x="417" y="24">Optimise operations,</text></g><text fill="#3cc583" font-size="20" x="98" y="99">3-6 months</text><text fill="#4e88e7" font-size="20" x="260" y="99">6-12 months</text><text fill="#92bd39" font-size="20" x="432" y="99">12+ months</text></g><path d="m67 115h168v12h-168z" fill="none" stroke="#fff" stroke-linecap="round" stroke-linejoin="round" stroke-width="2"/><path d="m235 115h168v12h-168z" fill="none" stroke="#fff" stroke-linecap="round" stroke-linejoin="round" stroke-width="2"/><path d="m403 115h149.714294v-6.5l18.285706 12.5-18.285706 12.5v-6.5h-149.714294z" fill="none" stroke="#fff" stroke-linecap="round" stroke-linejoin="round" stroke-width="2"/></svg>