<?xml version="1.0" encoding="utf-8" standalone="yes"?>
<!DOCTYPE svg PUBLIC "-//W3C//DTD SVG 1.1//EN" "http://www.w3.org/Graphics/SVG/1.1/DTD/svg11.dtd">
<svg width="998" height="326" viewBox="0 0 998 326" style="fill:none;stroke:none;fill-rule:evenodd;clip-rule:evenodd;stroke-linecap:round;stroke-linejoin:round;stroke-miterlimit:1.5;" version="1.1" xmlns="http://www.w3.org/2000/svg" xmlns:xlink="http://www.w3.org/1999/xlink"><style id="fontImports">@import url("https://fonts.googleapis.com/css2?family=Roboto:wght@400;700&amp;display=block");</style><rect id="" x="0" y="0" width="998" height="326" style="fill: #ffffff;"></rect><g id="items" style="isolation: isolate"><g id="blend" style="mix-blend-mode: normal"><g id="g-root-tf_141qr4ogyu0i2-fill" data-item-order="-322704" transform="translate(-9, -9)"><g id="tf_141qr4ogyu0i2-fill" stroke="none" fill="#ffffff"><g><path d="M 10 10L 1006 10L 1006 334L 10 334Z"></path></g></g></g><g id="g-root-ro_mgpb6ggyy9ze-fill" data-item-order="-23400" transform="translate(399, 78)"><g id="ro_mgpb6ggyy9ze-fill" stroke="none" fill="#f5f5f5"><g><path d="M 34 10L 142 10C 142 10 166 10 166 34L 166 136C 166 136 166 160 142 160L 34 160C 34 160 10 160 10 136L 10 34C 10 34 10 10 34 10"></path></g></g></g><g id="g-root-ro_1lu9mmwgyzock-fill" data-item-order="-19440" transform="translate(603, 15)"><g id="ro_1lu9mmwgyzock-fill" stroke="none" fill="#faf0ff"><g><path d="M 22 10L 358 10C 358 10 370 10 370 22L 370 52C 370 52 370 64 358 64L 22 64C 22 64 10 64 10 52L 10 22C 10 22 10 10 22 10"></path></g></g></g><g id="g-root-ro_249uggyu2a1-fill" data-item-order="-18144" transform="translate(15, 165)"><g id="ro_249uggyu2a1-fill" stroke="none" fill="#f4ffdc"><g><path d="M 22 10L 334 10C 334 10 346 10 346 22L 346 52C 346 52 346 64 334 64L 22 64C 22 64 10 64 10 52L 10 22C 10 22 10 10 22 10"></path></g></g></g><g id="g-root-ro_hx54uwgyoeth-fill" data-item-order="-14904" transform="translate(603, 165)"><g id="ro_hx54uwgyoeth-fill" stroke="none" fill="#fffbda"><g><path d="M 22 10L 274 10C 274 10 286 10 286 22L 286 52C 286 52 286 64 274 64L 22 64C 22 64 10 64 10 52L 10 22C 10 22 10 10 22 10"></path></g></g></g><g id="g-root-ro_1heg7o8gysm4k-fill" data-item-order="-14256" transform="translate(87, 15)"><g id="ro_1heg7o8gysm4k-fill" stroke="none" fill="#ffeceb"><g><path d="M 22 10L 262 10C 262 10 274 10 274 22L 274 52C 274 52 274 64 262 64L 22 64C 22 64 10 64 10 52L 10 22C 10 22 10 10 22 10"></path></g></g></g><g id="g-root-cu_18gxs60gyu2vc-fill" data-item-order="0" transform="translate(627, 219)"></g><g id="g-root-cu_1lseajcgyu0i5-fill" data-item-order="0" transform="translate(555, 42)"></g><g id="g-root-cu_141qr4ogyu0i0-fill" data-item-order="0" transform="translate(309, 219)"></g><g id="g-root-cu_18gxs60gyu2vh-fill" data-item-order="0" transform="translate(309, 219)"></g><g id="g-root-tx_employee_mb37q0gypt6u-fill" data-item-order="0" transform="translate(147, 81)"><g id="tx_employee_mb37q0gypt6u-fill" stroke="none" fill="#484848"><g><text style="font-style: normal; font-variant-caps: normal; font-weight: normal; font-stretch: normal; font-size: 20px; line-height: normal; font-family: Roboto, sans-serif; font-size-adjust: none; font-kerning: auto; font-variant-alternates: normal; font-variant-ligatures: normal; font-variant-numeric: normal; font-variant-east-asian: normal; font-variant-position: normal; font-variant-emoji: normal; font-feature-settings: normal; font-optical-sizing: auto; font-variation-settings: normal; white-space: pre;"><tspan x="15.04" y="34" dominant-baseline="ideographic">Employee Focus</tspan></text></g></g></g><g id="g-root-cu_1q87snsgyu0hy-fill" data-item-order="0" transform="translate(309, 69)"></g><g id="g-root-tx_cultural_vb3jkogypuyp-fill" data-item-order="0" transform="translate(651, 117)"><g id="tx_cultural_vb3jkogypuyp-fill" stroke="none" fill="#484848"><g><text style="font-style: normal; font-variant-caps: normal; font-weight: normal; font-stretch: normal; font-size: 20px; line-height: normal; font-family: Roboto, sans-serif; font-size-adjust: none; font-kerning: auto; font-variant-alternates: normal; font-variant-ligatures: normal; font-variant-numeric: normal; font-variant-east-asian: normal; font-variant-position: normal; font-variant-emoji: normal; font-feature-settings: normal; font-optical-sizing: auto; font-variation-settings: normal; white-space: pre;"><tspan x="17.41" y="34" dominant-baseline="ideographic">Cultural Alignment</tspan></text></g></g></g><g id="g-root-tx_meetinge_18hk994gyr7d0-fill" data-item-order="0" transform="translate(135, 231)"><g id="tx_meetinge_18hk994gyr7d0-fill" stroke="none" fill="#484848"><g><text style="font-style: normal; font-variant-caps: normal; font-weight: normal; font-stretch: normal; font-size: 20px; line-height: normal; font-family: Roboto, sans-serif; font-size-adjust: none; font-kerning: auto; font-variant-alternates: normal; font-variant-ligatures: normal; font-variant-numeric: normal; font-variant-east-asian: normal; font-variant-position: normal; font-variant-emoji: normal; font-feature-settings: normal; font-optical-sizing: auto; font-variation-settings: normal; white-space: pre;"><tspan x="12.33" y="34" dominant-baseline="ideographic">Meeting Efficiency</tspan></text></g></g></g><g id="g-root-cu_1unetp4gyu2v6-fill" data-item-order="0" transform="translate(351, 42)"></g><g id="g-root-cu_1q87snsgyu0hs-fill" data-item-order="0" transform="translate(555, 178)"></g><g id="g-root-cu_1cwraaggyu22z-fill" data-item-order="0" transform="translate(627, 69)"></g><g id="g-root-cu_1cwraaggyu232-fill" data-item-order="0" transform="translate(627, 69)"></g><g id="g-root-tx_usersati_13zvbvcgyr94z-fill" data-item-order="0" transform="translate(651, 267)"><g id="tx_usersati_13zvbvcgyr94z-fill" stroke="none" fill="#484848"><g><text style="font-style: normal; font-variant-caps: normal; font-weight: normal; font-stretch: normal; font-size: 20px; line-height: normal; font-family: Roboto, sans-serif; font-size-adjust: none; font-kerning: auto; font-variant-alternates: normal; font-variant-ligatures: normal; font-variant-numeric: normal; font-variant-east-asian: normal; font-variant-position: normal; font-variant-emoji: normal; font-feature-settings: normal; font-optical-sizing: auto; font-variation-settings: normal; white-space: pre;"><tspan x="17.43" y="34" dominant-baseline="ideographic">User Satisfaction</tspan></text></g></g></g><g id="g-root-tx_serendip_qu13a0gyptkw-fill" data-item-order="0" transform="translate(651, 81)"><g id="tx_serendip_qu13a0gyptkw-fill" stroke="none" fill="#484848"><g><text style="font-style: normal; font-variant-caps: normal; font-weight: normal; font-stretch: normal; font-size: 20px; line-height: normal; font-family: Roboto, sans-serif; font-size-adjust: none; font-kerning: auto; font-variant-alternates: normal; font-variant-ligatures: normal; font-variant-numeric: normal; font-variant-east-asian: normal; font-variant-position: normal; font-variant-emoji: normal; font-feature-settings: normal; font-optical-sizing: auto; font-variation-settings: normal; white-space: pre;"><tspan x="13.36" y="34" dominant-baseline="ideographic">Serendipitous Interactions</tspan></text></g></g></g><g id="g-root-cu_1q87snsgyu0hv-fill" data-item-order="0" transform="translate(351, 178)"></g><g id="g-root-cu_18gxs60gyu2vf-fill" data-item-order="0" transform="translate(627, 219)"></g><g id="g-root-tx_hybridsc_qs5o0ogypukn-fill" data-item-order="0" transform="translate(135, 117)"><g id="tx_hybridsc_qs5o0ogypukn-fill" stroke="none" fill="#484848"><g><text style="font-style: normal; font-variant-caps: normal; font-weight: normal; font-stretch: normal; font-size: 20px; line-height: normal; font-family: Roboto, sans-serif; font-size-adjust: none; font-kerning: auto; font-variant-alternates: normal; font-variant-ligatures: normal; font-variant-numeric: normal; font-variant-east-asian: normal; font-variant-position: normal; font-variant-emoji: normal; font-feature-settings: normal; font-optical-sizing: auto; font-variation-settings: normal; white-space: pre;"><tspan x="13.22" y="34" dominant-baseline="ideographic">Hybrid Scheduling</tspan></text></g></g></g><g id="g-root-tx_unifiedb_zisvkogyr7r6-fill" data-item-order="0" transform="translate(651, 231)"><g id="tx_unifiedb_zisvkogyr7r6-fill" stroke="none" fill="#484848"><g><text style="font-style: normal; font-variant-caps: normal; font-weight: normal; font-stretch: normal; font-size: 20px; line-height: normal; font-family: Roboto, sans-serif; font-size-adjust: none; font-kerning: auto; font-variant-alternates: normal; font-variant-ligatures: normal; font-variant-numeric: normal; font-variant-east-asian: normal; font-variant-position: normal; font-variant-emoji: normal; font-feature-settings: normal; font-optical-sizing: auto; font-variation-settings: normal; white-space: pre;"><tspan x="12.16" y="34" dominant-baseline="ideographic">Unified Booking</tspan></text></g></g></g><g id="g-root-tx_resource_1cympjsgyr8qt-fill" data-item-order="0" transform="translate(147, 267)"><g id="tx_resource_1cympjsgyr8qt-fill" stroke="none" fill="#484848"><g><text style="font-style: normal; font-variant-caps: normal; font-weight: normal; font-stretch: normal; font-size: 20px; line-height: normal; font-family: Roboto, sans-serif; font-size-adjust: none; font-kerning: auto; font-variant-alternates: normal; font-variant-ligatures: normal; font-variant-numeric: normal; font-variant-east-asian: normal; font-variant-position: normal; font-variant-emoji: normal; font-feature-settings: normal; font-optical-sizing: auto; font-variation-settings: normal; white-space: pre;"><tspan x="14.06" y="34" dominant-baseline="ideographic">Resource Saving</tspan></text></g></g></g><g id="g-root-cu_1cwraaggyu22x-fill" data-item-order="0" transform="translate(309, 69)"></g><g id="g-root-tx_corporat_qune1kgyyayo-fill" data-item-order="1000000000" transform="translate(423, 156)"><g id="tx_corporat_qune1kgyyayo-fill" stroke="none" fill="#484848"><g><text style="font-style: normal; font-variant-caps: normal; font-weight: normal; font-stretch: normal; font-size: 20px; line-height: normal; font-family: Roboto, sans-serif; font-size-adjust: none; font-kerning: auto; font-variant-alternates: normal; font-variant-ligatures: normal; font-variant-numeric: normal; font-variant-east-asian: normal; font-variant-position: normal; font-variant-emoji: normal; font-feature-settings: normal; font-optical-sizing: auto; font-variation-settings: normal; white-space: pre;"><tspan x="16.96" y="34" dominant-baseline="ideographic">Corporate </tspan><tspan x="24.96" y="58" dominant-baseline="ideographic">Benefits</tspan></text></g></g></g><g id="g-root-tx_improved_1lqiva0gyu1hr-fill" data-item-order="1000000000" transform="translate(27, 180)"><g id="tx_improved_1lqiva0gyu1hr-fill" stroke="none" fill="#92bd39"><g><text style="font-style: normal; font-variant-caps: normal; font-weight: normal; font-stretch: normal; font-size: 20px; line-height: normal; font-family: Roboto, sans-serif; font-size-adjust: none; font-kerning: auto; font-variant-alternates: normal; font-variant-ligatures: normal; font-variant-numeric: normal; font-variant-east-asian: normal; font-variant-position: normal; font-variant-emoji: normal; font-feature-settings: normal; font-optical-sizing: auto; font-variation-settings: normal; white-space: pre;"><tspan x="12.25" y="34" dominant-baseline="ideographic">Improved IT Support Efficiency</tspan></text></g></g></g><g id="g-root-moni_8xra3cgyu1hc-fill" data-item-order="1000000000" transform="translate(309, 177)"></g><g id="g-root-wire_vccbfcgyy96p-fill" data-item-order="1000000000" transform="translate(453, 102)"></g><g id="g-root-moni_hx54uwgyoetg-fill" data-item-order="1000000000" transform="translate(615, 177)"></g><g id="g-root-tx_streamli_hv9plkgyoft7-fill" data-item-order="1000000000" transform="translate(651, 180)"><g id="tx_streamli_hv9plkgyoft7-fill" stroke="none" fill="#ab9e2b"><g><text style="font-style: normal; font-variant-caps: normal; font-weight: normal; font-stretch: normal; font-size: 20px; line-height: normal; font-family: Roboto, sans-serif; font-size-adjust: none; font-kerning: auto; font-variant-alternates: normal; font-variant-ligatures: normal; font-variant-numeric: normal; font-variant-east-asian: normal; font-variant-position: normal; font-variant-emoji: normal; font-feature-settings: normal; font-optical-sizing: auto; font-variation-settings: normal; white-space: pre;"><tspan x="13.33" y="34" dominant-baseline="ideographic">Streamlined Operations</tspan></text></g></g></g><g id="g-root-tx_stronger_1lse7dkgyzpca-fill" data-item-order="1000000000" transform="translate(651, 30)"><g id="tx_stronger_1lse7dkgyzpca-fill" stroke="none" fill="#ba5de5"><g><text style="font-style: normal; font-variant-caps: normal; font-weight: normal; font-stretch: normal; font-size: 20px; line-height: normal; font-family: Roboto, sans-serif; font-size-adjust: none; font-kerning: auto; font-variant-alternates: normal; font-variant-ligatures: normal; font-variant-numeric: normal; font-variant-east-asian: normal; font-variant-position: normal; font-variant-emoji: normal; font-feature-settings: normal; font-optical-sizing: auto; font-variation-settings: normal; white-space: pre;"><tspan x="17.2" y="34" dominant-baseline="ideographic">Stronger Cultural Reinforcement</tspan></text></g></g></g><g id="g-root-2_1qa34rcgyznkb-fill" data-item-order="1000000000" transform="translate(615, 27)"></g><g id="g-root-peop_1ltn8pkgysoi3-fill" data-item-order="1000000000" transform="translate(309, 27)"></g><g id="g-root-tx_enhanced_1hcksewgysn4a-fill" data-item-order="1000000000" transform="translate(99, 30)"><g id="tx_enhanced_1hcksewgysn4a-fill" stroke="none" fill="#e55753"><g><text style="font-style: normal; font-variant-caps: normal; font-weight: normal; font-stretch: normal; font-size: 20px; line-height: normal; font-family: Roboto, sans-serif; font-size-adjust: none; font-kerning: auto; font-variant-alternates: normal; font-variant-ligatures: normal; font-variant-numeric: normal; font-variant-east-asian: normal; font-variant-position: normal; font-variant-emoji: normal; font-feature-settings: normal; font-optical-sizing: auto; font-variation-settings: normal; white-space: pre;"><tspan x="12.5" y="34" dominant-baseline="ideographic">Enhanced Productivity</tspan></text></g></g></g><g id="g-root-tf_141qr4ogyu0i2-stroke" data-item-order="-322704" transform="translate(-9, -9)"></g><g id="g-root-ro_mgpb6ggyy9ze-stroke" data-item-order="-23400" transform="translate(399, 78)"><g id="ro_mgpb6ggyy9ze-stroke" fill="none" stroke-linecap="round" stroke-linejoin="round" stroke-miterlimit="4" stroke="#484848" stroke-width="2"><g><path d="M 34 10L 142 10C 142 10 166 10 166 34L 166 136C 166 136 166 160 142 160L 34 160C 34 160 10 160 10 136L 10 34C 10 34 10 10 34 10"></path></g></g></g><g id="g-root-ro_1lu9mmwgyzock-stroke" data-item-order="-19440" transform="translate(603, 15)"><g id="ro_1lu9mmwgyzock-stroke" fill="none" stroke-linecap="round" stroke-linejoin="round" stroke-miterlimit="4" stroke="#ba5de5" stroke-width="2"><g><path d="M 22 10L 358 10C 358 10 370 10 370 22L 370 52C 370 52 370 64 358 64L 22 64C 22 64 10 64 10 52L 10 22C 10 22 10 10 22 10"></path></g></g></g><g id="g-root-ro_249uggyu2a1-stroke" data-item-order="-18144" transform="translate(15, 165)"><g id="ro_249uggyu2a1-stroke" fill="none" stroke-linecap="round" stroke-linejoin="round" stroke-miterlimit="4" stroke="#92bd39" stroke-width="2"><g><path d="M 22 10L 334 10C 334 10 346 10 346 22L 346 52C 346 52 346 64 334 64L 22 64C 22 64 10 64 10 52L 10 22C 10 22 10 10 22 10"></path></g></g></g><g id="g-root-ro_hx54uwgyoeth-stroke" data-item-order="-14904" transform="translate(603, 165)"><g id="ro_hx54uwgyoeth-stroke" fill="none" stroke-linecap="round" stroke-linejoin="round" stroke-miterlimit="4" stroke="#e0cb15" stroke-width="2"><g><path d="M 22 10L 274 10C 274 10 286 10 286 22L 286 52C 286 52 286 64 274 64L 22 64C 22 64 10 64 10 52L 10 22C 10 22 10 10 22 10"></path></g></g></g><g id="g-root-ro_1heg7o8gysm4k-stroke" data-item-order="-14256" transform="translate(87, 15)"><g id="ro_1heg7o8gysm4k-stroke" fill="none" stroke-linecap="round" stroke-linejoin="round" stroke-miterlimit="4" stroke="#e55753" stroke-width="2"><g><path d="M 22 10L 262 10C 262 10 274 10 274 22L 274 52C 274 52 274 64 262 64L 22 64C 22 64 10 64 10 52L 10 22C 10 22 10 10 22 10"></path></g></g></g><g id="g-root-cu_18gxs60gyu2vc-stroke" data-item-order="0" transform="translate(627, 219)"><g id="cu_18gxs60gyu2vc-stroke" fill="none" stroke-linecap="round" stroke-linejoin="round" stroke-miterlimit="4" stroke="#969696" stroke-width="2" stroke-dasharray="5.0, 7.0"><g><path d="M 10 10L 10 22L 10 34L 19 34L 28 34"></path></g></g></g><g id="g-root-cu_1lseajcgyu0i5-stroke" data-item-order="0" transform="translate(555, 42)"><g id="cu_1lseajcgyu0i5-stroke" fill="none" stroke-linecap="round" stroke-linejoin="round" stroke-miterlimit="4" stroke="#969696" stroke-width="2" stroke-dasharray="5.0, 7.0"><g><path d="M 10 96L 13 96L 13.1 96C 24.642748 96.000003 33.999998 86.642755 33.999998 75.100003L 34 75L 34 30.9C 33.999999 19.357249 43.357248 10.000001 54.899999 10.000002L 55 10L 58 10"></path></g></g></g><g id="g-root-cu_141qr4ogyu0i0-stroke" data-item-order="0" transform="translate(309, 219)"><g id="cu_141qr4ogyu0i0-stroke" fill="none" stroke-linecap="round" stroke-linejoin="round" stroke-miterlimit="4" stroke="#969696" stroke-width="2" stroke-dasharray="5.0, 7.0"><g><path d="M 28 10L 28 17.5L 28 58C 27.999999 64.627415 22.627416 69.999998 16 69.999998L 15.9 70L 10 70"></path></g></g></g><g id="g-root-cu_18gxs60gyu2vh-stroke" data-item-order="0" transform="translate(309, 219)"><g id="cu_18gxs60gyu2vh-stroke" fill="none" stroke-linecap="round" stroke-linejoin="round" stroke-miterlimit="4" stroke="#969696" stroke-width="2" stroke-dasharray="5.0, 7.0"><g><path d="M 28 10L 28 22L 28 34L 19 34L 10 34"></path></g></g></g><g id="g-root-tx_employee_mb37q0gypt6u-stroke" data-item-order="0" transform="translate(147, 81)"></g><g id="g-root-cu_1q87snsgyu0hy-stroke" data-item-order="0" transform="translate(309, 69)"><g id="cu_1q87snsgyu0hy-stroke" fill="none" stroke-linecap="round" stroke-linejoin="round" stroke-miterlimit="4" stroke="#969696" stroke-width="2" stroke-dasharray="5.0, 7.0"><g><path d="M 28 10L 28 22L 28 34L 19 34L 10 34"></path></g></g></g><g id="g-root-tx_cultural_vb3jkogypuyp-stroke" data-item-order="0" transform="translate(651, 117)"></g><g id="g-root-tx_meetinge_18hk994gyr7d0-stroke" data-item-order="0" transform="translate(135, 231)"></g><g id="g-root-cu_1unetp4gyu2v6-stroke" data-item-order="0" transform="translate(351, 42)"><g id="cu_1unetp4gyu2v6-stroke" fill="none" stroke-linecap="round" stroke-linejoin="round" stroke-miterlimit="4" stroke="#969696" stroke-width="2" stroke-dasharray="5.0, 7.0"><g><path d="M 58 96L 55 96L 54.9 96C 43.357245 95.999996 33.999997 86.642747 33.999997 75.099997L 34 75L 34 30.9C 33.999998 19.357248 24.64275 10 13.1 10L 13 10L 10 10"></path></g></g></g><g id="g-root-cu_1q87snsgyu0hs-stroke" data-item-order="0" transform="translate(555, 178)"><g id="cu_1q87snsgyu0hs-stroke" fill="none" stroke-linecap="round" stroke-linejoin="round" stroke-miterlimit="4" stroke="#969696" stroke-width="2" stroke-dasharray="5.0, 7.0"><g><path d="M 10 10L 13 10L 13.1 10C 16.47715 10.00393 20.199416 10.613028 24.1 11.8C 26.434787 12.503612 29.936878 14.343094 34 16.999999C 38.063122 19.656905 41.565214 21.496387 43.900001 22.199999C 47.800584 23.386973 51.52285 23.996071 54.900001 24.000001L 55 24L 58 24"></path></g></g></g><g id="g-root-cu_1cwraaggyu22z-stroke" data-item-order="0" transform="translate(627, 69)"><g id="cu_1cwraaggyu22z-stroke" fill="none" stroke-linecap="round" stroke-linejoin="round" stroke-miterlimit="4" stroke="#969696" stroke-width="2" stroke-dasharray="5.0, 7.0"><g><path d="M 10 10L 10 22L 10 34L 19 34L 28 34"></path></g></g></g><g id="g-root-cu_1cwraaggyu232-stroke" data-item-order="0" transform="translate(627, 69)"><g id="cu_1cwraaggyu232-stroke" fill="none" stroke-linecap="round" stroke-linejoin="round" stroke-miterlimit="4" stroke="#969696" stroke-width="2" stroke-dasharray="5.0, 7.0"><g><path d="M 10 10L 10 17.5L 10 58C 10.000002 64.627417 15.372585 70 22.000002 69.999999L 22.1 70L 28 70"></path></g></g></g><g id="g-root-tx_usersati_13zvbvcgyr94z-stroke" data-item-order="0" transform="translate(651, 267)"></g><g id="g-root-tx_serendip_qu13a0gyptkw-stroke" data-item-order="0" transform="translate(651, 81)"></g><g id="g-root-cu_1q87snsgyu0hv-stroke" data-item-order="0" transform="translate(351, 178)"><g id="cu_1q87snsgyu0hv-stroke" fill="none" stroke-linecap="round" stroke-linejoin="round" stroke-miterlimit="4" stroke="#969696" stroke-width="2" stroke-dasharray="5.0, 7.0"><g><path d="M 58 10L 55 10L 54.9 10C 51.522851 10.003929 47.800585 10.613027 43.900001 11.799999C 41.565213 12.503613 38.063122 14.343095 34 17.000001C 29.936878 19.656907 26.434787 21.496389 24.1 22.200001C 20.199417 23.386972 16.477151 23.99607 13.100001 24L 13 24L 10 24"></path></g></g></g><g id="g-root-cu_18gxs60gyu2vf-stroke" data-item-order="0" transform="translate(627, 219)"><g id="cu_18gxs60gyu2vf-stroke" fill="none" stroke-linecap="round" stroke-linejoin="round" stroke-miterlimit="4" stroke="#969696" stroke-width="2" stroke-dasharray="5.0, 7.0"><g><path d="M 10 10L 10 17.5L 10 58C 10.000002 64.627417 15.372585 70 22.000002 69.999999L 22.1 70L 28 70"></path></g></g></g><g id="g-root-tx_hybridsc_qs5o0ogypukn-stroke" data-item-order="0" transform="translate(135, 117)"></g><g id="g-root-tx_unifiedb_zisvkogyr7r6-stroke" data-item-order="0" transform="translate(651, 231)"></g><g id="g-root-tx_resource_1cympjsgyr8qt-stroke" data-item-order="0" transform="translate(147, 267)"></g><g id="g-root-cu_1cwraaggyu22x-stroke" data-item-order="0" transform="translate(309, 69)"><g id="cu_1cwraaggyu22x-stroke" fill="none" stroke-linecap="round" stroke-linejoin="round" stroke-miterlimit="4" stroke="#969696" stroke-width="2" stroke-dasharray="5.0, 7.0"><g><path d="M 28 10L 28 17.5L 28 58C 27.999999 64.627415 22.627416 69.999998 16 69.999998L 15.9 70L 10 70"></path></g></g></g><g id="g-root-tx_corporat_qune1kgyyayo-stroke" data-item-order="1000000000" transform="translate(423, 156)"></g><g id="g-root-tx_improved_1lqiva0gyu1hr-stroke" data-item-order="1000000000" transform="translate(27, 180)"></g><g id="g-root-moni_8xra3cgyu1hc-stroke" data-item-order="1000000000" transform="translate(309, 177)"><g id="moni_8xra3cgyu1hc-stroke" fill="none" stroke-linecap="round" stroke-linejoin="round" stroke-miterlimit="4" stroke="#92bd39" stroke-width="2"><g><path d="M 24.6875 23.724998L 30.3125 18.1M 31.049999 13.6125C 30.57745 14.082246 30.311974 14.721194 30.3125 15.3875L 30.3125 18.1L 33.650002 18.1C 34.316307 18.100529 34.955254 17.835049 35.424999 17.362499L 38.4375 14.35L 34.0625 14.35L 34.0625 10.6ZM 28.4375 39.349998L 20.9375 39.349998C 22.010973 37.887775 22.659819 36.15752 22.8125 34.349998L 26.5625 34.349998C 26.722719 36.155815 27.370827 37.884106 28.4375 39.349998ZM 19.0875 39.400002L 30.9375 39.349998M 11.5625 30.599998L 37.8125 30.599998M 37.8125 20.599998L 37.8125 32.5C 37.8125 33.535534 36.973034 34.375 35.9375 34.375L 13.4375 34.375C 12.401966 34.375 11.5625 33.535534 11.5625 32.5L 11.5625 16.25C 11.5625 15.214466 12.401966 14.375 13.4375 14.375L 25.2125 14.375M 20.3125 23.724998C 20.312502 26.141247 22.271255 28.1 24.687502 28.1C 27.103746 28.1 29.062502 26.141247 29.062502 23.725C 29.062502 21.308754 27.103746 19.35 24.687502 19.35C 22.271255 19.35 20.312502 21.308754 20.312502 23.725"></path></g></g></g><g id="g-root-wire_vccbfcgyy96p-stroke" data-item-order="1000000000" transform="translate(453, 102)"><g id="wire_vccbfcgyy96p-stroke" fill="none" stroke-linecap="round" stroke-linejoin="round" stroke-miterlimit="4" stroke="#484848" stroke-width="2"><g><path d="M 15 15.940001C 15 18.701424 17.238577 20.940001 20 20.940001C 22.761425 20.940001 25 18.701424 25 15.940001C 25 13.178576 22.761425 10.940001 20 10.940001C 17.238577 10.940001 15 13.178576 15 15.940001M 34 36.940002L 56 36.940002M 57 22L 53.48 31.68C 53.193699 32.471893 52.442059 32.999641 51.599998 33L 42 33M 43 36.940002L 43 56.939999M 14 45.939999L 11 56.939999M 11 26.940001L 14 45.939999L 20 45.939999M 32 55.119999L 28.799999 47.759998C 28.299385 46.669006 27.200167 45.978069 26 46L 20 46C 18.343147 46 17 44.656857 17 43L 17 27C 17.003565 25.731747 17.804272 24.602749 19 24.18C 20.178429 23.761303 21.493048 24.101837 22.32 25.040001L 25.880001 29.200001C 26.835159 30.30261 28.221209 30.937275 29.68 30.940001L 35 30.940001C 36.656853 30.940001 38 32.283146 38 33.940002C 38 35.596855 36.656853 36.940002 35 36.940002L 29.68 36.940002C 27.264915 36.944649 24.916172 36.150009 23 34.68L 23 40L 26 40C 29.6059 39.992516 32.866554 42.142658 34.279999 45.459999L 37.48 52.82C 38.077194 53.827171 38.033829 55.089752 37.368946 56.053577C 36.704063 57.017403 35.539177 57.506313 34.385578 57.305721C 33.231979 57.105129 32.300507 56.251694 32 55.120003ZM 44 22.84C 44.276142 22.84 44.5 23.063858 44.5 23.34C 44.5 23.616142 44.276142 23.84 44 23.84C 43.723858 23.84 43.5 23.616142 43.5 23.34C 43.5 23.063858 43.723858 22.84 44 22.84M 52 13.76C 47.329037 10.000938 40.670967 10.000938 36 13.76M 39.34 18.6C 42.050945 16.382454 45.949055 16.382454 48.66 18.6"></path></g></g></g><g id="g-root-moni_hx54uwgyoetg-stroke" data-item-order="1000000000" transform="translate(615, 177)"><g id="moni_hx54uwgyoetg-stroke" fill="none" stroke-linecap="round" stroke-linejoin="round" stroke-miterlimit="4" stroke="#ab9e2b" stroke-width="2"><g><path d="M 24.6875 37.8125C 24.6875 38.5625 24.1875 39.0625 23.4375 39.0625L 12.1875 39.0625C 11.4375 39.0625 10.9375 38.5625 10.9375 37.8125L 10.9375 30.3125C 10.9375 29.5625 11.4375 29.0625 12.1875 29.0625L 23.4375 29.0625C 24.1875 29.0625 24.6875 29.5625 24.6875 30.3125L 24.6875 37.8125ZM 17.8125 34.6875C 17.467325 34.6875 17.1875 34.407623 17.1875 34.0625C 17.1875 33.717377 17.467325 33.4375 17.8125 33.4375M 17.812538 34.6875C 18.157713 34.6875 18.437538 34.407623 18.437538 34.0625C 18.437538 33.717377 18.157713 33.4375 17.812538 33.4375M 10 10M 32.5625 37.75L 29.6875 35L 32.5625 32.25M 37.1875 31.25C 37.1875 33.375 35.5625 35 33.4375 35L 29.6875 35M 10 10M 17.8125 12.249988L 20.6875 14.999988L 17.8125 17.749987M 13.187488 18.75C 13.187488 16.625 14.812488 15 16.937489 15L 20.687487 15M 39.0625 20.9375C 39.0625 21.6875 38.5625 22.1875 37.8125 22.1875L 26.5625 22.1875C 25.8125 22.1875 25.3125 21.6875 25.3125 20.9375L 25.3125 12.1875C 25.3125 11.4375 25.8125 10.9375 26.5625 10.9375L 37.8125 10.9375C 38.5625 10.9375 39.0625 11.4375 39.0625 12.1875L 39.0625 20.9375ZM 32.1875 22.1875L 32.1875 25.9375M 29.6875 25.9375L 34.6875 25.9375M 10 10M 28.875 18.4375L 30.5 15.5625L 33.625 18.0625L 35.5 14.6875"></path></g></g></g><g id="g-root-tx_streamli_hv9plkgyoft7-stroke" data-item-order="1000000000" transform="translate(651, 180)"></g><g id="g-root-tx_stronger_1lse7dkgyzpca-stroke" data-item-order="1000000000" transform="translate(651, 30)"></g><g id="g-root-2_1qa34rcgyznkb-stroke" data-item-order="1000000000" transform="translate(615, 27)"><g id="2_1qa34rcgyznkb-stroke" fill="none" stroke-linecap="round" stroke-linejoin="round" stroke-miterlimit="4" stroke="#ba5de5" stroke-width="2"><g><path d="M 34.862373 34.745377C 29.415625 40.192123 20.584686 40.192123 15.137938 34.745377M 34.862373 34.745377C 29.415625 40.192123 20.584686 40.192123 15.137938 34.745377M 15.668663 15.254675C 21.115414 9.807925 29.946375 9.807925 35.393127 15.254675M 15.668663 15.254675C 21.115414 9.807925 29.946375 9.807925 35.393127 15.254675M 10 10M 18.550249 34.429501L 15.133637 34.429623L 15.133637 37.846123M 10 10M 31.980751 15.570538L 35.397373 15.570351L 35.397373 12.153925M 37.173248 30.813L 37.173248 27.510626C 37.901627 26.835876 38.4095 25.957125 38.630749 24.98925C 38.852001 24.021376 38.776249 23.009251 38.413376 22.085087C 38.050499 21.160925 37.417252 20.367662 36.596626 19.808899C 35.775875 19.250126 34.805752 18.951824 33.812874 18.95295C 30.049875 18.95295 29.237625 22.051313 27.896126 25.531376C 27.873125 25.591249 27.865 25.655876 27.872501 25.7195C 27.879999 25.783251 27.903 25.84425 27.939251 25.897125C 27.975624 25.950001 28.02425 25.99325 28.080999 26.023251C 28.137749 26.053125 28.200876 26.068874 28.265001 26.069L 29.2665 26.069L 29.2665 27.650249C 29.2665 28.06975 29.433125 28.471874 29.72975 28.768499C 30.026249 29.065001 30.428501 29.231625 30.847876 29.231625L 31.638624 29.231625L 31.638624 30.813M 12.82675 30.813L 12.82675 27.510626C 12.0984 26.835876 11.59045 25.957125 11.369225 24.98925C 11.147992 24.021376 11.223772 23.009251 11.586662 22.085087C 11.949562 21.160925 12.5827 20.367662 13.403399 19.808899C 14.2241 19.250126 15.194224 18.951824 16.187088 18.95295C 19.95015 18.95295 20.762438 22.051313 22.103937 25.531376C 22.126925 25.591249 22.135 25.655876 22.127474 25.7195C 22.119938 25.783251 22.097038 25.84425 22.060738 25.897125C 22.024426 25.950001 21.9758 25.99325 21.91905 26.023251C 21.862299 26.053125 21.799124 26.068874 21.734962 26.069L 20.733437 26.069L 20.733437 27.650249C 20.733437 28.06975 20.566837 28.471874 20.270275 28.768499C 19.973724 29.065001 19.571499 29.231625 19.1521 29.231625L 18.361437 29.231625L 18.361437 30.813"></path></g></g></g><g id="g-root-peop_1ltn8pkgysoi3-stroke" data-item-order="1000000000" transform="translate(309, 27)"><g id="peop_1ltn8pkgysoi3-stroke" fill="none" stroke-linecap="round" stroke-linejoin="round" stroke-miterlimit="4" stroke="#e55753" stroke-width="2"><g><path d="M 11.875 21.875L 38.125 21.875C 38.125 21.875 39.375 21.875 39.375 23.125L 39.375 38.125C 39.375 38.125 39.375 39.375 38.125 39.375L 11.875 39.375C 11.875 39.375 10.625 39.375 10.625 38.125L 10.625 23.125C 10.625 23.125 10.625 21.875 11.875 21.875M 16.875 10.625L 16.875 19.375M 20.625 14.375L 16.875 10.625L 13.125 14.375M 33.125 19.375L 33.125 10.625M 29.375 15.625L 33.125 19.375L 36.875 15.625M 14.377501 26.875C 14.377501 27.910534 15.216967 28.75 16.252501 28.75C 17.288034 28.75 18.127501 27.910534 18.127501 26.875C 18.127501 25.839466 17.288034 25 16.252501 25C 15.216967 25 14.377501 25.839466 14.377501 26.875M 19.375 32.5C 19.375 30.774109 17.975889 29.375 16.25 29.375C 14.52411 29.375 13.125 30.774109 13.125 32.5L 13.125 33.125L 14.375 33.125L 15 36.875L 17.5 36.875L 18.125 33.125L 19.375 33.125ZM 23.127501 26.875C 23.127501 27.910534 23.966967 28.75 25.002501 28.75C 26.038034 28.75 26.877501 27.910534 26.877501 26.875C 26.877501 25.839466 26.038034 25 25.002501 25C 23.966967 25 23.127501 25.839466 23.127501 26.875M 28.125 32.5C 28.125 30.774109 26.725891 29.375 25 29.375C 23.274111 29.375 21.875 30.774109 21.875 32.5L 21.875 33.125L 23.125 33.125L 23.75 36.875L 26.25 36.875L 26.875 33.125L 28.125 33.125ZM 31.877501 26.875C 31.877501 27.910534 32.716965 28.75 33.752502 28.75C 34.788033 28.75 35.627502 27.910534 35.627502 26.875C 35.627502 25.839466 34.788033 25 33.752502 25C 32.716965 25 31.877501 25.839466 31.877501 26.875M 36.875 32.5C 36.875 30.774109 35.475891 29.375 33.75 29.375C 32.024109 29.375 30.625 30.774109 30.625 32.5L 30.625 33.125L 31.875 33.125L 32.5 36.875L 35 36.875L 35.625 33.125L 36.875 33.125Z"></path></g></g></g><g id="g-root-tx_enhanced_1hcksewgysn4a-stroke" data-item-order="1000000000" transform="translate(99, 30)"></g></g></g></svg>