<?xml version="1.0" encoding="utf-8" standalone="yes"?>
<!DOCTYPE svg PUBLIC "-//W3C//DTD SVG 1.1//EN" "http://www.w3.org/Graphics/SVG/1.1/DTD/svg11.dtd">
<svg width="745" height="332" viewBox="0 0 745 332" style="fill:none;stroke:none;fill-rule:evenodd;clip-rule:evenodd;stroke-linecap:round;stroke-linejoin:round;stroke-miterlimit:1.5;" version="1.1" xmlns="http://www.w3.org/2000/svg" xmlns:xlink="http://www.w3.org/1999/xlink"><style id="fontImports">@import url("https://fonts.googleapis.com/css2?family=Roboto:wght@400;700&amp;display=block");</style><rect id="" x="0" y="0" width="745" height="332" style="fill: #ffffff;"></rect><g id="items" style="isolation: isolate"><g id="blend" style="mix-blend-mode: normal"><g id="g-root-tf_1cymz08dmw5c4-fill" data-item-order="-241560" transform="translate(2, -9)"><g id="tf_1cymz08dmw5c4-fill" stroke="none" fill="#ffffff"><g><path d="M 10 10L 742 10L 742 340L 10 340Z"></path></g></g></g><g id="g-root-3.cu_sy_1cw52nsdmp3pm-fill" data-item-order="-92154" transform="translate(362, 33)"><g id="3.cu_sy_1cw52nsdmp3pm-fill" stroke="none" fill="#e55753"><g><path d="M 10 226.009C 39.147 204.116 58 169.26 58 130C 58 90.74 39.147 55.884 10 33.991C 30.056 18.927 54.985 10 82 10C 148.274 10 202 63.726 202 130C 202 196.274 148.274 250 82 250C 54.985 250 30.056 241.073 10 226.009Z"></path></g></g></g><g id="g-root-1.cu_sy_1cw52nsdmp3pn-fill" data-item-order="-92150" transform="translate(170, 33)"><g id="1.cu_sy_1cw52nsdmp3pn-fill" stroke="none" fill="#4e88e7"><g><path d="M 202 33.991C 172.853 55.884 154 90.74 154 130C 154 169.26 172.853 204.116 202 226.009C 181.944 241.073 157.015 250 130 250C 63.726 250 10 196.274 10 130C 10 63.726 63.726 10 130 10C 157.015 10 181.944 18.927 202 33.991Z"></path></g></g></g><g id="g-root-2.cu_sy_1cw52nsdmp3po-fill" data-item-order="-92146" transform="translate(314, 57)"><g id="2.cu_sy_1cw52nsdmp3po-fill" stroke="none" fill="#ba5de5"><g><path d="M 58 202.018C 87.147 180.125 106 145.268 106 106.009C 106 66.749 87.147 31.893 58 10C 28.853 31.893 10 66.749 10 106.009C 10 145.268 28.853 180.125 58 202.018Z"></path></g></g></g><g id="g-root-tx_lostoppo_zlxigodmw4qz-fill" data-item-order="0" transform="translate(272, -3)"><g id="tx_lostoppo_zlxigodmw4qz-fill" stroke="none" fill="#4f3d58"><g><text style="font-style: normal; font-variant-caps: normal; font-weight: normal; font-stretch: normal; font-size: 20px; line-height: normal; font-family: Roboto, sans-serif; font-size-adjust: none; font-kerning: auto; font-variant-alternates: normal; font-variant-ligatures: normal; font-variant-numeric: normal; font-variant-east-asian: normal; font-variant-position: normal; font-variant-emoji: normal; font-feature-settings: normal; font-optical-sizing: auto; font-variation-settings: normal; white-space: pre;"><tspan x="17.32" y="34" dominant-baseline="ideographic">Lost Opportunities</tspan></text></g></g></g><g id="g-root-tx_producti_1uoo1bsdmp3im-fill" data-item-order="0" transform="translate(-10, 105)"><g id="tx_producti_1uoo1bsdmp3im-fill" stroke="none" fill="#3a4455"><g><text style="font-style: normal; font-variant-caps: normal; font-weight: normal; font-stretch: normal; font-size: 20px; line-height: normal; font-family: Roboto, sans-serif; font-size-adjust: none; font-kerning: auto; font-variant-alternates: normal; font-variant-ligatures: normal; font-variant-numeric: normal; font-variant-east-asian: normal; font-variant-position: normal; font-variant-emoji: normal; font-feature-settings: normal; font-optical-sizing: auto; font-variation-settings: normal; white-space: pre;"><tspan x="98" y="46" dominant-baseline="ideographic">Reduced </tspan><tspan x="32" y="70" dominant-baseline="ideographic">Productivity and </tspan><tspan x="57" y="94" dominant-baseline="ideographic">Collaboration</tspan></text></g></g></g><g id="g-root-meet_146qta0dmtcld-fill" data-item-order="0" transform="translate(230, 129)"></g><g id="g-root-lapt_dcc3i0dmrxu7-fill" data-item-order="0" transform="translate(338, 129)"></g><g id="g-root-wifi_1cz9g3cdmp4w0-fill" data-item-order="0" transform="translate(446, 129)"></g><g id="g-root-tx_disjoint_18gbkjcdmp4hx-fill" data-item-order="0" transform="translate(566, 117)"><g id="tx_disjoint_18gbkjcdmp4hx-fill" stroke="none" fill="#543a3a"><g><text style="font-style: normal; font-variant-caps: normal; font-weight: normal; font-stretch: normal; font-size: 20px; line-height: normal; font-family: Roboto, sans-serif; font-size-adjust: none; font-kerning: auto; font-variant-alternates: normal; font-variant-ligatures: normal; font-variant-numeric: normal; font-variant-east-asian: normal; font-variant-position: normal; font-variant-emoji: normal; font-feature-settings: normal; font-optical-sizing: auto; font-variation-settings: normal; white-space: pre;"><tspan x="12" y="34" dominant-baseline="ideographic">Disjointed </tspan><tspan x="12" y="58" dominant-baseline="ideographic">Meeting Room </tspan><tspan x="12" y="82" dominant-baseline="ideographic">Services</tspan></text></g></g></g><g id="g-root-tf_1cymz08dmw5c4-stroke" data-item-order="-241560" transform="translate(2, -9)"></g><g id="g-root-3.cu_sy_1cw52nsdmp3pm-stroke" data-item-order="-92154" transform="translate(362, 33)"><g id="3.cu_sy_1cw52nsdmp3pm-stroke" fill="none" stroke-linecap="round" stroke-linejoin="round" stroke-miterlimit="4" stroke="#ffffff" stroke-width="2"><g><path d="M 10 226.009C 39.147 204.116 58 169.26 58 130C 58 90.74 39.147 55.884 10 33.991C 30.056 18.927 54.985 10 82 10C 148.274 10 202 63.726 202 130C 202 196.274 148.274 250 82 250C 54.985 250 30.056 241.073 10 226.009Z"></path></g></g></g><g id="g-root-1.cu_sy_1cw52nsdmp3pn-stroke" data-item-order="-92150" transform="translate(170, 33)"><g id="1.cu_sy_1cw52nsdmp3pn-stroke" fill="none" stroke-linecap="round" stroke-linejoin="round" stroke-miterlimit="4" stroke="#ffffff" stroke-width="2"><g><path d="M 202 33.991C 172.853 55.884 154 90.74 154 130C 154 169.26 172.853 204.116 202 226.009C 181.944 241.073 157.015 250 130 250C 63.726 250 10 196.274 10 130C 10 63.726 63.726 10 130 10C 157.015 10 181.944 18.927 202 33.991Z"></path></g></g></g><g id="g-root-2.cu_sy_1cw52nsdmp3po-stroke" data-item-order="-92146" transform="translate(314, 57)"><g id="2.cu_sy_1cw52nsdmp3po-stroke" fill="none" stroke-linecap="round" stroke-linejoin="round" stroke-miterlimit="4" stroke="#ffffff" stroke-width="2"><g><path d="M 58 202.018C 87.147 180.125 106 145.268 106 106.009C 106 66.749 87.147 31.893 58 10C 28.853 31.893 10 66.749 10 106.009C 10 145.268 28.853 180.125 58 202.018Z"></path></g></g></g><g id="g-root-tx_lostoppo_zlxigodmw4qz-stroke" data-item-order="0" transform="translate(272, -3)"></g><g id="g-root-tx_producti_1uoo1bsdmp3im-stroke" data-item-order="0" transform="translate(-10, 105)"></g><g id="g-root-meet_146qta0dmtcld-stroke" data-item-order="0" transform="translate(230, 129)"><g id="meet_146qta0dmtcld-stroke" fill="none" stroke-linecap="round" stroke-linejoin="round" stroke-miterlimit="4" stroke="#ffffff" stroke-width="2"><g><path d="M 29.5 15.5C 29.5 17.985281 31.514719 20 34 20C 36.485283 20 38.5 17.985281 38.5 15.5C 38.5 13.014719 36.485283 11 34 11C 31.514719 11 29.5 13.014719 29.5 15.5M 43 29C 41.933315 24.902742 38.233833 22.043076 34 22.043076C 29.766167 22.043076 26.066687 24.902742 25 29ZM 15.5 43.5C 15.5 45.985283 17.514719 48 20 48C 22.485281 48 24.5 45.985283 24.5 43.5C 24.5 41.014717 22.485281 39 20 39C 17.514719 39 15.5 41.014717 15.5 43.5M 29 57C 27.933313 52.902744 24.233833 50.043076 20 50.043076C 15.766167 50.043076 12.066687 52.902744 11 57ZM 43.5 43.5C 43.5 45.985283 45.514717 48 48 48C 50.485283 48 52.5 45.985283 52.5 43.5C 52.5 41.014717 50.485283 39 48 39C 45.514717 39 43.5 41.014717 43.5 43.5M 57 57C 55.933315 52.902744 52.233833 50.043076 48 50.043076C 43.766167 50.043076 40.066689 52.902744 39 57ZM 40 47.84C 36.151478 49.396805 31.848522 49.396805 28 47.84M 43 19.779999C 47.96957 23.158754 50.62685 29.037214 49.880001 35M 25 19.779999C 20.03043 23.158754 17.37315 29.037214 18.119999 35"></path></g></g></g><g id="g-root-lapt_dcc3i0dmrxu7-stroke" data-item-order="0" transform="translate(338, 129)"><g id="lapt_dcc3i0dmrxu7-stroke" fill="none" stroke-linecap="round" stroke-linejoin="round" stroke-miterlimit="4" stroke="#ffffff" stroke-width="2"><g><path d="M 43.299999 25.5C 42.900002 25.5 42.5 25.9 42.5 26.299999C 42.5 26.700001 42.900002 27.1 43.299999 27.1M 43.299999 25.5C 43.700001 25.5 44.099998 25.9 44.099998 26.299999C 44.099998 26.700001 43.700001 27.1 43.299999 27.1M 43.299801 20.5L 43.299801 11.5M 32.700199 34.900002L 11.5 34.900002M 11.5 34.900002L 11.5 56.5L 28.099979 56.5M 10 10M 24.5 34.900002L 24.5 56.499802M 56.499802 23.300041L 56.0998 23.300041C 55.0998 23.300041 54.299801 24.10006 54.0998 25.10006L 51.699799 42.099998C 51.499802 43.099998 50.699799 43.900002 49.699799 43.900002L 37.499802 43.900002L 34.299801 47.099998M 44.900002 43.900002L 44.900002 56.499802M 37.900002 56.5L 50.900002 56.5M 10 10M 11.5 16.5L 15.099979 28.1L 25.29998 28.1"></path></g></g></g><g id="g-root-wifi_1cz9g3cdmp4w0-stroke" data-item-order="0" transform="translate(446, 129)"><g id="wifi_1cz9g3cdmp4w0-stroke" fill="none" stroke-linecap="round" stroke-linejoin="round" stroke-miterlimit="4" stroke="#ffffff" stroke-width="2"><g><path d="M 19.984001 38.865997C 19.809521 40.763626 18.931267 42.527271 17.521999 43.810001M 24.01 38.865997C 24.184479 40.763626 25.062735 42.527271 26.472 43.810001M 43.984001 38.865997C 43.809521 40.763626 42.931267 42.527271 41.522003 43.810001M 48.009998 38.865997C 48.184479 40.763626 49.062737 42.527271 50.472 43.810001M 11.732 43.810001L 56.268002 43.810001M 16.091999 43.810001L 13.558001 55.666M 51.908001 43.810001L 54.442001 55.666M 14.998 25.866001L 28.997999 25.866001C 28.997999 25.866001 30.997999 25.866001 30.997999 27.866001L 30.997999 36.866001C 30.997999 36.866001 30.997999 38.866001 28.997999 38.866001L 14.998 38.866001C 14.998 38.866001 12.998 38.866001 12.998 36.866001L 12.998 27.866001C 12.998 27.866001 12.998 25.866001 14.998 25.866001M 52.996002 38.865997L 38.996002 38.865997C 38.996002 38.865997 36.996002 38.865997 36.996002 36.865997L 36.996002 27.865997C 36.996002 27.865997 36.996002 25.865997 38.996002 25.865997L 52.996002 25.865997C 52.996002 25.865997 54.996002 25.865997 54.996002 27.865997L 54.996002 36.865997C 54.996002 36.865997 54.996002 38.865997 52.996002 38.865997M 42 14.696C 37.334404 10.921743 30.665598 10.921743 26 14.696M 29.33 19.515999C 32.052532 17.316278 35.941471 17.316278 38.664001 19.516001M 19.108 49.236L 24.886 49.236M 21.998001 56.133999L 21.998001 49.236M 43.108002 49.236L 48.886002 49.236M 45.998001 56.133999L 45.998001 49.236"></path></g></g></g><g id="g-root-tx_disjoint_18gbkjcdmp4hx-stroke" data-item-order="0" transform="translate(566, 117)"></g></g></g></svg>