<?xml version="1.0" encoding="utf-8" standalone="yes"?>
<!DOCTYPE svg PUBLIC "-//W3C//DTD SVG 1.1//EN" "http://www.w3.org/Graphics/SVG/1.1/DTD/svg11.dtd">
<svg width="866" height="474" viewBox="0 0 866 474" style="fill:none;stroke:none;fill-rule:evenodd;clip-rule:evenodd;stroke-linecap:round;stroke-linejoin:round;stroke-miterlimit:1.5;" version="1.1" xmlns="http://www.w3.org/2000/svg" xmlns:xlink="http://www.w3.org/1999/xlink"><style id="fontImports">@import url("https://fonts.googleapis.com/css2?family=Roboto:wght@400;700&amp;display=block");</style><g id="items" style="isolation: isolate"><g id="blend" style="mix-blend-mode: normal"><g id="g-root-ro_1hbyui6lem70i-fill" data-item-order="-25056" transform="translate(375, 64)"><g id="ro_1hbyui6lem70i-fill" stroke="none" fill="#f5f5f5"><g><path d="M 34 10L 130 10C 130 10 154 10 154 34L 154 160C 154 160 154 184 130 184L 34 184C 34 184 10 184 10 160L 10 34C 10 34 10 10 34 10"></path></g></g></g><g id="g-root-ro_dhxre6lossn9-fill" data-item-order="-16848" transform="translate(15, 163)"><g id="ro_dhxre6lossn9-fill" stroke="none" fill="#ffebf7"><g><path d="M 22 10L 310 10C 310 10 322 10 322 22L 322 52C 322 52 322 64 310 64L 22 64C 22 64 10 64 10 52L 10 22C 10 22 10 10 22 10"></path></g></g></g><g id="g-root-ro_8zmcxalopxjd-fill" data-item-order="-14256" transform="translate(63, 13)"><g id="ro_8zmcxalopxjd-fill" stroke="none" fill="#f4ffdc"><g><path d="M 22 10L 262 10C 262 10 274 10 274 22L 274 52C 274 52 274 64 262 64L 22 64C 22 64 10 64 10 52L 10 22C 10 22 10 10 22 10"></path></g></g></g><g id="g-root-ro_18lydimlers3l-fill" data-item-order="-14256" transform="translate(567, 13)"><g id="ro_18lydimlers3l-fill" stroke="none" fill="#faf0ff"><g><path d="M 22 10L 262 10C 262 10 274 10 274 22L 274 52C 274 52 274 64 262 64L 22 64C 22 64 10 64 10 52L 10 22C 10 22 10 10 22 10"></path></g></g></g><g id="g-root-ro_4hc6palegirn-fill" data-item-order="-14256" transform="translate(567, 163)"><g id="ro_4hc6palegirn-fill" stroke="none" fill="#fffbda"><g><path d="M 22 10L 262 10C 262 10 274 10 274 22L 274 52C 274 52 274 64 262 64L 22 64C 22 64 10 64 10 52L 10 22C 10 22 10 10 22 10"></path></g></g></g><g id="g-root-ro_18kplnylevy8d-fill" data-item-order="-11016" transform="translate(345, 313)"><g id="ro_18kplnylevy8d-fill" stroke="none" fill="#ffeceb"><g><path d="M 22 10L 202 10C 202 10 214 10 214 22L 214 52C 214 52 214 64 202 64L 22 64C 22 64 10 64 10 52L 10 22C 10 22 10 10 22 10"></path></g></g></g><g id="g-root-tx_lowerlic_4ju67ilexcsv-fill" data-item-order="0" transform="translate(393, 415)"><g id="tx_lowerlic_4ju67ilexcsv-fill" stroke="none" fill="#484848"><g><text style="font-style: normal; font-variant-caps: normal; font-weight: normal; font-stretch: normal; font-size: 20px; line-height: normal; font-family: Roboto, sans-serif; font-size-adjust: none; font-kerning: auto; font-variant-alternates: normal; font-variant-ligatures: normal; font-variant-numeric: normal; font-variant-east-asian: normal; font-variant-position: normal; font-variant-emoji: normal; font-feature-settings: normal; font-optical-sizing: auto; font-variation-settings: normal; white-space: pre;"><tspan x="17.17" y="34" dominant-baseline="ideographic">Lower Licensing Costs</tspan></text></g></g></g><g id="g-root-cu_73q3ylosruy-fill" data-item-order="0" transform="translate(591, 217)"></g><g id="g-root-cu_92qqculosq9z-fill" data-item-order="0" transform="translate(327, 180)"></g><g id="g-root-tx_strategi_4g3boulexfk3-fill" data-item-order="0" transform="translate(615, 265)"><g id="tx_strategi_4g3boulexfk3-fill" stroke="none" fill="#484848"><g><text style="font-style: normal; font-variant-caps: normal; font-weight: normal; font-stretch: normal; font-size: 20px; line-height: normal; font-family: Roboto, sans-serif; font-size-adjust: none; font-kerning: auto; font-variant-alternates: normal; font-variant-ligatures: normal; font-variant-numeric: normal; font-variant-east-asian: normal; font-variant-position: normal; font-variant-emoji: normal; font-feature-settings: normal; font-optical-sizing: auto; font-variation-settings: normal; white-space: pre;"><tspan x="12.39" y="34" dominant-baseline="ideographic">Strategic Focus</tspan></text></g></g></g><g id="g-root-tx_consolid_144w3jilevz0m-fill" data-item-order="0" transform="translate(75, 79)"><g id="tx_consolid_144w3jilevz0m-fill" stroke="none" fill="#484848"><g><text style="font-style: normal; font-variant-caps: normal; font-weight: normal; font-stretch: normal; font-size: 20px; line-height: normal; font-family: Roboto, sans-serif; font-size-adjust: none; font-kerning: auto; font-variant-alternates: normal; font-variant-ligatures: normal; font-variant-numeric: normal; font-variant-east-asian: normal; font-variant-position: normal; font-variant-emoji: normal; font-feature-settings: normal; font-optical-sizing: auto; font-variation-settings: normal; white-space: pre;"><tspan x="13.24" y="34" dominant-baseline="ideographic">Consolidation of Apps</tspan></text></g></g></g><g id="g-root-cu_92qqculosqa5-fill" data-item-order="0" transform="translate(285, 67)"></g><g id="g-root-cu_4mx88elosr2g-fill" data-item-order="0" transform="translate(285, 67)"></g><g id="g-root-tx_singleso_141590ulexf5y-fill" data-item-order="0" transform="translate(393, 379)"><g id="tx_singleso_141590ulexf5y-fill" stroke="none" fill="#484848"><g><text style="font-style: normal; font-variant-caps: normal; font-weight: normal; font-stretch: normal; font-size: 20px; line-height: normal; font-family: Roboto, sans-serif; font-size-adjust: none; font-kerning: auto; font-variant-alternates: normal; font-variant-ligatures: normal; font-variant-numeric: normal; font-variant-east-asian: normal; font-variant-position: normal; font-variant-emoji: normal; font-feature-settings: normal; font-optical-sizing: auto; font-variation-settings: normal; white-space: pre;"><tspan x="14.46" y="34" dominant-baseline="ideographic">Single Solution Replacement</tspan></text></g></g></g><g id="g-root-cu_92qqculosq9w-fill" data-item-order="0" transform="translate(519, 180)"></g><g id="g-root-cu_4mx88elosr2i-fill" data-item-order="0" transform="translate(591, 67)"></g><g id="g-root-cu_4mx88elosr2l-fill" data-item-order="0" transform="translate(591, 67)"></g><g id="g-root-cu_92qqculosqa2-fill" data-item-order="0" transform="translate(447, 238)"></g><g id="g-root-cu_1use9ymlossg9-fill" data-item-order="0" transform="translate(369, 367)"></g><g id="g-root-tx_automate_zs6yumlew07e-fill" data-item-order="0" transform="translate(615, 229)"><g id="tx_automate_zs6yumlew07e-fill" stroke="none" fill="#484848"><g><text style="font-style: normal; font-variant-caps: normal; font-weight: normal; font-stretch: normal; font-size: 20px; line-height: normal; font-family: Roboto, sans-serif; font-size-adjust: none; font-kerning: auto; font-variant-alternates: normal; font-variant-ligatures: normal; font-variant-numeric: normal; font-variant-east-asian: normal; font-variant-position: normal; font-variant-emoji: normal; font-feature-settings: normal; font-optical-sizing: auto; font-variation-settings: normal; white-space: pre;"><tspan x="13.15" y="34" dominant-baseline="ideographic">Automated Workflows</tspan></text></g></g></g><g id="g-root-tx_centrali_146risulevy0w-fill" data-item-order="0" transform="translate(615, 79)"><g id="tx_centrali_146risulevy0w-fill" stroke="none" fill="#484848"><g><text style="font-style: normal; font-variant-caps: normal; font-weight: normal; font-stretch: normal; font-size: 20px; line-height: normal; font-family: Roboto, sans-serif; font-size-adjust: none; font-kerning: auto; font-variant-alternates: normal; font-variant-ligatures: normal; font-variant-numeric: normal; font-variant-east-asian: normal; font-variant-position: normal; font-variant-emoji: normal; font-feature-settings: normal; font-optical-sizing: auto; font-variation-settings: normal; white-space: pre;"><tspan x="12.42" y="34" dominant-baseline="ideographic">Centralized Analytics</tspan></text></g></g></g><g id="g-root-tx_reducedm_4myjn2levztb-fill" data-item-order="0" transform="translate(15, 115)"><g id="tx_reducedm_4myjn2levztb-fill" stroke="none" fill="#484848"><g><text style="font-style: normal; font-variant-caps: normal; font-weight: normal; font-stretch: normal; font-size: 20px; line-height: normal; font-family: Roboto, sans-serif; font-size-adjust: none; font-kerning: auto; font-variant-alternates: normal; font-variant-ligatures: normal; font-variant-numeric: normal; font-variant-east-asian: normal; font-variant-position: normal; font-variant-emoji: normal; font-feature-settings: normal; font-optical-sizing: auto; font-variation-settings: normal; white-space: pre;"><tspan x="14.36" y="34" dominant-baseline="ideographic">Reduced Maintenance Costs</tspan></text></g></g></g><g id="g-root-tx_workflow_258tqlexekt-fill" data-item-order="0" transform="translate(99, 265)"><g id="tx_workflow_258tqlexekt-fill" stroke="none" fill="#484848"><g><text style="font-style: normal; font-variant-caps: normal; font-weight: normal; font-stretch: normal; font-size: 20px; line-height: normal; font-family: Roboto, sans-serif; font-size-adjust: none; font-kerning: auto; font-variant-alternates: normal; font-variant-ligatures: normal; font-variant-numeric: normal; font-variant-east-asian: normal; font-variant-position: normal; font-variant-emoji: normal; font-feature-settings: normal; font-optical-sizing: auto; font-variation-settings: normal; white-space: pre;"><tspan x="14.09" y="34" dominant-baseline="ideographic">Workflow Flexibility</tspan></text></g></g></g><g id="g-root-tx_servicec_13zwaumlexczw-fill" data-item-order="0" transform="translate(27, 229)"><g id="tx_servicec_13zwaumlexczw-fill" stroke="none" fill="#484848"><g><text style="font-style: normal; font-variant-caps: normal; font-weight: normal; font-stretch: normal; font-size: 20px; line-height: normal; font-family: Roboto, sans-serif; font-size-adjust: none; font-kerning: auto; font-variant-alternates: normal; font-variant-ligatures: normal; font-variant-numeric: normal; font-variant-east-asian: normal; font-variant-position: normal; font-variant-emoji: normal; font-feature-settings: normal; font-optical-sizing: auto; font-variation-settings: normal; white-space: pre;"><tspan x="15.12" y="34" dominant-baseline="ideographic">Service Catalog Adaptation</tspan></text></g></g></g><g id="g-root-cu_73q3ylosrv0-fill" data-item-order="0" transform="translate(285, 217)"></g><g id="g-root-cu_73q3ylosrv3-fill" data-item-order="0" transform="translate(285, 217)"></g><g id="g-root-tx_processo_4otywelevytl-fill" data-item-order="0" transform="translate(615, 115)"><g id="tx_processo_4otywelevytl-fill" stroke="none" fill="#484848"><g><text style="font-style: normal; font-variant-caps: normal; font-weight: normal; font-stretch: normal; font-size: 20px; line-height: normal; font-family: Roboto, sans-serif; font-size-adjust: none; font-kerning: auto; font-variant-alternates: normal; font-variant-ligatures: normal; font-variant-numeric: normal; font-variant-east-asian: normal; font-variant-position: normal; font-variant-emoji: normal; font-feature-settings: normal; font-optical-sizing: auto; font-variation-settings: normal; white-space: pre;"><tspan x="16.31" y="34" dominant-baseline="ideographic">Process Optimization</tspan></text></g></g></g><g id="g-root-cu_1use9ymlossgc-fill" data-item-order="0" transform="translate(369, 367)"></g><g id="g-root-cu_dhxre6lossna-fill" data-item-order="0" transform="translate(327, 40)"></g><g id="g-root-cu_92qqculosq9t-fill" data-item-order="0" transform="translate(519, 40)"></g><g id="g-root-cu_73q3ylosruv-fill" data-item-order="0" transform="translate(591, 217)"></g><g id="g-root-tx_datadriv_hxselqlert3b-fill" data-item-order="1000000000" transform="translate(615, 28)"><g id="tx_datadriv_hxselqlert3b-fill" stroke="none" fill="#ba5de5"><g><text style="font-style: normal; font-variant-caps: normal; font-weight: normal; font-stretch: normal; font-size: 20px; line-height: normal; font-family: Roboto, sans-serif; font-size-adjust: none; font-kerning: auto; font-variant-alternates: normal; font-variant-ligatures: normal; font-variant-numeric: normal; font-variant-east-asian: normal; font-variant-position: normal; font-variant-emoji: normal; font-feature-settings: normal; font-optical-sizing: auto; font-variation-settings: normal; white-space: pre;"><tspan x="14.27" y="34" dominant-baseline="ideographic">Data-Driven Decisions</tspan></text></g></g></g><g id="g-root-shar_1lrscmmlem689-fill" data-item-order="1000000000" transform="translate(423, 88)"></g><g id="g-root-tx_unifiedp_qofcoelem4ug-fill" data-item-order="1000000000" transform="translate(399, 142)"><g id="tx_unifiedp_qofcoelem4ug-fill" stroke="none" fill="#969696"><g><text style="font-style: normal; font-variant-caps: normal; font-weight: normal; font-stretch: normal; font-size: 20px; line-height: normal; font-family: Roboto, sans-serif; font-size-adjust: none; font-kerning: auto; font-variant-alternates: normal; font-variant-ligatures: normal; font-variant-numeric: normal; font-variant-east-asian: normal; font-variant-position: normal; font-variant-emoji: normal; font-feature-settings: normal; font-optical-sizing: auto; font-variation-settings: normal; white-space: pre;"><tspan x="24.63" y="34" dominant-baseline="ideographic">Unified </tspan><tspan x="16.63" y="58" dominant-baseline="ideographic">Platform </tspan><tspan x="18.63" y="82" dominant-baseline="ideographic">Solution</tspan></text></g></g></g><g id="g-root-targ_18lydimlers3k-fill" data-item-order="1000000000" transform="translate(579, 25)"></g><g id="g-root-tx_customiz_1lvibjilosqa3-fill" data-item-order="1000000000" transform="translate(27, 178)"><g id="tx_customiz_1lvibjilosqa3-fill" stroke="none" fill="#de58a9"><g><text style="font-style: normal; font-variant-caps: normal; font-weight: normal; font-stretch: normal; font-size: 20px; line-height: normal; font-family: Roboto, sans-serif; font-size-adjust: none; font-kerning: auto; font-variant-alternates: normal; font-variant-ligatures: normal; font-variant-numeric: normal; font-variant-east-asian: normal; font-variant-position: normal; font-variant-emoji: normal; font-feature-settings: normal; font-optical-sizing: auto; font-variation-settings: normal; white-space: pre;"><tspan x="15.3" y="34" dominant-baseline="ideographic">Customizable and Scalable</tspan></text></g></g></g><g id="g-root-shar_hxr9imlosrv0-fill" data-item-order="1000000000" transform="translate(285, 175)"></g><g id="g-root-micr_8x5otqleghze-fill" data-item-order="1000000000" transform="translate(579, 175)"></g><g id="g-root-tx_enhanced_1lpxa0elegirl-fill" data-item-order="1000000000" transform="translate(615, 178)"><g id="tx_enhanced_1lpxa0elegirl-fill" stroke="none" fill="#e0cb15"><g><text style="font-style: normal; font-variant-caps: normal; font-weight: normal; font-stretch: normal; font-size: 20px; line-height: normal; font-family: Roboto, sans-serif; font-size-adjust: none; font-kerning: auto; font-variant-alternates: normal; font-variant-ligatures: normal; font-variant-numeric: normal; font-variant-east-asian: normal; font-variant-position: normal; font-variant-emoji: normal; font-feature-settings: normal; font-optical-sizing: auto; font-variation-settings: normal; white-space: pre;"><tspan x="12.5" y="34" dominant-baseline="ideographic">Enhanced Productivity</tspan></text></g></g></g><g id="g-root-tx_operatio_1q87g8elopxjb-fill" data-item-order="1000000000" transform="translate(75, 28)"><g id="tx_operatio_1q87g8elopxjb-fill" stroke="none" fill="#92bd39"><g><text style="font-style: normal; font-variant-caps: normal; font-weight: normal; font-stretch: normal; font-size: 20px; line-height: normal; font-family: Roboto, sans-serif; font-size-adjust: none; font-kerning: auto; font-variant-alternates: normal; font-variant-ligatures: normal; font-variant-numeric: normal; font-variant-east-asian: normal; font-variant-position: normal; font-variant-emoji: normal; font-feature-settings: normal; font-optical-sizing: auto; font-variation-settings: normal; white-space: pre;"><tspan x="15.31" y="34" dominant-baseline="ideographic">Operational Efficiency</tspan></text></g></g></g><g id="g-root-2_8zmcxalopxjc-fill" data-item-order="1000000000" transform="translate(285, 25)"></g><g id="g-root-exce_1hfq4tqlew0lg-fill" data-item-order="1000000000" transform="translate(357, 325)"></g><g id="g-root-tx_costredu_mcd4vilevz7n-fill" data-item-order="1000000000" transform="translate(393, 328)"><g id="tx_costredu_mcd4vilevz7n-fill" stroke="none" fill="#e55753"><g><text style="font-style: normal; font-variant-caps: normal; font-weight: normal; font-stretch: normal; font-size: 20px; line-height: normal; font-family: Roboto, sans-serif; font-size-adjust: none; font-kerning: auto; font-variant-alternates: normal; font-variant-ligatures: normal; font-variant-numeric: normal; font-variant-east-asian: normal; font-variant-position: normal; font-variant-emoji: normal; font-feature-settings: normal; font-optical-sizing: auto; font-variation-settings: normal; white-space: pre;"><tspan x="14.05" y="34" dominant-baseline="ideographic">Cost Reduction</tspan></text></g></g></g><g id="g-root-ro_1hbyui6lem70i-stroke" data-item-order="-25056" transform="translate(375, 64)"><g id="ro_1hbyui6lem70i-stroke" fill="none" stroke-linecap="round" stroke-linejoin="round" stroke-miterlimit="4" stroke="#484848" stroke-width="2"><g><path d="M 34 10L 130 10C 130 10 154 10 154 34L 154 160C 154 160 154 184 130 184L 34 184C 34 184 10 184 10 160L 10 34C 10 34 10 10 34 10"></path></g></g></g><g id="g-root-ro_dhxre6lossn9-stroke" data-item-order="-16848" transform="translate(15, 163)"><g id="ro_dhxre6lossn9-stroke" fill="none" stroke-linecap="round" stroke-linejoin="round" stroke-miterlimit="4" stroke="#de58a9" stroke-width="2"><g><path d="M 22 10L 310 10C 310 10 322 10 322 22L 322 52C 322 52 322 64 310 64L 22 64C 22 64 10 64 10 52L 10 22C 10 22 10 10 22 10"></path></g></g></g><g id="g-root-ro_8zmcxalopxjd-stroke" data-item-order="-14256" transform="translate(63, 13)"><g id="ro_8zmcxalopxjd-stroke" fill="none" stroke-linecap="round" stroke-linejoin="round" stroke-miterlimit="4" stroke="#92bd39" stroke-width="2"><g><path d="M 22 10L 262 10C 262 10 274 10 274 22L 274 52C 274 52 274 64 262 64L 22 64C 22 64 10 64 10 52L 10 22C 10 22 10 10 22 10"></path></g></g></g><g id="g-root-ro_18lydimlers3l-stroke" data-item-order="-14256" transform="translate(567, 13)"><g id="ro_18lydimlers3l-stroke" fill="none" stroke-linecap="round" stroke-linejoin="round" stroke-miterlimit="4" stroke="#ba5de5" stroke-width="2"><g><path d="M 22 10L 262 10C 262 10 274 10 274 22L 274 52C 274 52 274 64 262 64L 22 64C 22 64 10 64 10 52L 10 22C 10 22 10 10 22 10"></path></g></g></g><g id="g-root-ro_4hc6palegirn-stroke" data-item-order="-14256" transform="translate(567, 163)"><g id="ro_4hc6palegirn-stroke" fill="none" stroke-linecap="round" stroke-linejoin="round" stroke-miterlimit="4" stroke="#e0cb15" stroke-width="2"><g><path d="M 22 10L 262 10C 262 10 274 10 274 22L 274 52C 274 52 274 64 262 64L 22 64C 22 64 10 64 10 52L 10 22C 10 22 10 10 22 10"></path></g></g></g><g id="g-root-ro_18kplnylevy8d-stroke" data-item-order="-11016" transform="translate(345, 313)"><g id="ro_18kplnylevy8d-stroke" fill="none" stroke-linecap="round" stroke-linejoin="round" stroke-miterlimit="4" stroke="#e55753" stroke-width="2"><g><path d="M 22 10L 202 10C 202 10 214 10 214 22L 214 52C 214 52 214 64 202 64L 22 64C 22 64 10 64 10 52L 10 22C 10 22 10 10 22 10"></path></g></g></g><g id="g-root-tx_lowerlic_4ju67ilexcsv-stroke" data-item-order="0" transform="translate(393, 415)"></g><g id="g-root-cu_73q3ylosruy-stroke" data-item-order="0" transform="translate(591, 217)"><g id="cu_73q3ylosruy-stroke" fill="none" stroke-linecap="round" stroke-linejoin="round" stroke-miterlimit="4" stroke="#969696" stroke-width="2" stroke-dasharray="5.0, 7.0"><g><path d="M 10 10L 10 17.5L 10 58C 10.000002 64.627417 15.372585 70 22.000002 69.999999L 22.1 70L 28 70"></path></g></g></g><g id="g-root-cu_92qqculosq9z-stroke" data-item-order="0" transform="translate(327, 180)"><g id="cu_92qqculosq9z-stroke" fill="none" stroke-linecap="round" stroke-linejoin="round" stroke-miterlimit="4" stroke="#969696" stroke-width="2" stroke-dasharray="5.0, 7.0"><g><path d="M 58 10L 55 10L 54.9 10C 51.639401 10.016148 48.03708 10.453814 44.200002 11.299999C 41.965481 11.745013 38.361958 13.052173 34 14.999999C 29.638043 16.947825 26.03452 18.254985 23.8 18.699999C 19.962923 19.546185 16.360601 19.98385 13.1 20L 13 20L 10 20"></path></g></g></g><g id="g-root-tx_strategi_4g3boulexfk3-stroke" data-item-order="0" transform="translate(615, 265)"></g><g id="g-root-tx_consolid_144w3jilevz0m-stroke" data-item-order="0" transform="translate(75, 79)"></g><g id="g-root-cu_92qqculosqa5-stroke" data-item-order="0" transform="translate(285, 67)"><g id="cu_92qqculosqa5-stroke" fill="none" stroke-linecap="round" stroke-linejoin="round" stroke-miterlimit="4" stroke="#969696" stroke-width="2" stroke-dasharray="5.0, 7.0"><g><path d="M 28 10L 28 22L 28 34L 19 34L 10 34"></path></g></g></g><g id="g-root-cu_4mx88elosr2g-stroke" data-item-order="0" transform="translate(285, 67)"><g id="cu_4mx88elosr2g-stroke" fill="none" stroke-linecap="round" stroke-linejoin="round" stroke-miterlimit="4" stroke="#969696" stroke-width="2" stroke-dasharray="5.0, 7.0"><g><path d="M 28 10L 28 17.5L 28 58C 27.999999 64.627415 22.627416 69.999998 16 69.999998L 15.9 70L 10 70"></path></g></g></g><g id="g-root-tx_singleso_141590ulexf5y-stroke" data-item-order="0" transform="translate(393, 379)"></g><g id="g-root-cu_92qqculosq9w-stroke" data-item-order="0" transform="translate(519, 180)"><g id="cu_92qqculosq9w-stroke" fill="none" stroke-linecap="round" stroke-linejoin="round" stroke-miterlimit="4" stroke="#969696" stroke-width="2" stroke-dasharray="5.0, 7.0"><g><path d="M 10 10L 13 10L 13.1 10C 16.360602 10.01615 19.962923 10.453815 23.800001 11.3C 26.03452 11.745014 29.638043 13.052174 34 15.000001C 38.361958 16.947827 41.965481 18.254987 44.200001 18.700001C 48.03708 19.546186 51.639401 19.983851 54.900002 20.000001L 55 20L 58 20"></path></g></g></g><g id="g-root-cu_4mx88elosr2i-stroke" data-item-order="0" transform="translate(591, 67)"><g id="cu_4mx88elosr2i-stroke" fill="none" stroke-linecap="round" stroke-linejoin="round" stroke-miterlimit="4" stroke="#969696" stroke-width="2" stroke-dasharray="5.0, 7.0"><g><path d="M 10 10L 10 22L 10 34L 19 34L 28 34"></path></g></g></g><g id="g-root-cu_4mx88elosr2l-stroke" data-item-order="0" transform="translate(591, 67)"><g id="cu_4mx88elosr2l-stroke" fill="none" stroke-linecap="round" stroke-linejoin="round" stroke-miterlimit="4" stroke="#969696" stroke-width="2" stroke-dasharray="5.0, 7.0"><g><path d="M 10 10L 10 17.5L 10 58C 10.000002 64.627417 15.372585 70 22.000002 69.999999L 22.1 70L 28 70"></path></g></g></g><g id="g-root-cu_92qqculosqa2-stroke" data-item-order="0" transform="translate(447, 238)"><g id="cu_92qqculosqa2-stroke" fill="none" stroke-linecap="round" stroke-linejoin="round" stroke-miterlimit="4" stroke="#969696" stroke-width="2" stroke-dasharray="5.0, 7.0"><g><path d="M 10 10L 10 47.5L 10 85"></path></g></g></g><g id="g-root-cu_1use9ymlossg9-stroke" data-item-order="0" transform="translate(369, 367)"><g id="cu_1use9ymlossg9-stroke" fill="none" stroke-linecap="round" stroke-linejoin="round" stroke-miterlimit="4" stroke="#969696" stroke-width="2" stroke-dasharray="5.0, 7.0"><g><path d="M 10 10L 10 22L 10 34L 19 34L 28 34"></path></g></g></g><g id="g-root-tx_automate_zs6yumlew07e-stroke" data-item-order="0" transform="translate(615, 229)"></g><g id="g-root-tx_centrali_146risulevy0w-stroke" data-item-order="0" transform="translate(615, 79)"></g><g id="g-root-tx_reducedm_4myjn2levztb-stroke" data-item-order="0" transform="translate(15, 115)"></g><g id="g-root-tx_workflow_258tqlexekt-stroke" data-item-order="0" transform="translate(99, 265)"></g><g id="g-root-tx_servicec_13zwaumlexczw-stroke" data-item-order="0" transform="translate(27, 229)"></g><g id="g-root-cu_73q3ylosrv0-stroke" data-item-order="0" transform="translate(285, 217)"><g id="cu_73q3ylosrv0-stroke" fill="none" stroke-linecap="round" stroke-linejoin="round" stroke-miterlimit="4" stroke="#969696" stroke-width="2" stroke-dasharray="5.0, 7.0"><g><path d="M 28 10L 28 22L 28 34L 19 34L 10 34"></path></g></g></g><g id="g-root-cu_73q3ylosrv3-stroke" data-item-order="0" transform="translate(285, 217)"><g id="cu_73q3ylosrv3-stroke" fill="none" stroke-linecap="round" stroke-linejoin="round" stroke-miterlimit="4" stroke="#969696" stroke-width="2" stroke-dasharray="5.0, 7.0"><g><path d="M 28 10L 28 17.5L 28 58C 27.999999 64.627415 22.627416 69.999998 16 69.999998L 15.9 70L 10 70"></path></g></g></g><g id="g-root-tx_processo_4otywelevytl-stroke" data-item-order="0" transform="translate(615, 115)"></g><g id="g-root-cu_1use9ymlossgc-stroke" data-item-order="0" transform="translate(369, 367)"><g id="cu_1use9ymlossgc-stroke" fill="none" stroke-linecap="round" stroke-linejoin="round" stroke-miterlimit="4" stroke="#969696" stroke-width="2" stroke-dasharray="5.0, 7.0"><g><path d="M 10 10L 10 17.5L 10 58C 10.000002 64.627417 15.372585 70 22.000002 69.999999L 22.1 70L 28 70"></path></g></g></g><g id="g-root-cu_dhxre6lossna-stroke" data-item-order="0" transform="translate(327, 40)"><g id="cu_dhxre6lossna-stroke" fill="none" stroke-linecap="round" stroke-linejoin="round" stroke-miterlimit="4" stroke="#969696" stroke-width="2" stroke-dasharray="5.0, 7.0"><g><path d="M 58 92L 55 92L 54.9 92C 43.357247 92 33.999998 82.642751 33.999998 71.1L 34 71L 34 30.9C 33.999998 19.357248 24.64275 10 13.1 10L 13 10L 10 10"></path></g></g></g><g id="g-root-cu_92qqculosq9t-stroke" data-item-order="0" transform="translate(519, 40)"><g id="cu_92qqculosq9t-stroke" fill="none" stroke-linecap="round" stroke-linejoin="round" stroke-miterlimit="4" stroke="#969696" stroke-width="2" stroke-dasharray="5.0, 7.0"><g><path d="M 10 92L 13 92L 13.1 92C 24.642748 92.000003 33.999998 82.642755 33.999998 71.100003L 34 71L 34 30.9C 33.999999 19.357249 43.357248 10.000001 54.899999 10.000002L 55 10L 58 10"></path></g></g></g><g id="g-root-cu_73q3ylosruv-stroke" data-item-order="0" transform="translate(591, 217)"><g id="cu_73q3ylosruv-stroke" fill="none" stroke-linecap="round" stroke-linejoin="round" stroke-miterlimit="4" stroke="#969696" stroke-width="2" stroke-dasharray="5.0, 7.0"><g><path d="M 10 10L 10 22L 10 34L 19 34L 28 34"></path></g></g></g><g id="g-root-tx_datadriv_hxselqlert3b-stroke" data-item-order="1000000000" transform="translate(615, 28)"></g><g id="g-root-shar_1lrscmmlem689-stroke" data-item-order="1000000000" transform="translate(423, 88)"><g id="shar_1lrscmmlem689-stroke" fill="none" stroke-linecap="round" stroke-linejoin="round" stroke-miterlimit="4" stroke="#969696" stroke-width="2"><g><path d="M 56.841999 13.21L 56.841999 26.691999M 37.578003 11L 54.956001 11C 54.956001 11 57 11 57 13.044L 57 29.4C 57 29.4 57 31.444 54.956001 31.444L 37.578003 31.444C 37.578003 31.444 35.534 31.444 35.534 29.4L 35.534 13.044C 35.534 13.044 35.534 11 37.578003 11M 35.534 17.962L 57 17.962M 35.534 24.704L 57 24.704M 45.242001 17.962L 45.242001 31.444M 11 38.436001C 11.0055 37.310715 11.918699 36.401085 13.044001 36.400002L 33.487999 36.400002C 34.617195 36.400002 35.532898 37.314808 35.534 38.444L 35.534 49.076C 35.532898 50.205193 34.617195 51.120003 33.487999 51.120003L 13.044 51.119999C 12.500672 51.119473 11.979868 50.902855 11.596428 50.517914C 11.212988 50.132973 10.998406 49.611328 11 49.068001ZM 21 51.112L 19.4 57M 25.542 51.112L 27.125999 57M 17.133999 57L 29.4 57M 20.200001 24.616001L 15.6 29.030001L 15.6 24.616001C 15.668884 21.296635 18.414597 18.661037 21.734001 18.728001L 29.4 18.728001M 11 24.616001L 15.6 29.032M 24.799999 14.312L 29.4 18.728001L 24.799999 23.144001"></path></g></g></g><g id="g-root-tx_unifiedp_qofcoelem4ug-stroke" data-item-order="1000000000" transform="translate(399, 142)"></g><g id="g-root-targ_18lydimlers3k-stroke" data-item-order="1000000000" transform="translate(579, 25)"><g id="targ_18lydimlers3k-stroke" fill="none" stroke-linecap="round" stroke-linejoin="round" stroke-miterlimit="4" stroke="#ba5de5" stroke-width="2"><g><path d="M 12.2775 15.0175C 12.276772 17.443926 14.243574 19.411318 16.67 19.411318C 19.096426 19.411318 21.063229 17.443926 21.0625 15.0175C 21.063229 12.591074 19.096426 10.623682 16.67 10.623682C 14.243574 10.623682 12.276772 12.591074 12.2775 15.0175M 19.35125 21.69125C 17.619019 20.745197 15.516327 20.782526 13.818766 21.789467C 12.121205 22.796406 11.080302 24.623762 11.08 26.5975L 11.08 31.38875L 13.60875 31.38875L 14.275 39.375L 19.06625 39.375M 33.25 28.74C 34.123825 32.136494 32.60783 35.696499 29.553589 37.420261C 26.49935 39.14402 22.668165 38.601871 20.212128 36.098351C 17.756088 33.59483 17.287388 29.753969 19.069309 26.733292C 20.851229 23.712612 24.43961 22.265053 27.818748 23.203751M 29.612499 30.685001C 29.612499 32.829243 27.874245 34.567497 25.73 34.567497C 23.585754 34.567497 21.8475 32.829243 21.8475 30.685001C 21.8475 28.540754 23.585754 26.8025 25.73 26.8025M 31.331251 24.945L 25.940001 30.685001M 34.966248 21.127501L 34.962498 16.946251L 31.143751 20.459999L 31.331251 24.945M 34.966248 21.127501L 38.919998 21.127501L 35.40625 24.945L 31.331251 24.945"></path></g></g></g><g id="g-root-tx_customiz_1lvibjilosqa3-stroke" data-item-order="1000000000" transform="translate(27, 178)"></g><g id="g-root-shar_hxr9imlosrv0-stroke" data-item-order="1000000000" transform="translate(285, 175)"><g id="shar_hxr9imlosrv0-stroke" fill="none" stroke-linecap="round" stroke-linejoin="round" stroke-miterlimit="4" stroke="#de58a9" stroke-width="2"><g><path d="M 27.23625 10.625L 38.0975 10.625C 38.0975 10.625 39.375 10.625 39.375 11.9025L 39.375 22.125C 39.375 22.125 39.375 23.4025 38.0975 23.4025L 27.23625 23.4025C 27.23625 23.4025 25.95875 23.4025 25.95875 22.125L 25.95875 11.9025C 25.95875 11.9025 25.95875 10.625 27.23625 10.625M 25.95875 14.97625L 39.375 14.97625M 25.95875 19.190001L 39.375 19.190001M 32.026249 14.97625L 32.026249 23.4025M 35.623749 14.97625L 35.623749 23.4025M 16.375 18.5L 13.5 21.25L 13.5 18.5C 13.541012 16.42392 15.257687 14.774412 17.33375 14.81625L 22.125 14.81625M 10.625 18.5L 13.5 21.25625M 19.25 12.05625L 22.125 14.81625L 19.25 17.57625M 11.9025 24.68L 18.93125 24.68C 18.93125 24.68 20.20875 24.68 20.20875 25.9575L 20.20875 38.0975C 20.20875 38.0975 20.20875 39.375 18.93125 39.375L 11.9025 39.375C 11.9025 39.375 10.625 39.375 10.625 38.0975L 10.625 25.9575C 10.625 25.9575 10.625 24.68 11.9025 24.68M 10.625 35.541252L 20.20875 35.541252"></path></g></g></g><g id="g-root-micr_8x5otqleghze-stroke" data-item-order="1000000000" transform="translate(579, 175)"><g id="micr_8x5otqleghze-stroke" fill="none" stroke-linecap="round" stroke-linejoin="round" stroke-miterlimit="4" stroke="#e0cb15" stroke-width="2"><g><path d="M 16.875 13.125L 21.875 13.125M 28.125 13.125L 32.5 13.125M 21.5625 13.125L 28.4375 13.125L 28.4375 36.875L 21.5625 36.875ZM 39.375 36.875L 32.5 36.875L 32.5 13.125L 39.375 20L 39.375 36.875ZM 10.625 13.125L 17.5 13.125L 17.5 36.875L 10.625 36.875ZM 17.5 20.625L 21.5625 20.625M 28.4375 20.625L 32.5 20.625"></path></g></g></g><g id="g-root-tx_enhanced_1lpxa0elegirl-stroke" data-item-order="1000000000" transform="translate(615, 178)"></g><g id="g-root-tx_operatio_1q87g8elopxjb-stroke" data-item-order="1000000000" transform="translate(75, 28)"></g><g id="g-root-2_8zmcxalopxjc-stroke" data-item-order="1000000000" transform="translate(285, 25)"><g id="2_8zmcxalopxjc-stroke" fill="none" stroke-linecap="round" stroke-linejoin="round" stroke-miterlimit="4" stroke="#92bd39" stroke-width="2"><g><path d="M 14.68375 23.125L 14.68375 23.125L 11.25 23.125C 10.904822 23.125 10.625 23.404823 10.625 23.75L 10.625 26.25C 10.625 26.595177 10.904822 26.875 11.25 26.875L 14.6825 26.875C 14.937752 28.141497 15.358002 29.369047 15.9325 30.526249L 13.50875 32.955002C 13.264761 33.199062 13.264761 33.594688 13.50875 33.838749L 16.161249 36.489998C 16.405312 36.73399 16.800938 36.73399 17.045 36.489998L 19.4725 34.061249C 20.629671 34.63829 21.857698 35.060661 23.125 35.317501L 23.125 38.75C 23.125 39.095177 23.404823 39.375 23.75 39.375L 26.25 39.375C 26.595177 39.375 26.875 39.095177 26.875 38.75L 26.875 35.317501C 28.141148 35.062439 29.368309 34.642178 30.525 34.067501L 32.955002 36.49625C 33.199062 36.740238 33.594688 36.740238 33.838749 36.49625L 36.489998 33.84375C 36.73399 33.599686 36.73399 33.204063 36.489998 32.959999L 34.0625 30.526249C 34.636997 29.369047 35.057251 28.141497 35.3125 26.875L 38.75 26.875C 39.095177 26.875 39.375 26.595177 39.375 26.25L 39.375 23.75C 39.375 23.404823 39.095177 23.125 38.75 23.125L 35.31625 23.125M 29.192501 28.75C 28.125359 29.943821 26.6 30.626257 24.998751 30.626257C 23.397499 30.626257 21.872143 29.943821 20.805 28.75M 31.875 25.625L 24.375 25.625L 24.375 11.5625C 24.374861 11.353529 24.479168 11.158315 24.652966 11.042283C 24.826763 10.92625 25.04705 10.904756 25.24 10.985L 31.49 13.59C 31.72283 13.68683 31.874664 13.914088 31.875 14.16625ZM 30.625 13.22875L 30.625 10.625M 24.375 15.625L 26.875 15.625M 18.125 18.125L 20.625 18.125M 18.125 20.625L 20.625 20.625M 24.375 18.125L 28.75 18.125M 24.375 15.625L 18.75 15.625C 18.404821 15.625 18.125 15.904821 18.125 16.25L 18.125 25C 18.125 25.345177 18.404821 25.625 18.75 25.625L 24.375 25.625"></path></g></g></g><g id="g-root-exce_1hfq4tqlew0lg-stroke" data-item-order="1000000000" transform="translate(357, 325)"><g id="exce_1hfq4tqlew0lg-stroke" fill="none" stroke-linecap="round" stroke-linejoin="round" stroke-miterlimit="4" stroke="#e55753" stroke-width="2"><g><path d="M 31.556252 35.766251L 34.557499 39.366249L 39.358749 39.366249L 34.557499 33.364998L 39.358749 27.36375L 34.557499 27.36375L 31.556252 30.965L 28.55625 27.36375L 23.754999 27.36375L 28.55625 33.364998L 23.754999 39.366249L 28.55625 39.366249L 31.556252 35.766251ZM 18.942499 37.921249C 16.121218 37.92194 13.83375 35.635033 13.83375 32.813751L 13.83375 29.625M 17.026249 32.813751L 13.83375 29.62125L 10.64125 32.813751M 31.07375 12.13375C 33.895031 12.13306 36.182499 14.419968 36.182499 17.241251L 36.182499 21.0725M 32.990002 17.879999L 36.182499 21.0725L 39.375 17.879999M 11.9025 10.63375L 25.94875 10.63375C 25.94875 10.63375 27.22625 10.63375 27.22625 11.91125L 27.22625 23.403749C 27.22625 23.403749 27.22625 24.68125 25.94875 24.68125L 11.9025 24.68125C 11.9025 24.68125 10.625 24.68125 10.625 23.403749L 10.625 11.91125C 10.625 11.91125 10.625 10.63375 11.9025 10.63375M 10.625 14.51L 27.22625 14.51M 10.625 17.879999L 27.22625 17.879999M 10.625 21.345001L 27.22625 21.345001M 18.215 14.51L 18.215 24.68125M 22.67 14.51L 22.67 24.68125"></path></g></g></g><g id="g-root-tx_costredu_mcd4vilevz7n-stroke" data-item-order="1000000000" transform="translate(393, 328)"></g></g></g></svg>