<?xml version="1.0" encoding="utf-8" standalone="yes"?>
<!DOCTYPE svg PUBLIC "-//W3C//DTD SVG 1.1//EN" "http://www.w3.org/Graphics/SVG/1.1/DTD/svg11.dtd">
<svg width="902" height="331" viewBox="0 0 902 331" style="fill:none;stroke:none;fill-rule:evenodd;clip-rule:evenodd;stroke-linecap:round;stroke-linejoin:round;stroke-miterlimit:1.5;" version="1.1" xmlns="http://www.w3.org/2000/svg" xmlns:xlink="http://www.w3.org/1999/xlink"><style id="fontImports">@import url("https://fonts.googleapis.com/css2?family=Roboto:wght@400;700&amp;display=block");</style><g id="items" style="isolation: isolate"><g id="blend" style="mix-blend-mode: normal"><g id="g-root-ro_hsscemlox0r3-fill" data-item-order="-16848" transform="translate(15, 18)"><g id="ro_hsscemlox0r3-fill" stroke="none" fill="#ffeceb"><g><path d="M 22 10L 310 10C 310 10 322 10 322 22L 322 52C 322 52 322 64 310 64L 22 64C 22 64 10 64 10 52L 10 22C 10 22 10 10 22 10"></path></g></g></g><g id="g-root-ro_dhygnilon6yp-fill" data-item-order="-16632" transform="translate(375, 93)"><g id="ro_dhygnilon6yp-fill" stroke="none" fill="#f5f5f5"><g><path d="M 34 10L 118 10C 118 10 142 10 142 34L 142 112C 142 112 142 136 118 136L 34 136C 34 136 10 136 10 112L 10 34C 10 34 10 10 34 10"></path></g></g></g><g id="g-root-ro_qvahfylokdfu-fill" data-item-order="-16200" transform="translate(555, 18)"><g id="ro_qvahfylokdfu-fill" stroke="none" fill="#faf0ff"><g><path d="M 22 10L 298 10C 298 10 310 10 310 22L 310 52C 310 52 310 64 298 64L 22 64C 22 64 10 64 10 52L 10 22C 10 22 10 10 22 10"></path></g></g></g><g id="g-root-ro_1ulk0r2loepe5-fill" data-item-order="-12960" transform="translate(87, 168)"><g id="ro_1ulk0r2loepe5-fill" stroke="none" fill="#f4ffdc"><g><path d="M 22 10L 238 10C 238 10 250 10 250 22L 250 52C 250 52 250 64 238 64L 22 64C 22 64 10 64 10 52L 10 22C 10 22 10 10 22 10"></path></g></g></g><g id="g-root-ro_1qf3jrilokdu4-fill" data-item-order="-12960" transform="translate(555, 168)"><g id="ro_1qf3jrilokdu4-fill" stroke="none" fill="#fffbda"><g><path d="M 22 10L 238 10C 238 10 250 10 250 22L 250 52C 250 52 250 64 238 64L 22 64C 22 64 10 64 10 52L 10 22C 10 22 10 10 22 10"></path></g></g></g><g id="g-root-cu_1cuwhceloepdz-fill" data-item-order="0" transform="translate(579, 222)"></g><g id="g-root-cu_1lpx0i6loeqyp-fill" data-item-order="0" transform="translate(507, 45)"></g><g id="g-root-cu_1cuwhceloepdw-fill" data-item-order="0" transform="translate(579, 222)"></g><g id="g-root-cu_18f2z7yloeq6c-fill" data-item-order="0" transform="translate(285, 222)"></g><g id="g-root-tx_unifiedp_4jtqdqloq03v-fill" data-item-order="0" transform="translate(123, 84)"><g id="tx_unifiedp_4jtqdqloq03v-fill" stroke="none" fill="#484848"><g><text style="font-style: normal; font-variant-caps: normal; font-weight: normal; font-stretch: normal; font-size: 20px; line-height: normal; font-family: Roboto, sans-serif; font-size-adjust: none; font-kerning: auto; font-variant-alternates: normal; font-variant-ligatures: normal; font-variant-numeric: normal; font-variant-east-asian: normal; font-variant-position: normal; font-variant-emoji: normal; font-feature-settings: normal; font-optical-sizing: auto; font-variation-settings: normal; white-space: pre;"><tspan x="15.4" y="34" dominant-baseline="ideographic">Unified Platform</tspan></text></g></g></g><g id="g-root-cu_1hapzguloeole-fill" data-item-order="0" transform="translate(285, 72)"></g><g id="g-root-cu_1hapzguloeolh-fill" data-item-order="0" transform="translate(285, 72)"></g><g id="g-root-cu_1cuwhceloepe1-fill" data-item-order="0" transform="translate(285, 222)"></g><g id="g-root-tx_formsand_dkgjbilopyq1-fill" data-item-order="0" transform="translate(99, 234)"><g id="tx_formsand_dkgjbilopyq1-fill" stroke="none" fill="#484848"><g><text style="font-style: normal; font-variant-caps: normal; font-weight: normal; font-stretch: normal; font-size: 20px; line-height: normal; font-family: Roboto, sans-serif; font-size-adjust: none; font-kerning: auto; font-variant-alternates: normal; font-variant-ligatures: normal; font-variant-numeric: normal; font-variant-east-asian: normal; font-variant-position: normal; font-variant-emoji: normal; font-feature-settings: normal; font-optical-sizing: auto; font-variation-settings: normal; white-space: pre;"><tspan x="12.15" y="34" dominant-baseline="ideographic">Forms and Services</tspan></text></g></g></g><g id="g-root-cu_1hapzguloeolj-fill" data-item-order="0" transform="translate(579, 72)"></g><g id="g-root-cu_1cuwhceloepdu-fill" data-item-order="0" transform="translate(579, 72)"></g><g id="g-root-cu_1q5qimmloeq6e-fill" data-item-order="0" transform="translate(327, 45)"></g><g id="g-root-tx_tailored_144vnpqlopzpq-fill" data-item-order="0" transform="translate(603, 120)"><g id="tx_tailored_144vnpqlopzpq-fill" stroke="none" fill="#484848"><g><text style="font-style: normal; font-variant-caps: normal; font-weight: normal; font-stretch: normal; font-size: 20px; line-height: normal; font-family: Roboto, sans-serif; font-size-adjust: none; font-kerning: auto; font-variant-alternates: normal; font-variant-ligatures: normal; font-variant-numeric: normal; font-variant-east-asian: normal; font-variant-position: normal; font-variant-emoji: normal; font-feature-settings: normal; font-optical-sizing: auto; font-variation-settings: normal; white-space: pre;"><tspan x="15.04" y="34" dominant-baseline="ideographic">Tailored Resource Access</tspan></text></g></g></g><g id="g-root-cu_1lpx0i6loeqys-fill" data-item-order="0" transform="translate(507, 177)"></g><g id="g-root-tx_customiz_4lp5n2lopz45-fill" data-item-order="0" transform="translate(603, 84)"><g id="tx_customiz_4lp5n2lopz45-fill" stroke="none" fill="#484848"><g><text style="font-style: normal; font-variant-caps: normal; font-weight: normal; font-stretch: normal; font-size: 20px; line-height: normal; font-family: Roboto, sans-serif; font-size-adjust: none; font-kerning: auto; font-variant-alternates: normal; font-variant-ligatures: normal; font-variant-numeric: normal; font-variant-east-asian: normal; font-variant-position: normal; font-variant-emoji: normal; font-feature-settings: normal; font-optical-sizing: auto; font-variation-settings: normal; white-space: pre;"><tspan x="14.05" y="34" dominant-baseline="ideographic">Customizable Catalog</tspan></text></g></g></g><g id="g-root-tx_eliminat_znt7f2lopybw-fill" data-item-order="0" transform="translate(51, 120)"><g id="tx_eliminat_znt7f2lopybw-fill" stroke="none" fill="#484848"><g><text style="font-style: normal; font-variant-caps: normal; font-weight: normal; font-stretch: normal; font-size: 20px; line-height: normal; font-family: Roboto, sans-serif; font-size-adjust: none; font-kerning: auto; font-variant-alternates: normal; font-variant-ligatures: normal; font-variant-numeric: normal; font-variant-east-asian: normal; font-variant-position: normal; font-variant-emoji: normal; font-feature-settings: normal; font-optical-sizing: auto; font-variation-settings: normal; white-space: pre;"><tspan x="13.48" y="34" dominant-baseline="ideographic">Eliminates Multiple Apps</tspan></text></g></g></g><g id="g-root-cu_1lpx0i6loeqyv-fill" data-item-order="0" transform="translate(327, 177)"></g><g id="g-root-tx_efficien_1d2e37ylopxxc-fill" data-item-order="0" transform="translate(603, 270)"><g id="tx_efficien_1d2e37ylopxxc-fill" stroke="none" fill="#484848"><g><text style="font-style: normal; font-variant-caps: normal; font-weight: normal; font-stretch: normal; font-size: 20px; line-height: normal; font-family: Roboto, sans-serif; font-size-adjust: none; font-kerning: auto; font-variant-alternates: normal; font-variant-ligatures: normal; font-variant-numeric: normal; font-variant-east-asian: normal; font-variant-position: normal; font-variant-emoji: normal; font-feature-settings: normal; font-optical-sizing: auto; font-variation-settings: normal; white-space: pre;"><tspan x="12.21" y="34" dominant-baseline="ideographic">Efficient Request Submission</tspan></text></g></g></g><g id="g-root-tx_timesavi_1hjgjimlopzb6-fill" data-item-order="0" transform="translate(15, 270)"><g id="tx_timesavi_1hjgjimlopzb6-fill" stroke="none" fill="#484848"><g><text style="font-style: normal; font-variant-caps: normal; font-weight: normal; font-stretch: normal; font-size: 20px; line-height: normal; font-family: Roboto, sans-serif; font-size-adjust: none; font-kerning: auto; font-variant-alternates: normal; font-variant-ligatures: normal; font-variant-numeric: normal; font-variant-east-asian: normal; font-variant-position: normal; font-variant-emoji: normal; font-feature-settings: normal; font-optical-sizing: auto; font-variation-settings: normal; white-space: pre;"><tspan x="13.37" y="34" dominant-baseline="ideographic">Time-Saving Communication</tspan></text></g></g></g><g id="g-root-tx_conditio_93e30ulopxc7-fill" data-item-order="0" transform="translate(603, 234)"><g id="tx_conditio_93e30ulopxc7-fill" stroke="none" fill="#484848"><g><text style="font-style: normal; font-variant-caps: normal; font-weight: normal; font-stretch: normal; font-size: 20px; line-height: normal; font-family: Roboto, sans-serif; font-size-adjust: none; font-kerning: auto; font-variant-alternates: normal; font-variant-ligatures: normal; font-variant-numeric: normal; font-variant-east-asian: normal; font-variant-position: normal; font-variant-emoji: normal; font-feature-settings: normal; font-optical-sizing: auto; font-variation-settings: normal; white-space: pre;"><tspan x="17.49" y="34" dominant-baseline="ideographic">Conditional Workflows</tspan></text></g></g></g><g id="g-root-tx_centrali_18n75celodbsz-fill" data-item-order="1000000000" transform="translate(99, 183)"><g id="tx_centrali_18n75celodbsz-fill" stroke="none" fill="#92bd39"><g><text style="font-style: normal; font-variant-caps: normal; font-weight: normal; font-stretch: normal; font-size: 20px; line-height: normal; font-family: Roboto, sans-serif; font-size-adjust: none; font-kerning: auto; font-variant-alternates: normal; font-variant-ligatures: normal; font-variant-numeric: normal; font-variant-east-asian: normal; font-variant-position: normal; font-variant-emoji: normal; font-feature-settings: normal; font-optical-sizing: auto; font-variation-settings: normal; white-space: pre;"><tspan x="14.49" y="34" dominant-baseline="ideographic">Centralized Access</tspan></text></g></g></g><g id="g-root-2_4g2z0uloeosk-fill" data-item-order="1000000000" transform="translate(285, 180)"></g><g id="g-root-tx_oneapp_1lvj0sulon4lj-fill" data-item-order="1000000000" transform="translate(399, 171)"><g id="tx_oneapp_1lvj0sulon4lj-fill" stroke="none" fill="#969696"><g><text style="font-style: normal; font-variant-caps: normal; font-weight: normal; font-stretch: normal; font-size: 20px; line-height: normal; font-family: Roboto, sans-serif; font-size-adjust: none; font-kerning: auto; font-variant-alternates: normal; font-variant-ligatures: normal; font-variant-numeric: normal; font-variant-east-asian: normal; font-variant-position: normal; font-variant-emoji: normal; font-feature-settings: normal; font-optical-sizing: auto; font-variation-settings: normal; white-space: pre;"><tspan x="14.03" y="34" dominant-baseline="ideographic">One App</tspan></text></g></g></g><g id="g-root-mesh_dhygnilon6yo-fill" data-item-order="1000000000" transform="translate(417, 117)"></g><g id="g-root-chec_1qf3jrilokdu3-fill" data-item-order="1000000000" transform="translate(567, 180)"></g><g id="g-root-tx_fasterre_vbqjtalokcga-fill" data-item-order="1000000000" transform="translate(603, 183)"><g id="tx_fasterre_vbqjtalokcga-fill" stroke="none" fill="#e0cb15"><g><text style="font-style: normal; font-variant-caps: normal; font-weight: normal; font-stretch: normal; font-size: 20px; line-height: normal; font-family: Roboto, sans-serif; font-size-adjust: none; font-kerning: auto; font-variant-alternates: normal; font-variant-ligatures: normal; font-variant-numeric: normal; font-variant-east-asian: normal; font-variant-position: normal; font-variant-emoji: normal; font-feature-settings: normal; font-optical-sizing: auto; font-variation-settings: normal; white-space: pre;"><tspan x="17.12" y="34" dominant-baseline="ideographic">Faster Resolutions</tspan></text></g></g></g><g id="g-root-tx_personal_1ut1jgulokbuw-fill" data-item-order="1000000000" transform="translate(603, 33)"><g id="tx_personal_1ut1jgulokbuw-fill" stroke="none" fill="#ba5de5"><g><text style="font-style: normal; font-variant-caps: normal; font-weight: normal; font-stretch: normal; font-size: 20px; line-height: normal; font-family: Roboto, sans-serif; font-size-adjust: none; font-kerning: auto; font-variant-alternates: normal; font-variant-ligatures: normal; font-variant-numeric: normal; font-variant-east-asian: normal; font-variant-position: normal; font-variant-emoji: normal; font-feature-settings: normal; font-optical-sizing: auto; font-variation-settings: normal; white-space: pre;"><tspan x="15.37" y="34" dominant-baseline="ideographic">Personalized and Intuitive</tspan></text></g></g></g><g id="g-root-mobi_qvahfylokdft-fill" data-item-order="1000000000" transform="translate(567, 30)"></g><g id="g-root-tx_simplifi_9dqmlox0y5-fill" data-item-order="1000000000" transform="translate(27, 33)"><g id="tx_simplifi_9dqmlox0y5-fill" stroke="none" fill="#e55753"><g><text style="font-style: normal; font-variant-caps: normal; font-weight: normal; font-stretch: normal; font-size: 20px; line-height: normal; font-family: Roboto, sans-serif; font-size-adjust: none; font-kerning: auto; font-variant-alternates: normal; font-variant-ligatures: normal; font-variant-numeric: normal; font-variant-east-asian: normal; font-variant-position: normal; font-variant-emoji: normal; font-feature-settings: normal; font-optical-sizing: auto; font-variation-settings: normal; white-space: pre;"><tspan x="17.43" y="34" dominant-baseline="ideographic">Simplified User Experience</tspan></text></g></g></g><g id="g-root-exch_qofcnilowzye-fill" data-item-order="1000000000" transform="translate(285, 30)"></g><g id="g-root-ro_hsscemlox0r3-stroke" data-item-order="-16848" transform="translate(15, 18)"><g id="ro_hsscemlox0r3-stroke" fill="none" stroke-linecap="round" stroke-linejoin="round" stroke-miterlimit="4" stroke="#e55753" stroke-width="2"><g><path d="M 22 10L 310 10C 310 10 322 10 322 22L 322 52C 322 52 322 64 310 64L 22 64C 22 64 10 64 10 52L 10 22C 10 22 10 10 22 10"></path></g></g></g><g id="g-root-ro_dhygnilon6yp-stroke" data-item-order="-16632" transform="translate(375, 93)"><g id="ro_dhygnilon6yp-stroke" fill="none" stroke-linecap="round" stroke-linejoin="round" stroke-miterlimit="4" stroke="#484848" stroke-width="2"><g><path d="M 34 10L 118 10C 118 10 142 10 142 34L 142 112C 142 112 142 136 118 136L 34 136C 34 136 10 136 10 112L 10 34C 10 34 10 10 34 10"></path></g></g></g><g id="g-root-ro_qvahfylokdfu-stroke" data-item-order="-16200" transform="translate(555, 18)"><g id="ro_qvahfylokdfu-stroke" fill="none" stroke-linecap="round" stroke-linejoin="round" stroke-miterlimit="4" stroke="#ba5de5" stroke-width="2"><g><path d="M 22 10L 298 10C 298 10 310 10 310 22L 310 52C 310 52 310 64 298 64L 22 64C 22 64 10 64 10 52L 10 22C 10 22 10 10 22 10"></path></g></g></g><g id="g-root-ro_1ulk0r2loepe5-stroke" data-item-order="-12960" transform="translate(87, 168)"><g id="ro_1ulk0r2loepe5-stroke" fill="none" stroke-linecap="round" stroke-linejoin="round" stroke-miterlimit="4" stroke="#92bd39" stroke-width="2"><g><path d="M 22 10L 238 10C 238 10 250 10 250 22L 250 52C 250 52 250 64 238 64L 22 64C 22 64 10 64 10 52L 10 22C 10 22 10 10 22 10"></path></g></g></g><g id="g-root-ro_1qf3jrilokdu4-stroke" data-item-order="-12960" transform="translate(555, 168)"><g id="ro_1qf3jrilokdu4-stroke" fill="none" stroke-linecap="round" stroke-linejoin="round" stroke-miterlimit="4" stroke="#e0cb15" stroke-width="2"><g><path d="M 22 10L 238 10C 238 10 250 10 250 22L 250 52C 250 52 250 64 238 64L 22 64C 22 64 10 64 10 52L 10 22C 10 22 10 10 22 10"></path></g></g></g><g id="g-root-cu_1cuwhceloepdz-stroke" data-item-order="0" transform="translate(579, 222)"><g id="cu_1cuwhceloepdz-stroke" fill="none" stroke-linecap="round" stroke-linejoin="round" stroke-miterlimit="4" stroke="#969696" stroke-width="2" stroke-dasharray="5.0, 7.0"><g><path d="M 10 10L 10 17.5L 10 58C 10.000002 64.627417 15.372585 70 22.000002 69.999999L 22.1 70L 28 70"></path></g></g></g><g id="g-root-cu_1lpx0i6loeqyp-stroke" data-item-order="0" transform="translate(507, 45)"><g id="cu_1lpx0i6loeqyp-stroke" fill="none" stroke-linecap="round" stroke-linejoin="round" stroke-miterlimit="4" stroke="#969696" stroke-width="2" stroke-dasharray="5.0, 7.0"><g><path d="M 10 100L 13 100L 13.1 100C 24.642748 100.000004 33.999997 90.642755 33.999998 79.100003L 34 79L 34 30.9C 33.999999 19.357249 43.357248 10.000001 54.899999 10.000002L 55 10L 58 10"></path></g></g></g><g id="g-root-cu_1cuwhceloepdw-stroke" data-item-order="0" transform="translate(579, 222)"><g id="cu_1cuwhceloepdw-stroke" fill="none" stroke-linecap="round" stroke-linejoin="round" stroke-miterlimit="4" stroke="#969696" stroke-width="2" stroke-dasharray="5.0, 7.0"><g><path d="M 10 10L 10 22L 10 34L 19 34L 28 34"></path></g></g></g><g id="g-root-cu_18f2z7yloeq6c-stroke" data-item-order="0" transform="translate(285, 222)"><g id="cu_18f2z7yloeq6c-stroke" fill="none" stroke-linecap="round" stroke-linejoin="round" stroke-miterlimit="4" stroke="#969696" stroke-width="2" stroke-dasharray="5.0, 7.0"><g><path d="M 28 10L 28 17.5L 28 58C 27.999999 64.627415 22.627416 69.999998 16 69.999998L 15.9 70L 10 70"></path></g></g></g><g id="g-root-tx_unifiedp_4jtqdqloq03v-stroke" data-item-order="0" transform="translate(123, 84)"></g><g id="g-root-cu_1hapzguloeole-stroke" data-item-order="0" transform="translate(285, 72)"><g id="cu_1hapzguloeole-stroke" fill="none" stroke-linecap="round" stroke-linejoin="round" stroke-miterlimit="4" stroke="#969696" stroke-width="2" stroke-dasharray="5.0, 7.0"><g><path d="M 28 10L 28 22L 28 34L 19 34L 10 34"></path></g></g></g><g id="g-root-cu_1hapzguloeolh-stroke" data-item-order="0" transform="translate(285, 72)"><g id="cu_1hapzguloeolh-stroke" fill="none" stroke-linecap="round" stroke-linejoin="round" stroke-miterlimit="4" stroke="#969696" stroke-width="2" stroke-dasharray="5.0, 7.0"><g><path d="M 28 10L 28 17.5L 28 58C 27.999999 64.627415 22.627416 69.999998 16 69.999998L 15.9 70L 10 70"></path></g></g></g><g id="g-root-cu_1cuwhceloepe1-stroke" data-item-order="0" transform="translate(285, 222)"><g id="cu_1cuwhceloepe1-stroke" fill="none" stroke-linecap="round" stroke-linejoin="round" stroke-miterlimit="4" stroke="#969696" stroke-width="2" stroke-dasharray="5.0, 7.0"><g><path d="M 28 10L 28 22L 28 34L 19 34L 10 34"></path></g></g></g><g id="g-root-tx_formsand_dkgjbilopyq1-stroke" data-item-order="0" transform="translate(99, 234)"></g><g id="g-root-cu_1hapzguloeolj-stroke" data-item-order="0" transform="translate(579, 72)"><g id="cu_1hapzguloeolj-stroke" fill="none" stroke-linecap="round" stroke-linejoin="round" stroke-miterlimit="4" stroke="#969696" stroke-width="2" stroke-dasharray="5.0, 7.0"><g><path d="M 10 10L 10 22L 10 34L 19 34L 28 34"></path></g></g></g><g id="g-root-cu_1cuwhceloepdu-stroke" data-item-order="0" transform="translate(579, 72)"><g id="cu_1cuwhceloepdu-stroke" fill="none" stroke-linecap="round" stroke-linejoin="round" stroke-miterlimit="4" stroke="#969696" stroke-width="2" stroke-dasharray="5.0, 7.0"><g><path d="M 10 10L 10 17.5L 10 58C 10.000002 64.627417 15.372585 70 22.000002 69.999999L 22.1 70L 28 70"></path></g></g></g><g id="g-root-cu_1q5qimmloeq6e-stroke" data-item-order="0" transform="translate(327, 45)"><g id="cu_1q5qimmloeq6e-stroke" fill="none" stroke-linecap="round" stroke-linejoin="round" stroke-miterlimit="4" stroke="#969696" stroke-width="2" stroke-dasharray="5.0, 7.0"><g><path d="M 58 100L 55 100L 54.9 100C 43.357252 100 34.000003 90.642751 34.000003 79.1L 34 79L 34 30.9C 33.999998 19.357248 24.64275 10 13.1 10L 13 10L 10 10"></path></g></g></g><g id="g-root-tx_tailored_144vnpqlopzpq-stroke" data-item-order="0" transform="translate(603, 120)"></g><g id="g-root-cu_1lpx0i6loeqys-stroke" data-item-order="0" transform="translate(507, 177)"><g id="cu_1lpx0i6loeqys-stroke" fill="none" stroke-linecap="round" stroke-linejoin="round" stroke-miterlimit="4" stroke="#969696" stroke-width="2" stroke-dasharray="5.0, 7.0"><g><path d="M 10 10L 13 10L 13.1 10C 16.63228 9.979927 20.514747 10.763232 24.5 12.300001C 26.884298 13.264007 30.256797 15.642506 34.000001 19.000001C 37.743204 22.357495 41.115704 24.735995 43.500001 25.700001C 47.485253 27.236771 51.36772 28.020075 54.9 28.000003L 55 28L 58 28"></path></g></g></g><g id="g-root-tx_customiz_4lp5n2lopz45-stroke" data-item-order="0" transform="translate(603, 84)"></g><g id="g-root-tx_eliminat_znt7f2lopybw-stroke" data-item-order="0" transform="translate(51, 120)"></g><g id="g-root-cu_1lpx0i6loeqyv-stroke" data-item-order="0" transform="translate(327, 177)"><g id="cu_1lpx0i6loeqyv-stroke" fill="none" stroke-linecap="round" stroke-linejoin="round" stroke-miterlimit="4" stroke="#969696" stroke-width="2" stroke-dasharray="5.0, 7.0"><g><path d="M 58 10L 55 10L 54.9 10C 51.367721 9.979924 47.485254 10.763229 43.500001 12.299998C 41.115703 13.264006 37.743204 15.642505 34.000001 19C 30.256797 22.357494 26.884298 24.735994 24.5 25.7C 20.514747 27.236768 16.632281 28.020072 13.100001 28L 13 28L 10 28"></path></g></g></g><g id="g-root-tx_efficien_1d2e37ylopxxc-stroke" data-item-order="0" transform="translate(603, 270)"></g><g id="g-root-tx_timesavi_1hjgjimlopzb6-stroke" data-item-order="0" transform="translate(15, 270)"></g><g id="g-root-tx_conditio_93e30ulopxc7-stroke" data-item-order="0" transform="translate(603, 234)"></g><g id="g-root-tx_centrali_18n75celodbsz-stroke" data-item-order="1000000000" transform="translate(99, 183)"></g><g id="g-root-2_4g2z0uloeosk-stroke" data-item-order="1000000000" transform="translate(285, 180)"><g id="2_4g2z0uloeosk-stroke" fill="none" stroke-linecap="round" stroke-linejoin="round" stroke-miterlimit="4" stroke="#92bd39" stroke-width="2"><g><path d="M 25.0625 16.374975C 26.443251 16.374975 27.5625 15.255688 27.5625 13.874975C 27.5625 12.494263 26.443251 11.374975 25.0625 11.374975C 23.681751 11.374975 22.5625 12.494263 22.5625 13.874975C 22.5625 15.255688 23.681751 16.374975 25.0625 16.374975ZM 36.5625 38.625C 37.943253 38.625 39.0625 37.505753 39.0625 36.125C 39.0625 34.744373 37.943253 33.625 36.5625 33.625C 35.181747 33.625 34.0625 34.744373 34.0625 36.125C 34.0625 37.505753 35.181747 38.625 36.5625 38.625ZM 13.4375 38.625C 14.818213 38.625 15.9375 37.505753 15.9375 36.125C 15.9375 34.744373 14.818213 33.625 13.4375 33.625C 12.056787 33.625 10.9375 34.744373 10.9375 36.125C 10.9375 37.505753 12.056787 38.625 13.4375 38.625ZM 22.375025 28.999874C 23.875 27.499874 26.25 27.499874 27.625 28.999874M 19.6875 26.374876C 22.5625 23.499874 27.3125 23.499874 30.3125 26.374876M 25 32.75C 24.723875 32.75 24.5 32.526127 24.5 32.25C 24.5 31.973875 24.723875 31.75 25 31.75M 24.999874 32.75C 25.276001 32.75 25.499876 32.526127 25.499876 32.25C 25.499876 31.973875 25.276001 31.75 24.999874 31.75M 29.8125 18.124849C 33.3125 21.249849 35.5625 25.249874 35.9375 30.124874M 20.187489 18.124849C 16.687487 21.249849 14.4375 25.249874 14.0625 30.124874M 19.437489 37.249874C 23.0625 38.749878 26.8125 38.874874 30.6875 37.249874"></path></g></g></g><g id="g-root-tx_oneapp_1lvj0sulon4lj-stroke" data-item-order="1000000000" transform="translate(399, 171)"></g><g id="g-root-mesh_dhygnilon6yo-stroke" data-item-order="1000000000" transform="translate(417, 117)"><g id="mesh_dhygnilon6yo-stroke" fill="none" stroke-linecap="round" stroke-linejoin="round" stroke-miterlimit="4" stroke="#969696" stroke-width="2"><g><path d="M 16 47.400002C 17.65686 47.400002 19 46.056801 19 44.400002C 19 42.743 17.65686 41.400002 16 41.400002C 14.34314 41.400002 13 42.743 13 44.400002C 13 46.056801 14.34314 47.400002 16 47.400002ZM 16 41.400002L 16 37.400002M 10 10M 18.799801 45.799999L 20.99976 47M 34.000198 35C 35.656998 35 37.000198 33.656799 37.000198 32C 37.000198 30.343201 35.656998 29 34.000198 29C 32.343201 29 31.0002 30.343201 31.0002 32C 31.0002 33.656799 32.343201 35 34.000198 35ZM 34.000198 35L 34.000198 39M 10 10M 28.00012 29L 31.277201 30.735001M 10 10M 39.999802 29L 36.765602 30.819201M 34.000198 56.5C 35.656998 56.5 37.000198 55.156799 37.000198 53.5C 37.000198 51.843201 35.656998 50.5 34.000198 50.5C 32.343201 50.5 31.0002 51.843201 31.0002 53.5C 31.0002 55.156799 32.343201 56.5 34.000198 56.5ZM 34.000198 50.5L 34.000198 46.5M 10 10M 28.00012 50.5L 31.277201 52.235001M 10 10M 39.999802 50.5L 36.757797 52.323601M 52 47.400002C 53.656799 47.400002 55 46.056801 55 44.400002C 55 42.743 53.656799 41.400002 52 41.400002C 50.343201 41.400002 49 42.743 49 44.400002C 49 46.056801 50.343201 47.400002 52 47.400002ZM 52 41.400002L 52 37.400002M 10 10M 47 47L 49.359402 45.8204M 34.000198 17.5C 35.656998 17.5 37.000198 16.15686 37.000198 14.5C 37.000198 12.84314 35.656998 11.5 34.000198 11.5C 32.343201 11.5 31.0002 12.84314 31.0002 14.5C 31.0002 16.15686 32.343201 17.5 34.000198 17.5ZM 10 10M 28.00012 17.500141L 31.3594 15.91932M 10 10M 39.999802 17.500099L 36.687599 15.84388M 16 26.6001C 17.65686 26.6001 19 25.25696 19 23.6001C 19 21.943241 17.65686 20.6001 16 20.6001C 14.34314 20.6001 13 21.943241 13 23.6001C 13 25.25696 14.34314 26.6001 16 26.6001ZM 16 26.6001L 16 30.6M 10 10M 18.6875 24.938961L 20.99976 26.200239M 10 10M 18.50782 21.95936L 20.99976 20.6001M 52 26.6001C 53.656799 26.6001 55 25.25696 55 23.6001C 55 21.943241 53.656799 20.6001 52 20.6001C 50.343201 20.6001 49 21.943241 49 23.6001C 49 25.25696 50.343201 26.6001 52 26.6001ZM 52 26.6001L 52 30.6M 10 10M 47 26.200319L 49.359402 25.02062M 49.5546 21.87742L 47 20.6001"></path></g></g></g><g id="g-root-chec_1qf3jrilokdu3-stroke" data-item-order="1000000000" transform="translate(567, 180)"><g id="chec_1qf3jrilokdu3-stroke" fill="none" stroke-linecap="round" stroke-linejoin="round" stroke-miterlimit="4" stroke="#e0cb15" stroke-width="2"><g><path d="M 32.4375 19.000088L 17.437511 19.000088L 17.437511 39.000126L 32.4375 39.000126L 32.4375 19.000088ZM 34.9375 25.999874L 38.9375 25.999874M 34.9375 30.999874L 38.9375 30.999874M 34.9375 35.999874L 37.6875 35.999874C 38.4375 35.999874 38.9375 35.499874 38.9375 34.749874L 38.9375 22.249912C 38.9375 21.499912 38.4375 20.999912 37.6875 20.999912L 34.9375 20.999912M 18.062511 25.624874L 32.4375 25.624874M 18.062511 32.499878L 32.4375 32.499878M 14.937488 25.999874L 10.9375 25.999874M 14.937488 30.999874L 10.9375 30.999874M 14.9375 35.999874L 12.1875 35.999874C 11.4375 35.999874 10.9375 35.499874 10.9375 34.749874L 10.9375 22.249912C 10.9375 21.499912 11.4375 20.999912 12.1875 20.999912L 14.9375 20.999912M 10 10M 23.0625 12.249912L 24.9375 13.9999L 28.0625 10.999908"></path></g></g></g><g id="g-root-tx_fasterre_vbqjtalokcga-stroke" data-item-order="1000000000" transform="translate(603, 183)"></g><g id="g-root-tx_personal_1ut1jgulokbuw-stroke" data-item-order="1000000000" transform="translate(603, 33)"></g><g id="g-root-mobi_qvahfylokdft-stroke" data-item-order="1000000000" transform="translate(567, 30)"><g id="mobi_qvahfylokdft-stroke" fill="none" stroke-linecap="round" stroke-linejoin="round" stroke-miterlimit="4" stroke="#ba5de5" stroke-width="2"><g><path d="M 38.125 23.125L 29.375 23.125C 28.684624 23.125 28.125 23.684624 28.125 24.375L 28.125 38.125C 28.125 38.815376 28.684624 39.375 29.375 39.375L 38.125 39.375C 38.815376 39.375 39.375 38.815376 39.375 38.125L 39.375 24.375C 39.375 23.684624 38.815376 23.125 38.125 23.125ZM 25.75 21.662624C 25.05125 20.515013 24.703625 19.18795 24.75 17.845125L 24.75 16.287624C 24.779249 15.5641 24.662001 14.842137 24.405251 14.165075C 24.1485 13.488012 23.757626 12.8698 23.256001 12.34755C 22.754375 11.8253 22.152475 11.409787 21.486313 11.12595C 20.820162 10.842112 20.103514 10.695801 19.3794 10.695801C 18.6553 10.695801 17.93865 10.842112 17.272499 11.12595C 16.606337 11.409787 16.0044 11.8253 15.5028 12.34755C 15.001212 12.8698 14.610325 13.488012 14.353588 14.165075C 14.096849 14.842137 13.979575 15.5641 14.008775 16.287624L 14.008775 17.845125C 14.051937 19.188763 13.701313 20.515701 13.000025 21.662624M 14.006275 17.170113C 15.025262 17.168537 16.032 16.947962 16.9583 16.523312C 17.884588 16.098663 18.708775 15.479876 19.375025 14.708862C 20.041901 15.480725 20.867088 16.100039 21.794537 16.524725C 22.722 16.9494 23.73 17.169525 24.75 17.170113M 24.11125 17.142338C 24.05525 18.360163 23.532125 19.509562 22.650501 20.351587C 21.768862 21.1936 20.596649 21.66345 19.377537 21.66345C 18.158413 21.66345 16.9862 21.1936 16.104574 20.351587C 15.222962 19.509562 14.699775 18.360163 14.643787 17.142338M 24.375 24.982374C 23.063 24.068874 21.525801 23.532125 19.9303 23.43075C 18.334801 23.32925 16.742001 23.666876 15.32485 24.406876C 13.9077 25.146875 12.720387 26.261 11.891825 27.62825C 11.063263 28.995499 10.625129 30.563623 10.625 32.162376L 24.375 32.162376M 33.75 35.9375C 33.577377 35.9375 33.4375 35.797623 33.4375 35.625C 33.4375 35.452377 33.577377 35.3125 33.75 35.3125M 33.75 35.9375C 33.922623 35.9375 34.0625 35.797623 34.0625 35.625C 34.0625 35.452377 33.922623 35.3125 33.75 35.3125"></path></g></g></g><g id="g-root-tx_simplifi_9dqmlox0y5-stroke" data-item-order="1000000000" transform="translate(27, 33)"></g><g id="g-root-exch_qofcnilowzye-stroke" data-item-order="1000000000" transform="translate(285, 30)"><g id="exch_qofcnilowzye-stroke" fill="none" stroke-linecap="round" stroke-linejoin="round" stroke-miterlimit="4" stroke="#e55753" stroke-width="2"><g><path d="M 20.004999 38.75L 22.504999 36.25L 20.004999 33.75M 29.379999 23.125L 39.380001 23.125L 39.380001 39.375L 29.379999 39.375ZM 15 30C 15 33.451778 17.79822 36.25 21.25 36.25L 22.5 36.25M 34.380001 11.25L 31.879999 13.75L 34.380001 16.25M 39.375 20C 39.375 16.54822 36.576782 13.75 33.125 13.75L 31.875 13.75M 29.379999 34.375L 39.380001 34.375M 34.375 36.5625C 34.202412 36.5625 34.0625 36.702412 34.0625 36.875C 34.0625 37.047588 34.202412 37.1875 34.375 37.1875C 34.547588 37.1875 34.6875 37.047588 34.6875 36.875C 34.6875 36.702412 34.547588 36.5625 34.375 36.5625L 34.375 36.5625M 10.63 10.625L 26.879999 10.625L 26.879999 23.125L 10.63 23.125ZM 10.63 14.375L 26.879999 14.375M 13.755 16.875L 19.380001 16.875M 13.755 19.375L 16.255001 19.375"></path></g></g></g></g></g></svg>