<svg height="349" viewBox="0 0 735 349" width="735" xmlns="http://www.w3.org/2000/svg"><g fill-rule="evenodd"><path d="m0-66h734.130005v446h-734.130005z" fill="#fff"/><path d="m1-65h732.130005v444h-732.130005z" fill="#fff"/><path d="m299.423187 122.219208 32.478302 10.826294-10.752685-32.257691c13.097198-8.821014 28.872894-13.969604 45.851196-13.969604v-30.818207c-25.039185 0-48.176208 8.144012-66.906799 21.927704l-34.964417-11.654999 11.587403 34.761902c-14.261078 18.914185-22.716187 42.452393-22.716187 67.965393h30.818207c0-17.381897 5.396301-33.50351 14.60498-46.780792z" fill="#92bd39"/><path d="m331.901489 204.954498-10.752685 32.257691c13.097198 8.821014 28.872894 13.969604 45.851196 13.969604v30.818207c-25.039185 0-48.176208-8.143982-66.906799-21.927704l-34.964417 11.654694 11.587403-34.761597c-14.261078-18.914185-22.716187-42.452393-22.716187-67.965393h30.818207c0 17.381897 5.396301 33.50351 14.60498 46.780792z" fill="#de8431"/><path d="m470.583008 271.72699-12.118591-36.356201c13.545593-18.635086 21.535583-41.569886 21.535583-66.370789h-30.818207c0 17.179901-5.271576 33.12851-14.2854 46.316605l-31.085785-10.362107 10.433105 31.298905c-13.364715 9.405594-29.65921 14.92839-47.243713 14.92839v30.818207c25.276611 0 48.614807-8.299011 67.438416-22.321198z" fill="#3cc583"/><path d="m403.810608 133.045502 10.433105-31.298889c-13.364715-9.40561-29.65921-14.928406-47.243713-14.928406v-30.818207c25.276611 0 48.614807 8.299103 67.438416 22.321198l36.144592-12.048493-12.118591 36.356506c13.545593 18.635193 21.535583 41.569886 21.535583 66.370789h-30.818207c0-17.179901-5.271576-33.12851-14.2854-46.316589z" fill="#4e88e7"/></g><g font-family="Helvetica"><text fill="#4e88e7" font-size="20" x="137" y="63">Efficiency</text><text fill="#4e88e7" font-size="20" x="32" y="39">Improved Operational</text><text fill="#3cc583" font-size="20" x="506" y="51">Experience</text><text fill="#3cc583" font-size="20" x="506" y="27">Enhanced Student</text><g font-size="15"><text fill="#3a4455" x="70" y="111">and enhance efficiency.</text><text fill="#3a4455" x="36" y="93">Digital workflows save costs</text><g fill="#374840"><text x="506" y="120">revenue.</text><text x="506" y="102">boost recruitment and</text><text x="506" y="84">Streamlined campus visits</text></g></g><text fill="#de8431" font-size="20" x="110" y="279">Partnerships</text><text fill="#de8431" font-size="20" x="68" y="255">Stronger Industry</text><text fill="#92bd39" font-size="20" x="506" y="255">Increased Revenue</text><g font-size="15"><text fill="#424736" x="506" y="324">significantly.</text><text fill="#424736" x="506" y="306">revenue generation</text><text fill="#424736" x="506" y="288">Monetizing spaces boosts</text><text fill="#4c4034" x="57" y="327">ties with local employers.</text><text fill="#4c4034" x="43" y="309">Co-op programs strengthen</text></g></g><g fill="none"><path d="m299.423187 122.219208 32.478302 10.826294-10.752685-32.257691c13.097198-8.821014 28.872894-13.969604 45.851196-13.969604v-30.818207c-25.039185 0-48.176208 8.144012-66.906799 21.927704l-34.964417-11.654999 11.587403 34.761902c-14.261078 18.914185-22.716187 42.452393-22.716187 67.965393h30.818207c0-17.381897 5.396301-33.50351 14.60498-46.780792z" stroke="#fff" stroke-linecap="round" stroke-linejoin="round" stroke-width="2"/><path d="m331.901489 204.954498-10.752685 32.257691c13.097198 8.821014 28.872894 13.969604 45.851196 13.969604v30.818207c-25.039185 0-48.176208-8.143982-66.906799-21.927704l-34.964417 11.654999 11.587403-34.761902c-14.261078-18.914185-22.716187-42.452393-22.716187-67.965393h30.818207c0 17.381897 5.396301 33.50351 14.60498 46.780792z" stroke="#fff" stroke-linecap="round" stroke-linejoin="round" stroke-width="2"/><path d="m470.583313 271.727295-12.118896-36.356506c13.545898-18.635086 21.535583-41.569886 21.535583-66.370789h-30.818207c0 17.179901-5.271576 33.12851-14.2854 46.316605l-31.085785-10.362107 10.433105 31.298905c-13.364715 9.405594-29.65921 14.92839-47.243713 14.92839v30.818207c25.276611 0 48.614807-8.299103 67.438416-22.321198z" stroke="#fff" stroke-linecap="round" stroke-linejoin="round" stroke-width="2"/><path d="m403.810608 133.045502 10.433105-31.298889c-13.364715-9.40561-29.65921-14.928406-47.243713-14.928406v-30.818207c25.276611 0 48.614807 8.299103 67.438416 22.321198l36.144897-12.048493-12.118896 36.356506c13.545898 18.635193 21.535583 41.569886 21.535583 66.370789h-30.818207c0-17.179901-5.271576-33.12851-14.2854-46.316589z" stroke="#fff" stroke-linecap="round" stroke-linejoin="round" stroke-width="2"/><path d="m356.563263 180.621933h-16.769104v-26.874161l11.87027-11.870254h18.202026v9.70842m-23.586792 19.488739h7.754852m-7.754852-7.132569h9.443146m31.795318 10.851319c.001221 4.554824-3.690887 8.247879-8.245697 8.247879-4.55484 0-8.246917-3.693055-8.245727-8.247895m23.200043 21.772049c-2.010865-6.471451-7.989258-10.889007-14.7659-10.910812h-.185944c-6.799652.022842-12.792602 4.469314-14.785766 10.970321m14.671722-40.918655-16.273254 7.241654 16.337707 7.112716 15.110535-6.981338zm-14.527923 8.513458v7.955643m-24.838776-18.427643h11.87027v-11.870254m19.362274 25.096603v7.819306h16.491424v-7.819306" stroke="#484848" stroke-width="4"/></g></svg>