<svg height="142" viewBox="0 0 523 142" width="523" xmlns="http://www.w3.org/2000/svg"><path d="m.99957-.000092h522.668033v141.737992h-522.668033z" fill="none" visibility="hidden"/><path d="m-46.000031-70h626.000031v230h-626.000031z" fill="#fff" fill-rule="evenodd" visibility="hidden"/><path d="m-42.84964-69.169922h623.99997v228h-623.99997z" fill="#fff" fill-rule="evenodd" visibility="hidden"/><path d="m15.87496 117.182083h167.999994v12h-167.999994z" fill="#3cc583" fill-rule="evenodd"/><path d="m187.603546 116.929832h168v11.999993h-168z" fill="#92bd39" fill-rule="evenodd"/><path d="m344.650543 116.956833h149.71402v-6.5l18.286011 12.5-18.286011 12.5v-6.5h-149.71402z" fill="#92bd39" fill-rule="evenodd"/><g font-family="Helvetica"><text fill="#374840" font-size="15" x="51" y="26">Ef</text><text fill="#374840" font-size="15" x="65" y="26">ciency and</text><text fill="#374840" font-size="15" x="33" y="44">improved customer</text><text fill="#374840" font-size="15" x="61" y="62">experience</text><text fill="#3a4455" font-size="15" x="213" y="26">Increased revenue</text><text fill="#3a4455" font-size="15" x="232" y="44">from service</text><text fill="#3a4455" font-size="15" x="237" y="62">acquisition</text><text fill="#424736" font-size="15" x="361" y="27">Sustained growth in</text><text fill="#424736" font-size="15" x="358" y="45">customer loyalty and</text><text fill="#424736" font-size="15" x="390" y="63">proﬁtability</text><text fill="#3cc583" font-size="20" font-weight="700" x="48" y="101">3 months</text><text fill="#92bd39" font-size="20" font-weight="700" x="300" y="99">4-6 months</text></g></svg>