<?xml version="1.0" encoding="utf-8" standalone="yes"?>
<!DOCTYPE svg PUBLIC "-//W3C//DTD SVG 1.1//EN" "http://www.w3.org/Graphics/SVG/1.1/DTD/svg11.dtd">
<svg width="974" height="410" viewBox="0 0 974 410" style="fill:none;stroke:none;fill-rule:evenodd;clip-rule:evenodd;stroke-linecap:round;stroke-linejoin:round;stroke-miterlimit:1.5;" version="1.1" xmlns="http://www.w3.org/2000/svg" xmlns:xlink="http://www.w3.org/1999/xlink"><style id="fontImports">@import url("https://fonts.googleapis.com/css2?family=Roboto:wght@400;700&amp;display=block");</style><rect id="" x="0" y="0" width="974" height="410" style="fill: #ffffff;"></rect><g id="items" style="isolation: isolate"><g id="blend" style="mix-blend-mode: normal"><g id="g-root-tf_zrjlthf0ycch-fill" data-item-order="-396576" transform="translate(-9, -9)"><g id="tf_zrjlthf0ycch-fill" stroke="none" fill="#ffffff"><g><path d="M 10 10L 982 10L 982 418L 10 418Z"></path></g></g></g><g id="g-root-ro_4oswmtf1845k-fill" data-item-order="-23400" transform="translate(411, 120)"><g id="ro_4oswmtf1845k-fill" stroke="none" fill="#f5f5f5"><g><path d="M 34 10L 142 10C 142 10 166 10 166 34L 166 136C 166 136 166 160 142 160L 34 160C 34 160 10 160 10 136L 10 34C 10 34 10 10 34 10"></path></g></g></g><g id="g-root-ro_1lyn4fpf0vgue-fill" data-item-order="-17496" transform="translate(615, 39)"><g id="ro_1lyn4fpf0vgue-fill" stroke="none" fill="#edf4ff"><g><path d="M 22 10L 322 10C 322 10 334 10 334 22L 334 52C 334 52 334 64 322 64L 22 64C 22 64 10 64 10 52L 10 22C 10 22 10 10 22 10"></path></g></g></g><g id="g-root-ro_1lrrwhhf0y9z7-fill" data-item-order="-14256" transform="translate(99, 39)"><g id="ro_1lrrwhhf0y9z7-fill" stroke="none" fill="#ffeceb"><g><path d="M 22 10L 262 10C 262 10 274 10 274 22L 274 52C 274 52 274 64 262 64L 22 64C 22 64 10 64 10 52L 10 22C 10 22 10 10 22 10"></path></g></g></g><g id="g-root-ro_1upwpx1f0wvt3-fill" data-item-order="-12960" transform="translate(615, 225)"><g id="ro_1upwpx1f0wvt3-fill" stroke="none" fill="#e3fff2"><g><path d="M 22 10L 238 10C 238 10 250 10 250 22L 250 52C 250 52 250 64 238 64L 22 64C 22 64 10 64 10 52L 10 22C 10 22 10 10 22 10"></path></g></g></g><g id="g-root-ro_1d2dn3pf0yccs-fill" data-item-order="-12312" transform="translate(135, 225)"><g id="ro_1d2dn3pf0yccs-fill" stroke="none" fill="#f4ffdc"><g><path d="M 22 10L 226 10C 226 10 238 10 238 22L 238 52C 238 52 238 64 226 64L 22 64C 22 64 10 64 10 52L 10 22C 10 22 10 10 22 10"></path></g></g></g><g id="g-root-cu_147d3xxf0yarw-fill" data-item-order="0" transform="translate(639, 279)"></g><g id="g-root-cu_18n6m2df0y9zi-fill" data-item-order="0" transform="translate(567, 66)"></g><g id="g-root-cu_1d3046tf0y9z5-fill" data-item-order="0" transform="translate(639, 279)"></g><g id="g-root-cu_147d3xxf0ybk0-fill" data-item-order="0" transform="translate(321, 279)"></g><g id="g-root-tx_mailroom_1lpwh85f0wxkx-fill" data-item-order="0" transform="translate(87, 105)"><g id="tx_mailroom_1lpwh85f0wxkx-fill" stroke="none" fill="#484848"><g><text style="font-style: normal; font-variant-caps: normal; font-weight: normal; font-stretch: normal; font-size: 20px; line-height: normal; font-family: Roboto, sans-serif; font-size-adjust: none; font-kerning: auto; font-variant-alternates: normal; font-variant-ligatures: normal; font-variant-numeric: normal; font-variant-east-asian: normal; font-variant-position: normal; font-variant-emoji: normal; font-feature-settings: normal; font-optical-sizing: auto; font-variation-settings: normal; white-space: pre;"><tspan x="17.17" y="34" dominant-baseline="ideographic">Mail-room Management</tspan></text></g></g></g><g id="g-root-cu_147d3xxf0yary-fill" data-item-order="0" transform="translate(321, 93)"></g><g id="g-root-cu_zrjlthf0ybk9-fill" data-item-order="0" transform="translate(321, 93)"></g><g id="g-root-cu_zrjlthf0ybkb-fill" data-item-order="0" transform="translate(321, 93)"></g><g id="g-root-cu_zrjlthf0ybkd-fill" data-item-order="0" transform="translate(321, 279)"></g><g id="g-root-tx_personal_dettf9f0wv0s-fill" data-item-order="0" transform="translate(111, 291)"><g id="tx_personal_dettf9f0wv0s-fill" stroke="none" fill="#484848"><g><text style="font-style: normal; font-variant-caps: normal; font-weight: normal; font-stretch: normal; font-size: 20px; line-height: normal; font-family: Roboto, sans-serif; font-size-adjust: none; font-kerning: auto; font-variant-alternates: normal; font-variant-ligatures: normal; font-variant-numeric: normal; font-variant-east-asian: normal; font-variant-position: normal; font-variant-emoji: normal; font-feature-settings: normal; font-optical-sizing: auto; font-variation-settings: normal; white-space: pre;"><tspan x="13.36" y="34" dominant-baseline="ideographic">Personalized Check-in</tspan></text></g></g></g><g id="g-root-cu_147d3xxf0ybk2-fill" data-item-order="0" transform="translate(639, 93)"></g><g id="g-root-cu_vbq3p1f0ycct-fill" data-item-order="0" transform="translate(639, 93)"></g><g id="g-root-cu_vbq3p1f0yccv-fill" data-item-order="0" transform="translate(639, 93)"></g><g id="g-root-cu_18n6m2df0y9zc-fill" data-item-order="0" transform="translate(363, 66)"></g><g id="g-root-tx_communic_dg2rlhf0wx6u-fill" data-item-order="0" transform="translate(663, 105)"><g id="tx_communic_dg2rlhf0wx6u-fill" stroke="none" fill="#484848"><g><text style="font-style: normal; font-variant-caps: normal; font-weight: normal; font-stretch: normal; font-size: 20px; line-height: normal; font-family: Roboto, sans-serif; font-size-adjust: none; font-kerning: auto; font-variant-alternates: normal; font-variant-ligatures: normal; font-variant-numeric: normal; font-variant-east-asian: normal; font-variant-position: normal; font-variant-emoji: normal; font-feature-settings: normal; font-optical-sizing: auto; font-variation-settings: normal; white-space: pre;"><tspan x="17.09" y="34" dominant-baseline="ideographic">Communication</tspan></text></g></g></g><g id="g-root-tx_realtime_1lyn4fpf0vguf-fill" data-item-order="0" transform="translate(663, 291)"><g id="tx_realtime_1lyn4fpf0vguf-fill" stroke="none" fill="#484848"><g><text style="font-style: normal; font-variant-caps: normal; font-weight: normal; font-stretch: normal; font-size: 20px; line-height: normal; font-family: Roboto, sans-serif; font-size-adjust: none; font-kerning: auto; font-variant-alternates: normal; font-variant-ligatures: normal; font-variant-numeric: normal; font-variant-east-asian: normal; font-variant-position: normal; font-variant-emoji: normal; font-feature-settings: normal; font-optical-sizing: auto; font-variation-settings: normal; white-space: pre;"><tspan x="17.27" y="34" dominant-baseline="ideographic">Real-time Tracking</tspan></text></g></g></g><g id="g-root-cu_1d2dn3pf0ycct-fill" data-item-order="0" transform="translate(567, 220)"></g><g id="g-root-tx_digitalc_hsrwadf0ww02-fill" data-item-order="0" transform="translate(147, 141)"><g id="tx_digitalc_hsrwadf0ww02-fill" stroke="none" fill="#484848"><g><text style="font-style: normal; font-variant-caps: normal; font-weight: normal; font-stretch: normal; font-size: 20px; line-height: normal; font-family: Roboto, sans-serif; font-size-adjust: none; font-kerning: auto; font-variant-alternates: normal; font-variant-ligatures: normal; font-variant-numeric: normal; font-variant-east-asian: normal; font-variant-position: normal; font-variant-emoji: normal; font-feature-settings: normal; font-optical-sizing: auto; font-variation-settings: normal; white-space: pre;"><tspan x="17.13" y="34" dominant-baseline="ideographic">Digital Checklists</tspan></text></g></g></g><g id="g-root-cu_18n6m2df0y9zf-fill" data-item-order="0" transform="translate(363, 220)"></g><g id="g-root-tx_attracti_1hdttmdf0wvlx-fill" data-item-order="0" transform="translate(15, 327)"><g id="tx_attracti_1hdttmdf0wvlx-fill" stroke="none" fill="#484848"><g><text style="font-style: normal; font-variant-caps: normal; font-weight: normal; font-stretch: normal; font-size: 20px; line-height: normal; font-family: Roboto, sans-serif; font-size-adjust: none; font-kerning: auto; font-variant-alternates: normal; font-variant-ligatures: normal; font-variant-numeric: normal; font-variant-east-asian: normal; font-variant-position: normal; font-variant-emoji: normal; font-feature-settings: normal; font-optical-sizing: auto; font-variation-settings: normal; white-space: pre;"><tspan x="15.38" y="34" dominant-baseline="ideographic">Attracting International Students</tspan></text></g></g></g><g id="g-root-tx_scheduli_hxroz9f0wvew-fill" data-item-order="0" transform="translate(663, 177)"><g id="tx_scheduli_hxroz9f0wvew-fill" stroke="none" fill="#484848"><g><text style="font-style: normal; font-variant-caps: normal; font-weight: normal; font-stretch: normal; font-size: 20px; line-height: normal; font-family: Roboto, sans-serif; font-size-adjust: none; font-kerning: auto; font-variant-alternates: normal; font-variant-ligatures: normal; font-variant-numeric: normal; font-variant-east-asian: normal; font-variant-position: normal; font-variant-emoji: normal; font-feature-settings: normal; font-optical-sizing: auto; font-variation-settings: normal; white-space: pre;"><tspan x="14.43" y="34" dominant-baseline="ideographic">Scheduling</tspan></text></g></g></g><g id="g-root-tx_tracking_1cz99o5f0wxsf-fill" data-item-order="0" transform="translate(663, 141)"><g id="tx_tracking_1cz99o5f0wxsf-fill" stroke="none" fill="#484848"><g><text style="font-style: normal; font-variant-caps: normal; font-weight: normal; font-stretch: normal; font-size: 20px; line-height: normal; font-family: Roboto, sans-serif; font-size-adjust: none; font-kerning: auto; font-variant-alternates: normal; font-variant-ligatures: normal; font-variant-numeric: normal; font-variant-east-asian: normal; font-variant-position: normal; font-variant-emoji: normal; font-feature-settings: normal; font-optical-sizing: auto; font-variation-settings: normal; white-space: pre;"><tspan x="13.45" y="34" dominant-baseline="ideographic">Tracking</tspan></text></g></g></g><g id="g-root-tx_bookings_i0w2etf0vifc-fill" data-item-order="0" transform="translate(663, 327)"><g id="tx_bookings_i0w2etf0vifc-fill" stroke="none" fill="#484848"><g><text style="font-style: normal; font-variant-caps: normal; font-weight: normal; font-stretch: normal; font-size: 20px; line-height: normal; font-family: Roboto, sans-serif; font-size-adjust: none; font-kerning: auto; font-variant-alternates: normal; font-variant-ligatures: normal; font-variant-numeric: normal; font-variant-east-asian: normal; font-variant-position: normal; font-variant-emoji: normal; font-feature-settings: normal; font-optical-sizing: auto; font-variation-settings: normal; white-space: pre;"><tspan x="16.46" y="34" dominant-baseline="ideographic">Booking Systems</tspan></text></g></g></g><g id="g-root-tx_administ_1hbyed1f0wwln-fill" data-item-order="0" transform="translate(75, 177)"><g id="tx_administ_1hbyed1f0wwln-fill" stroke="none" fill="#484848"><g><text style="font-style: normal; font-variant-caps: normal; font-weight: normal; font-stretch: normal; font-size: 20px; line-height: normal; font-family: Roboto, sans-serif; font-size-adjust: none; font-kerning: auto; font-variant-alternates: normal; font-variant-ligatures: normal; font-variant-numeric: normal; font-variant-east-asian: normal; font-variant-position: normal; font-variant-emoji: normal; font-feature-settings: normal; font-optical-sizing: auto; font-variation-settings: normal; white-space: pre;"><tspan x="16.21" y="34" dominant-baseline="ideographic">Administrative Workflows</tspan></text></g></g></g><g id="g-root-tx_newwavew_1d1qzp1f184y6-fill" data-item-order="1000000000" transform="translate(435, 198)"><g id="tx_newwavew_1d1qzp1f184y6-fill" stroke="none" fill="#484848"><g><text style="font-style: normal; font-variant-caps: normal; font-weight: normal; font-stretch: normal; font-size: 20px; line-height: normal; font-family: Roboto, sans-serif; font-size-adjust: none; font-kerning: auto; font-variant-alternates: normal; font-variant-ligatures: normal; font-variant-numeric: normal; font-variant-east-asian: normal; font-variant-position: normal; font-variant-emoji: normal; font-feature-settings: normal; font-optical-sizing: auto; font-variation-settings: normal; white-space: pre;"><tspan x="16.23" y="34" dominant-baseline="ideographic">New Wave </tspan><tspan x="13.23" y="58" dominant-baseline="ideographic">Workspace</tspan></text></g></g></g><g id="g-root-exch_94mer9f183db-fill" data-item-order="1000000000" transform="translate(465, 144)"></g><g id="g-root-tx_visitore_145hoolf0ybr6-fill" data-item-order="1000000000" transform="translate(147, 240)"><g id="tx_visitore_145hoolf0ybr6-fill" stroke="none" fill="#92bd39"><g><text style="font-style: normal; font-variant-caps: normal; font-weight: normal; font-stretch: normal; font-size: 20px; line-height: normal; font-family: Roboto, sans-serif; font-size-adjust: none; font-kerning: auto; font-variant-alternates: normal; font-variant-ligatures: normal; font-variant-numeric: normal; font-variant-east-asian: normal; font-variant-position: normal; font-variant-emoji: normal; font-feature-settings: normal; font-optical-sizing: auto; font-variation-settings: normal; white-space: pre;"><tspan x="14.06" y="34" dominant-baseline="ideographic">Visitor Experience</tspan></text></g></g></g><g id="g-root-pers_1ly0nclf0ybk3-fill" data-item-order="1000000000" transform="translate(321, 237)"></g><g id="g-root-spre_4m62df0wv7y-fill" data-item-order="1000000000" transform="translate(627, 237)"></g><g id="g-root-tx_spaceopt_141qr05f0wwst-fill" data-item-order="1000000000" transform="translate(663, 240)"><g id="tx_spaceopt_141qr05f0wwst-fill" stroke="none" fill="#3cc583"><g><text style="font-style: normal; font-variant-caps: normal; font-weight: normal; font-stretch: normal; font-size: 20px; line-height: normal; font-family: Roboto, sans-serif; font-size-adjust: none; font-kerning: auto; font-variant-alternates: normal; font-variant-ligatures: normal; font-variant-numeric: normal; font-variant-east-asian: normal; font-variant-position: normal; font-variant-emoji: normal; font-feature-settings: normal; font-optical-sizing: auto; font-variation-settings: normal; white-space: pre;"><tspan x="13.13" y="34" dominant-baseline="ideographic">Space Optimization</tspan></text></g></g></g><g id="g-root-tx_coopprog_vah5itf0vhu4-fill" data-item-order="1000000000" transform="translate(663, 54)"><g id="tx_coopprog_vah5itf0vhu4-fill" stroke="none" fill="#4e88e7"><g><text style="font-style: normal; font-variant-caps: normal; font-weight: normal; font-stretch: normal; font-size: 20px; line-height: normal; font-family: Roboto, sans-serif; font-size-adjust: none; font-kerning: auto; font-variant-alternates: normal; font-variant-ligatures: normal; font-variant-numeric: normal; font-variant-east-asian: normal; font-variant-position: normal; font-variant-emoji: normal; font-feature-settings: normal; font-optical-sizing: auto; font-variation-settings: normal; white-space: pre;"><tspan x="13.25" y="34" dominant-baseline="ideographic">Co-op Program Management</tspan></text></g></g></g><g id="g-root-grad_1lyn4fpf0vgud-fill" data-item-order="1000000000" transform="translate(627, 51)"></g><g id="g-root-moni_1lrrwhhf0y9z6-fill" data-item-order="1000000000" transform="translate(321, 51)"></g><g id="g-root-tx_digitalt_v3lxklf0yayx-fill" data-item-order="1000000000" transform="translate(111, 54)"><g id="tx_digitalt_v3lxklf0yayx-fill" stroke="none" fill="#e55753"><g><text style="font-style: normal; font-variant-caps: normal; font-weight: normal; font-stretch: normal; font-size: 20px; line-height: normal; font-family: Roboto, sans-serif; font-size-adjust: none; font-kerning: auto; font-variant-alternates: normal; font-variant-ligatures: normal; font-variant-numeric: normal; font-variant-east-asian: normal; font-variant-position: normal; font-variant-emoji: normal; font-feature-settings: normal; font-optical-sizing: auto; font-variation-settings: normal; white-space: pre;"><tspan x="12.36" y="34" dominant-baseline="ideographic">Digital Transformation</tspan></text></g></g></g><g id="g-root-tf_zrjlthf0ycch-stroke" data-item-order="-396576" transform="translate(-9, -9)"></g><g id="g-root-ro_4oswmtf1845k-stroke" data-item-order="-23400" transform="translate(411, 120)"><g id="ro_4oswmtf1845k-stroke" fill="none" stroke-linecap="round" stroke-linejoin="round" stroke-miterlimit="4" stroke="#484848" stroke-width="2"><g><path d="M 34 10L 142 10C 142 10 166 10 166 34L 166 136C 166 136 166 160 142 160L 34 160C 34 160 10 160 10 136L 10 34C 10 34 10 10 34 10"></path></g></g></g><g id="g-root-ro_1lyn4fpf0vgue-stroke" data-item-order="-17496" transform="translate(615, 39)"><g id="ro_1lyn4fpf0vgue-stroke" fill="none" stroke-linecap="round" stroke-linejoin="round" stroke-miterlimit="4" stroke="#4e88e7" stroke-width="2"><g><path d="M 22 10L 322 10C 322 10 334 10 334 22L 334 52C 334 52 334 64 322 64L 22 64C 22 64 10 64 10 52L 10 22C 10 22 10 10 22 10"></path></g></g></g><g id="g-root-ro_1lrrwhhf0y9z7-stroke" data-item-order="-14256" transform="translate(99, 39)"><g id="ro_1lrrwhhf0y9z7-stroke" fill="none" stroke-linecap="round" stroke-linejoin="round" stroke-miterlimit="4" stroke="#e55753" stroke-width="2"><g><path d="M 22 10L 262 10C 262 10 274 10 274 22L 274 52C 274 52 274 64 262 64L 22 64C 22 64 10 64 10 52L 10 22C 10 22 10 10 22 10"></path></g></g></g><g id="g-root-ro_1upwpx1f0wvt3-stroke" data-item-order="-12960" transform="translate(615, 225)"><g id="ro_1upwpx1f0wvt3-stroke" fill="none" stroke-linecap="round" stroke-linejoin="round" stroke-miterlimit="4" stroke="#3cc583" stroke-width="2"><g><path d="M 22 10L 238 10C 238 10 250 10 250 22L 250 52C 250 52 250 64 238 64L 22 64C 22 64 10 64 10 52L 10 22C 10 22 10 10 22 10"></path></g></g></g><g id="g-root-ro_1d2dn3pf0yccs-stroke" data-item-order="-12312" transform="translate(135, 225)"><g id="ro_1d2dn3pf0yccs-stroke" fill="none" stroke-linecap="round" stroke-linejoin="round" stroke-miterlimit="4" stroke="#92bd39" stroke-width="2"><g><path d="M 22 10L 226 10C 226 10 238 10 238 22L 238 52C 238 52 238 64 226 64L 22 64C 22 64 10 64 10 52L 10 22C 10 22 10 10 22 10"></path></g></g></g><g id="g-root-cu_147d3xxf0yarw-stroke" data-item-order="0" transform="translate(639, 279)"><g id="cu_147d3xxf0yarw-stroke" fill="none" stroke-linecap="round" stroke-linejoin="round" stroke-miterlimit="4" stroke="#969696" stroke-width="2" stroke-dasharray="5.0, 7.0"><g><path d="M 10 10L 10 17.5L 10 58C 10.000002 64.627417 15.372585 70 22.000002 69.999999L 22.1 70L 28 70"></path></g></g></g><g id="g-root-cu_18n6m2df0y9zi-stroke" data-item-order="0" transform="translate(567, 66)"><g id="cu_18n6m2df0y9zi-stroke" fill="none" stroke-linecap="round" stroke-linejoin="round" stroke-miterlimit="4" stroke="#969696" stroke-width="2" stroke-dasharray="5.0, 7.0"><g><path d="M 10 114L 13 114L 13.1 114C 24.642749 114.000006 33.999999 104.642757 33.999998 93.100005L 34 93L 34 30.9C 33.999999 19.357249 43.357248 10.000001 54.899999 10.000002L 55 10L 58 10"></path></g></g></g><g id="g-root-cu_1d3046tf0y9z5-stroke" data-item-order="0" transform="translate(639, 279)"><g id="cu_1d3046tf0y9z5-stroke" fill="none" stroke-linecap="round" stroke-linejoin="round" stroke-miterlimit="4" stroke="#969696" stroke-width="2" stroke-dasharray="5.0, 7.0"><g><path d="M 10 10L 10 22L 10 34L 19 34L 28 34"></path></g></g></g><g id="g-root-cu_147d3xxf0ybk0-stroke" data-item-order="0" transform="translate(321, 279)"><g id="cu_147d3xxf0ybk0-stroke" fill="none" stroke-linecap="round" stroke-linejoin="round" stroke-miterlimit="4" stroke="#969696" stroke-width="2" stroke-dasharray="5.0, 7.0"><g><path d="M 28 10L 28 17.5L 28 58C 27.999999 64.627415 22.627416 69.999998 16 69.999998L 15.9 70L 10 70"></path></g></g></g><g id="g-root-tx_mailroom_1lpwh85f0wxkx-stroke" data-item-order="0" transform="translate(87, 105)"></g><g id="g-root-cu_147d3xxf0yary-stroke" data-item-order="0" transform="translate(321, 93)"><g id="cu_147d3xxf0yary-stroke" fill="none" stroke-linecap="round" stroke-linejoin="round" stroke-miterlimit="4" stroke="#969696" stroke-width="2" stroke-dasharray="5.0, 7.0"><g><path d="M 28 10L 28 22L 28 34L 19 34L 10 34"></path></g></g></g><g id="g-root-cu_zrjlthf0ybk9-stroke" data-item-order="0" transform="translate(321, 93)"><g id="cu_zrjlthf0ybk9-stroke" fill="none" stroke-linecap="round" stroke-linejoin="round" stroke-miterlimit="4" stroke="#969696" stroke-width="2" stroke-dasharray="5.0, 7.0"><g><path d="M 28 10L 28 40L 28 70L 19 70L 10 70"></path></g></g></g><g id="g-root-cu_zrjlthf0ybkb-stroke" data-item-order="0" transform="translate(321, 93)"><g id="cu_zrjlthf0ybkb-stroke" fill="none" stroke-linecap="round" stroke-linejoin="round" stroke-miterlimit="4" stroke="#969696" stroke-width="2" stroke-dasharray="5.0, 7.0"><g><path d="M 28 10L 28 22L 28 94C 28.000002 100.627415 22.627419 105.999998 16.000002 105.999998L 15.9 106L 10 106"></path></g></g></g><g id="g-root-cu_zrjlthf0ybkd-stroke" data-item-order="0" transform="translate(321, 279)"><g id="cu_zrjlthf0ybkd-stroke" fill="none" stroke-linecap="round" stroke-linejoin="round" stroke-miterlimit="4" stroke="#969696" stroke-width="2" stroke-dasharray="5.0, 7.0"><g><path d="M 28 10L 28 22L 28 34L 19 34L 10 34"></path></g></g></g><g id="g-root-tx_personal_dettf9f0wv0s-stroke" data-item-order="0" transform="translate(111, 291)"></g><g id="g-root-cu_147d3xxf0ybk2-stroke" data-item-order="0" transform="translate(639, 93)"><g id="cu_147d3xxf0ybk2-stroke" fill="none" stroke-linecap="round" stroke-linejoin="round" stroke-miterlimit="4" stroke="#969696" stroke-width="2" stroke-dasharray="5.0, 7.0"><g><path d="M 10 10L 10 22L 10 34L 19 34L 28 34"></path></g></g></g><g id="g-root-cu_vbq3p1f0ycct-stroke" data-item-order="0" transform="translate(639, 93)"><g id="cu_vbq3p1f0ycct-stroke" fill="none" stroke-linecap="round" stroke-linejoin="round" stroke-miterlimit="4" stroke="#969696" stroke-width="2" stroke-dasharray="5.0, 7.0"><g><path d="M 10 10L 10 40L 10 70L 19 70L 28 70"></path></g></g></g><g id="g-root-cu_vbq3p1f0yccv-stroke" data-item-order="0" transform="translate(639, 93)"><g id="cu_vbq3p1f0yccv-stroke" fill="none" stroke-linecap="round" stroke-linejoin="round" stroke-miterlimit="4" stroke="#969696" stroke-width="2" stroke-dasharray="5.0, 7.0"><g><path d="M 10 10L 10 22L 10 94C 10.000004 100.627423 15.372587 106.000006 22.000005 106.000005L 22.1 106L 28 106"></path></g></g></g><g id="g-root-cu_18n6m2df0y9zc-stroke" data-item-order="0" transform="translate(363, 66)"><g id="cu_18n6m2df0y9zc-stroke" fill="none" stroke-linecap="round" stroke-linejoin="round" stroke-miterlimit="4" stroke="#969696" stroke-width="2" stroke-dasharray="5.0, 7.0"><g><path d="M 58 114L 55 114L 54.9 114C 43.357245 113.999995 33.999997 104.642746 33.999997 93.099996L 34 93L 34 30.9C 33.999998 19.357248 24.64275 10 13.1 10L 13 10L 10 10"></path></g></g></g><g id="g-root-tx_communic_dg2rlhf0wx6u-stroke" data-item-order="0" transform="translate(663, 105)"></g><g id="g-root-tx_realtime_1lyn4fpf0vguf-stroke" data-item-order="0" transform="translate(663, 291)"></g><g id="g-root-cu_1d2dn3pf0ycct-stroke" data-item-order="0" transform="translate(567, 220)"><g id="cu_1d2dn3pf0ycct-stroke" fill="none" stroke-linecap="round" stroke-linejoin="round" stroke-miterlimit="4" stroke="#969696" stroke-width="2" stroke-dasharray="5.0, 7.0"><g><path d="M 10 10L 13 10L 13.1 10C 17.388073 10.00496 22.004736 11.578822 26.300001 14.499999C 28.852796 16.234511 31.644001 20.403194 34.000002 26C 36.356002 31.596807 39.147208 35.76549 41.700003 37.500001C 45.995265 40.421176 50.611928 41.995038 54.900001 41.999998L 55 42L 58 42"></path></g></g></g><g id="g-root-tx_digitalc_hsrwadf0ww02-stroke" data-item-order="0" transform="translate(147, 141)"></g><g id="g-root-cu_18n6m2df0y9zf-stroke" data-item-order="0" transform="translate(363, 220)"><g id="cu_18n6m2df0y9zf-stroke" fill="none" stroke-linecap="round" stroke-linejoin="round" stroke-miterlimit="4" stroke="#969696" stroke-width="2" stroke-dasharray="5.0, 7.0"><g><path d="M 58 10L 55 10L 54.9 10C 50.611929 10.004962 45.995266 11.578824 41.700001 14.500001C 39.147207 16.234511 36.356002 20.403194 34.000002 26.000001C 31.644001 31.596807 28.852796 35.76549 26.300001 37.500001C 22.004737 40.421177 17.388073 41.995039 13.100001 42L 13 42L 10 42"></path></g></g></g><g id="g-root-tx_attracti_1hdttmdf0wvlx-stroke" data-item-order="0" transform="translate(15, 327)"></g><g id="g-root-tx_scheduli_hxroz9f0wvew-stroke" data-item-order="0" transform="translate(663, 177)"></g><g id="g-root-tx_tracking_1cz99o5f0wxsf-stroke" data-item-order="0" transform="translate(663, 141)"></g><g id="g-root-tx_bookings_i0w2etf0vifc-stroke" data-item-order="0" transform="translate(663, 327)"></g><g id="g-root-tx_administ_1hbyed1f0wwln-stroke" data-item-order="0" transform="translate(75, 177)"></g><g id="g-root-tx_newwavew_1d1qzp1f184y6-stroke" data-item-order="1000000000" transform="translate(435, 198)"></g><g id="g-root-exch_94mer9f183db-stroke" data-item-order="1000000000" transform="translate(465, 144)"><g id="exch_94mer9f183db-stroke" fill="none" stroke-linecap="round" stroke-linejoin="round" stroke-miterlimit="4" stroke="#484848" stroke-width="2"><g><path d="M 47 28.620001L 47 38.82M 57 34C 57 46.702549 46.702549 57 34 57C 27 57 19.82 52.720001 15.6 47.799999M 11 34C 11 21.297451 21.297451 11 34 11C 41 11 48.18 15.280001 52.400002 20.200001M 43.200001 20.200001L 52.400002 20.200001L 52 11M 24.799999 47.799999L 15.6 47.799999L 15.6 57M 33.260002 23.139999L 21.16 28.379999C 21.058279 28.410318 20.988556 28.503857 20.988556 28.609999C 20.988556 28.716143 21.058279 28.809679 21.16 28.839998L 33.260002 33.860001C 33.735184 34.049248 34.264816 34.049248 34.739998 33.860001L 47 28.620001L 34.739998 23.139999C 34.264816 22.950752 33.735184 22.950752 33.260002 23.139999ZM 25 35L 25 40C 27.52174 42.085869 30.731089 43.155651 34 43C 37.268913 43.155651 40.478264 42.085869 43 40L 43 35M 47 42.619999L 47 44.619999"></path></g></g></g><g id="g-root-tx_visitore_145hoolf0ybr6-stroke" data-item-order="1000000000" transform="translate(147, 240)"></g><g id="g-root-pers_1ly0nclf0ybk3-stroke" data-item-order="1000000000" transform="translate(321, 237)"><g id="pers_1ly0nclf0ybk3-stroke" fill="none" stroke-linecap="round" stroke-linejoin="round" stroke-miterlimit="4" stroke="#92bd39" stroke-width="2"><g><path d="M 11.5625 20.3125C 11.5625 22.210979 13.101521 23.75 15 23.75C 16.898479 23.75 18.4375 22.210979 18.4375 20.3125C 18.4375 18.414022 16.898479 16.875 15 16.875C 13.101521 16.875 11.5625 18.414022 11.5625 20.3125M 19.375 29.375C 19.375 26.958755 17.416246 25.000002 15 25.000002C 12.583755 25.000002 10.625 26.958755 10.625 29.375002L 10.625 33.125L 12.60375 33.125L 13.125 39.375L 16.875 39.375L 17.39625 33.125L 19.375 33.125ZM 32.196251 33.125L 21.875 33.125M 22.5 10.625L 30 10.625C 30 10.625 30.625 10.625 30.625 11.25L 30.625 21.25C 30.625 21.25 30.625 21.875 30 21.875L 22.5 21.875C 22.5 21.875 21.875 21.875 21.875 21.25L 21.875 11.25C 21.875 11.25 21.875 10.625 22.5 10.625M 25 13.125L 27.5 13.125C 27.5 13.125 28.125 13.125 28.125 13.75L 28.125 18.75C 28.125 18.75 28.125 19.375 27.5 19.375L 25 19.375C 25 19.375 24.375 19.375 24.375 18.75L 24.375 13.75C 24.375 13.75 24.375 13.125 25 13.125M 39.375 36.563751C 39.383244 36.644176 39.356632 36.724274 39.301907 36.783783C 39.247177 36.843288 39.169582 36.876495 39.088749 36.875L 32.162498 36.875C 32.081669 36.876495 32.00407 36.843288 31.949347 36.783783C 31.894619 36.724274 31.86801 36.644176 31.876249 36.563751L 32.572502 28.438751C 32.590813 28.263947 32.736763 28.130337 32.912498 28.127501L 38.337502 28.127501C 38.513237 28.130337 38.659187 28.263947 38.677498 28.438749ZM 36.875 22.5L 38.125 20.625L 33.125 20.625L 34.375 22.5C 33.684929 22.706945 33.212334 23.342068 33.212334 24.062498C 33.212334 24.782932 33.684929 25.418051 34.374996 25.624998L 36.875 25.625C 37.565067 25.418051 38.037666 24.782932 38.037666 24.062498C 38.037666 23.342068 37.565067 22.706945 36.874996 22.499998ZM 35.625 25.625L 35.625 28.125"></path></g></g></g><g id="g-root-spre_4m62df0wv7y-stroke" data-item-order="1000000000" transform="translate(627, 237)"><g id="spre_4m62df0wv7y-stroke" fill="none" stroke-linecap="round" stroke-linejoin="round" stroke-miterlimit="4" stroke="#3cc583" stroke-width="2"><g><path d="M 27.1875 11.2503C 28.5625 11.2503 29.6875 12.375299 29.6875 13.7503L 29.6875 16.875299L 10.9375 16.875299L 10.9375 13.7503C 10.9375 12.375299 12.0625 11.2503 13.4375 11.2503L 27.1875 11.2503ZM 17.1875 16.875151L 17.1875 29.125126L 13.4375 29.125126C 12.0625 29.125126 10.9375 28.000124 10.9375 26.625126L 10.9375 16.875151L 17.1875 16.875151ZM 10.9375 23.125126L 17.1875 23.125126M 23.4375 16.875151L 17.1875 16.875151L 17.1875 29.125126L 23.4375 29.125126L 23.4375 16.875151ZM 17.1875 23.125126L 23.4375 23.125126M 29.6875 16.875151L 29.6875 26.625126C 29.6875 28.000124 28.5625 29.125126 27.1875 29.125126L 23.4375 29.125126L 23.4375 16.875151L 29.6875 16.875151ZM 23.4375 23.125126L 29.6875 23.125126M 10 10M 36.3125 14.3753L 36.3125 25.625126M 10 10M 33.4375 25.625126L 36.3125 28.500126L 39.0625 25.625126M 10 10M 33.4375 14.375225L 36.3125 11.50025L 39.0625 14.375225M 10 10M 14.562512 35.750126L 25.9375 35.750126M 10 10M 25.9375 32.875L 28.6875 35.75L 25.9375 38.625M 10 10M 14.562512 32.875L 11.812512 35.75L 14.562512 38.625"></path></g></g></g><g id="g-root-tx_spaceopt_141qr05f0wwst-stroke" data-item-order="1000000000" transform="translate(663, 240)"></g><g id="g-root-tx_coopprog_vah5itf0vhu4-stroke" data-item-order="1000000000" transform="translate(663, 54)"></g><g id="g-root-grad_1lyn4fpf0vgud-stroke" data-item-order="1000000000" transform="translate(627, 51)"><g id="grad_1lyn4fpf0vgud-stroke" fill="none" stroke-linecap="round" stroke-linejoin="round" stroke-miterlimit="4" stroke="#4e88e7" stroke-width="2"><g><path d="M 37.081253 33.541252L 37.081253 36.64875C 37.080933 37.162243 36.766617 37.62331 36.28875 37.811249L 32.52 39.295002C 32.237858 39.400417 31.927143 39.400417 31.645 39.295002L 27.875 37.811249C 27.397625 37.622913 27.083862 37.161934 27.08375 36.64875L 27.08375 33.541252M 31.84 29.475L 24.581249 32.5L 31.84 35.525002C 31.993984 35.589237 32.167263 35.589237 32.321251 35.525002L 38.888748 32.78875C 39.005569 32.740406 39.081753 32.626431 39.081753 32.5C 39.081753 32.373569 39.005569 32.259594 38.888748 32.21125L 32.321251 29.475C 32.167263 29.410765 31.993984 29.410765 31.84 29.475ZM 10 10M 24.581249 32.5L 24.581249 36.875M 10.83125 29.375C 10.83125 25.232864 14.189115 21.875 18.331249 21.875C 22.473385 21.875 25.831249 25.232864 25.831249 29.375ZM 13.64375 15.3125C 13.64375 17.901335 15.742415 20 18.331251 20C 20.920084 20 23.018749 17.901335 23.018749 15.3125C 23.018749 12.723665 20.920084 10.625 18.331251 10.625C 15.742415 10.625 13.64375 12.723665 13.64375 15.3125ZM 25.518749 15.3125C 25.518751 17.901335 27.617416 20 30.206251 20C 32.795086 20 34.893753 17.901335 34.893753 15.3125C 34.893753 12.723665 32.795086 10.625 30.206251 10.625C 27.617416 10.625 25.518751 12.723665 25.518751 15.3125ZM 26.475 22.8675C 28.607014 21.644747 31.202835 21.544178 33.423061 22.598318C 35.643288 23.652456 37.206142 25.727522 37.606251 28.1525"></path></g></g></g><g id="g-root-moni_1lrrwhhf0y9z6-stroke" data-item-order="1000000000" transform="translate(321, 51)"><g id="moni_1lrrwhhf0y9z6-stroke" fill="none" stroke-linecap="round" stroke-linejoin="round" stroke-miterlimit="4" stroke="#e55753" stroke-width="2"><g><path d="M 24.6875 37.8125C 24.6875 38.5625 24.1875 39.0625 23.4375 39.0625L 12.1875 39.0625C 11.4375 39.0625 10.9375 38.5625 10.9375 37.8125L 10.9375 30.3125C 10.9375 29.5625 11.4375 29.0625 12.1875 29.0625L 23.4375 29.0625C 24.1875 29.0625 24.6875 29.5625 24.6875 30.3125L 24.6875 37.8125ZM 17.8125 34.6875C 17.467325 34.6875 17.1875 34.407623 17.1875 34.0625C 17.1875 33.717377 17.467325 33.4375 17.8125 33.4375M 17.812538 34.6875C 18.157713 34.6875 18.437538 34.407623 18.437538 34.0625C 18.437538 33.717377 18.157713 33.4375 17.812538 33.4375M 10 10M 32.5625 37.75L 29.6875 35L 32.5625 32.25M 37.1875 31.25C 37.1875 33.375 35.5625 35 33.4375 35L 29.6875 35M 10 10M 17.8125 12.249988L 20.6875 14.999988L 17.8125 17.749987M 13.187488 18.75C 13.187488 16.625 14.812488 15 16.937489 15L 20.687487 15M 39.0625 20.9375C 39.0625 21.6875 38.5625 22.1875 37.8125 22.1875L 26.5625 22.1875C 25.8125 22.1875 25.3125 21.6875 25.3125 20.9375L 25.3125 12.1875C 25.3125 11.4375 25.8125 10.9375 26.5625 10.9375L 37.8125 10.9375C 38.5625 10.9375 39.0625 11.4375 39.0625 12.1875L 39.0625 20.9375ZM 32.1875 22.1875L 32.1875 25.9375M 29.6875 25.9375L 34.6875 25.9375M 10 10M 28.875 18.4375L 30.5 15.5625L 33.625 18.0625L 35.5 14.6875"></path></g></g></g><g id="g-root-tx_digitalt_v3lxklf0yayx-stroke" data-item-order="1000000000" transform="translate(111, 54)"></g></g></g></svg>