<?xml version="1.0" encoding="utf-8" standalone="yes"?>
<!DOCTYPE svg PUBLIC "-//W3C//DTD SVG 1.1//EN" "http://www.w3.org/Graphics/SVG/1.1/DTD/svg11.dtd">
<svg width="735" height="446" viewBox="0 0 735 446" style="fill:none;stroke:none;fill-rule:evenodd;clip-rule:evenodd;stroke-linecap:round;stroke-linejoin:round;stroke-miterlimit:1.5;" version="1.1" xmlns="http://www.w3.org/2000/svg" xmlns:xlink="http://www.w3.org/1999/xlink"><style id="fontImports">@import url("https://fonts.googleapis.com/css2?family=Roboto:wght@400;700&amp;display=block");</style><rect id="" x="0" y="0" width="734.13" height="446" style="fill: #ffffff;"></rect><g id="items" style="isolation: isolate"><g id="blend" style="mix-blend-mode: normal"><g id="g-root-tf_13zvbr9gp5qmg-fill" data-item-order="-325066" transform="translate(-9, -9)"><g id="tf_13zvbr9gp5qmg-fill" stroke="none" fill="#ffffff"><g><path d="M 10 10L 742.13 10L 742.13 454L 10 454Z"></path></g></g></g><g id="g-root-4.g-4_fr_140hsudgp2vwr-fill" data-item-order="-287270" transform="translate(244, 112)"><g id="4.g-4_fr_140hsudgp2vwr-fill" stroke="none" fill="#92bd39"><g><path d="M 55.4232 76.2192L 87.9015 87.0455L 77.1488 54.7878C 90.246 45.9668 106.0217 40.8182 123 40.8182L 123 10C 97.9608 10 74.8238 18.144 56.0932 31.9277L 21.1288 20.2727L 32.7162 55.0346C 18.4551 73.9488 10 97.487 10 123L 40.8182 123C 40.8182 105.6181 46.2145 89.4965 55.4232 76.2192Z"></path></g></g></g><g id="g-root-3.g-3_fr_zkoapxgp2wp1-fill" data-item-order="-287266" transform="translate(244, 225)"><g id="3.g-3_fr_zkoapxgp2wp1-fill" stroke="none" fill="#de8431"><g><path d="M 87.9015 45.9545L 77.1488 78.2122C 90.246 87.0332 106.0217 92.1818 123 92.1818L 123 123C 97.9608 123 74.8238 114.856 56.0932 101.0723L 21.1288 112.727L 32.7162 77.9654C 18.4551 59.0512 10 35.513 10 10L 40.8182 10C 40.8182 27.3819 46.2145 43.5035 55.4232 56.7808L 87.9015 45.9545Z"></path></g></g></g><g id="g-root-2.g-2_fr_zkoapxgp2wp3-fill" data-item-order="-287262" transform="translate(357, 225)"><g id="2.g-2_fr_zkoapxgp2wp3-fill" stroke="none" fill="#3cc583"><g><path d="M 113.583 112.727L 101.4644 76.3708C 115.01 57.7357 123 34.8009 123 10L 92.1818 10C 92.1818 27.1799 86.9102 43.1285 77.8964 56.3166L 46.8106 45.9545L 57.2437 77.2534C 43.879 86.659 27.5845 92.1818 10 92.1818L 10 123C 35.2766 123 58.6148 114.701 77.4384 100.6788L 113.583 112.727Z"></path></g></g></g><g id="g-root-1.g-1_fr_zkoapxgp2wp5-fill" data-item-order="-287258" transform="translate(357, 112)"><g id="1.g-1_fr_zkoapxgp2wp5-fill" stroke="none" fill="#4e88e7"><g><path d="M 46.8106 87.0455L 57.2437 55.7466C 43.879 46.341 27.5845 40.8182 10 40.8182L 10 10C 35.2766 10 58.6148 18.2991 77.4384 32.3212L 113.583 20.2727L 101.4644 56.6292C 115.01 75.2644 123 98.1991 123 123L 92.1818 123C 92.1818 105.8201 86.9102 89.8715 77.8964 76.6834L 46.8106 87.0455Z"></path></g></g></g><g id="g-root-tx_improved_hz0k05gp2vbc-fill" data-item-order="0" transform="translate(15, 69)"><g id="tx_improved_hz0k05gp2vbc-fill" stroke="none" fill="#4e88e7"><g><text style="font-style: normal; font-variant-caps: normal; font-weight: bold; font-stretch: normal; font-size: 20px; line-height: normal; font-family: Roboto, sans-serif; font-size-adjust: none; font-kerning: auto; font-variant-alternates: normal; font-variant-ligatures: normal; font-variant-numeric: normal; font-variant-east-asian: normal; font-variant-position: normal; font-variant-emoji: normal; font-feature-settings: normal; font-optical-sizing: auto; font-variation-settings: normal; white-space: pre;"><tspan x="18" y="34" dominant-baseline="ideographic">Improved Operational </tspan><tspan x="123" y="58" dominant-baseline="ideographic">Efficiency</tspan></text></g></g></g><g id="g-root-tx_enhanced_18hk951gp4bgm-fill" data-item-order="0" transform="translate(495.1300048828125, 57)"><g id="tx_enhanced_18hk951gp4bgm-fill" stroke="none" fill="#3cc583"><g><text style="font-style: normal; font-variant-caps: normal; font-weight: bold; font-stretch: normal; font-size: 20px; line-height: normal; font-family: Roboto, sans-serif; font-size-adjust: none; font-kerning: auto; font-variant-alternates: normal; font-variant-ligatures: normal; font-variant-numeric: normal; font-variant-east-asian: normal; font-variant-position: normal; font-variant-emoji: normal; font-feature-settings: normal; font-optical-sizing: auto; font-variation-settings: normal; white-space: pre;"><tspan x="12" y="34" dominant-baseline="ideographic">Enhanced Student </tspan><tspan x="12" y="58" dominant-baseline="ideographic">Experience</tspan></text></g></g></g><g id="g-root-tx_digitalw_18mk1txgp2xhd-fill" data-item-order="0" transform="translate(15, 129)"><g id="tx_digitalw_18mk1txgp2xhd-fill" stroke="none" fill="#3a4455"><g><text style="font-style: normal; font-variant-caps: normal; font-weight: normal; font-stretch: normal; font-size: 15px; line-height: normal; font-family: Roboto, sans-serif; font-size-adjust: none; font-kerning: auto; font-variant-alternates: normal; font-variant-ligatures: normal; font-variant-numeric: normal; font-variant-east-asian: normal; font-variant-position: normal; font-variant-emoji: normal; font-feature-settings: normal; font-optical-sizing: auto; font-variation-settings: normal; white-space: pre;"><tspan x="22" y="28" dominant-baseline="ideographic">Digital workflows save costs </tspan><tspan x="56" y="46" dominant-baseline="ideographic">and enhance efficiency.</tspan></text></g></g></g><g id="g-root-tx_streamli_4kfo79gp49vr-fill" data-item-order="0" transform="translate(495.1300048828125, 117)"><g id="tx_streamli_4kfo79gp49vr-fill" stroke="none" fill="#374840"><g><text style="font-style: normal; font-variant-caps: normal; font-weight: normal; font-stretch: normal; font-size: 15px; line-height: normal; font-family: Roboto, sans-serif; font-size-adjust: none; font-kerning: auto; font-variant-alternates: normal; font-variant-ligatures: normal; font-variant-numeric: normal; font-variant-east-asian: normal; font-variant-position: normal; font-variant-emoji: normal; font-feature-settings: normal; font-optical-sizing: auto; font-variation-settings: normal; white-space: pre;"><tspan x="12" y="31" dominant-baseline="ideographic">Streamlined campus visits </tspan><tspan x="12" y="49" dominant-baseline="ideographic">boost recruitment and </tspan><tspan x="12" y="67" dominant-baseline="ideographic">revenue.</tspan></text></g></g></g><g id="g-root-resu_hs5y6tfawide-fill" data-item-order="0" transform="translate(327.31500244140625, 195.5)"></g><g id="g-root-tx_stronger_1uuwimdgp2wi2-fill" data-item-order="0" transform="translate(15, 285)"><g id="tx_stronger_1uuwimdgp2wi2-fill" stroke="none" fill="#de8431"><g><text style="font-style: normal; font-variant-caps: normal; font-weight: bold; font-stretch: normal; font-size: 20px; line-height: normal; font-family: Roboto, sans-serif; font-size-adjust: none; font-kerning: auto; font-variant-alternates: normal; font-variant-ligatures: normal; font-variant-numeric: normal; font-variant-east-asian: normal; font-variant-position: normal; font-variant-emoji: normal; font-feature-settings: normal; font-optical-sizing: auto; font-variation-settings: normal; white-space: pre;"><tspan x="54" y="34" dominant-baseline="ideographic">Stronger Industry </tspan><tspan x="96" y="58" dominant-baseline="ideographic">Partnerships</tspan></text></g></g></g><g id="g-root-tx_increase_1lr5c91gp4avg-fill" data-item-order="0" transform="translate(495.1300048828125, 285)"><g id="tx_increase_1lr5c91gp4avg-fill" stroke="none" fill="#92bd39"><g><text style="font-style: normal; font-variant-caps: normal; font-weight: bold; font-stretch: normal; font-size: 20px; line-height: normal; font-family: Roboto, sans-serif; font-size-adjust: none; font-kerning: auto; font-variant-alternates: normal; font-variant-ligatures: normal; font-variant-numeric: normal; font-variant-east-asian: normal; font-variant-position: normal; font-variant-emoji: normal; font-feature-settings: normal; font-optical-sizing: auto; font-variation-settings: normal; white-space: pre;"><tspan x="12" y="34" dominant-baseline="ideographic">Increased Revenue</tspan></text></g></g></g><g id="g-root-tx_monetizi_hu0rb9gp49al-fill" data-item-order="0" transform="translate(495.1300048828125, 321)"><g id="tx_monetizi_hu0rb9gp49al-fill" stroke="none" fill="#424736"><g><text style="font-style: normal; font-variant-caps: normal; font-weight: normal; font-stretch: normal; font-size: 15px; line-height: normal; font-family: Roboto, sans-serif; font-size-adjust: none; font-kerning: auto; font-variant-alternates: normal; font-variant-ligatures: normal; font-variant-numeric: normal; font-variant-east-asian: normal; font-variant-position: normal; font-variant-emoji: normal; font-feature-settings: normal; font-optical-sizing: auto; font-variation-settings: normal; white-space: pre;"><tspan x="12" y="31" dominant-baseline="ideographic">Monetizing spaces boosts </tspan><tspan x="12" y="49" dominant-baseline="ideographic">revenue generation </tspan><tspan x="12" y="67" dominant-baseline="ideographic">significantly.</tspan></text></g></g></g><g id="g-root-tx_coopprog_qnscatgp49hn-fill" data-item-order="0" transform="translate(15, 345)"><g id="tx_coopprog_qnscatgp49hn-fill" stroke="none" fill="#4c4034"><g><text style="font-style: normal; font-variant-caps: normal; font-weight: normal; font-stretch: normal; font-size: 15px; line-height: normal; font-family: Roboto, sans-serif; font-size-adjust: none; font-kerning: auto; font-variant-alternates: normal; font-variant-ligatures: normal; font-variant-numeric: normal; font-variant-east-asian: normal; font-variant-position: normal; font-variant-emoji: normal; font-feature-settings: normal; font-optical-sizing: auto; font-variation-settings: normal; white-space: pre;"><tspan x="29" y="28" dominant-baseline="ideographic">Co-op programs strengthen </tspan><tspan x="43" y="46" dominant-baseline="ideographic">ties with local employers.</tspan></text></g></g></g><g id="g-root-tf_13zvbr9gp5qmg-stroke" data-item-order="-325066" transform="translate(-9, -9)"></g><g id="g-root-4.g-4_fr_140hsudgp2vwr-stroke" data-item-order="-287270" transform="translate(244, 112)"><g id="4.g-4_fr_140hsudgp2vwr-stroke" fill="none" stroke-linecap="round" stroke-linejoin="round" stroke-miterlimit="4" stroke="#ffffff" stroke-width="2"><g><path d="M 55.4232 76.2192L 87.9015 87.0455L 77.1488 54.7878C 90.246 45.9668 106.0217 40.8182 123 40.8182L 123 10C 97.9608 10 74.8238 18.144 56.0932 31.9277L 21.1288 20.2727L 32.7162 55.0346C 18.4551 73.9488 10 97.487 10 123L 40.8182 123C 40.8182 105.6181 46.2145 89.4965 55.4232 76.2192Z"></path></g></g></g><g id="g-root-3.g-3_fr_zkoapxgp2wp1-stroke" data-item-order="-287266" transform="translate(244, 225)"><g id="3.g-3_fr_zkoapxgp2wp1-stroke" fill="none" stroke-linecap="round" stroke-linejoin="round" stroke-miterlimit="4" stroke="#ffffff" stroke-width="2"><g><path d="M 87.9015 45.9545L 77.1488 78.2122C 90.246 87.0332 106.0217 92.1818 123 92.1818L 123 123C 97.9608 123 74.8238 114.856 56.0932 101.0723L 21.1288 112.7273L 32.7162 77.9654C 18.4551 59.0512 10 35.513 10 10L 40.8182 10C 40.8182 27.3819 46.2145 43.5035 55.4232 56.7808L 87.9015 45.9545Z"></path></g></g></g><g id="g-root-2.g-2_fr_zkoapxgp2wp3-stroke" data-item-order="-287262" transform="translate(357, 225)"><g id="2.g-2_fr_zkoapxgp2wp3-stroke" fill="none" stroke-linecap="round" stroke-linejoin="round" stroke-miterlimit="4" stroke="#ffffff" stroke-width="2"><g><path d="M 113.5833 112.7273L 101.4644 76.3708C 115.0103 57.7357 123 34.8009 123 10L 92.1818 10C 92.1818 27.1799 86.9102 43.1285 77.8964 56.3166L 46.8106 45.9545L 57.2437 77.2534C 43.879 86.659 27.5845 92.1818 10 92.1818L 10 123C 35.2766 123 58.6148 114.7009 77.4384 100.6788L 113.5833 112.7273Z"></path></g></g></g><g id="g-root-1.g-1_fr_zkoapxgp2wp5-stroke" data-item-order="-287258" transform="translate(357, 112)"><g id="1.g-1_fr_zkoapxgp2wp5-stroke" fill="none" stroke-linecap="round" stroke-linejoin="round" stroke-miterlimit="4" stroke="#ffffff" stroke-width="2"><g><path d="M 46.8106 87.0455L 57.2437 55.7466C 43.879 46.341 27.5845 40.8182 10 40.8182L 10 10C 35.2766 10 58.6148 18.2991 77.4384 32.3212L 113.5833 20.2727L 101.4644 56.6292C 115.0103 75.2644 123 98.1991 123 123L 92.1818 123C 92.1818 105.8201 86.9102 89.8715 77.8964 76.6834L 46.8106 87.0455Z"></path></g></g></g><g id="g-root-tx_improved_hz0k05gp2vbc-stroke" data-item-order="0" transform="translate(15, 69)"></g><g id="g-root-tx_enhanced_18hk951gp4bgm-stroke" data-item-order="0" transform="translate(495.1300048828125, 57)"></g><g id="g-root-tx_digitalw_18mk1txgp2xhd-stroke" data-item-order="0" transform="translate(15, 129)"></g><g id="g-root-tx_streamli_4kfo79gp49vr-stroke" data-item-order="0" transform="translate(495.1300048828125, 117)"></g><g id="g-root-resu_hs5y6tfawide-stroke" data-item-order="0" transform="translate(327.31500244140625, 195.5)"><g id="resu_hs5y6tfawide-stroke" fill="none" stroke-linecap="butt" stroke-linejoin="miter" stroke-miterlimit="4" stroke="#484848" stroke-width="4"><g><path d="M 29.248251 51.121937L 12.479167 51.121937L 12.479167 24.247772L 24.349417 12.377521L 42.55146 12.377521L 42.55146 22.085938M 18.964666 41.574669L 26.7195 41.574669M 18.964666 34.442104L 28.407814 34.442104M 60.203125 45.293419C 60.204334 49.848248 56.512245 53.541306 51.957417 53.541306C 47.402584 53.541306 43.710503 49.848248 43.711708 45.293415M 66.911751 67.06546C 64.900871 60.594009 58.92247 56.176453 52.145836 56.154648L 51.959896 56.154648C 45.160255 56.177483 39.167309 60.623966 37.174149 67.124962M 51.845856 26.206314L 35.572605 33.44796L 51.910316 40.560688L 67.020836 33.579353L 51.845856 26.206314ZM 37.31794 34.719772L 37.31794 42.675419M 12.479167 24.247772L 24.349417 24.247772L 24.349417 12.377521M 43.711708 37.474125L 43.711708 45.293419L 60.203125 45.293419L 60.203125 37.474125"></path></g></g></g><g id="g-root-tx_stronger_1uuwimdgp2wi2-stroke" data-item-order="0" transform="translate(15, 285)"></g><g id="g-root-tx_increase_1lr5c91gp4avg-stroke" data-item-order="0" transform="translate(495.1300048828125, 285)"></g><g id="g-root-tx_monetizi_hu0rb9gp49al-stroke" data-item-order="0" transform="translate(495.1300048828125, 321)"></g><g id="g-root-tx_coopprog_qnscatgp49hn-stroke" data-item-order="0" transform="translate(15, 345)"></g></g></g></svg>