<?xml version="1.0" encoding="utf-8" standalone="yes"?>
<!DOCTYPE svg PUBLIC "-//W3C//DTD SVG 1.1//EN" "http://www.w3.org/Graphics/SVG/1.1/DTD/svg11.dtd">
<svg width="830" height="367" viewBox="0 0 830 367" style="fill:none;stroke:none;fill-rule:evenodd;clip-rule:evenodd;stroke-linecap:round;stroke-linejoin:round;stroke-miterlimit:1.5;" version="1.1" xmlns="http://www.w3.org/2000/svg" xmlns:xlink="http://www.w3.org/1999/xlink"><style id="fontImports">@import url("https://fonts.googleapis.com/css2?family=Roboto:wght@400;700&amp;display=block");</style><rect id="" x="0" y="0" width="830" height="366.167" style="fill: none;"></rect><g id="items" style="isolation: isolate"><g id="blend" style="mix-blend-mode: normal"><g id="g-root-tf_8zn55wgonfgg-fill" data-item-order="-301530" transform="translate(-9, -9)"></g><g id="g-root-0.cu_sy_8x55nogp02kt-fill" data-item-order="-102605" transform="translate(280.00006103515625, 50.99969482421875)"></g><g id="g-root-4.cu_sy_4hbnj8gp03d2-fill" data-item-order="-102601" transform="translate(243.51995849609375, 15.51995849609375)"></g><g id="g-root-3.cu_sy_4hbnj8gp03d3-fill" data-item-order="-102597" transform="translate(243.51995849609375, 230.47991943359375)"></g><g id="g-root-2.cu_sy_4hbnj8gp03d4-fill" data-item-order="-102593" transform="translate(458.48052978515625, 230.48016357421875)"></g><g id="g-root-1.cu_sy_4hbnj8gp03d5-fill" data-item-order="-102589" transform="translate(458.47979736328125, 15.52020263671875)"></g><g id="g-root-tx_meetingr_13zvrokgonfnx-fill" data-item-order="0" transform="translate(75, -9)"><g id="tx_meetingr_13zvrokgonfnx-fill" stroke="none" fill="#1eabda"><g><text style="font-style: normal; font-variant-caps: normal; font-weight: bold; font-stretch: normal; font-size: 20px; line-height: normal; font-family: Roboto, sans-serif; font-size-adjust: none; font-kerning: auto; font-variant-alternates: normal; font-variant-ligatures: normal; font-variant-numeric: normal; font-variant-east-asian: normal; font-variant-position: normal; font-variant-emoji: normal; font-feature-settings: normal; font-optical-sizing: auto; font-variation-settings: normal; white-space: pre;"><tspan x="20" y="34" dominant-baseline="ideographic">Meeting Room </tspan><tspan x="52" y="58" dominant-baseline="ideographic">Experience</tspan></text></g></g></g><g id="g-root-tx_flexible_18gy7z8gonh1r-fill" data-item-order="0" transform="translate(579, -9)"><g id="tx_flexible_18gy7z8gonh1r-fill" stroke="none" fill="#3cc583"><g><text style="font-style: normal; font-variant-caps: normal; font-weight: bold; font-stretch: normal; font-size: 20px; line-height: normal; font-family: Roboto, sans-serif; font-size-adjust: none; font-kerning: auto; font-variant-alternates: normal; font-variant-ligatures: normal; font-variant-numeric: normal; font-variant-east-asian: normal; font-variant-position: normal; font-variant-emoji: normal; font-feature-settings: normal; font-optical-sizing: auto; font-variation-settings: normal; white-space: pre;"><tspan x="12" y="34" dominant-baseline="ideographic">Flexible Quota </tspan><tspan x="12" y="58" dominant-baseline="ideographic">Policies</tspan></text></g></g></g><g id="g-root-tx_integrat_dil0pwgom1oo-fill" data-item-order="0" transform="translate(63, 51)"><g id="tx_integrat_dil0pwgom1oo-fill" stroke="none" fill="#484848"><g><text style="font-style: normal; font-variant-caps: normal; font-weight: normal; font-stretch: normal; font-size: 15px; line-height: normal; font-family: Roboto, sans-serif; font-size-adjust: none; font-kerning: auto; font-variant-alternates: normal; font-variant-ligatures: normal; font-variant-numeric: normal; font-variant-east-asian: normal; font-variant-position: normal; font-variant-emoji: normal; font-feature-settings: normal; font-optical-sizing: auto; font-variation-settings: normal; white-space: pre;"><tspan x="14" y="31" dominant-baseline="ideographic">Integrated services for </tspan><tspan x="48" y="49" dominant-baseline="ideographic">VIP-level meeting </tspan><tspan x="83" y="67" dominant-baseline="ideographic">experiences</tspan></text></g></g></g><g id="g-root-1_v5hmg4gp02df-fill" data-item-order="0" transform="translate(267, 39)"></g><g id="g-root-modu_v9uy1wgp5oug-fill" data-item-order="0" transform="translate(483, 39)"></g><g id="g-root-tx_policies_18ntfxggom22r-fill" data-item-order="0" transform="translate(579, 51)"><g id="tx_policies_18ntfxggom22r-fill" stroke="none" fill="#484848"><g><text style="font-style: normal; font-variant-caps: normal; font-weight: normal; font-stretch: normal; font-size: 15px; line-height: normal; font-family: Roboto, sans-serif; font-size-adjust: none; font-kerning: auto; font-variant-alternates: normal; font-variant-ligatures: normal; font-variant-numeric: normal; font-variant-east-asian: normal; font-variant-position: normal; font-variant-emoji: normal; font-feature-settings: normal; font-optical-sizing: auto; font-variation-settings: normal; white-space: pre;"><tspan x="12" y="31" dominant-baseline="ideographic">Policies that adjust </tspan><tspan x="12" y="49" dominant-baseline="ideographic">office attendance based </tspan><tspan x="12" y="67" dominant-baseline="ideographic">on data insights</tspan></text></g></g></g><g id="g-root-cabi_m9889wgoknb5-fill" data-item-order="0" transform="translate(351, 123)"></g><g id="g-root-tx_smartana_8xrpwkgongg6-fill" data-item-order="0" transform="translate(63, 231)"><g id="tx_smartana_8xrpwkgongg6-fill" stroke="none" fill="#92bd39"><g><text style="font-style: normal; font-variant-caps: normal; font-weight: bold; font-stretch: normal; font-size: 20px; line-height: normal; font-family: Roboto, sans-serif; font-size-adjust: none; font-kerning: auto; font-variant-alternates: normal; font-variant-ligatures: normal; font-variant-numeric: normal; font-variant-east-asian: normal; font-variant-position: normal; font-variant-emoji: normal; font-feature-settings: normal; font-optical-sizing: auto; font-variation-settings: normal; white-space: pre;"><tspan x="20" y="34" dominant-baseline="ideographic">Smart Analytics</tspan></text></g></g></g><g id="g-root-tx_visitorm_8wirqcgonea4-fill" data-item-order="0" transform="translate(579, 231)"><g id="tx_visitorm_8wirqcgonea4-fill" stroke="none" fill="#e55753"><g><text style="font-style: normal; font-variant-caps: normal; font-weight: bold; font-stretch: normal; font-size: 20px; line-height: normal; font-family: Roboto, sans-serif; font-size-adjust: none; font-kerning: auto; font-variant-alternates: normal; font-variant-ligatures: normal; font-variant-numeric: normal; font-variant-east-asian: normal; font-variant-position: normal; font-variant-emoji: normal; font-feature-settings: normal; font-optical-sizing: auto; font-variation-settings: normal; white-space: pre;"><tspan x="12" y="34" dominant-baseline="ideographic">Visitor Management</tspan></text></g></g></g><g id="g-root-tx_datadriv_18mkhr8golzwp-fill" data-item-order="0" transform="translate(51, 267)"><g id="tx_datadriv_18mkhr8golzwp-fill" stroke="none" fill="#484848"><g><text style="font-style: normal; font-variant-caps: normal; font-weight: normal; font-stretch: normal; font-size: 15px; line-height: normal; font-family: Roboto, sans-serif; font-size-adjust: none; font-kerning: auto; font-variant-alternates: normal; font-variant-ligatures: normal; font-variant-numeric: normal; font-variant-east-asian: normal; font-variant-position: normal; font-variant-emoji: normal; font-feature-settings: normal; font-optical-sizing: auto; font-variation-settings: normal; white-space: pre;"><tspan x="21" y="31" dominant-baseline="ideographic">Data-driven insights for </tspan><tspan x="62" y="49" dominant-baseline="ideographic">optimizing space </tspan><tspan x="110" y="67" dominant-baseline="ideographic">utilization</tspan></text></g></g></g><g id="g-root-incr_mcyzmsgp1iiv-fill" data-item-order="0" transform="translate(267, 255)"></g><g id="g-root-2_4iklpggp4b9p-fill" data-item-order="0" transform="translate(483, 255)"></g><g id="g-root-tx_systemen_dkgfz8gom0oy-fill" data-item-order="0" transform="translate(579, 267)"><g id="tx_systemen_dkgfz8gom0oy-fill" stroke="none" fill="#484848"><g><text style="font-style: normal; font-variant-caps: normal; font-weight: normal; font-stretch: normal; font-size: 15px; line-height: normal; font-family: Roboto, sans-serif; font-size-adjust: none; font-kerning: auto; font-variant-alternates: normal; font-variant-ligatures: normal; font-variant-numeric: normal; font-variant-east-asian: normal; font-variant-position: normal; font-variant-emoji: normal; font-feature-settings: normal; font-optical-sizing: auto; font-variation-settings: normal; white-space: pre;"><tspan x="12" y="31" dominant-baseline="ideographic">System ensuring </tspan><tspan x="12" y="49" dominant-baseline="ideographic">seamless and </tspan><tspan x="12" y="67" dominant-baseline="ideographic">personalized client visits</tspan></text></g></g></g><g id="g-root-tf_8zn55wgonfgg-stroke" data-item-order="-301530" transform="translate(-9, -9)"></g><g id="g-root-0.cu_sy_8x55nogp02kt-stroke" data-item-order="-102605" transform="translate(280.00006103515625, 50.99969482421875)"><g id="0.cu_sy_8x55nogp02kt-stroke" fill="none" stroke-linecap="round" stroke-linejoin="round" stroke-miterlimit="4" stroke="#808080" stroke-width="2"><g><path d="M 69.52 26.333C 87.2784 15.9502 107.9443 10 130 10C 151.2327 10 171.1774 15.5145 188.4801 25.1894M 234.2453 70.5201C 244.2704 88.0525 250 108.3571 250 130C 250 151.6431 244.2703 171.948 234.2449 189.4805M 188.4805 234.8104C 171.1778 244.4854 151.2329 250 130 250C 107.9443 250 87.2784 244.0497 69.5199 233.6669M 25.7551 189.4805C 15.7297 171.948 10 151.6431 10 130C 10 108.3571 15.7296 88.0524 25.7548 70.52"></path></g></g></g><g id="g-root-4.cu_sy_4hbnj8gp03d2-stroke" data-item-order="-102601" transform="translate(243.51995849609375, 15.51995849609375)"><g id="4.cu_sy_4hbnj8gp03d2-stroke" fill="none" stroke-linecap="round" stroke-linejoin="round" stroke-miterlimit="4" stroke="#1eabda" stroke-width="2"><g><path d="M 58.0004 106C 45.716 106.0001 33.4316 101.3138 24.0589 91.9411C 5.3137 73.196 5.3137 42.804 24.0589 24.0589C 42.804 5.3137 73.196 5.3137 91.9411 24.0589C 101.3137 33.4315 106 45.7157 106 58L 106.0004 106L 58.0114 106C 58.0077 106 58.0041 106 58.0004 106Z"></path></g></g></g><g id="g-root-3.cu_sy_4hbnj8gp03d3-stroke" data-item-order="-102597" transform="translate(243.51995849609375, 230.47991943359375)"><g id="3.cu_sy_4hbnj8gp03d3-stroke" fill="none" stroke-linecap="round" stroke-linejoin="round" stroke-miterlimit="4" stroke="#92bd39" stroke-width="2"><g><path d="M 106 58C 106.0001 70.2844 101.3138 82.5688 91.9411 91.9415C 73.196 110.6867 42.804 110.6867 24.0589 91.9415C 5.3137 73.1964 5.3137 42.8044 24.0589 24.0593C 33.4315 14.6867 45.7157 10.0004 58 10.0004L 106 10L 106 57.989C 106 57.9927 106 57.9963 106 58Z"></path></g></g></g><g id="g-root-2.cu_sy_4hbnj8gp03d4-stroke" data-item-order="-102593" transform="translate(458.48052978515625, 230.48016357421875)"><g id="2.cu_sy_4hbnj8gp03d4-stroke" fill="none" stroke-linecap="round" stroke-linejoin="round" stroke-miterlimit="4" stroke="#e55753" stroke-width="2"><g><path d="M 10 58C 9.9999 70.2844 14.6862 82.5688 24.0589 91.9415C 42.804 110.6867 73.1959 110.6867 91.9411 91.9415C 110.6863 73.1964 110.6863 42.8044 91.9411 24.0593C 82.5685 14.6867 70.2843 10.0004 58 10.0004L 10 10L 10 57.989C 10 57.9927 10 57.9963 10 58Z"></path></g></g></g><g id="g-root-1.cu_sy_4hbnj8gp03d5-stroke" data-item-order="-102589" transform="translate(458.47979736328125, 15.52020263671875)"><g id="1.cu_sy_4hbnj8gp03d5-stroke" fill="none" stroke-linecap="round" stroke-linejoin="round" stroke-miterlimit="4" stroke="#3cc583" stroke-width="2"><g><path d="M 58 106C 70.2844 106.0001 82.5688 101.3138 91.9415 91.9411C 110.6867 73.196 110.6867 42.804 91.9415 24.0589C 73.1964 5.3137 42.8044 5.3137 24.0593 24.0589C 14.6867 33.4315 10.0004 45.7157 10.0004 58L 10 106L 57.989 106C 57.9927 106 57.9963 106 58 106Z"></path></g></g></g><g id="g-root-tx_meetingr_13zvrokgonfnx-stroke" data-item-order="0" transform="translate(75, -9)"></g><g id="g-root-tx_flexible_18gy7z8gonh1r-stroke" data-item-order="0" transform="translate(579, -9)"></g><g id="g-root-tx_integrat_dil0pwgom1oo-stroke" data-item-order="0" transform="translate(63, 51)"></g><g id="g-root-1_v5hmg4gp02df-stroke" data-item-order="0" transform="translate(267, 39)"><g id="1_v5hmg4gp02df-stroke" fill="none" stroke-linecap="round" stroke-linejoin="round" stroke-miterlimit="4" stroke="#1eabda" stroke-width="2"><g><path d="M 11.499978 37.5L 11.499978 11.5L 56.5 11.5L 56.5 37.5M 11.499978 27.5L 18.499981 27.5C 18.499981 22.5 21.29998 18.300079 26.69998 17.700081C 27.69998 17.50008 28.499981 16.700081 28.499981 15.70008L 28.499981 11.5M 18.49378 37.5L 18.49378 27.5M 49.498402 37.5L 49.498402 27.5M 56.5 27.5L 49.5 27.5C 49.5 22.5 46.700001 18.300079 41.299999 17.700081C 40.299999 17.50008 39.5 16.700081 39.5 15.70008L 39.5 11.5M 27 37.5L 27 28.5C 27 26.299999 28.799999 24.5 31 24.5L 37 24.5C 39.200001 24.5 41 26.299999 41 28.5L 41 37.5M 17.1 50.900002C 19.309139 50.900002 21.1 49.1092 21.1 46.900002C 21.1 44.6908 19.309139 42.900002 17.1 42.900002C 14.89086 42.900002 13.1 44.6908 13.1 46.900002C 13.1 49.1092 14.89086 50.900002 17.1 50.900002ZM 11.5 56.5C 11.5 53.5 13.90004 50.900002 17.10004 50.900002C 20.300041 50.900002 22.70002 53.299999 22.70002 56.5M 34.049999 50.799999C 36.259201 50.799999 38.049999 49.009201 38.049999 46.799999C 38.049999 44.590801 36.259201 42.799999 34.049999 42.799999C 31.840799 42.799999 30.049999 44.590801 30.049999 46.799999C 30.049999 49.009201 31.840799 50.799999 34.049999 50.799999ZM 28.45002 56.400002C 28.45002 53.400002 30.85 50.799999 34.049999 50.799999C 37.25 50.799999 39.650002 53.200001 39.650002 56.400002M 50.900002 50.900002C 53.1092 50.900002 54.900002 49.1092 54.900002 46.900002C 54.900002 44.6908 53.1092 42.900002 50.900002 42.900002C 48.6908 42.900002 46.900002 44.6908 46.900002 46.900002C 46.900002 49.1092 48.6908 50.900002 50.900002 50.900002ZM 45.299999 56.5C 45.299999 53.5 47.700001 50.900002 50.900002 50.900002C 54.099998 50.900002 56.5 53.299999 56.5 56.5"></path></g></g></g><g id="g-root-modu_v9uy1wgp5oug-stroke" data-item-order="0" transform="translate(483, 39)"><g id="modu_v9uy1wgp5oug-stroke" fill="none" stroke-linecap="round" stroke-linejoin="round" stroke-miterlimit="4" stroke="#3cc583" stroke-width="2"><g><path d="M 31 51L 13 51C 11.895431 51 11 50.104568 11 49L 11 17C 11 15.895431 11.895431 15 13 15L 41 15C 42.104568 15 43 15.895431 43 17L 43 31M 19 19L 19 11M 27 19L 27 11M 35 19L 35 11M 50 49L 56 49C 56 49 57 49 57 50L 57 56C 57 56 57 57 56 57L 50 57C 50 57 49 57 49 56L 49 50C 49 50 49 49 50 49M 38 49L 44 49C 44 49 45 49 45 50L 45 56C 45 56 45 57 44 57L 38 57C 38 57 37 57 37 56L 37 50C 37 50 37 49 38 49M 44 37L 50 37C 50 37 51 37 51 38L 51 44C 51 44 51 45 50 45L 44 45C 44 45 43 45 43 44L 43 38C 43 38 43 37 44 37"></path></g></g></g><g id="g-root-tx_policies_18ntfxggom22r-stroke" data-item-order="0" transform="translate(579, 51)"></g><g id="g-root-cabi_m9889wgoknb5-stroke" data-item-order="0" transform="translate(351, 123)"><g id="cabi_m9889wgoknb5-stroke" fill="none" stroke-linecap="round" stroke-linejoin="round" stroke-miterlimit="4" stroke="#4e88e7" stroke-width="2"><g><path d="M 58 64L 104 64M 76 100C 76 102.209137 77.790863 104 80 104L 100 104C 102.209137 104 104 102.209137 104 100L 104 64L 76 64ZM 48 56L 48 76C 47.98682 80.412811 44.412807 83.986824 40 84L 24 84M 12 104L 12 68C 12 65.790863 13.790861 64 16 64L 38 64M 36 84L 36 98L 26 104M 36 98L 46 104M 104 64L 104 16C 104 13.790861 102.209137 12 100 12L 76 12L 76 64M 12 32L 12 16C 12 13.790861 13.790861 12 16 12L 76 12L 76 32M 36 12L 36 40M 56 12L 56 40M 76 32L 76 40L 16 40C 13.790861 40 12 38.209137 12 36L 12 32M 84 20L 84 24M 64 20L 64 24M 44 20L 44 24M 20 20L 20 24M 84 72L 84 76"></path></g></g></g><g id="g-root-tx_smartana_8xrpwkgongg6-stroke" data-item-order="0" transform="translate(63, 231)"></g><g id="g-root-tx_visitorm_8wirqcgonea4-stroke" data-item-order="0" transform="translate(579, 231)"></g><g id="g-root-tx_datadriv_18mkhr8golzwp-stroke" data-item-order="0" transform="translate(51, 267)"></g><g id="g-root-incr_mcyzmsgp1iiv-stroke" data-item-order="0" transform="translate(267, 255)"><g id="incr_mcyzmsgp1iiv-stroke" fill="none" stroke-linecap="round" stroke-linejoin="round" stroke-miterlimit="4" stroke="#92bd39" stroke-width="2"><g><path d="M 14.251429 32.422855L 53.68 14.491428M 46.308571 11.714286L 53.68 14.491428L 50.937141 21.862858M 55.428574 56.32L 46.857143 56.32L 46.857143 56.32L 46.857143 32.32C 46.857143 31.373228 47.624657 30.605715 48.57143 30.605715L 53.714287 30.605715C 54.66106 30.605715 55.428574 31.373228 55.428574 32.32L 55.428574 56.32L 55.428574 56.32ZM 38.285713 56.32L 29.714287 56.32L 29.714287 56.32L 29.714287 37.46286C 29.714287 36.516087 30.481798 35.748573 31.428572 35.748573L 36.57143 35.748573C 37.518204 35.748573 38.285713 36.516087 38.285713 37.46286L 38.285713 56.32L 38.285713 56.32ZM 21.142857 56.32L 12.571428 56.32L 12.571428 56.32L 12.571428 42.605717C 12.571428 41.658943 13.338942 40.89143 14.285714 40.89143L 19.428572 40.89143C 20.375343 40.89143 21.142857 41.658943 21.142857 42.605717L 21.142857 56.32L 21.142857 56.32Z"></path></g></g></g><g id="g-root-2_4iklpggp4b9p-stroke" data-item-order="0" transform="translate(483, 255)"><g id="2_4iklpggp4b9p-stroke" fill="none" stroke-linecap="round" stroke-linejoin="round" stroke-miterlimit="4" stroke="#e55753" stroke-width="2"><g><path d="M 18.571428 11.714286L 49.428574 11.714286C 49.428574 11.714286 51.142857 11.714286 51.142857 13.428572L 51.142857 34C 51.142857 34 51.142857 35.714287 49.428574 35.714287L 18.571428 35.714287C 18.571428 35.714287 16.857143 35.714287 16.857143 34L 16.857143 13.428572C 16.857143 13.428572 16.857143 11.714286 18.571428 11.714286M 23.645714 44.285713L 23.645714 56.285713M 44.21714 44.285713L 44.21714 56.285713M 56.285713 51.142857C 55.524712 51.251438 54.757263 51.308712 53.988571 51.314285C 50.422897 51.067844 47.026577 49.699715 44.285713 47.405716C 41.200813 49.864937 37.362095 51.184875 33.417141 51.142857C 29.961681 51.14624 26.583614 50.11969 23.714287 48.194286C 20.452797 50.2075 16.677481 51.231716 12.845715 51.142857L 11.714286 51.142857M 21.931429 44.285713L 25.360001 44.285713M 42.502857 44.285713L 45.931427 44.285713"></path></g></g></g><g id="g-root-tx_systemen_dkgfz8gom0oy-stroke" data-item-order="0" transform="translate(579, 267)"></g></g></g></svg>