<svg height="475" viewBox="0 0 938 475" width="938" xmlns="http://www.w3.org/2000/svg"><path d="m433 89h84s24 0 24 24v102s0 24-24 24h-84s-24 0-24-24v-102s0-24 24-24" fill="#f5f5f5" fill-rule="evenodd"/><path d="m37 26h312s12 0 12 12v30s0 12-12 12h-312s-12 0-12-12v-30s0-12 12-12" fill="#f4ffdc" fill-rule="evenodd"/><path d="m601 26h300s12 0 12 12v30s0 12-12 12h-300s-12 0-12-12v-30s0-12 12-12" fill="#faf0ff" fill-rule="evenodd"/><path d="m601 176h288s12 0 12 12v30s0 12-12 12h-288s-12 0-12-12v-30s0-12 12-12" fill="#fffbda" fill-rule="evenodd"/><path d="m97 176h252s12 0 12 12v30s0 12-12 12h-252s-12 0-12-12v-30s0-12 12-12" fill="#ffebf7" fill-rule="evenodd"/><path d="m355 326h240s12 0 12 12v30s0 12-12 12h-240s-12 0-12-12v-30s0-12 12-12" fill="#ffeceb" fill-rule="evenodd"/><g font-family="Helvetica" font-size="20"><text fill="#484848" x="643" y="304">Resource Optimization</text><text fill="#484848" x="147" y="118">Work-Life Balance</text><text fill="#484848" x="151" y="304">High-Value Tasks</text><text fill="#484848" x="638" y="268">Real-Time Analytics</text><text fill="#484848" x="643" y="118">Client Experience</text><text fill="#484848" x="199" y="154">Productivity</text><text fill="#484848" x="125" y="268">Automated Systems</text><text fill="#484848" x="642" y="154">Commitment to Excellence</text><text fill="#484848" x="397" y="454">Innovation</text><text fill="#484848" x="394" y="418">Modern Approach</text><text fill="#484848" x="437" y="205">Benefits</text><text fill="#de58a9" x="99" y="217">Streamlined Operations</text><text fill="#e0cb15" x="641" y="217">Increased Space Utilization</text><text fill="#ba5de5" x="640" y="67">Enhanced Client Satisfaction</text><text fill="#e55753" x="415" y="367">Boosted Prestige</text><text fill="#92bd39" x="42" y="67">Improved Employee Flexibility</text></g><g fill="none" stroke-linecap="round" stroke-linejoin="round" stroke-width="2"><path d="m433 89h84s24 0 24 24v102s0 24-24 24h-84s-24 0-24-24v-102s0-24 24-24" stroke="#484848"/><path d="m37 26h312s12 0 12 12v30s0 12-12 12h-312s-12 0-12-12v-30s0-12 12-12" stroke="#92bd39"/><path d="m601 26h300s12 0 12 12v30s0 12-12 12h-300s-12 0-12-12v-30s0-12 12-12" stroke="#ba5de5"/><path d="m601 176h288s12 0 12 12v30s0 12-12 12h-288s-12 0-12-12v-30s0-12 12-12" stroke="#e0cb15"/><path d="m97 176h252s12 0 12 12v30s0 12-12 12h-252s-12 0-12-12v-30s0-12 12-12" stroke="#de58a9"/><path d="m355 326h240s12 0 12 12v30s0 12-12 12h-240s-12 0-12-12v-30s0-12 12-12" stroke="#e55753"/><g stroke="#969696" stroke-dasharray="5 7"><path d="m541 139h3 .099976c11.542785 0 20.900024-9.357239 20.900024-20.899994v-.100006-44.100006c0-11.542755 9.357239-20.899994 20.900024-20.899994h.099976 3"/><path d="m367 380v12 12h9 9"/><path d="m337 80v12 12h-9-9"/><path d="m337 80v7.5 40.5c0 6.627411-5.372589 12-12 12h-.100006-5.899994"/><path d="m409 139h-3-.100006c-11.542755 0-20.899994-9.357239-20.899994-20.899994v-.100006-44.100006c0-11.542755-9.357239-20.899994-20.899994-20.899994h-.100006-3"/><path d="m613 80v12 12h9 9"/><path d="m409 189h-3-.100006c-3.377136.003937-7.099396.613037-11 1.799988-2.334778.703613-5.836884 2.543121-9.899994 5.200012-4.06311 2.656921-7.565216 4.496399-9.899994 5.200012-3.900604 1.186951-7.622864 1.796051-11 1.799988h-.100006-3"/><path d="m613 230v7.5 40.5c0 6.627411 5.372559 12 12 12h.099976 5.900024"/><path d="m613 230v12 12h9 9"/><path d="m475 239v43.5 43.5"/><path d="m337 230v7.5 40.5c0 6.627411-5.372589 12-12 12h-.100006-5.899994"/><path d="m337 230v12 12h-9-9"/><path d="m541 189h3 .099976c3.377197.003937 7.099426.613037 11 1.799988 2.334838.703613 5.836914 2.543091 9.900024 5.200012 4.06311 2.656891 7.565186 4.496399 9.900024 5.200012 3.900574 1.186951 7.622803 1.796051 11 1.799988h.099976 3"/><path d="m367 380v7.5 40.5c0 6.627411 5.372589 12 12 12h.100006 5.899994"/><path d="m613 80v7.5 40.5c0 6.627411 5.372559 12 12 12h.099976 5.900024"/></g><path d="m328.6875 206.25c0 .75-.5 1.25-1.25 1.25h-6.25c-.75 0-1.25-.5-1.25-1.25v-7c0-.75.5-1.25 1.25-1.25h6.25c.75 0 1.25.5 1.25 1.25zm12.5 0c0 .75-.5 1.25-1.25 1.25h-6.25c-.75 0-1.25-.5-1.25-1.25v-7c0-.75.5-1.25 1.25-1.25h6.25c.75 0 1.25.5 1.25 1.25zm-17.750092-12.125c2.5-3 6.25-4.875 10.49997-4.875 4 0 7.625 1.75 10.125 4.375m1.000122 17.5c-2.5 3.375-6.5 5.625-11 5.625-4.499969 0-8.5-2.25-11-5.625m5.625-8.375122h3.75m8.75 0h6.875l-2.5-2.49997m2.5 2.49997-2.5 2.5m-21.249969-1.121124c.761505 0 1.378845-.617249 1.378845-1.378754s-.61734-1.378876-1.378845-1.378876c-.761506 0-1.378815.617371-1.378815 1.378876s.617309 1.378754 1.378815 1.378754zm12.499969 0c.761505 0 1.378876-.617249 1.378876-1.378754s-.617371-1.378876-1.378876-1.378876-1.378754.617371-1.378754 1.378876.617249 1.378754 1.378754 1.378754z" stroke="#de58a9"/><path d="m618.1875 189.250305c1.375 0 2.5 1.125 2.5 2.5v3.125h-18.75v-3.125c0-1.375 1.125-2.5 2.5-2.5zm-10 5.624848v12.249969h-3.75c-1.375 0-2.5-1.125-2.5-2.5v-9.749969zm-6.25 6.249969h6.25m6.25-6.249969h-6.25v12.249969h6.25zm-6.25 6.249969h6.25m6.25-6.249969v9.749969c0 1.375-1.125 2.5-2.5 2.5h-3.75v-12.249969zm-6.25 6.249969h6.25m6.625-8.749817v11.249817m-2.875 0 2.875 2.875 2.75-2.875m-5.625-11.249908 2.875-2.87497 2.75 2.87497m-24.5 21.374908h11.375m0-2.875122 2.75 2.875-2.75 2.875m-11.375-5.75-2.75 2.875 2.75 2.875" stroke="#e0cb15"/><path d="m460 142h19m-19 6h8m-8-12h14m-14 18h8m-8 6h8m4 12h-18c-1.104584 0-2-.895447-2-2v-42c0-1.104584.895416-2 2-2h26.585999c.530395.000122 1.039001.210907 1.414001.585999l7.414001 7.414001c.375092.375.585877.883606.585999 1.414001v6.585999m-4 10v12m6-6h-12m7.070007 13.799988 1.105988-.419983c5.26001-2 9.824005-7.048004 9.824005-12.675995v-6.792023c.000366-.831817-.493042-1.584533-1.256012-1.915985-3.451996-1.290069-7.102936-1.966919-10.787994-2-3.656617.03122-7.278962.708313-10.700013 2-.762939.331452-1.256347 1.084168-1.255981 1.915985v6.786011c0 5.627991 4.476013 10.671997 9.735992 12.675995l1.106018.420013c.716645.27594 1.509858.278077 2.227997.005982z" stroke="#484848"/><path d="m384.875 352.375h6.25s1.25 0 1.25 1.25v12.5s0 1.25-1.25 1.25h-6.25s-1.25 0-1.25-1.25v-12.5s0-1.25 1.25-1.25m-10 7.5h5s1.25 0 1.25 1.25v5s0 1.25-1.25 1.25h-5s-1.25 0-1.25-1.25v-5s0-1.25 1.25-1.25m21.25 3.75h5s1.25 0 1.25 1.25v1.25s0 1.25-1.25 1.25h-5s-1.25 0-1.25-1.25v-1.25s0-1.25 1.25-1.25m-6.25-21.25h2.401245c.270905.000122.510895.174744.59436.432495.083436.257752-.008667.539887-.228118.698761l-2 1.451264 1.232513 2.832458c.104706.245056.042572.529511-.154785.708557-.197357.179016-.486511.213257-.720215.085205l-3-1.681244-2.988739 1.681244c-.233704.128052-.522858.093811-.720215-.085205-.197357-.179046-.259521-.463501-.154785-.708557l1.232483-2.832458-2-1.451264c-.21817-.157928-.310669-.437836-.229523-.694672.081177-.256774.317719-.432739.587036-.436584h2.398743l1.292511-3.350006c.092987-.241058.324738-.400055.583099-.400055.258393 0 .490143.158997.58313.400055zm-15 12.5c0 1.380707 1.119293 2.5 2.5 2.5s2.5-1.119293 2.5-2.5-1.119293-2.5-2.5-2.5-2.5 1.119293-2.5 2.5m21.25 3.75c0 1.380707 1.119293 2.5 2.5 2.5s2.5-1.119293 2.5-2.5-1.119293-2.5-2.5-2.5-2.5 1.119293-2.5 2.5" stroke="#e55753"/><path d="m333.187622 53.062378h-13.250122m0 0v13.5h6.25v-13.375m-6.25-11.624909 2.25 7.25h5.75m12-3.249908c1.553375 0 2.8125-1.259186 2.8125-2.8125 0-1.553284-1.259125-2.8125-2.8125-2.8125-1.553253 0-2.8125 1.259216-2.8125 2.8125 0 1.553314 1.259247 2.8125 2.8125 2.8125zm-5.901123 18.848175 1.901123-4.098236c.375-.625 1.000122-1 1.625122-1h2.375c1 0 1.875-.875 1.875-1.875v-8.125c0-.75-.375122-1.375-1.000122-1.625-.625-.375-1.375-.25-1.875.125l-1.374878.875c-1.125.75-3.125122.625-5.375122.625-.999939 0-1.874939.875-1.874939 1.875s.875 1.875 1.874939 1.875h3.250122c.875 0 1.75-.125 2.625-.5v3h-.5c-2.125 0-4.125 1.25-5 3.125l-1.901306 4.098267c-.5.875-.12497 2 .875061 2.5 1.125.5 2.125-.125 2.5-.875031zm5.901123-5.098236h3.875c.625 0 1.125-.5 1.25-1.125l1.5-10.625c.125-.625.625-1.125 1.25-1.125h.25m-7.25 12.875v7.249878m-4.375.000122h8.125" stroke="#92bd39"/><path d="m615.433777 39.117493c.102539-.205658.312622-.335633.54248-.335633.229798 0 .439881.129975.542481.335633l1.261291 2.55252c.088318.177216.257752.300019.453736.328736l2.828735.410003c.22583.030671.414368.187348.485901.403748.071472.21637.013428.454559-.149658.613739l-2.047486 2c-.140991.136108-.205566.333099-.172485.526276l.483704 2.818725c.037414.224671-.056153.45105-.241211.583771-.187073.132812-.432801.149719-.636292.043732l-2.526245-1.323731c-.177429-.092499-.388794-.092499-.566223 0l-2.518738 1.323731c-.203491.105987-.449219.08908-.636291-.043732-.186768-.131439-.281189-.358673-.242493-.583771l.483765-2.818725c.033386-.192963-.030701-.389923-.171265-.526276l-2.053711-2c-.163025-.158997-.221252-.396973-.150024-.613281.071228-.216309.259399-.373139.484985-.404206l2.828796-.408752c.196289-.028534.366211-.151337.454956-.328735zm-4.490051 12.091247c.039001.224854-.054932.452027-.241211.583771-.186646.133972-.433045.150909-.636292.043732l-2.526245-1.323731c-.177429-.092499-.388794-.092499-.566223 0l-2.518738 1.323731c-.203247.107177-.449585.09024-.636291-.043732-.186524-.131622-.280884-.358704-.242493-.583771l.483765-2.818725c.033813-.192994-.030335-.390168-.171265-.526276l-2.053711-2c-.163635-.158813-.222351-.397064-.151245-.613739.072265-.216431.260376-.373596.486206-.40625l2.830017-.407501c.196472-.028137.366577-.151032.455017-.328736l1.26001-2.55252c.102539-.205658.312622-.335633.54248-.335633.229798 0 .439881.129975.542481.335633l.418762.846252m12.837524 8.807495c-.039001.224854.054932.452027.241211.583771.186646.133972.433045.150909.636292.043732l2.526245-1.323731c.177429-.092499.388794-.092499.566223 0l2.518738 1.323731c.203247.107177.449585.09024.636291-.043732.186524-.131622.280884-.358704.242493-.583771l-.483765-2.818725c-.033813-.192994.030335-.390168.171265-.526276l2.053711-2c.162659-.158325.221314-.395294.151245-.611237-.072265-.21643-.260376-.373596-.486206-.40625l-2.830017-.410003c-.196472-.028137-.366577-.151032-.455017-.328736l-1.26001-2.55252c-.1026-.205658-.312622-.335633-.54248-.335633-.229798 0-.439881.129975-.542481.335633l-.418762.846252m.039978 20.776245-5.369995 1.073761m.53125-6.091247-2.533753 1.070007c-.404541.16748-.860229.161163-1.260009-.017517-.403809-.181793-.718628-.516876-.875-.931244-.313599-.808594.026794-1.723999.792541-2.131256l2.533753-1.264984c.313293-.162537.660766-.24823 1.013733-.25.26477-.000214.527343.047638.775024.141235l5.204956 2.050018m-16.222473 7.46872h1.993774l3.419983 2.608765c.332276.377197.904175.422027 1.29126.101257l4.779968-3.946259c.393921-.325592.457642-.905395.143738-1.308746l-2.633728-2.924988m-2.576233-2.496277-.277527-.227478c-.557861-.413635-1.290344-.50827-1.934997-.25l-4.268738 1.707489m-3.9375 8.160004h2.653747c.703125.037689 1.304627-.499603 1.346253-1.202515v-6.592498c-.041626-.702881-.643128-1.240174-1.346253-1.202485h-2.653747m23 8.997498h-2.153748c-.703125.037689-1.304626-.499603-1.346252-1.202515v-6.59497c.041626-.702912.643127-1.240174 1.346252-1.202515h2.153748" stroke="#ba5de5"/></g></svg>