<svg height="299" style="fill:none;fill-rule:evenodd;clip-rule:evenodd;stroke-linecap:round;stroke-linejoin:round;stroke-miterlimit:1.5" viewBox="0 0 673 299" width="673" xmlns="http://www.w3.org/2000/svg"><path d="m0 0h673v298.095h-673z" fill="#fff"/><path d="m10 10h672v297.1h-672z" fill="#fff" transform="translate(-9.5 -9.5)"/><path d="m15.0326 206.541496c.9303.571 2.0142.903 3.1578.903h1.0191c5.0346 6.4134 11.4757 12.4044 17.9322 17.5385l-7.8314.2777c-3.3297.1331-5.9003 2.9477-5.9003 6.2814v1.4106c.1332 3.327 2.9568 5.8955 6.2865 5.7691l26.2069-.9127c5.5267 3.2043 11.3898 6.1853 17.483 9.067l-9.4286 24.0534c-17.601-8.1809-35.7272-19.1333-49.0067-33.7062-7.4417-9.6304-5.7281-20.9161.0815-30.6818zm.100742-96.537901c-8.0569-10.4265-5.4269-22.9402 1.6189-33.2036-.5476.8172-1.3032 2.0098-1.7928 2.8507 1.5167.8746 2.4838.8746 3.5873.8746h1.1847c5.0422 6.4138 11.1965 12.4074 17.6555 17.5392l-8.1015.2802c-3.3298.1331-5.9003 2.9477-5.9003 6.2814v1.4106c.1332 3.327 2.9568 5.8955 6.2865 5.7691l26.4904-.9176c9.9757 5.7782 21.045 10.4344 32.5838 15.4904l.3318.1466-.3318.1454c-6.0985 2.6972-11.4604 4.9122-15.5415 6.5749-5.1187 2.1497-10.3652 4.5304-15.5994 7.164-15.4639-7.7808-30.836-17.6371-42.4716-30.4059zm120.572 69.4964 12.382.502c3.209.126 5.823-2.272 5.949-5.4794v-1.2776c0-3.2072-2.43-5.8954-5.64-6.0285l-34.73-1.3822c-7.7665-4.0463-16.0475-7.7942-24.5895-11.54 5.9614-2.6311 11.2005-4.7955 15.2076-6.4281 5.3076-2.2291 10.7529-4.7064 16.1789-7.4567 15.267 7.7382 30.137 17.5829 41.628 30.1922 8.099 10.4823 5.225 22.9873-1.844 33.2973-.005-.008-.011-.016-.017-.024.006-.009.012-.017.017-.025 1.536-2.24 2.868-4.581 3.929-6.98-1.079-1.843-2.708-3.121-4.942-3.121h-7.017c-5.099-5.268-10.951-10.141-16.512-14.249zm-22.012921-140.601795 34.7038 1.3811c3.2098.1331 5.6405 2.8213 5.6405 6.0285v1.2776c-.1265 3.2072-2.6904 5.636-5.9002 5.5095l-12.3485-.4914c5.5596 4.1091 11.3451 8.9407 16.4416 14.2087h7.0047c2.2405 0 4.4249 1.4169 5.5011 3.2682 3.8134-8.4083 4.376-18.2544-2.395-26.694-13.2795-14.5728-31.4057-25.2054-49.0068-33.3864l-9.4285 24.0534c3.3373 1.5784 6.6055 3.1865 9.7873 4.8448z" fill="#f5f5f5" transform="translate(259.769531 2.665649)"/><path d="m69.652 12.374c3.2099.1331 5.6406 2.8213 5.6406 6.0286v1.2775c-.1265 3.2073-2.6904 5.636-5.9003 5.5096l-59.392296-2.3638v-12.8259zm9.2107 40.2469c.9424-1.1934 1.8362-2.4016 2.6727-3.6218 1.5359-2.2399 3.0002-4.8524 4.061-7.2518-.9821-1.5205-2.9251-2.8015-5.1589-2.8015l-70.437496-.0389v13.714zm-13.5553 13.8344-55.307396 1.9256-.000004 13.4711 35.9823-1.2594c5.7591-3.5748 12.7159-8.4482 19.3251-14.1373z" fill="#95bdff" transform="translate(338.513916 157.46582)"/><path d="m10.000007 52.6336c.898624.5203 2.103424.8204 3.190724.8204h70.4901v-13.714h-63.3966c-3.2111 3.2993-6.2094 6.7721-8.661 10.3479-.5728.8353-1.1107 1.6845-1.623224 2.5457zm31.933124-30.6362 41.7477 1.6616v-12.8259l-20.9335-.8331c-4.6694 2.3271-9.1752 4.7402-13.4659 7.2997-2.2513 1.3468-4.7369 2.924-7.3483 4.6977zm-23.6114 55.5541c0-3.3337 2.5705-6.1483 5.9003-6.2814l59.4588-2.0561v13.4711l-59.0726 2.0461c-3.3297.1264-6.1533-2.442-6.2865-5.7691z" fill="#4e8ff9" transform="translate(264.842407 156.665527)"/><path d="m69.652 12.374c3.2099.1331 5.6406 2.8213 5.6406 6.0286v1.2775c-.1265 3.2073-2.6904 5.636-5.9003 5.5096l-59.392295-2.3638v-12.8259zm9.815 40.2469c.8471-1.0857 1.6537-2.1832 2.413-3.2907 1.5757-2.298 2.9366-4.7021 4.0105-7.1667-1.0567-1.9201-3.1086-3.2566-5.4003-3.2566h-70.490195v13.714zm-13.3833 13.8206-56.083695 1.9394-.000005 13.4711 36.9214-1.2788c5.7639-3.6138 12.648-8.4795 19.1623-14.1317z" fill="#4f84da" transform="translate(338.513733 30.57074)"/><path d="m20.0608 39.7625c-3.0626 3.1812-5.8637 6.4928-8.2178 9.9262-.6548.9551-1.2675 1.9315-1.843008 2.92.907908.5346 2.006008.8678 3.109508.8678h70.6784v-13.714zm21.4315-17.7576 42.2956 1.6766v-12.8259l-21.6695-.8556c-2.989 1.5014-5.9094 3.0397-8.7476 4.6308-1.3435.7531-2.6686 1.5181-3.9737 2.2967-2.4107 1.4422-5.09 3.1485-7.9048 5.0774zm-23.0635 55.5691c0-3.3337 2.5706-6.1483 5.9003-6.2814l59.4588-2.0561v13.4711l-59.0725 2.0461c-3.3298.1264-6.1534-2.442-6.2866-5.769z" fill="#42649b" transform="translate(264.72583 29.714661)"/><path d="m165.986199 203.901093c-9.4851 13.8338-26.3473 26.1279-37.4803 32.7882-1.3052.7785-2.6303 1.5436-3.9738 2.2967-4.8637 2.7266-9.9691 5.2983-15.2474 7.795l9.434 24.0509c17.5936-8.1801 35.7095-19.1292 48.9831-33.6956 8.786-9.6417 10.4045-18.9128 10.4045-33.2352 0-14.3223-1.6185-23.5934-10.4045-33.2352 8.0999 10.4822 5.3533 22.9254-1.7156 33.2352zm-145.547999-32.773633c15.6244-17.091 37.9367-29.2023 58.2435-37.7033 4.0943-1.6628 9.4736-3.8777 15.5919-6.5749 12.2838-5.3651 24.0344-10.7259 34.5094-16.9544 11.169-6.6603 28.086-18.9544 37.602-32.7882 7.092-10.3098 9.847-22.753 1.721-33.2352 8.815 9.6418 10.438 18.9129 10.438 33.2352 0 14.3224-1.623 23.5935-10.438 33.2353-15.624 17.0907-37.937 29.2019-58.2435 37.7025-4.0943 1.663-9.4707 3.877-15.5889 6.575-12.2839 5.365-24.0374 10.726-34.5125 16.955-11.1691 6.66-28.0859 18.954-37.6017 32.788-7.0918 10.31-9.7952 22.781-1.4895 33.235-8.8145-9.642-10.6699-18.913-10.6699-33.235 0-14.323 1.6237-23.594 10.4382-33.235zm1.869692-94.196659c9.485108-13.833801 26.431702-26.127899 37.564697-32.7882 1.305207-.778504 2.63031-1.543602 3.973786-2.2967 4.863708-2.7266 9.969116-5.298301 15.247406-7.794998l-9.433991-24.050903c-17.593597 8.180099-35.709503 19.129196-48.983093 33.695595-8.786011 9.6417-10.40451 18.912803-10.40451 33.235206 0 14.322296 1.618499 23.593399 10.40451 33.235199-8.099915-10.482208-5.437714-22.9254 1.631195-33.235199z" fill="#f5f5f5" transform="translate(254.24176 2.499634)"/><text fill="#484848" font-family="Arial, Helvetica, sans-serif" font-size="20" transform="translate(50.5 50.5)"><tspan dominant-baseline="ideographic" x="12" y="33">Patient Visits</tspan></text><text fill="#484848" font-family="Arial, Helvetica, sans-serif" font-size="20" transform="translate(506.5 38.5)"><tspan dominant-baseline="ideographic" x="12" y="33">Operation</tspan><tspan dominant-baseline="ideographic" x="12" y="57">Management</tspan></text><text fill="#484848" font-family="Arial, Helvetica, sans-serif" font-size="20" transform="translate(14.5 182.5)"><tspan dominant-baseline="ideographic" x="18" y="33">Staff Scheduling</tspan></text><text fill="#484848" font-family="Arial, Helvetica, sans-serif" font-size="20" transform="translate(506.5 170.5)"><tspan dominant-baseline="ideographic" x="12" y="33">QR Code</tspan><tspan dominant-baseline="ideographic" x="12" y="57">Integration</tspan></text><g fill="none" stroke-linecap="butt" stroke-linejoin="miter" stroke-miterlimit="4"><path d="m15.0326 206.541496c.9303.571 2.0142.903 3.1578.903h1.0191c5.0346 6.4134 11.4757 12.4044 17.9322 17.5385l-7.8314.2777c-3.3297.1331-5.9003 2.9477-5.9003 6.2814v1.4106c.1332 3.327 2.9568 5.8955 6.2865 5.7691l26.2069-.9127c5.5267 3.2043 11.3898 6.1853 17.483 9.067l-9.4286 24.0534c-17.601-8.1809-35.7272-19.1333-49.0067-33.7062-7.4417-9.6304-5.7281-20.9161.0815-30.6818zm.100742-96.537901c-8.0568-10.4265-5.4269-22.9402 1.6189-33.2036-.5476.8172-1.3032 2.0098-1.7928 2.8507 1.5167.8746 2.4838.8746 3.5872.8746h1.1848c5.0422 6.4138 11.1965 12.4074 17.6555 17.5392l-8.1015.2802c-3.3298.1331-5.9003 2.9477-5.9003 6.2814v1.4106c.1332 3.327 2.9568 5.8955 6.2865 5.7691l26.4904-.9176c9.9757 5.7782 21.045 10.4344 32.5838 15.4904l.3318.1466-.3318.1454c-6.0985 2.6972-11.4604 4.9122-15.5415 6.5749-5.1187 2.1497-10.3652 4.5304-15.5994 7.164-15.4639-7.7808-30.836-17.6371-42.4716-30.4059zm120.5721 69.4959 12.3815.502c3.2099.1264 5.8233-2.2717 5.9499-5.4789v-1.2776c0-3.2072-2.4307-5.8954-5.6406-6.0285l-34.7302-1.3822c-7.7662-4.0463-16.0472-7.7942-24.5892-11.54 5.9614-2.6311 11.2005-4.7955 15.2076-6.4281 5.3076-2.2291 10.7526-4.7064 16.1788-7.4567 15.2676 7.7382 30.1375 17.5829 41.6277 30.1922 8.0999 10.4822 5.2255 22.9877-1.8434 33.2976-.0056-.0083-.0112-.0165-.0169-.0247.0057-.0083.0113-.0165.017-.0247 1.5358-2.24 2.8676-4.5807 3.9285-6.9801-1.0785-1.8424-2.7079-3.1204-4.9418-3.1204h-7.0173c-5.099-5.2688-10.9509-10.1411-16.5116-14.2499zm-22.013021-140.601295 34.7038 1.3811c3.2098.1331 5.6405 2.8213 5.6405 6.0285v1.2776c-.1265 3.2072-2.6904 5.636-5.9002 5.5095l-12.3485-.4914c5.5596 4.1091 11.3451 8.9407 16.4416 14.2087h7.0047c2.2405 0 4.4249 1.4169 5.5011 3.2682 3.8134-8.4083 4.376-18.2544-2.395-26.694-13.2795-14.5728-31.4057-25.2054-49.0068-33.3864l-9.4285 24.0534c3.3373 1.5784 6.6055 3.1865 9.7873 4.8448z" stroke="#484848" transform="translate(259.769531 2.665649)"/><path d="m69.652 12.374c3.2099.1331 5.6406 2.8213 5.6406 6.0285v1.2776c-.1265 3.2073-2.6904 5.636-5.9003 5.5096l-59.3923-2.3638v-12.8259zm9.2107 40.2469c.9424-1.1934 1.8362-2.4016 2.6727-3.6218 1.5359-2.2399 3.0002-4.8524 4.061-7.2518-.9822-1.5205-2.9251-2.8015-5.1589-2.8015l-70.4375-.0389v13.714zm-13.5553 13.8344-55.3074 1.9256v13.4711l35.9823-1.2594c5.7591-3.5748 12.7159-8.4482 19.3251-14.1373z" stroke="#95bdff" transform="translate(338.513916 157.46582)"/><path d="m10.000031 52.6336c.8986.5203 2.1034.8204 3.1907.8204h70.4901v-13.714h-63.3966c-3.2111 3.2993-6.2094 6.7721-8.6611 10.3479-.5727.8353-1.1106 1.6845-1.6231 2.5457zm31.9331-30.6362 41.7477 1.6616v-12.8259l-20.9335-.8331c-4.6694 2.3271-9.1752 4.7402-13.4659 7.2997-2.2513 1.3468-4.7369 2.924-7.3483 4.6977zm-23.6114 55.5541c0-3.3337 2.5705-6.1483 5.9003-6.2814l59.4588-2.0561v13.4711l-59.0726 2.0461c-3.3297.1264-6.1533-2.442-6.2865-5.7691z" stroke="#4e8ff9" transform="translate(264.842407 156.665527)"/><path d="m69.652 12.374c3.2099.1331 5.6406 2.8213 5.6406 6.0285v1.2776c-.1265 3.2073-2.6904 5.636-5.9003 5.5096l-59.3923-2.3638v-12.8259zm9.815 40.2469c.8471-1.0857 1.6537-2.1832 2.413-3.2907 1.5757-2.298 2.9366-4.7021 4.0105-7.1667-1.0567-1.9201-3.1086-3.2566-5.4003-3.2566h-70.4902v13.714zm-13.3833 13.8206-56.0837 1.9394v13.4711l36.9214-1.2788c5.7639-3.6138 12.648-8.4795 19.1623-14.1317z" stroke="#4f84da" transform="translate(338.513733 30.57074)"/><path d="m20.0608 39.7625c-3.0626 3.1812-5.8637 6.4928-8.2178 9.9262-.6548.9551-1.2675 1.9315-1.843 2.92.9079.5346 2.006.8678 3.1095.8678h70.6784v-13.714zm21.4315-17.7576 42.2956 1.6766v-12.8259l-21.6695-.8556c-2.989 1.5014-5.9094 3.0397-8.7476 4.6308-1.3435.7531-2.6686 1.5181-3.9737 2.2967-2.4107 1.4422-5.09 3.1485-7.9048 5.0774zm-23.0635 55.5691c0-3.3337 2.5706-6.1483 5.9003-6.2814l59.4588-2.0561v13.4711l-59.0725 2.0461c-3.3298.1264-6.1534-2.442-6.2866-5.769z" stroke="#42649b" transform="translate(264.72583 29.714661)"/><path d="m165.986199 203.901093c-9.4851 13.8338-26.3473 26.1279-37.4803 32.7882-1.3052.7785-2.6303 1.5436-3.9738 2.2967-4.8637 2.7266-9.9691 5.2983-15.2474 7.795l9.434 24.0505c17.5936-8.1797 35.7095-19.1288 48.9831-33.6952 8.786-9.6417 10.4045-18.9128 10.4045-33.2352 0-14.3223-1.6185-23.5934-10.4045-33.2352 8.0999 10.4822 5.3533 22.9254-1.7156 33.2352zm-87.304499-70.476933c-20.3068 8.501-42.6191 20.6121-58.2435 37.7029-8.8145 9.6417-10.4382 18.9129-10.4382 33.2352s1.8554 23.5935 10.6699 33.2352c-8.3057-10.4541-5.6023-22.9254 1.4895-33.2352 9.5158-13.8338 26.4326-26.1279 37.6017-32.7882 10.4751-6.2285 22.2286-11.5898 34.5125-16.9549 6.1182-2.6972 11.4946-4.9116 15.5889-6.5743 20.3069-8.501 42.6192-20.6122 58.2435-37.7029 8.8146-9.6418 10.4383-18.9129 10.4383-33.2353 0-14.3223-1.6237-23.5934-10.4383-33.2352 8.1262 10.4822 5.3707 22.9254-1.7211 33.2352-9.5158 13.8338-26.4326 26.1279-37.6017 32.7882-10.4751 6.2285-22.2258 11.5893-34.5096 16.9544-6.1183 2.6972-11.4976 4.9121-15.5919 6.5749zm-56.373808-56.493359c9.485108-13.833801 26.431702-26.127899 37.564697-32.7882 1.305207-.778504 2.63031-1.543602 3.973786-2.2967 4.863708-2.7266 9.969116-5.298301 15.247406-7.794998l-9.433991-24.050506c-17.593597 8.179702-35.709503 19.128799-48.983093 33.695198-8.786011 9.6417-10.40451 18.912803-10.40451 33.235206 0 14.322296 1.618499 23.593399 10.40451 33.235199-8.099915-10.482208-5.437714-22.9254 1.631195-33.235199z" stroke="#a3a3a3" transform="translate(254.24176 2.499634)"/><path d="m12.5 26.5c0 3.037567 2.462435 5.5 5.5 5.5 3.037567 0 5.5-2.462433 5.5-5.5 0-3.037565-2.462433-5.5-5.5-5.5-3.037565 0-5.5 2.462435-5.5 5.5m12.5 14.5c0-3.86599-3.134007-7-7-7s-7 3.13401-7 7v6h3.166l.834 10h6l.834-10h3.166zm20.514 6h-16.514m1-36h12s1 0 1 1v16s0 1-1 1h-12s-1 0-1-1v-16s0-1 1-1m4 4h4s1 0 1 1v8s0 1-1 1h-4s-1 0-1-1v-8s0-1 1-1m23 37.501999c.013187.128681-.029388.25684-.116951.352051s-.21172.148342-.341049.14595h-11.082001c-.12933.002392-.253487-.050739-.341045-.14595-.087563-.095211-.130139-.22337-.116955-.352047l1.114002-13.000004c.029297-.279686.262818-.493462.543999-.498001h8.68c.281178.004539.514698.218315.543999.498001zm-4-22.501999 2-3h-8l2 3c-1.104115.331114-1.860268 1.347307-1.860268 2.5 0 1.152691.756153 2.168884 1.860264 2.5h4.000004c1.104107-.331116 1.860264-1.347309 1.860264-2.5 0-1.152693-.756157-2.168886-1.860268-2.500002zm-2 5v4" stroke="#484848" transform="translate(182.5 38.5)"/><path d="m43.400002 27.70002-10 5.599979-10.000102-5.599979v-10.80006l10.000102-5.39996 10 5.39996zm0-10.79962-10 5.60002-10.000102-5.60002m10.000102 5.5996v10.799801m0 4.400398v8.799999m-16.600201-.000198v-3.985199c0-1.3284.799999-2.214001 2-2.214001h30c1.200001 0 2 .885601 2 2.214001v3.985199m-12.399799 8c0 1.200001-.800004 2-2 2h-6.000002c-1.2001 0-2.0001-.799999-2.0001-2v-6c0-1.200001.8-2 2.0001-2h6.000002c1.199996 0 2 .799999 2 2zm-16.400002 0c0 1.200001-.799999 2-2 2h-6c-1.2 0-2-.799999-2-2v-6c0-1.200001.8-2 2-2h6c1.200001 0 2 .799999 2 2zm34 0c0 1.200001-.799999 2-2 2h-6c-1.200001 0-2-.799999-2-2v-6c0-1.200001.799999-2 2-2h6c1.200001 0 2 .799999 2 2z" stroke="#484848" transform="translate(446.5 38.5)"/><path d="m22.438 25.360001v-6.100001c.003311-2.243246 1.82275-4.060003 4.066-4.06h26.429998c2.243248-.000003 4.062691 1.816754 4.066002 4.059998v26.430001c0 2.24559-1.820412 4.066002-4.066002 4.066002h-11.181999m-19.313999-26.430001h34.562m-17.279999 7.624001h8.619999l-6.896 11.208m-10.474001-31.030001v7.664m17.498-7.664v7.664m-8.747998-7.664v7.664m-19.572002 24.355999c-.000242 1.684639 1.36536 3.050442 3.050001 3.050442s3.050243-1.365803 3.049999-3.050442c.000244-1.684643-1.365358-3.050442-3.049999-3.050442s-3.050243 1.365799-3.050001 3.050442m5.640001-11.796.9 2.952002c.306715 1.017868 1.349865 1.623825 2.385999 1.386001l2.999998-.694c1.166119-.268169 2.370621.256638 2.968232 1.293266.597614 1.036629.448188 2.341969-.368233 3.216729l-2.093994 2.258003c-.723913.781444-.723913 1.98856 0 2.770004l2.077999 2.265995c.813015.87365.962124 2.175003.367802 3.209912-.59433 1.034908-1.793473 1.561985-2.957802 1.300087l-3-.693997c-1.033562-.234447-2.072573.369751-2.380001 1.383999l-.9 2.953999c-.343084 1.14381-1.395843 1.927135-2.59 1.927135-1.194159 0-2.246916-.783325-2.59-1.927135l-.9-2.953999c-.299995-1.02322-1.344261-1.636463-2.384001-1.400002l-3 .694001c-1.157066.249538-2.342766-.277279-2.933126-1.303215-.590359-1.02594-.450035-2.315796.347127-3.190785l2.096-2.257999c.721983-.782196.721983-1.987801 0-2.769997l-2.096-2.266002c-.816418-.874764-.965845-2.180104-.368232-3.216733.597614-1.036628 1.802114-1.561435 2.968231-1.29327l3 .694004c1.035471.236634 2.077322-.369072 2.384001-1.386001l.9-2.952002c.350599-1.132242 1.397718-1.904171 2.583-1.904171s2.232399.771929 2.582998 1.904171z" stroke="#484848" transform="translate(182.5 170.5)"/><path d="m35 35v14c0 1.104568-.895432 2-2 2h-8m-11.2-35.6 10.094001 5.048c.677458.338526 1.105595 1.030668 1.105999 1.788v33.146c-.000011.346729-.17963.668705-.474657.850857s-.663357.198478-.973343.043144l-9.446-4.722c-.678104-.338848-1.106353-1.031948-1.106-1.790001v-32.764c0-1.104569.895431-2 2-2h18c1.104568 0 2 .895431 2 2v2m4-8h10v2c0 1.104569-.895432 2-2 2h-6c-1.104568 0-2-.895431-2-2zm7.827999 7.827999c-1.562 1.561527-4.093998 1.561527-5.655998 0m9.899998 4.244c-3.905453 3.906488-10.238541 3.906488-14.143998.000002m18.385998 4.241998c-6.248455 6.248776-16.379543 6.248776-22.627998 0" stroke="#484848" transform="translate(446.5 170.5)"/></g></svg>