<?xml version="1.0" encoding="utf-8" standalone="yes"?>
<!DOCTYPE svg PUBLIC "-//W3C//DTD SVG 1.1//EN" "http://www.w3.org/Graphics/SVG/1.1/DTD/svg11.dtd">
<svg width="938" height="524" viewBox="0 0 938 524" style="fill:none;stroke:none;fill-rule:evenodd;clip-rule:evenodd;stroke-linecap:round;stroke-linejoin:round;stroke-miterlimit:1.5;" version="1.1" xmlns="http://www.w3.org/2000/svg" xmlns:xlink="http://www.w3.org/1999/xlink"><style id="fontImports">@import url("https://fonts.googleapis.com/css2?family=Roboto:wght@400;700&amp;display=block");</style><rect id="" x="0" y="0" width="938" height="524" style="fill: #ffffff;"></rect><g id="items" style="isolation: isolate"><g id="blend" style="mix-blend-mode: normal"><g id="g-root-tf_qp1tigdd7rpp-fill" data-item-order="-488592" transform="translate(-9, -9)"><g id="tf_qp1tigdd7rpp-fill" stroke="none" fill="#ffffff"><g><path d="M 10 10L 946 10L 946 532L 10 532Z"></path></g></g></g><g id="g-root-ro_qwjfe0dcpj4b-fill" data-item-order="-29232" transform="translate(339, 90)"><g id="ro_qwjfe0dcpj4b-fill" stroke="none" fill="#f5f5f5"><g><path d="M 34 10L 154 10C 154 10 178 10 178 34L 178 160C 178 160 178 184 154 184L 34 184C 34 184 10 184 10 160L 10 34C 10 34 10 10 34 10"></path></g></g></g><g id="g-root-ro_zitbc8dczcw0-fill" data-item-order="-18792" transform="translate(555, 39)"><g id="ro_zitbc8dczcw0-fill" stroke="none" fill="#faf0ff"><g><path d="M 22 10L 346 10C 346 10 358 10 358 22L 358 52C 358 52 358 64 346 64L 22 64C 22 64 10 64 10 52L 10 22C 10 22 10 10 22 10"></path></g></g></g><g id="g-root-ro_1q6zdewdd3jm6-fill" data-item-order="-17496" transform="translate(261, 339)"><g id="ro_1q6zdewdd3jm6-fill" stroke="none" fill="#ffeceb"><g><path d="M 22 10L 322 10C 322 10 334 10 334 22L 334 52C 334 52 334 64 322 64L 22 64C 22 64 10 64 10 52L 10 22C 10 22 10 10 22 10"></path></g></g></g><g id="g-root-ro_1464ii0dd94p3-fill" data-item-order="-17496" transform="translate(555, 189)"><g id="ro_1464ii0dd94p3-fill" stroke="none" fill="#fffbda"><g><path d="M 22 10L 322 10C 322 10 334 10 334 22L 334 52C 334 52 334 64 322 64L 22 64C 22 64 10 64 10 52L 10 22C 10 22 10 10 22 10"></path></g></g></g><g id="g-root-ro_i0a17sdd4ykj-fill" data-item-order="-13608" transform="translate(39, 39)"><g id="ro_i0a17sdd4ykj-fill" stroke="none" fill="#f4ffdc"><g><path d="M 22 10L 250 10C 250 10 262 10 262 22L 262 52C 262 52 262 64 250 64L 22 64C 22 64 10 64 10 52L 10 22C 10 22 10 10 22 10"></path></g></g></g><g id="g-root-ro_1lr5vagdd7q4k-fill" data-item-order="-10368" transform="translate(99, 189)"><g id="ro_1lr5vagdd7q4k-fill" stroke="none" fill="#ffebf7"><g><path d="M 22 10L 190 10C 190 10 202 10 202 22L 202 52C 202 52 202 64 190 64L 22 64C 22 64 10 64 10 52L 10 22C 10 22 10 10 22 10"></path></g></g></g><g id="g-root-cu_1hbcd60dd7qww-fill" data-item-order="0" transform="translate(507, 66)"></g><g id="g-root-cu_v4vbmwdd7qx5-fill" data-item-order="0" transform="translate(579, 243)"></g><g id="g-root-cu_18fpcx4dd7rpq-fill" data-item-order="0" transform="translate(291, 206)"></g><g id="g-root-tx_realtime_dhc5nsdd3k0c-fill" data-item-order="0" transform="translate(603, 291)"><g id="tx_realtime_dhc5nsdd3k0c-fill" stroke="none" fill="#484848"><g><text style="font-style: normal; font-variant-caps: normal; font-weight: normal; font-stretch: normal; font-size: 20px; line-height: normal; font-family: Roboto, sans-serif; font-size-adjust: none; font-kerning: auto; font-variant-alternates: normal; font-variant-ligatures: normal; font-variant-numeric: normal; font-variant-east-asian: normal; font-variant-position: normal; font-variant-emoji: normal; font-feature-settings: normal; font-optical-sizing: auto; font-variation-settings: normal; white-space: pre;"><tspan x="12.06" y="34" dominant-baseline="ideographic">Real-Time Communication</tspan></text></g></g></g><g id="g-root-tx_timesavi_1lr5vagdd3kef-fill" data-item-order="0" transform="translate(111, 105)"><g id="tx_timesavi_1lr5vagdd3kef-fill" stroke="none" fill="#484848"><g><text style="font-style: normal; font-variant-caps: normal; font-weight: normal; font-stretch: normal; font-size: 20px; line-height: normal; font-family: Roboto, sans-serif; font-size-adjust: none; font-kerning: auto; font-variant-alternates: normal; font-variant-ligatures: normal; font-variant-numeric: normal; font-variant-east-asian: normal; font-variant-position: normal; font-variant-emoji: normal; font-feature-settings: normal; font-optical-sizing: auto; font-variation-settings: normal; white-space: pre;"><tspan x="16.09" y="34" dominant-baseline="ideographic">Time Savings</tspan></text></g></g></g><g id="g-root-cu_1cviv1kdd7rpg-fill" data-item-order="0" transform="translate(249, 93)"></g><g id="g-root-cu_zkotrcdd7q4n-fill" data-item-order="0" transform="translate(249, 93)"></g><g id="g-root-tx_quickerr_zqxkmgdd3l73-fill" data-item-order="0" transform="translate(309, 405)"><g id="tx_quickerr_zqxkmgdd3l73-fill" stroke="none" fill="#484848"><g><text style="font-style: normal; font-variant-caps: normal; font-weight: normal; font-stretch: normal; font-size: 20px; line-height: normal; font-family: Roboto, sans-serif; font-size-adjust: none; font-kerning: auto; font-variant-alternates: normal; font-variant-ligatures: normal; font-variant-numeric: normal; font-variant-east-asian: normal; font-variant-position: normal; font-variant-emoji: normal; font-feature-settings: normal; font-optical-sizing: auto; font-variation-settings: normal; white-space: pre;"><tspan x="13.38" y="34" dominant-baseline="ideographic">Quicker Response Times</tspan></text></g></g></g><g id="g-root-cu_18fpcx4dd7rpn-fill" data-item-order="0" transform="translate(507, 206)"></g><g id="g-root-cu_zkotrcdd7q4p-fill" data-item-order="0" transform="translate(579, 93)"></g><g id="g-root-cu_zkotrcdd7q4s-fill" data-item-order="0" transform="translate(579, 93)"></g><g id="g-root-cu_1cviv1kdd7rpd-fill" data-item-order="0" transform="translate(423, 264)"></g><g id="g-root-tx_fasttrea_9mht4dd3jls-fill" data-item-order="0" transform="translate(309, 441)"><g id="tx_fasttrea_9mht4dd3jls-fill" stroke="none" fill="#484848"><g><text style="font-style: normal; font-variant-caps: normal; font-weight: normal; font-stretch: normal; font-size: 20px; line-height: normal; font-family: Roboto, sans-serif; font-size-adjust: none; font-kerning: auto; font-variant-alternates: normal; font-variant-ligatures: normal; font-variant-numeric: normal; font-variant-east-asian: normal; font-variant-position: normal; font-variant-emoji: normal; font-feature-settings: normal; font-optical-sizing: auto; font-variation-settings: normal; white-space: pre;"><tspan x="14.25" y="34" dominant-baseline="ideographic">Fast Treatment</tspan></text></g></g></g><g id="g-root-cu_zkotrcdd7qww-fill" data-item-order="0" transform="translate(285, 393)"></g><g id="g-root-tx_fastchec_1cz9pk8dd3j7n-fill" data-item-order="0" transform="translate(603, 255)"><g id="tx_fastchec_1cz9pk8dd3j7n-fill" stroke="none" fill="#484848"><g><text style="font-style: normal; font-variant-caps: normal; font-weight: normal; font-stretch: normal; font-size: 20px; line-height: normal; font-family: Roboto, sans-serif; font-size-adjust: none; font-kerning: auto; font-variant-alternates: normal; font-variant-ligatures: normal; font-variant-numeric: normal; font-variant-east-asian: normal; font-variant-position: normal; font-variant-emoji: normal; font-feature-settings: normal; font-optical-sizing: auto; font-variation-settings: normal; white-space: pre;"><tspan x="16.25" y="34" dominant-baseline="ideographic">Fast Check-Ins</tspan></text></g></g></g><g id="g-root-tx_errorred_hu1acodd3itk-fill" data-item-order="0" transform="translate(99, 141)"><g id="tx_errorred_hu1acodd3itk-fill" stroke="none" fill="#484848"><g><text style="font-style: normal; font-variant-caps: normal; font-weight: normal; font-stretch: normal; font-size: 20px; line-height: normal; font-family: Roboto, sans-serif; font-size-adjust: none; font-kerning: auto; font-variant-alternates: normal; font-variant-ligatures: normal; font-variant-numeric: normal; font-variant-east-asian: normal; font-variant-position: normal; font-variant-emoji: normal; font-feature-settings: normal; font-optical-sizing: auto; font-variation-settings: normal; white-space: pre;"><tspan x="13.14" y="34" dominant-baseline="ideographic">Error Reduction</tspan></text></g></g></g><g id="g-root-tx_increasi_4nkko8dd3jta-fill" data-item-order="0" transform="translate(63, 291)"><g id="tx_increasi_4nkko8dd3jta-fill" stroke="none" fill="#484848"><g><text style="font-style: normal; font-variant-caps: normal; font-weight: normal; font-stretch: normal; font-size: 20px; line-height: normal; font-family: Roboto, sans-serif; font-size-adjust: none; font-kerning: auto; font-variant-alternates: normal; font-variant-ligatures: normal; font-variant-numeric: normal; font-variant-east-asian: normal; font-variant-position: normal; font-variant-emoji: normal; font-feature-settings: normal; font-optical-sizing: auto; font-variation-settings: normal; white-space: pre;"><tspan x="12.3" y="34" dominant-baseline="ideographic">Increasing Capacity</tspan></text></g></g></g><g id="g-root-tx_eliminat_18lbmp4dd3i8d-fill" data-item-order="0" transform="translate(15, 255)"><g id="tx_eliminat_18lbmp4dd3i8d-fill" stroke="none" fill="#484848"><g><text style="font-style: normal; font-variant-caps: normal; font-weight: normal; font-stretch: normal; font-size: 20px; line-height: normal; font-family: Roboto, sans-serif; font-size-adjust: none; font-kerning: auto; font-variant-alternates: normal; font-variant-ligatures: normal; font-variant-numeric: normal; font-variant-east-asian: normal; font-variant-position: normal; font-variant-emoji: normal; font-feature-settings: normal; font-optical-sizing: auto; font-variation-settings: normal; white-space: pre;"><tspan x="13.13" y="34" dominant-baseline="ideographic">Eliminating Inefficiencies</tspan></text></g></g></g><g id="g-root-cu_v4vbmwdd7qx7-fill" data-item-order="0" transform="translate(249, 243)"></g><g id="g-root-cu_v4vbmwdd7qxa-fill" data-item-order="0" transform="translate(249, 243)"></g><g id="g-root-tx_realtime_hva8iwdd3kzm-fill" data-item-order="0" transform="translate(603, 141)"><g id="tx_realtime_hva8iwdd3kzm-fill" stroke="none" fill="#484848"><g><text style="font-style: normal; font-variant-caps: normal; font-weight: normal; font-stretch: normal; font-size: 20px; line-height: normal; font-family: Roboto, sans-serif; font-size-adjust: none; font-kerning: auto; font-variant-alternates: normal; font-variant-ligatures: normal; font-variant-numeric: normal; font-variant-east-asian: normal; font-variant-position: normal; font-variant-emoji: normal; font-feature-settings: normal; font-optical-sizing: auto; font-variation-settings: normal; white-space: pre;"><tspan x="16.02" y="34" dominant-baseline="ideographic">Real-Time Updates</tspan></text></g></g></g><g id="g-root-cu_1cviv1kdd7qx9-fill" data-item-order="0" transform="translate(291, 66)"></g><g id="g-root-cu_qp1tigdd7rpn-fill" data-item-order="0" transform="translate(285, 393)"></g><g id="g-root-tx_scheduli_1cxeaawdd3k7d-fill" data-item-order="0" transform="translate(603, 105)"><g id="tx_scheduli_1cxeaawdd3k7d-fill" stroke="none" fill="#484848"><g><text style="font-style: normal; font-variant-caps: normal; font-weight: normal; font-stretch: normal; font-size: 20px; line-height: normal; font-family: Roboto, sans-serif; font-size-adjust: none; font-kerning: auto; font-variant-alternates: normal; font-variant-ligatures: normal; font-variant-numeric: normal; font-variant-east-asian: normal; font-variant-position: normal; font-variant-emoji: normal; font-feature-settings: normal; font-optical-sizing: auto; font-variation-settings: normal; white-space: pre;"><tspan x="14.43" y="34" dominant-baseline="ideographic">Scheduling</tspan></text></g></g></g><g id="g-root-cu_zkotrcdd7q4u-fill" data-item-order="0" transform="translate(579, 243)"></g><g id="g-root-tx_optimize_dkgfxkdcxyj2-fill" data-item-order="1000000000" transform="translate(603, 54)"><g id="tx_optimize_dkgfxkdcxyj2-fill" stroke="none" fill="#ba5de5"><g><text style="font-style: normal; font-variant-caps: normal; font-weight: normal; font-stretch: normal; font-size: 20px; line-height: normal; font-family: Roboto, sans-serif; font-size-adjust: none; font-kerning: auto; font-variant-alternates: normal; font-variant-ligatures: normal; font-variant-numeric: normal; font-variant-east-asian: normal; font-variant-position: normal; font-variant-emoji: normal; font-feature-settings: normal; font-optical-sizing: auto; font-variation-settings: normal; white-space: pre;"><tspan x="17.38" y="34" dominant-baseline="ideographic">Optimized Resource Utilization</tspan></text></g></g></g><g id="g-root-sign_zs6fmwdcpibm-fill" data-item-order="1000000000" transform="translate(399, 126)"></g><g id="g-root-tx_automati_hzngywdcpiip-fill" data-item-order="1000000000" transform="translate(369, 180)"><g id="tx_automati_hzngywdcpiip-fill" stroke="none" fill="#484848"><g><text style="font-style: normal; font-variant-caps: normal; font-weight: normal; font-stretch: normal; font-size: 20px; line-height: normal; font-family: Roboto, sans-serif; font-size-adjust: none; font-kerning: auto; font-variant-alternates: normal; font-variant-ligatures: normal; font-variant-numeric: normal; font-variant-east-asian: normal; font-variant-position: normal; font-variant-emoji: normal; font-feature-settings: normal; font-optical-sizing: auto; font-variation-settings: normal; white-space: pre;"><tspan x="15.32" y="34" dominant-baseline="ideographic">Healthcare</tspan><tspan x="27.32" y="58" dominant-baseline="ideographic">Benefits</tspan></text></g></g></g><g id="g-root-inst_13ymtgodczc3r-fill" data-item-order="1000000000" transform="translate(567, 51)"></g><g id="g-root-tx_costsavi_13ymwmgdd7qbm-fill" data-item-order="1000000000" transform="translate(111, 204)"><g id="tx_costsavi_13ymwmgdd7qbm-fill" stroke="none" fill="#de58a9"><g><text style="font-style: normal; font-variant-caps: normal; font-weight: normal; font-stretch: normal; font-size: 20px; line-height: normal; font-family: Roboto, sans-serif; font-size-adjust: none; font-kerning: auto; font-variant-alternates: normal; font-variant-ligatures: normal; font-variant-numeric: normal; font-variant-east-asian: normal; font-variant-position: normal; font-variant-emoji: normal; font-feature-settings: normal; font-optical-sizing: auto; font-variation-settings: normal; white-space: pre;"><tspan x="17.5" y="34" dominant-baseline="ideographic">Cost Savings</tspan></text></g></g></g><g id="g-root-time_1q6cwbsdd7si3-fill" data-item-order="1000000000" transform="translate(249, 201)"></g><g id="g-root-chat_1464ii0dd94p2-fill" data-item-order="1000000000" transform="translate(567, 201)"></g><g id="g-root-tx_enhanced_mdlju0dd94w5-fill" data-item-order="1000000000" transform="translate(603, 204)"><g id="tx_enhanced_mdlju0dd94w5-fill" stroke="none" fill="#ab9e2b"><g><text style="font-style: normal; font-variant-caps: normal; font-weight: normal; font-stretch: normal; font-size: 20px; line-height: normal; font-family: Roboto, sans-serif; font-size-adjust: none; font-kerning: auto; font-variant-alternates: normal; font-variant-ligatures: normal; font-variant-numeric: normal; font-variant-east-asian: normal; font-variant-position: normal; font-variant-emoji: normal; font-feature-settings: normal; font-optical-sizing: auto; font-variation-settings: normal; white-space: pre;"><tspan x="12.47" y="34" dominant-baseline="ideographic">Enhanced Patient Experience</tspan></text></g></g></g><g id="g-root-up_i0a17sdd4yki-fill" data-item-order="1000000000" transform="translate(249, 51)"></g><g id="g-root-cros_1q6zdewdd3jm5-fill" data-item-order="1000000000" transform="translate(273, 351)"></g><g id="g-root-tx_improved_18egeqwdd3jt8-fill" data-item-order="1000000000" transform="translate(309, 354)"><g id="tx_improved_18egeqwdd3jt8-fill" stroke="none" fill="#e55753"><g><text style="font-style: normal; font-variant-caps: normal; font-weight: normal; font-stretch: normal; font-size: 20px; line-height: normal; font-family: Roboto, sans-serif; font-size-adjust: none; font-kerning: auto; font-variant-alternates: normal; font-variant-ligatures: normal; font-variant-numeric: normal; font-variant-east-asian: normal; font-variant-position: normal; font-variant-emoji: normal; font-feature-settings: normal; font-optical-sizing: auto; font-variation-settings: normal; white-space: pre;"><tspan x="17.48" y="34" dominant-baseline="ideographic">Improved Patient Outcomes</tspan></text></g></g></g><g id="g-root-tx_increase_1qd84a0dd4zd5-fill" data-item-order="1000000000" transform="translate(51, 54)"><g id="tx_increase_1qd84a0dd4zd5-fill" stroke="none" fill="#92bd39"><g><text style="font-style: normal; font-variant-caps: normal; font-weight: normal; font-stretch: normal; font-size: 20px; line-height: normal; font-family: Roboto, sans-serif; font-size-adjust: none; font-kerning: auto; font-variant-alternates: normal; font-variant-ligatures: normal; font-variant-numeric: normal; font-variant-east-asian: normal; font-variant-position: normal; font-variant-emoji: normal; font-feature-settings: normal; font-optical-sizing: auto; font-variation-settings: normal; white-space: pre;"><tspan x="17.11" y="34" dominant-baseline="ideographic">Increased Efficiency</tspan></text></g></g></g><g id="g-root-tf_qp1tigdd7rpp-stroke" data-item-order="-488592" transform="translate(-9, -9)"></g><g id="g-root-ro_qwjfe0dcpj4b-stroke" data-item-order="-29232" transform="translate(339, 90)"><g id="ro_qwjfe0dcpj4b-stroke" fill="none" stroke-linecap="round" stroke-linejoin="round" stroke-miterlimit="4" stroke="#484848" stroke-width="2"><g><path d="M 34 10L 154 10C 154 10 178 10 178 34L 178 160C 178 160 178 184 154 184L 34 184C 34 184 10 184 10 160L 10 34C 10 34 10 10 34 10"></path></g></g></g><g id="g-root-ro_zitbc8dczcw0-stroke" data-item-order="-18792" transform="translate(555, 39)"><g id="ro_zitbc8dczcw0-stroke" fill="none" stroke-linecap="round" stroke-linejoin="round" stroke-miterlimit="4" stroke="#ba5de5" stroke-width="2"><g><path d="M 22 10L 346 10C 346 10 358 10 358 22L 358 52C 358 52 358 64 346 64L 22 64C 22 64 10 64 10 52L 10 22C 10 22 10 10 22 10"></path></g></g></g><g id="g-root-ro_1q6zdewdd3jm6-stroke" data-item-order="-17496" transform="translate(261, 339)"><g id="ro_1q6zdewdd3jm6-stroke" fill="none" stroke-linecap="round" stroke-linejoin="round" stroke-miterlimit="4" stroke="#e55753" stroke-width="2"><g><path d="M 22 10L 322 10C 322 10 334 10 334 22L 334 52C 334 52 334 64 322 64L 22 64C 22 64 10 64 10 52L 10 22C 10 22 10 10 22 10"></path></g></g></g><g id="g-root-ro_1464ii0dd94p3-stroke" data-item-order="-17496" transform="translate(555, 189)"><g id="ro_1464ii0dd94p3-stroke" fill="none" stroke-linecap="round" stroke-linejoin="round" stroke-miterlimit="4" stroke="#e0cb15" stroke-width="2"><g><path d="M 22 10L 322 10C 322 10 334 10 334 22L 334 52C 334 52 334 64 322 64L 22 64C 22 64 10 64 10 52L 10 22C 10 22 10 10 22 10"></path></g></g></g><g id="g-root-ro_i0a17sdd4ykj-stroke" data-item-order="-13608" transform="translate(39, 39)"><g id="ro_i0a17sdd4ykj-stroke" fill="none" stroke-linecap="round" stroke-linejoin="round" stroke-miterlimit="4" stroke="#92bd39" stroke-width="2"><g><path d="M 22 10L 250 10C 250 10 262 10 262 22L 262 52C 262 52 262 64 250 64L 22 64C 22 64 10 64 10 52L 10 22C 10 22 10 10 22 10"></path></g></g></g><g id="g-root-ro_1lr5vagdd7q4k-stroke" data-item-order="-10368" transform="translate(99, 189)"><g id="ro_1lr5vagdd7q4k-stroke" fill="none" stroke-linecap="round" stroke-linejoin="round" stroke-miterlimit="4" stroke="#de58a9" stroke-width="2"><g><path d="M 22 10L 190 10C 190 10 202 10 202 22L 202 52C 202 52 202 64 190 64L 22 64C 22 64 10 64 10 52L 10 22C 10 22 10 10 22 10"></path></g></g></g><g id="g-root-cu_1hbcd60dd7qww-stroke" data-item-order="0" transform="translate(507, 66)"><g id="cu_1hbcd60dd7qww-stroke" fill="none" stroke-linecap="round" stroke-linejoin="round" stroke-miterlimit="4" stroke="#969696" stroke-width="2" stroke-dasharray="5.0, 7.0"><g><path d="M 10 92L 13 92L 13.1 92C 24.642748 92.000003 33.999998 82.642755 33.999998 71.100003L 34 71L 34 30.9C 33.999999 19.357249 43.357248 10.000001 54.899999 10.000002L 55 10L 58 10"></path></g></g></g><g id="g-root-cu_v4vbmwdd7qx5-stroke" data-item-order="0" transform="translate(579, 243)"><g id="cu_v4vbmwdd7qx5-stroke" fill="none" stroke-linecap="round" stroke-linejoin="round" stroke-miterlimit="4" stroke="#969696" stroke-width="2" stroke-dasharray="5.0, 7.0"><g><path d="M 10 10L 10 17.5L 10 58C 10.000002 64.627417 15.372585 70 22.000002 69.999999L 22.1 70L 28 70"></path></g></g></g><g id="g-root-cu_18fpcx4dd7rpq-stroke" data-item-order="0" transform="translate(291, 206)"><g id="cu_18fpcx4dd7rpq-stroke" fill="none" stroke-linecap="round" stroke-linejoin="round" stroke-miterlimit="4" stroke="#969696" stroke-width="2" stroke-dasharray="5.0, 7.0"><g><path d="M 58 10L 55 10L 54.9 10C 51.639401 10.016148 48.03708 10.453814 44.200002 11.299999C 41.965481 11.745013 38.361958 13.052173 34 14.999999C 29.638043 16.947825 26.03452 18.254985 23.8 18.699999C 19.962923 19.546185 16.360601 19.98385 13.1 20L 13 20L 10 20"></path></g></g></g><g id="g-root-tx_realtime_dhc5nsdd3k0c-stroke" data-item-order="0" transform="translate(603, 291)"></g><g id="g-root-tx_timesavi_1lr5vagdd3kef-stroke" data-item-order="0" transform="translate(111, 105)"></g><g id="g-root-cu_1cviv1kdd7rpg-stroke" data-item-order="0" transform="translate(249, 93)"><g id="cu_1cviv1kdd7rpg-stroke" fill="none" stroke-linecap="round" stroke-linejoin="round" stroke-miterlimit="4" stroke="#969696" stroke-width="2" stroke-dasharray="5.0, 7.0"><g><path d="M 28 10L 28 22L 28 34L 19 34L 10 34"></path></g></g></g><g id="g-root-cu_zkotrcdd7q4n-stroke" data-item-order="0" transform="translate(249, 93)"><g id="cu_zkotrcdd7q4n-stroke" fill="none" stroke-linecap="round" stroke-linejoin="round" stroke-miterlimit="4" stroke="#969696" stroke-width="2" stroke-dasharray="5.0, 7.0"><g><path d="M 28 10L 28 17.5L 28 58C 27.999999 64.627415 22.627416 69.999998 16 69.999998L 15.9 70L 10 70"></path></g></g></g><g id="g-root-tx_quickerr_zqxkmgdd3l73-stroke" data-item-order="0" transform="translate(309, 405)"></g><g id="g-root-cu_18fpcx4dd7rpn-stroke" data-item-order="0" transform="translate(507, 206)"><g id="cu_18fpcx4dd7rpn-stroke" fill="none" stroke-linecap="round" stroke-linejoin="round" stroke-miterlimit="4" stroke="#969696" stroke-width="2" stroke-dasharray="5.0, 7.0"><g><path d="M 10 10L 13 10L 13.1 10C 16.360602 10.01615 19.962923 10.453815 23.800001 11.3C 26.03452 11.745014 29.638043 13.052174 34 15.000001C 38.361958 16.947827 41.965481 18.254987 44.200001 18.700001C 48.03708 19.546186 51.639401 19.983851 54.900002 20.000001L 55 20L 58 20"></path></g></g></g><g id="g-root-cu_zkotrcdd7q4p-stroke" data-item-order="0" transform="translate(579, 93)"><g id="cu_zkotrcdd7q4p-stroke" fill="none" stroke-linecap="round" stroke-linejoin="round" stroke-miterlimit="4" stroke="#969696" stroke-width="2" stroke-dasharray="5.0, 7.0"><g><path d="M 10 10L 10 22L 10 34L 19 34L 28 34"></path></g></g></g><g id="g-root-cu_zkotrcdd7q4s-stroke" data-item-order="0" transform="translate(579, 93)"><g id="cu_zkotrcdd7q4s-stroke" fill="none" stroke-linecap="round" stroke-linejoin="round" stroke-miterlimit="4" stroke="#969696" stroke-width="2" stroke-dasharray="5.0, 7.0"><g><path d="M 10 10L 10 17.5L 10 58C 10.000002 64.627417 15.372585 70 22.000002 69.999999L 22.1 70L 28 70"></path></g></g></g><g id="g-root-cu_1cviv1kdd7rpd-stroke" data-item-order="0" transform="translate(423, 264)"><g id="cu_1cviv1kdd7rpd-stroke" fill="none" stroke-linecap="round" stroke-linejoin="round" stroke-miterlimit="4" stroke="#969696" stroke-width="2" stroke-dasharray="5.0, 7.0"><g><path d="M 10 10L 10 47.5L 10 85"></path></g></g></g><g id="g-root-tx_fasttrea_9mht4dd3jls-stroke" data-item-order="0" transform="translate(309, 441)"></g><g id="g-root-cu_zkotrcdd7qww-stroke" data-item-order="0" transform="translate(285, 393)"><g id="cu_zkotrcdd7qww-stroke" fill="none" stroke-linecap="round" stroke-linejoin="round" stroke-miterlimit="4" stroke="#969696" stroke-width="2" stroke-dasharray="5.0, 7.0"><g><path d="M 10 10L 10 22L 10 34L 19 34L 28 34"></path></g></g></g><g id="g-root-tx_fastchec_1cz9pk8dd3j7n-stroke" data-item-order="0" transform="translate(603, 255)"></g><g id="g-root-tx_errorred_hu1acodd3itk-stroke" data-item-order="0" transform="translate(99, 141)"></g><g id="g-root-tx_increasi_4nkko8dd3jta-stroke" data-item-order="0" transform="translate(63, 291)"></g><g id="g-root-tx_eliminat_18lbmp4dd3i8d-stroke" data-item-order="0" transform="translate(15, 255)"></g><g id="g-root-cu_v4vbmwdd7qx7-stroke" data-item-order="0" transform="translate(249, 243)"><g id="cu_v4vbmwdd7qx7-stroke" fill="none" stroke-linecap="round" stroke-linejoin="round" stroke-miterlimit="4" stroke="#969696" stroke-width="2" stroke-dasharray="5.0, 7.0"><g><path d="M 28 10L 28 22L 28 34L 19 34L 10 34"></path></g></g></g><g id="g-root-cu_v4vbmwdd7qxa-stroke" data-item-order="0" transform="translate(249, 243)"><g id="cu_v4vbmwdd7qxa-stroke" fill="none" stroke-linecap="round" stroke-linejoin="round" stroke-miterlimit="4" stroke="#969696" stroke-width="2" stroke-dasharray="5.0, 7.0"><g><path d="M 28 10L 28 17.5L 28 58C 27.999999 64.627415 22.627416 69.999998 16 69.999998L 15.9 70L 10 70"></path></g></g></g><g id="g-root-tx_realtime_hva8iwdd3kzm-stroke" data-item-order="0" transform="translate(603, 141)"></g><g id="g-root-cu_1cviv1kdd7qx9-stroke" data-item-order="0" transform="translate(291, 66)"><g id="cu_1cviv1kdd7qx9-stroke" fill="none" stroke-linecap="round" stroke-linejoin="round" stroke-miterlimit="4" stroke="#969696" stroke-width="2" stroke-dasharray="5.0, 7.0"><g><path d="M 58 92L 55 92L 54.9 92C 43.357247 92 33.999998 82.642751 33.999998 71.1L 34 71L 34 30.9C 33.999998 19.357248 24.64275 10 13.1 10L 13 10L 10 10"></path></g></g></g><g id="g-root-cu_qp1tigdd7rpn-stroke" data-item-order="0" transform="translate(285, 393)"><g id="cu_qp1tigdd7rpn-stroke" fill="none" stroke-linecap="round" stroke-linejoin="round" stroke-miterlimit="4" stroke="#969696" stroke-width="2" stroke-dasharray="5.0, 7.0"><g><path d="M 10 10L 10 17.5L 10 58C 10.000002 64.627417 15.372585 70 22.000002 69.999999L 22.1 70L 28 70"></path></g></g></g><g id="g-root-tx_scheduli_1cxeaawdd3k7d-stroke" data-item-order="0" transform="translate(603, 105)"></g><g id="g-root-cu_zkotrcdd7q4u-stroke" data-item-order="0" transform="translate(579, 243)"><g id="cu_zkotrcdd7q4u-stroke" fill="none" stroke-linecap="round" stroke-linejoin="round" stroke-miterlimit="4" stroke="#969696" stroke-width="2" stroke-dasharray="5.0, 7.0"><g><path d="M 10 10L 10 22L 10 34L 19 34L 28 34"></path></g></g></g><g id="g-root-tx_optimize_dkgfxkdcxyj2-stroke" data-item-order="1000000000" transform="translate(603, 54)"></g><g id="g-root-sign_zs6fmwdcpibm-stroke" data-item-order="1000000000" transform="translate(399, 126)"><g id="sign_zs6fmwdcpibm-stroke" fill="none" stroke-linecap="round" stroke-linejoin="round" stroke-miterlimit="4" stroke="#484848" stroke-width="2"><g><path d="M 16.90008 23.6999C 16.90008 19.8999 19.90008 16.8999 23.700081 16.8999M 11.500062 23.70002C 11.500062 16.900021 16.90008 11.5 23.700081 11.5M 51.099998 23.6999C 51.099998 19.8999 48.099998 16.8999 44.299999 16.8999M 56.5 23.70002C 56.5 16.900021 51.099998 11.5 44.299999 11.5M 16.799961 35.299999C 16.799961 33.099998 18.59996 31.299999 20.799961 31.299999L 25.99996 31.299999C 27.199961 31.299999 27.99996 30.5 27.99996 29.3001L 27.99996 24.1001C 27.99996 21.900101 29.799959 20.1001 32 20.1001L 36 20.1001C 38.200001 20.1001 40 21.900101 40 24.1001L 40 29.3001C 40 30.5 40.799999 31.299999 42 31.299999L 47.200001 31.299999C 49.400002 31.299999 51.200001 33.099998 51.200001 35.299999L 51.200001 39.299999C 51.200001 41.5 49.400002 43.299999 47.200001 43.299999L 42 43.299999C 40.799999 43.299999 40 44.099998 40 45.299999L 40 50.5C 40 52.700001 38.200001 54.5 36 54.5L 32 54.5C 29.799959 54.5 27.99996 52.700001 27.99996 50.5L 27.99996 45.299999C 27.99996 44.099998 27.199961 43.299999 25.99996 43.299999L 20.799961 43.299999C 18.59996 43.299999 16.799961 41.5 16.799961 39.299999L 16.799961 35.299999Z"></path></g></g></g><g id="g-root-tx_automati_hzngywdcpiip-stroke" data-item-order="1000000000" transform="translate(369, 180)"></g><g id="g-root-inst_13ymtgodczc3r-stroke" data-item-order="1000000000" transform="translate(567, 51)"><g id="inst_13ymtgodczc3r-stroke" fill="none" stroke-linecap="round" stroke-linejoin="round" stroke-miterlimit="4" stroke="#ba5de5" stroke-width="2"><g><path d="M 39.0625 36.5625C 39.0625 37.9375 37.9375 39.0625 36.5625 39.0625L 13.4375 39.0625C 12.0625 39.0625 10.9375 37.9375 10.9375 36.5625L 10.9375 13.4375C 10.9375 12.0625 12.0625 10.9375 13.4375 10.9375L 36.5625 10.9375C 37.9375 10.9375 39.0625 12.0625 39.0625 13.4375L 39.0625 36.5625ZM 15.669325 23.166C 17.3405 19.710251 20.961338 17.3603 25 17.3603C 29.038624 17.3603 32.6595 19.710251 34.33075 23.166M 10 10M 25 17.3603L 25 19.572149M 27.012751 30.769001C 26.183374 32.013126 24.386375 32.427876 23.14225 31.598499C 21.898138 30.769123 21.483438 28.972 22.312824 27.728001C 23.418625 26.069124 28.1185 24.133875 28.1185 24.133875C 28.1185 24.133875 28.118626 29.11025 27.012751 30.769001ZM 10 10M 32.533623 24.410126L 34.33075 23.166M 10 10M 17.466326 24.410126L 15.669325 23.166"></path></g></g></g><g id="g-root-tx_costsavi_13ymwmgdd7qbm-stroke" data-item-order="1000000000" transform="translate(111, 204)"></g><g id="g-root-time_1q6cwbsdd7si3-stroke" data-item-order="1000000000" transform="translate(249, 201)"><g id="time_1q6cwbsdd7si3-stroke" fill="none" stroke-linecap="round" stroke-linejoin="round" stroke-miterlimit="4" stroke="#de58a9" stroke-width="2"><g><path d="M 29.562376 36.125626C 33.152248 36.125626 36.0625 33.2155 36.0625 29.625624C 36.0625 26.035749 33.152248 23.125626 29.562376 23.125626C 25.972626 23.125626 23.0625 26.035749 23.0625 29.625624C 23.0625 33.2155 25.972626 36.125626 29.562376 36.125626ZM 10 10M 39.0625 39.000374L 34.219875 34.157749M 18.937574 31.875374C 14.312574 30.750374 10.937576 26.500376 10.937576 21.625362C 10.937576 15.750362 15.687574 11.000366 21.562574 11.000366C 26.562626 11.000366 30.687626 14.375362 31.812626 19.000362M 30.9375 26.500875C 30.0625 28.250875 28.6875 29.625875 27.0625 30.750875M 21.562574 11.011963L 21.562574 21.625851L 29.775375 14.882813M 10 10M 21.562561 21.625362L 18.939688 31.874876"></path></g></g></g><g id="g-root-chat_1464ii0dd94p2-stroke" data-item-order="1000000000" transform="translate(567, 201)"><g id="chat_1464ii0dd94p2-stroke" fill="none" stroke-linecap="round" stroke-linejoin="round" stroke-miterlimit="4" stroke="#ab9e2b" stroke-width="2"><g><path d="M 33.766876 22.641251L 33.766876 13.227175C 33.766876 12.659475 33.541374 12.115026 33.139874 11.7136C 32.738499 11.312175 32.194 11.086655 31.626375 11.086655L 15.367662 11.086655C 14.799963 11.086655 14.255512 11.312175 13.854088 11.7136C 13.452662 12.115026 13.227138 12.659475 13.227138 13.227175L 13.22725 26.98925L 11.086731 33.410751L 19.648787 31.270248L 22.13405 31.270248M 27.144249 23.246124C 26.124374 22.226187 24.741125 21.653212 23.29875 21.653212C 21.856438 21.653212 20.473162 22.226187 19.453276 23.246124C 18.433388 24.265999 17.860413 25.64925 17.860413 27.091625L 22.2068 27.091625M 23.299 21.653236C 25.301376 21.653236 26.924625 20.030012 26.924625 18.027662C 26.924625 16.025312 25.301376 14.402087 23.299 14.402087C 21.296688 14.402087 19.673462 16.025312 19.673462 18.027662C 19.673462 20.030012 21.296688 21.653236 23.299 21.653236ZM 10 10M 33.715752 37.589001L 39.262127 39.173626L 38.469749 34.419624L 38.469749 27.206125C 38.469749 26.785875 38.30275 26.382875 38.005623 26.085625C 37.708374 25.7885 37.305374 25.6215 36.884998 25.6215L 26.584625 25.6215C 26.164375 25.6215 25.761375 25.7885 25.464125 26.085625C 25.167 26.382875 25 26.785875 25 27.206125L 25 36.00425C 25 36.424625 25.167 36.827625 25.464125 37.124874C 25.761375 37.421997 26.164375 37.589001 26.584751 37.589001L 33.715752 37.589001ZM 33.251751 28.289125L 30.44525 28.289125L 30.44525 30.246374L 28.411501 30.246374L 28.411501 33.052876L 30.44525 33.052876L 30.44525 35.010124L 33.251751 35.010124L 33.251751 33.052876L 35.132626 33.052876L 35.132626 30.246374L 33.251751 30.246374L 33.251751 28.289125Z"></path></g></g></g><g id="g-root-tx_enhanced_mdlju0dd94w5-stroke" data-item-order="1000000000" transform="translate(603, 204)"></g><g id="g-root-up_i0a17sdd4yki-stroke" data-item-order="1000000000" transform="translate(249, 51)"><g id="up_i0a17sdd4yki-stroke" fill="none" stroke-linecap="round" stroke-linejoin="round" stroke-miterlimit="4" stroke="#92bd39" stroke-width="2"><g><path d="M 10.9375 39.0625C 12.8042 39.0625 14.670913 39.0625 16.537613 37.1875C 18.404312 39.0625 20.271013 39.0625 20.768799 39.0625C 21.266588 39.0625 23.133251 39.0625 25 37.1875C 26.866749 39.0625 28.733376 39.0625 29.231251 39.0625C 29.729 39.0625 31.595627 39.0625 33.462376 37.1875C 35.329124 39.0625 37.195747 39.0625 39.0625 39.0625M 35.1875 15.494762C 37.48225 15.494762 39.342625 14.474587 39.342625 13.216138C 39.342625 11.957675 37.48225 10.9375 35.1875 10.9375C 32.892624 10.9375 31.032373 11.957675 31.032373 13.216138C 31.032373 14.474587 32.892624 15.494762 35.1875 15.494762ZM 31.032373 13.216063L 31.032373 19.381775C 31.032373 20.588114 32.908875 21.660412 35.1875 21.660412C 37.466125 21.660412 39.342625 20.588114 39.342625 19.381775L 39.342625 13.216063M 12.870325 34.249874C 12.870325 33.835751 12.732275 33.421627 12.3181 33.007374L 11.489738 32.179001C 10.937504 31.764874 10.79944 30.936501 11.075558 30.384251C 11.351675 29.694 11.903913 29.417875 12.594213 29.417875L 13.698688 29.417875C 14.112863 29.417875 14.665088 29.279875 14.941213 29.00375C 15.217325 28.727625 15.355388 28.320251 15.355388 27.761126L 15.355388 26.65675C 15.355388 25.966375 15.769563 25.276125 16.3218 25.138C 17.012087 24.862 17.702387 25 18.116562 25.55225L 18.944925 26.380625C 19.221037 26.65675 19.635212 26.932875 20.18745 26.932875C 20.739674 26.932875 21.015787 26.79475 21.429962 26.380625L 22.258324 25.55225C 22.672499 25 23.500875 24.862 24.053125 25.138C 24.743374 25.414125 25.019501 25.966375 25.019501 26.65675L 25.019501 27.761126C 25.019501 28.175375 25.157625 28.727625 25.433624 29.00375C 25.709749 29.279875 26.261999 29.556 26.67625 29.417875L 27.780624 29.417875C 28.471001 29.417875 29.161251 29.831999 29.299376 30.384251C 29.5755 31.074623 29.437374 31.764874 28.885124 32.179001L 28.056751 33.007374C 27.780624 33.283501 27.504499 33.69775 27.504499 34.249874M 17.150112 34.249874C 17.150112 32.593124 18.530712 31.074501 20.325474 31.074501C 21.982176 31.074501 23.362749 32.455002 23.362749 34.249874M 35.1875 24.624874L 35.1875 33.749878M 10 10M 32.6875 27.125L 35.1875 24.625L 37.6875 27.125M 39.342625 16.274788C 39.342625 17.559887 37.482376 18.601675 35.1875 18.601675C 32.892624 18.601675 31.032373 17.559887 31.032373 16.274788"></path></g></g></g><g id="g-root-cros_1q6zdewdd3jm5-stroke" data-item-order="1000000000" transform="translate(273, 351)"><g id="cros_1q6zdewdd3jm5-stroke" fill="none" stroke-linecap="round" stroke-linejoin="round" stroke-miterlimit="4" stroke="#e55753" stroke-width="2"><g><path d="M 35.372749 11.429638L 31.5415 11.429638L 31.5415 14.683575L 28.287624 14.683575L 28.287624 18.514826L 31.5415 18.514826L 31.5415 21.768625L 35.372749 21.768625L 35.372749 18.514826L 38.626625 18.514826L 38.626625 14.683575L 35.372749 14.683575L 35.372749 11.429638ZM 11.3736 11.878238L 11.3736 38.570374L 38.06575 38.570374M 10 10M 15.300287 30.764124L 20.239349 34.721123L 28.141876 25.224375L 34.521 30.764124M 20.211489 14.00875L 16.107964 14.00875M 22.366636 18.11215L 16.1082 18.11215"></path></g></g></g><g id="g-root-tx_improved_18egeqwdd3jt8-stroke" data-item-order="1000000000" transform="translate(309, 354)"></g><g id="g-root-tx_increase_1qd84a0dd4zd5-stroke" data-item-order="1000000000" transform="translate(51, 54)"></g></g></g></svg>