<svg height="472" viewBox="0 0 938 472" width="938" xmlns="http://www.w3.org/2000/svg"><path d="m373 75h120s24 0 24 24v126s0 24-24 24h-120s-24 0-24-24v-126s0-24 24-24" fill="#f5f5f5" fill-rule="evenodd"/><path d="m577 24h324s12 0 12 12v30s0 12-12 12h-324s-12 0-12-12v-30s0-12 12-12" fill="#faf0ff" fill-rule="evenodd"/><path d="m283 324h300s12 0 12 12v30s0 12-12 12h-300s-12 0-12-12v-30s0-12 12-12" fill="#ffeceb" fill-rule="evenodd"/><path d="m577 174h300s12 0 12 12v30s0 12-12 12h-300s-12 0-12-12v-30s0-12 12-12" fill="#fffbda" fill-rule="evenodd"/><path d="m61 24h228s12 0 12 12v30s0 12-12 12h-228s-12 0-12-12v-30s0-12 12-12" fill="#f4ffdc" fill-rule="evenodd"/><path d="m121 174h168s12 0 12 12v30s0 12-12 12h-168s-12 0-12-12v-30s0-12 12-12" fill="#ffebf7" fill-rule="evenodd"/><text fill="#484848" font-family="Helvetica" font-size="20" x="322" y="452">Fast Treatment</text><text fill="#484848" font-family="Helvetica" font-size="20" x="614" y="302">Real-Time Communication</text><text fill="#484848" font-family="Helvetica" font-size="20" x="126" y="116">Time Savings</text><text fill="#484848" font-family="Helvetica" font-size="20" x="74" y="302">Increasing Capacity</text><text fill="#484848" font-family="Helvetica" font-size="20" x="618" y="266">Fast Check-Ins</text><text fill="#484848" font-family="Helvetica" font-size="20" x="616" y="116">Scheduling</text><text fill="#484848" font-family="Helvetica" font-size="20" x="111" y="152">Error Reduction</text><text fill="#484848" font-family="Helvetica" font-size="20" x="27" y="266">Eliminating Inefficiencies</text><text fill="#484848" font-family="Helvetica" font-size="20" x="618" y="152">Real-Time Updates</text><text fill="#484848" font-family="Helvetica" font-size="20" x="321" y="416">Quicker Response Times</text><text fill="#de58a9" font-family="Helvetica" font-size="20" x="128" y="215">Cost Savings</text><text fill="#484848" font-family="Helvetica" font-size="20" x="395" y="215">Benefits</text><text fill="#484848" font-family="Helvetica" font-size="20" x="383" y="191">Healthcare</text><text fill="#ab9e2b" font-family="Helvetica" font-size="20" x="614" y="215">Enhanced Patient Experience</text><text fill="#ba5de5" font-family="Helvetica" font-size="20" x="619" y="65">Optimized Resource Utilization</text><text fill="#e55753" font-family="Helvetica" font-size="20" x="325" y="365">Improved Patient Outcomes</text><text fill="#92bd39" font-family="Helvetica" font-size="20" x="67" y="65">Increased Efficiency</text><g fill="none" stroke-linecap="round" stroke-linejoin="round" stroke-width="2"><path d="m373 75h120s24 0 24 24v126s0 24-24 24h-120s-24 0-24-24v-126s0-24 24-24" stroke="#484848"/><path d="m577 24h324s12 0 12 12v30s0 12-12 12h-324s-12 0-12-12v-30s0-12 12-12" stroke="#ba5de5"/><path d="m283 324h300s12 0 12 12v30s0 12-12 12h-300s-12 0-12-12v-30s0-12 12-12" stroke="#e55753"/><path d="m577 174h300s12 0 12 12v30s0 12-12 12h-300s-12 0-12-12v-30s0-12 12-12" stroke="#e0cb15"/><path d="m61 24h228s12 0 12 12v30s0 12-12 12h-228s-12 0-12-12v-30s0-12 12-12" stroke="#92bd39"/><path d="m121 174h168s12 0 12 12v30s0 12-12 12h-168s-12 0-12-12v-30s0-12 12-12" stroke="#de58a9"/><path d="m517 133h3 .099976c11.542785 0 20.900024-9.357239 20.900024-20.899994v-.100006-40.100006c0-11.542755 9.357239-20.899994 20.900024-20.899994h.099976 3" stroke="#969696" stroke-dasharray="5 7"/><path d="m295 378v12 12h9 9" stroke="#969696" stroke-dasharray="5 7"/><path d="m277 78v12 12h-9-9" stroke="#969696" stroke-dasharray="5 7"/><path d="m277 78v7.5 40.5c0 6.627411-5.372589 12-12 12h-.100006-5.899994" stroke="#969696" stroke-dasharray="5 7"/><path d="m589 78v12 12h9 9" stroke="#969696" stroke-dasharray="5 7"/><path d="m589 78v7.5 40.5c0 6.627411 5.372559 12 12 12h.099976 5.900024" stroke="#969696" stroke-dasharray="5 7"/><path d="m433 249v37.5 37.5" stroke="#969696" stroke-dasharray="5 7"/><path d="m589 228v7.5 40.5c0 6.627411 5.372559 12 12 12h.099976 5.900024" stroke="#969696" stroke-dasharray="5 7"/><path d="m589 228v12 12h9 9" stroke="#969696" stroke-dasharray="5 7"/><path d="m277 228v7.5 40.5c0 6.627411-5.372589 12-12 12h-.100006-5.899994" stroke="#969696" stroke-dasharray="5 7"/><path d="m277 228v12 12h-9-9" stroke="#969696" stroke-dasharray="5 7"/><path d="m517 191h3 .099976c3.26062.016144 6.862976.453827 10.700012 1.299988 2.234558.445038 5.838074 1.752197 10.200012 3.700012s7.965454 3.254974 10.200012 3.700012c3.837097.846161 7.439392 1.283844 10.700012 1.299988h.099976 3" stroke="#969696" stroke-dasharray="5 7"/><path d="m295 378v7.5 40.5c0 6.627411 5.372589 12 12 12h.100006 5.899994" stroke="#969696" stroke-dasharray="5 7"/><path d="m349 191h-3-.100006c-3.26059.016144-6.862915.453827-10.699982 1.299988-2.234527.445038-5.838043 1.752197-10.200012 3.700012s-7.965485 3.254974-10.200012 3.700012c-3.837067.846161-7.439392 1.283844-10.699982 1.299988h-.100006-3" stroke="#969696" stroke-dasharray="5 7"/><path d="m349 133h-3-.100006c-11.542755 0-20.899994-9.357239-20.899994-20.899994v-.100006-40.100006c0-11.542755-9.357239-20.899994-20.899994-20.899994h-.100006-3" stroke="#969696" stroke-dasharray="5 7"/><path d="m278.562378 212.12561c3.589874 0 6.500122-2.910095 6.500122-6.5 0-3.589874-2.910248-6.5-6.500122-6.5-3.589752 0-6.499878 2.910126-6.499878 6.5 0 3.589905 2.910126 6.5 6.499878 6.5zm9.500122 2.874756-4.842621-4.842621m-15.282318-2.282379c-4.625-1.125-8-5.375-8-10.25 0-5.875 4.75-10.625 10.625-10.625 5.000061 0 9.125061 3.375 10.250061 8m-.875122 7.500519c-.875 1.75-2.25 3.125-3.875 4.25m-5.499939-19.738922v10.613891l8.21283-6.743041m-8.21283 6.742553-2.622864 10.249512" stroke="#de58a9"/><path d="m600.766846 198.641235v-9.414062c0-.567688-.225464-1.112152-.626953-1.51358-.401368-.401429-.945923-.626923-1.513489-.626923h-16.258728c-.567688 0-1.112183.225494-1.513611.626923-.401428.401428-.626953.945892-.626953 1.51358l.000122 13.762085-2.140503 6.421509 8.562073-2.140503h2.485229m5.010193-8.02414c-1.019836-1.019928-2.403076-1.592926-3.845459-1.592926-1.442322 0-2.825622.572998-3.84552 1.592926-1.019836 1.019867-1.592834 2.403137-1.592834 3.84549h4.346374m1.092224-5.438385c2.002381 0 3.625611-1.62323 3.625611-3.62558s-1.62323-3.625549-3.625611-3.625549c-2.002319 0-3.625549 1.623199-3.625549 3.625549s1.62323 3.62558 3.625549 3.62558zm10.416748 15.93576 5.546387 1.584626-.792419-4.753998v-7.213501c0-.420227-.166993-.823242-.464112-1.120484-.297241-.297119-.700256-.464142-1.120605-.464142h-10.300415c-.420227 0-.823242.167023-1.120484.464142-.297119.297242-.464111.700257-.464111 1.120484v8.798126c0 .42038.166992.823395.464111 1.120636.297242.297119.700257.464111 1.120667.464111zm-.463989-9.299865h-2.806519v1.957244h-2.033752v2.806519h2.033752v1.957245h2.806519v-1.957245h1.880859v-2.806519h-1.880859z" stroke="#ab9e2b"/><path d="m415.900085 124.69989c0-3.799988 3-6.799988 6.799988-6.799988m-12.200012 6.80011c0-6.799988 5.400024-12.200012 12.200012-12.200012m27.399933 12.19989c0-3.799988-3-6.799988-6.800018-6.799988m12.200012 6.80011c0-6.799988-5.399994-12.200012-12.200012-12.200012m-27.500031 23.799988c0-2.199982 1.800019-4 4-4h5.200012c1.199982 0 2-.799988 2-1.999878v-5.200012c0-2.200013 1.799988-4 4.000031-4h4c2.200012 0 4 1.799987 4 4v5.200012c0 1.19989.799988 1.999878 2 1.999878h5.200012c2.199982 0 4 1.800018 4 4v4c0 2.200012-1.800018 4-4 4h-5.200012c-1.200012 0-2 .800018-2 2v5.200012c0 2.200012-1.799988 4-4 4h-4c-2.200043 0-4.000031-1.799988-4.000031-4v-5.200012c0-1.199982-.800018-2-2-2h-5.200012c-2.199981 0-4-1.799988-4-4z" stroke="#484848"/><path d="m308.372742 337.429626h-3.831238v3.253968h-3.253876v3.831238h3.253876v3.253784h3.831238v-3.253784h3.253875v-3.831238h-3.253875zm-23.999146.448609v26.692139h26.692139m-22.765442-7.806244 4.939056 3.957 7.902527-9.496765 6.37912 5.539765m-14.309509-16.755402h-4.103516m6.258667 4.103424h-6.258423" stroke="#e55753"/><path d="m606.0625 62.5625c0 1.375-1.125 2.5-2.5 2.5h-23.125c-1.375 0-2.5-1.125-2.5-2.5v-23.125c0-1.375 1.125-2.5 2.5-2.5h23.125c1.375 0 2.5 1.125 2.5 2.5zm-23.393188-13.396484c1.671203-3.45575 5.292053-5.805725 9.330688-5.805725s7.659485 2.349975 9.33075 5.805725m-9.33075-5.805725v2.211853m2.012756 11.196868c-.829406 1.244111-2.626403 1.658875-3.870483.829499-1.244141-.829376-1.658814-2.626526-.829468-3.870514 1.105835-1.658875 5.805725-3.594116 5.805725-3.594116s.000122 4.976379-1.105774 6.635131zm5.520874-6.358886 1.79712-1.24411m-16.864441 1.24411-1.796997-1.24411" stroke="#ba5de5"/><path d="m259.9375 65.0625c1.866699 0 3.733398 0 5.600098-1.875 1.866699 1.875 3.733429 1.875 4.231201 1.875.497803 0 2.364441 0 4.231201-1.875 1.86676 1.875 3.733368 1.875 4.231262 1.875.497742 0 2.36438 0 4.23111-1.875 1.86676 1.875 3.733368 1.875 5.600128 1.875m-3.875-23.567749c2.294739 0 4.155121-1.020172 4.155121-2.278626 0-1.258453-1.860382-2.278625-4.155121-2.278625-2.294861 0-4.155121 1.020172-4.155121 2.278625 0 1.258454 1.86026 2.278626 4.155121 2.278626zm-4.155121-2.278687v6.165711c0 1.206329 1.876496 2.278625 4.155121 2.278625s4.155121-1.072296 4.155121-2.278625v-6.165711m-26.47229 21.033814c0-.414124-.138062-.828247-.552216-1.242493l-.828369-.828369c-.552246-.414154-.690308-1.242523-.414184-1.794769.276123-.690247.828338-.96637 1.518646-.96637h1.104492c.414154 0 .9664-.138 1.242523-.414123.276093-.276123.414154-.683503.414154-1.242615v-1.104401c0-.690368.414185-1.380615.966431-1.518738.690277-.276 1.380585-.138 1.794769.414246l.828339.828369c.276123.276123.690307.552246 1.242523.552246.552246 0 .828339-.138122 1.242523-.552246l.828369-.828369c.414154-.552246 1.242554-.690246 1.7948-.414246.690247.276124.96637.82837.96637 1.518738v1.104401c0 .414246.138122.966492.414123 1.242615.276123.276123.828369.552246 1.242615.414123h1.104401c.690368 0 1.380615.414124 1.518737.96637.276123.690368.138001 1.380615-.414245 1.794769l-.828369.828369c-.276123.276123-.552277.690369-.552277 1.242493m-10.35437 0c0-1.656738 1.380585-3.175385 3.175354-3.175385 1.656708 0 3.037292 1.380524 3.037292 3.175385m11.824738-9.625v9.125m-2.5-6.624878 2.5-2.5 2.5 2.5m1.655121-10.85022c0 1.285095-1.86026 2.326905-4.155121 2.326905s-4.155121-1.04181-4.155121-2.326905" stroke="#92bd39"/></g></svg>