<svg height="174" viewBox="0 0 626 174" width="626" xmlns="http://www.w3.org/2000/svg"><path d="m61 132h168v12h-168z" fill="#3cc583" fill-rule="evenodd"/><path d="m229 132h168v12h-168z" fill="#4e88e7" fill-rule="evenodd"/><path d="m397 132h149.713989v-6.5l18.286011 12.5-18.286011 12.5v-6.5h-149.713989z" fill="#92bd39" fill-rule="evenodd"/><g font-family="Helvetica"><text fill="#374840" font-size="15" x="104" y="80">satisfaction</text><text fill="#374840" font-size="15" x="112" y="62">customer</text><text fill="#374840" font-size="15" x="97" y="44">efficiency and</text><text fill="#374840" font-size="15" x="84" y="26">Improved booking</text><text fill="#3a4455" font-size="15" x="270" y="77">optimization</text><text fill="#3a4455" font-size="15" x="267" y="59">configuration</text><text fill="#3a4455" font-size="15" x="264" y="41">Ongoing room</text><text fill="#424736" font-size="15" x="448" y="77">reduction</text><text fill="#424736" font-size="15" x="426" y="59">growth and cost</text><text fill="#424736" font-size="15" x="417" y="41">Continued revenue</text><text fill="#3cc583" font-size="20" x="92" y="116">3-6 months</text><text fill="#4e88e7" font-size="20" x="254" y="116">6-12 months</text><text fill="#92bd39" font-size="20" x="426" y="116">12+ months</text></g><path d="m61 132h168v12h-168z" fill="none" stroke="#fff" stroke-linecap="round" stroke-linejoin="round" stroke-width="2"/><path d="m229 132h168v12h-168z" fill="none" stroke="#fff" stroke-linecap="round" stroke-linejoin="round" stroke-width="2"/><path d="m397 132h149.714294v-6.5l18.285706 12.5-18.285706 12.5v-6.5h-149.714294z" fill="none" stroke="#fff" stroke-linecap="round" stroke-linejoin="round" stroke-width="2"/></svg>