<svg height="280" viewBox="0 0 1042 280" width="1042" xmlns="http://www.w3.org/2000/svg"><path d="m0-136h1042v434h-1042z" fill="#fff" fill-rule="evenodd"/><path d="m1-135h1040v432h-1040z" fill="#fff" fill-rule="evenodd"/><g font-family="Helvetica"><g font-size="20"><text fill="#4e88e7" x="81" y="161">Processes</text><text fill="#4e88e7" x="92" y="137">Booking</text><text fill="#4e88e7" x="74" y="113">Streamlined</text><text fill="#3cc583" x="297" y="161">Rates</text><text fill="#3cc583" x="272" y="137">Conversion</text><text fill="#3cc583" x="292" y="113">Higher</text><text fill="#92bd39" x="469" y="161">Experience</text><text fill="#92bd39" x="475" y="137">Customer</text><text fill="#92bd39" x="474" y="113">Enhanced</text><text fill="#a8980c" x="678" y="149">Growth</text><text fill="#a8980c" x="672" y="125">Revenue</text><text fill="#de8431" x="860" y="149">Efficiency</text><text fill="#de8431" x="852" y="125">Operational</text></g><text fill="#484848" font-size="15" x="101" y="260">systems</text><text fill="#484848" font-size="15" x="88" y="242">and booking</text><text fill="#484848" font-size="15" x="72" y="224">Simplified search</text><text fill="#484848" font-size="15" x="300" y="260">visitors</text><text fill="#484848" font-size="15" x="273" y="242">from interested</text><text fill="#484848" font-size="15" x="259" y="224">Increased bookings</text><text fill="#484848" font-size="15" x="460" y="239">booking interface</text><text fill="#484848" font-size="15" x="453" y="221">Faster, user-friendly</text><text fill="#484848" font-size="15" x="645" y="239">offerings and pricing</text><text fill="#484848" font-size="15" x="660" y="221">Optimized room</text><text fill="#484848" font-size="15" x="839" y="239">administrative tasks</text><text fill="#484848" font-size="15" x="837" y="221">Automation reducing</text></g><g fill="none" stroke-linecap="round" stroke-linejoin="round" stroke-width="2"><path d="m61 81h144m-.5 96h3.5l24-48-24-48h-3.5m.5 96h-144m0-96h-12v96h12" stroke="#4e88e7"/><path d="m255 81h144m-.5 96h3.5l24-48-24-48h-3.5m.5 96h-144m0-96h-34l24 48-24 48h34" stroke="#3cc583"/><path d="m449 81h144m-.5 96h3.5l24-48-24-48h-3.5m.5 96h-144m0-96h-34l24 48-24 48h34" stroke="#92bd39"/><path d="m643 81h144m-.5 96h3.5l24-48-24-48h-3.5m.5 96h-144m0-96h-34l24 48-24 48h34" stroke="#e0cb15"/><path d="m837 81h144m-.5 96h3.5l24-48-24-48h-3.5m.5 96h-144m0-96h-34l24 48-24 48h34" stroke="#de8431"/><path d="m126.001999 22h28s2 0 2 2v22s0 2-2 2h-28s-2 0-2-2v-22s0-2 2-2m-2 8h32m-32 6h32m-32 6h32m-16-12v18m8-18v18m-38.001999 20v-20m0 4h14c3.313705 0 6 2.686295 6 6h12c3.313705 0 6 2.686295 6 6h-38zm20 6h-6" stroke="#4e88e7"/><path d="m325 58h-15c-3.313721 0-6-2.686295-6-6v-24c0-3.313721 2.686279-6 6-6h24c3.313721 0 6 2.686279 6 6v10m10 17.734009-9.973999-11.734009-9.971985 11.734009h5.439972v12.265991h9.06601v-12.265991zm-23.985992-3.734009h-14c.000183-4.525879 3.0401-8.487411 7.411773-9.658813 4.371643-1.171387 8.985077.73941 11.24823 4.658813m-1.386017-7.712006c-.798919-1.311248-1.197235-2.827392-1.145996-4.361999v-1.783997c.04007-2.218933-1.120819-4.286682-3.036071-5.407898-1.915253-1.121185-4.286591-1.121185-6.201844 0-1.915283 1.121216-3.076141 3.188965-3.036072 5.407898v1.783997c.051239 1.534607-.347076 3.050751-1.146026 4.361999m1.146026-5.131988c2.355042-.005829 4.591889-1.032349 6.131989-2.813996 1.540527 1.783356 3.779388 2.81012 6.135986 2.813996m-.721985-.033997c-.124572 2.896912-2.509399 5.181366-5.408996 5.181366s-5.284424-2.284454-5.408997-5.181366" stroke="#3cc583"/><path d="m529.300171 38.219208c-1.399963-1.200012-2.400147-3-2.400147-5.200012v-3.600007c0-3 1.799988-5.799987 4.599976-6.600006 4.599976-1.399994 9 2.000031 9 6.400025v3.799988c0 2-.799805 3.800018-2.199829 5m-11.400147-5.999573s4.599976 1 8-3.399994c1.599976 1.799988 3.399964 2.399994 5.599976 1.799988m-4 15.599792-3.599976-9.200073 9.199952 3.600006zm2.799988-2.800201 4.200012 4.199997m-23.400024-18.919205h-18.599976c-1.600006 0-3 1.399994-3 3v33c0 1.600006 1.399994 3 3 3h36c1.599976 0 3-1.399994 3-3v-12.399994m-42-14.600006h21.599976m9 15.800201h6m-3-3v6m-24.018799-9v12m-4-9h1c1.65686 0 3-1.343002 3-3m4 12h-8m15.647644-6.5h1.5c1.518799 0 2.75-1.231201 2.75-2.75 0-1.518798-1.231201-2.75-2.75-2.75l-1.5.000199c-1.518799 0-2.750061 1.231201-2.750061 2.749801 0 1.518799 1.231262 2.75 2.750061 2.75zm4.75 3.5v-.5c0-1.656799-1.343201-3-3-3h-2c-1.6568 0-3.000061 1.343201-3.000061 3v.5c0 1.656998 1.343261 3 3.000061 3h2c1.656799 0 3-1.343002 3-3z" stroke="#92bd39"/><path d="m706 27h-4.291992c-1.719238.00061-3.212525 1.182922-3.607483 2.85614-.394959 1.673248.411987 3.398499 1.949463 4.167847l3.900024 1.952026c1.537476.769348 2.344422 2.494599 1.949463 4.167847-.394958 1.673218-1.888245 2.855514-3.607483 2.85614h-4.291992m3 0v3m2-22v3m-11 41v-20m0 4h14c3.313721 0 6 2.686295 6 6h12c3.313721 0 6 2.686295 6 6h-38zm20 6h-6m32-33v13c0 1.104584-.895447 2-2 2h-20c-1.104553 0-2-.895416-2-2v-13m24 0v-1c0-1.104584-.895447-2-2-2h-20c-1.104553 0-2 .895416-2 2v1l10.400024 6.506012c.972779.608002 2.207154.608002 3.179993 0z" stroke="#ccb80e"/><path d="m916.421997 54.257996c0 1.686676 1.36731 3.054 3.054016 3.054 1.686646 0 3.054016-1.367324 3.054016-3.054s-1.36737-3.054001-3.054016-3.054001c-1.686706 0-3.054016 1.367325-3.054016 3.054001m5.64801-11.813996.899964 2.955994c.305969 1.019623 1.350647 1.626846 2.388 1.388l3.000061-.695999c1.16687-.265747 2.370606.260666 2.967774 1.297806.597107 1.03717.447937 2.342499-.367798 3.218201l-2.098023 2.261993c-.724426.782776-.724426 1.991242 0 2.774002l2.098023 2.262009c.815735.875702.964905 2.18103.367798 3.218185-.597168 1.037155-1.800904 1.563568-2.967774 1.297806l-3-.694c-1.036804-.239014-2.081299.367187-2.388061 1.386001l-.899964 2.957993c-.345764 1.143448-1.399414 1.925629-2.593994 1.925629s-2.24823-.782181-2.593994-1.925629l-.902039-2.957993c-.306762-1.018814-1.351196-1.625015-2.388-1.386001l-3 .694c-1.167725.26889-2.374023-.256912-2.971924-1.295395-.5979-1.038498-.446899-2.345749.371948-3.220596l2.098023-2.262009c.724426-.78276.724426-1.991226 0-2.774002l-2.090027-2.269989c-.818848-.874878-.969849-2.182114-.371948-3.220611.5979-1.038483 1.804199-1.564286 2.971924-1.295395l3 .695999c1.032409.234802 2.070922-.367356 2.380004-1.380005l.902039-2.955994c.343384-1.145782 1.397827-1.930542 2.593994-1.930542 1.196106 0 2.250611.78476 2.593994 1.930542zm-20.703979 25.365998 1.526001-9.162003m-6.108032 9.162003h14.252014m-8.10199-9.162003h-10.734009c-3.371826-.002213-6.104004-2.736206-6.104004-6.107986v-24.432007c0-3.371796 2.732178-6.105805 6.104004-6.108002h33.599976c3.373352 0 6.108032 2.73465 6.108032 6.108002v11.705993m-29.780029-9.339996-4.339966 5.786011c-.265747.353454-.67157.574432-1.112671.605896-.441101.031433-.874146-.12973-1.187378-.441895l-2.355957-2.356018m8.995972 8.112-4.339966 5.78601c-.264954.354615-.67096.576508-1.112488.608002-.441589.031464-.874939-.130569-1.187561-.444l-2.355957-2.354004m17.903992-13.088013h11.197998" stroke="#de8431"/></g></svg>