<?xml version="1.0" encoding="utf-8" standalone="yes"?>
<!DOCTYPE svg PUBLIC "-//W3C//DTD SVG 1.1//EN" "http://www.w3.org/Graphics/SVG/1.1/DTD/svg11.dtd">
<svg width="734" height="278" viewBox="0 0 734 278" style="fill:none;stroke:none;fill-rule:evenodd;clip-rule:evenodd;stroke-linecap:round;stroke-linejoin:round;stroke-miterlimit:1.5;" version="1.1" xmlns="http://www.w3.org/2000/svg" xmlns:xlink="http://www.w3.org/1999/xlink"><style id="fontImports">@import url("https://fonts.googleapis.com/css2?family=Roboto:wght@400;700&amp;display=block");</style><g id="items" style="isolation: isolate"><g id="blend" style="mix-blend-mode: normal"><g id="g-root-4.cr-small_cr_900qtgez3t8-fill" data-item-order="-83182" transform="translate(459, 111.02398681640625)"><g id="4.cr-small_cr_900qtgez3t8-fill" stroke="none" fill="#fffbda"><g><path d="M 10 46C 10 65.882251 26.117749 82 46 82C 65.882251 82 82 65.882251 82 46C 82 26.117749 65.882251 10 46 10C 26.117749 10 10 26.117749 10 46"></path></g></g></g><g id="g-root-3.cr-small_cr_900qtgez3t9-fill" data-item-order="-83178" transform="translate(134.86700439453125, 111.02398681640625)"><g id="3.cr-small_cr_900qtgez3t9-fill" stroke="none" fill="#f4ffdc"><g><path d="M 10 46C 10 65.882251 26.117749 82 46 82C 65.882251 82 82 65.882251 82 46C 82 26.117749 65.882251 10 46 10C 26.117749 10 10 26.117749 10 46"></path></g></g></g><g id="g-root-2.cr-small_cr_1uuaklhgez4ee-fill" data-item-order="-83174" transform="translate(429.0009765625, 9)"><g id="2.cr-small_cr_1uuaklhgez4ee-fill" stroke="none" fill="#e8f9ff"><g><path d="M 10 46C 10 65.882251 26.117749 82 46 82C 65.882251 82 82 65.882251 82 46C 82 26.117749 65.882251 10 46 10C 26.117749 10 10 26.117749 10 46"></path></g></g></g><g id="g-root-1.cr-small_cr_1uuaklhgez4ef-fill" data-item-order="-83170" transform="translate(165, 9)"><g id="1.cr-small_cr_1uuaklhgez4ef-fill" stroke="none" fill="#e3fff2"><g><path d="M 10 46C 10 65.882251 26.117749 82 46 82C 65.882251 82 82 65.882251 82 46C 82 26.117749 65.882251 10 46 10C 26.117749 10 10 26.117749 10 46"></path></g></g></g><g id="g-root-0.Vector_sy_1uuaklhgez4eg-fill" data-item-order="-83166" transform="translate(218.59201049804688, 75)"><g id="0.Vector_sy_1uuaklhgez4eg-fill" stroke="none" fill="#f5f5f5"><g><path d="M 24.81299 95.6L 9.99999 81.999L 24.81299 68.397L 24.81299 75.968L 52.65099 75.968C 53.64799 63.943 57.60099 52.757 63.77999 43.137L 63.63499 43.036L 41.57299 26.096L 37.00799 32.041L 33.54299 12.231L 53.57599 10.464L 48.96499 16.47L 71.02699 33.41L 71.16299 33.526C 84.33099 19.071 103.30699 10 124.40199 10C 145.49299 10 164.46599 19.068 177.63399 33.519L 177.77699 33.41L 199.83899 16.47L 195.22699 10.464L 215.25999 12.231L 211.79499 32.041L 207.22999 26.096L 185.16799 43.036L 185.02299 43.136C 191.20299 52.756 195.15499 63.942 196.15299 75.968L 196.33599 75.968L 224.15199 75.968L 224.15199 68.397L 238.96499 81.999L 224.15199 95.601L 224.15199 88.105L 196.33599 88.105L 196.14699 88.105C 193.04799 125.012 162.10999 154 124.40199 154C 86.69399 154 55.75599 125.012 52.65699 88.104L 24.81299 88.104L 24.81299 95.6Z"></path></g></g></g><g id="g-root-tx_intellig_1lrsfk5gf1xcd-fill" data-item-order="0" transform="translate(57, 21)"><g id="tx_intellig_1lrsfk5gf1xcd-fill" stroke="none" fill="#484848"><g><text style="font-style: normal; font-variant-caps: normal; font-weight: normal; font-stretch: normal; font-size: 20px; line-height: normal; font-family: Roboto, sans-serif; font-size-adjust: none; font-kerning: auto; font-variant-alternates: normal; font-variant-ligatures: normal; font-variant-numeric: normal; font-variant-east-asian: normal; font-variant-position: normal; font-variant-emoji: normal; font-feature-settings: normal; font-optical-sizing: auto; font-variation-settings: normal; white-space: pre;"><tspan x="16" y="34" dominant-baseline="ideographic">Intelligent </tspan><tspan x="42" y="58" dominant-baseline="ideographic">Search</tspan></text></g></g></g><g id="g-root-sear_mfh29xgf3abt-fill" data-item-order="0" transform="translate(177, 21)"></g><g id="g-root-porn_1430891gf3apx-fill" data-item-order="0" transform="translate(440.9840087890625, 21)"></g><g id="g-root-tx_instantb_1cuwh51gf1wqs-fill" data-item-order="0" transform="translate(513, 33)"><g id="tx_instantb_1cuwh51gf1wqs-fill" stroke="none" fill="#484848"><g><text style="font-style: normal; font-variant-caps: normal; font-weight: normal; font-stretch: normal; font-size: 20px; line-height: normal; font-family: Roboto, sans-serif; font-size-adjust: none; font-kerning: auto; font-variant-alternates: normal; font-variant-ligatures: normal; font-variant-numeric: normal; font-variant-east-asian: normal; font-variant-position: normal; font-variant-emoji: normal; font-feature-settings: normal; font-optical-sizing: auto; font-variation-settings: normal; white-space: pre;"><tspan x="12" y="34" dominant-baseline="ideographic">Instant Booking</tspan></text></g></g></g><g id="g-root-tx_realtime_zs6lz9gf0hl7-fill" data-item-order="0" transform="translate(15, 123)"><g id="tx_realtime_zs6lz9gf0hl7-fill" stroke="none" fill="#484848"><g><text style="font-style: normal; font-variant-caps: normal; font-weight: normal; font-stretch: normal; font-size: 20px; line-height: normal; font-family: Roboto, sans-serif; font-size-adjust: none; font-kerning: auto; font-variant-alternates: normal; font-variant-ligatures: normal; font-variant-numeric: normal; font-variant-east-asian: normal; font-variant-position: normal; font-variant-emoji: normal; font-feature-settings: normal; font-optical-sizing: auto; font-variation-settings: normal; white-space: pre;"><tspan x="26" y="34" dominant-baseline="ideographic">Real-Time </tspan><tspan x="20" y="58" dominant-baseline="ideographic">Availability</tspan></text></g></g></g><g id="g-root-1_dfgqf9gf1v5t-fill" data-item-order="0" transform="translate(147, 123)"></g><g id="g-root-1_4hyax1gf4oi3-fill" data-item-order="0" transform="translate(297, 111)"></g><g id="g-root-incr_1uuaklhgez4eh-fill" data-item-order="0" transform="translate(471, 123)"></g><g id="g-root-tx_smartana_vb45olgf0g7e-fill" data-item-order="0" transform="translate(543, 135)"><g id="tx_smartana_vb45olgf0g7e-fill" stroke="none" fill="#484848"><g><text style="font-style: normal; font-variant-caps: normal; font-weight: normal; font-stretch: normal; font-size: 20px; line-height: normal; font-family: Roboto, sans-serif; font-size-adjust: none; font-kerning: auto; font-variant-alternates: normal; font-variant-ligatures: normal; font-variant-numeric: normal; font-variant-east-asian: normal; font-variant-position: normal; font-variant-emoji: normal; font-feature-settings: normal; font-optical-sizing: auto; font-variation-settings: normal; white-space: pre;"><tspan x="12" y="34" dominant-baseline="ideographic">Smart Analytics</tspan></text></g></g></g><g id="g-root-4.cr-small_cr_900qtgez3t8-stroke" data-item-order="-83182" transform="translate(459, 111.02398681640625)"><g id="4.cr-small_cr_900qtgez3t8-stroke" fill="none" stroke-linecap="round" stroke-linejoin="round" stroke-miterlimit="4" stroke="#e0cb15" stroke-width="2"><g><path d="M 10 46C 10 65.882251 26.117749 82 46 82C 65.882251 82 82 65.882251 82 46C 82 26.117749 65.882251 10 46 10C 26.117749 10 10 26.117749 10 46"></path></g></g></g><g id="g-root-3.cr-small_cr_900qtgez3t9-stroke" data-item-order="-83178" transform="translate(134.86700439453125, 111.02398681640625)"><g id="3.cr-small_cr_900qtgez3t9-stroke" fill="none" stroke-linecap="round" stroke-linejoin="round" stroke-miterlimit="4" stroke="#92bd39" stroke-width="2"><g><path d="M 10 46C 10 65.882251 26.117749 82 46 82C 65.882251 82 82 65.882251 82 46C 82 26.117749 65.882251 10 46 10C 26.117749 10 10 26.117749 10 46"></path></g></g></g><g id="g-root-2.cr-small_cr_1uuaklhgez4ee-stroke" data-item-order="-83174" transform="translate(429.0009765625, 9)"><g id="2.cr-small_cr_1uuaklhgez4ee-stroke" fill="none" stroke-linecap="round" stroke-linejoin="round" stroke-miterlimit="4" stroke="#1eabda" stroke-width="2"><g><path d="M 10 46C 10 65.882251 26.117749 82 46 82C 65.882251 82 82 65.882251 82 46C 82 26.117749 65.882251 10 46 10C 26.117749 10 10 26.117749 10 46"></path></g></g></g><g id="g-root-1.cr-small_cr_1uuaklhgez4ef-stroke" data-item-order="-83170" transform="translate(165, 9)"><g id="1.cr-small_cr_1uuaklhgez4ef-stroke" fill="none" stroke-linecap="round" stroke-linejoin="round" stroke-miterlimit="4" stroke="#3cc583" stroke-width="2"><g><path d="M 10 46C 10 65.882251 26.117749 82 46 82C 65.882251 82 82 65.882251 82 46C 82 26.117749 65.882251 10 46 10C 26.117749 10 10 26.117749 10 46"></path></g></g></g><g id="g-root-0.Vector_sy_1uuaklhgez4eg-stroke" data-item-order="-83166" transform="translate(218.59201049804688, 75)"><g id="0.Vector_sy_1uuaklhgez4eg-stroke" fill="none" stroke-linecap="round" stroke-linejoin="round" stroke-miterlimit="4" stroke="#969696" stroke-width="2"><g><path d="M 24.81299 95.6L 9.99999 81.999L 24.81299 68.397L 24.81299 75.968L 52.65099 75.968C 53.64799 63.943 57.60099 52.757 63.77999 43.137L 63.63499 43.036L 41.57299 26.096L 37.00799 32.041L 33.54299 12.231L 53.57599 10.464L 48.96499 16.47L 71.02699 33.41L 71.16299 33.526C 84.33099 19.071 103.30699 10 124.40199 10C 145.49299 10 164.46599 19.068 177.63399 33.519L 177.77699 33.41L 199.83899 16.47L 195.22699 10.464L 215.25999 12.231L 211.79499 32.041L 207.22999 26.096L 185.16799 43.036L 185.02299 43.136C 191.20299 52.756 195.15499 63.942 196.15299 75.968L 196.33599 75.968L 224.15199 75.968L 224.15199 68.397L 238.96499 81.999L 224.15199 95.601L 224.15199 88.105L 196.33599 88.105L 196.14699 88.105C 193.04799 125.012 162.10999 154 124.40199 154C 86.69399 154 55.75599 125.012 52.65699 88.104L 24.81299 88.104L 24.81299 95.6Z"></path></g></g></g><g id="g-root-tx_intellig_1lrsfk5gf1xcd-stroke" data-item-order="0" transform="translate(57, 21)"></g><g id="g-root-sear_mfh29xgf3abt-stroke" data-item-order="0" transform="translate(177, 21)"><g id="sear_mfh29xgf3abt-stroke" fill="none" stroke-linecap="round" stroke-linejoin="round" stroke-miterlimit="4" stroke="#3cc583" stroke-width="2"><g><path d="M 50.5 23.5L 50.5 15.5C 50.5 13.3 48.700001 11.5 46.5 11.5L 15.5 11.5C 13.3 11.5 11.5 13.3 11.5 15.5L 11.5 23.5M 50.5 23.5L 11.5 23.5M 50.5 23.5L 37.5 23.5M 50.5 23.5L 50.5 30.9M 11.5 23.5L 11.5 43.099998C 11.5 45.299999 13.3 47.099998 15.5 47.099998L 24.5 47.099998M 11.5 23.5L 24.5 23.5M 24.5 23.5L 24.5 47.099998M 24.5 23.5L 37.5 23.5M 24.5 47.099998L 30.1 47.099998M 11.5 35.5L 32.5 35.5M 37.5 23.5L 37.5 30.9M 10 10M 56.5 56.500198L 51.463799 51.464199M 54.099998 45.099998C 54.099998 50.070599 50.070599 54.099998 45.099998 54.099998C 40.129402 54.099998 36.099998 50.070599 36.099998 45.099998C 36.099998 40.129601 40.129402 36.099998 45.099998 36.099998C 50.070599 36.099998 54.099998 40.129601 54.099998 45.099998Z"></path></g></g></g><g id="g-root-porn_1430891gf3apx-stroke" data-item-order="0" transform="translate(440.9840087890625, 21)"><g id="porn_1430891gf3apx-stroke" fill="none" stroke-linecap="round" stroke-linejoin="round" stroke-miterlimit="4" stroke="#1eabda" stroke-width="2"><g><path d="M 42.300201 27.2192C 40.9002 26.019199 39.900002 24.2192 39.900002 22.019199L 39.900002 18.419201C 39.900002 15.4192 41.700001 12.6192 44.5 11.819192C 49.099998 10.419192 53.5 13.819201 53.5 18.2192L 53.5 22.019199C 53.5 24.019199 52.700199 25.819199 51.300201 27.019199M 39.900002 21.019619C 39.900002 21.019619 44.5 22.019619 47.900002 17.619619C 49.5 19.419621 51.299999 20.019619 53.5 19.419621M 10 10M 49.5 35.019402L 45.900002 25.81934L 55.099998 29.41934L 49.5 35.019402ZM 10 10M 52.299999 32.2192L 56.5 36.419201M 33.099998 17.5L 14.5 17.5C 12.9 17.5 11.5 18.9 11.5 20.5L 11.5 53.5C 11.5 55.099998 12.9 56.5 14.5 56.5L 50.5 56.5C 52.099998 56.5 53.5 55.099998 53.5 53.5L 53.5 41.099998M 11.5 26.5L 33.099998 26.5M 42.099998 42.300201L 48.099998 42.300201M 45.099998 39.300201L 45.099998 45.300201M 10 10M 21.081181 36.300201L 21.081181 48.300201M 10 10M 17.081181 39.300201L 18.081181 39.300201C 19.738041 39.300201 21.081181 37.957199 21.081181 36.300201L 21.081181 36.300201M 25.081181 48.300201L 17.081181 48.300201M 10 10M 32.728798 41.800201L 34.228798 41.800201C 35.747601 41.800201 36.978798 40.569 36.978798 39.050201C 36.978798 37.531403 35.747601 36.300201 34.228798 36.300201L 32.728798 36.3004C 31.209999 36.3004 29.97876 37.531601 29.97876 39.050201C 29.97876 40.569 31.209999 41.800201 32.728798 41.800201ZM 10 10M 37.478798 45.300201L 37.478798 44.800201C 37.478798 43.143398 36.135597 41.800201 34.478798 41.800201L 32.478798 41.800201C 30.822001 41.800201 29.47876 43.143398 29.47876 44.800201L 29.47876 45.300201C 29.47876 46.957199 30.822001 48.300201 32.478798 48.300201L 34.478798 48.300201C 36.135597 48.300201 37.478798 46.957199 37.478798 45.300201Z"></path></g></g></g><g id="g-root-tx_instantb_1cuwh51gf1wqs-stroke" data-item-order="0" transform="translate(513, 33)"></g><g id="g-root-tx_realtime_zs6lz9gf0hl7-stroke" data-item-order="0" transform="translate(15, 123)"></g><g id="g-root-1_dfgqf9gf1v5t-stroke" data-item-order="0" transform="translate(147, 123)"><g id="1_dfgqf9gf1v5t-stroke" fill="none" stroke-linecap="round" stroke-linejoin="round" stroke-miterlimit="4" stroke="#92bd39" stroke-width="2"><g><path d="M 33 45.001999C 33 51.629417 38.372581 57.002003 45 57.002003C 51.627419 57.002003 57 51.629417 57 45.002003C 57 38.374584 51.627419 33.001999 45 33.001999C 38.372581 33.001999 33 38.374584 33 45.002003ZM 50.348 41.512001L 44.537998 49.259998C 44.276604 49.607647 43.877338 49.824909 43.44347 49.855598C 43.009598 49.886288 42.583725 49.72739 42.275997 49.419998L 39.276001 46.419998M 29 47L 13 47C 11.895431 47 11 46.104568 11 45L 11 17C 11 15.895431 11.895431 15 13 15L 49 15C 50.104568 15 51 15.895431 51 17L 51 30M 21 11.002L 21 21.001999M 41 11.002L 41 21.001999M 11 25.001999L 51 25.001999"></path></g></g></g><g id="g-root-1_4hyax1gf4oi3-stroke" data-item-order="0" transform="translate(297, 111)"><g id="1_4hyax1gf4oi3-stroke" fill="none" stroke-linecap="round" stroke-linejoin="round" stroke-miterlimit="4" stroke="#969696" stroke-width="2"><g><path d="M 35.800003 56.5L 34.300003 47.5L 28.299999 47.5L 26.799999 56.5L 35.800003 56.5ZM 13 58.659996C 12.742768 58.214462 12.742768 57.665535 13 57.219997C 13.273812 56.770206 13.76343 56.496933 14.29 56.5L 78.370003 56.5C 78.887451 56.501507 79.365997 56.774963 79.630005 57.220001C 79.887222 57.665535 79.887222 58.214462 79.629997 58.659996L 76.300003 65.5L 16.299999 65.5ZM 11.8 40L 50.800003 40M 18.1 80.5L 22.299999 65.5L 16.299999 65.5L 12.37 80.5M 74.470001 80.5L 70.300003 65.5L 76.300003 65.5L 80.199997 80.5M 58.300003 22C 58.300003 27.79899 63.001011 32.5 68.800003 32.5C 74.598991 32.5 79.300003 27.79899 79.300003 22C 79.300003 16.20101 74.598991 11.500001 68.800003 11.500001C 63.001011 11.500001 58.300003 16.20101 58.300003 22M 68.800003 16L 68.800003 22L 73.659996 22M 64.300003 44.5L 73.300003 44.5C 74.128426 44.5 74.800003 45.171574 74.800003 46L 74.800003 56.5L 74.800003 56.5L 62.800003 56.5L 62.800003 56.5L 62.800003 46C 62.800003 45.171574 63.471573 44.5 64.300003 44.5ZM 70.300003 44.5L 70.300003 38.5M 64.300003 38.5L 67.300003 44.5M 14.8 17.5L 47.800003 17.5C 47.800003 17.5 50.800003 17.5 50.800003 20.5L 50.800003 44.5C 50.800003 44.5 50.800003 47.5 47.800003 47.5L 14.8 47.5C 14.8 47.5 11.8 47.5 11.8 44.5L 11.8 20.5C 11.8 20.5 11.8 17.5 14.8 17.5"></path></g></g></g><g id="g-root-incr_1uuaklhgez4eh-stroke" data-item-order="0" transform="translate(471, 123)"><g id="incr_1uuaklhgez4eh-stroke" fill="none" stroke-linecap="round" stroke-linejoin="round" stroke-miterlimit="4" stroke="#e0cb15" stroke-width="2"><g><path d="M 14.251429 32.422855L 53.68 14.491428M 46.308571 11.714286L 53.68 14.491428L 50.937141 21.862858M 55.428574 56.32L 46.857143 56.32L 46.857143 56.32L 46.857143 32.32C 46.857143 31.373228 47.624657 30.605715 48.57143 30.605715L 53.714287 30.605715C 54.66106 30.605715 55.428574 31.373228 55.428574 32.32L 55.428574 56.32L 55.428574 56.32ZM 38.285713 56.32L 29.714287 56.32L 29.714287 56.32L 29.714287 37.46286C 29.714287 36.516087 30.481798 35.748573 31.428572 35.748573L 36.57143 35.748573C 37.518204 35.748573 38.285713 36.516087 38.285713 37.46286L 38.285713 56.32L 38.285713 56.32ZM 21.142857 56.32L 12.571428 56.32L 12.571428 56.32L 12.571428 42.605717C 12.571428 41.658943 13.338942 40.89143 14.285714 40.89143L 19.428572 40.89143C 20.375343 40.89143 21.142857 41.658943 21.142857 42.605717L 21.142857 56.32L 21.142857 56.32Z"></path></g></g></g><g id="g-root-tx_smartana_vb45olgf0g7e-stroke" data-item-order="0" transform="translate(543, 135)"></g></g></g></svg>