<?xml version="1.0" encoding="utf-8" standalone="yes"?>
<!DOCTYPE svg PUBLIC "-//W3C//DTD SVG 1.1//EN" "http://www.w3.org/Graphics/SVG/1.1/DTD/svg11.dtd">
<svg width="962" height="626" viewBox="0 0 962 626" style="fill:none;stroke:none;fill-rule:evenodd;clip-rule:evenodd;stroke-linecap:round;stroke-linejoin:round;stroke-miterlimit:1.5;" version="1.1" xmlns="http://www.w3.org/2000/svg" xmlns:xlink="http://www.w3.org/1999/xlink"><style id="fontImports">@import url("https://fonts.googleapis.com/css2?family=Roboto:wght@400;700&amp;display=block");</style><g id="items" style="isolation: isolate"><g id="blend" style="mix-blend-mode: normal"><g id="g-root-ro_1d3n18qfawidc-fill" data-item-order="-25056" transform="translate(375, 216)"><g id="ro_1d3n18qfawidc-fill" stroke="none" fill="#f5f5f5"><g><path d="M 34 10L 130 10C 130 10 154 10 154 34L 154 160C 154 160 154 184 130 184L 34 184C 34 184 10 184 10 160L 10 34C 10 34 10 10 34 10"></path></g></g></g><g id="g-root-ro_18f2z2ifb3itk-fill" data-item-order="-19440" transform="translate(567, 315)"><g id="ro_18f2z2ifb3itk-fill" stroke="none" fill="#fffbda"><g><path d="M 22 10L 358 10C 358 10 370 10 370 22L 370 52C 370 52 370 64 358 64L 22 64C 22 64 10 64 10 52L 10 22C 10 22 10 10 22 10"></path></g></g></g><g id="g-root-ro_144vqq2fawikp-fill" data-item-order="-19440" transform="translate(567, 165)"><g id="ro_144vqq2fawikp-fill" stroke="none" fill="#faf0ff"><g><path d="M 22 10L 358 10C 358 10 370 10 370 22L 370 52C 370 52 370 64 358 64L 22 64C 22 64 10 64 10 52L 10 22C 10 22 10 10 22 10"></path></g></g></g><g id="g-root-ro_13zw4cqfaqwi1-fill" data-item-order="-16848" transform="translate(15, 165)"><g id="ro_13zw4cqfaqwi1-fill" stroke="none" fill="#e8f9ff"><g><path d="M 22 10L 310 10C 310 10 322 10 322 22L 322 52C 322 52 322 64 310 64L 22 64C 22 64 10 64 10 52L 10 22C 10 22 10 10 22 10"></path></g></g></g><g id="g-root-ro_1qf3t3efaqupw-fill" data-item-order="-16200" transform="translate(27, 315)"><g id="ro_1qf3t3efaqupw-fill" stroke="none" fill="#fff2e5"><g><path d="M 22 10L 298 10C 298 10 310 10 310 22L 310 52C 310 52 310 64 298 64L 22 64C 22 64 10 64 10 52L 10 22C 10 22 10 10 22 10"></path></g></g></g><g id="g-root-ro_13yn66ifamoln-fill" data-item-order="-16200" transform="translate(297, 465)"><g id="ro_13yn66ifamoln-fill" stroke="none" fill="#ffebf7"><g><path d="M 22 10L 298 10C 298 10 310 10 310 22L 310 52C 310 52 310 64 298 64L 22 64C 22 64 10 64 10 52L 10 22C 10 22 10 10 22 10"></path></g></g></g><g id="g-root-ro_1hclhqifb22o2-fill" data-item-order="-14256" transform="translate(495, 15)"><g id="ro_1hclhqifb22o2-fill" stroke="none" fill="#f4ffdc"><g><path d="M 22 10L 262 10C 262 10 274 10 274 22L 274 52C 274 52 274 64 262 64L 22 64C 22 64 10 64 10 52L 10 22C 10 22 10 10 22 10"></path></g></g></g><g id="g-root-ro_18ntslmfasaha-fill" data-item-order="-12960" transform="translate(159, 15)"><g id="ro_18ntslmfasaha-fill" stroke="none" fill="#f3f0ff"><g><path d="M 22 10L 238 10C 238 10 250 10 250 22L 250 52C 250 52 250 64 238 64L 22 64C 22 64 10 64 10 52L 10 22C 10 22 10 10 22 10"></path></g></g></g><g id="g-root-tx_fewercom_mczfgqfamn7v-fill" data-item-order="0" transform="translate(111, 417)"><g id="tx_fewercom_mczfgqfamn7v-fill" stroke="none" fill="#484848"><g><text style="font-style: normal; font-variant-caps: normal; font-weight: normal; font-stretch: normal; font-size: 20px; line-height: normal; font-family: Roboto, sans-serif; font-size-adjust: none; font-kerning: auto; font-variant-alternates: normal; font-variant-ligatures: normal; font-variant-numeric: normal; font-variant-east-asian: normal; font-variant-position: normal; font-variant-emoji: normal; font-feature-settings: normal; font-optical-sizing: auto; font-variation-settings: normal; white-space: pre;"><tspan x="13.37" y="34" dominant-baseline="ideographic">Fewer Complaints</tspan></text></g></g></g><g id="g-root-tx_automate_1qbzfnufamnt0-fill" data-item-order="0" transform="translate(123, 81)"><g id="tx_automate_1qbzfnufamnt0-fill" stroke="none" fill="#484848"><g><text style="font-style: normal; font-variant-caps: normal; font-weight: normal; font-stretch: normal; font-size: 20px; line-height: normal; font-family: Roboto, sans-serif; font-size-adjust: none; font-kerning: auto; font-variant-alternates: normal; font-variant-ligatures: normal; font-variant-numeric: normal; font-variant-east-asian: normal; font-variant-position: normal; font-variant-emoji: normal; font-feature-settings: normal; font-optical-sizing: auto; font-variation-settings: normal; white-space: pre;"><tspan x="15.2" y="34" dominant-baseline="ideographic">Automated Notifications</tspan></text></g></g></g><g id="g-root-cu_dccmiyfato8w-fill" data-item-order="0" transform="translate(357, 69)"></g><g id="g-root-cu_dccmiyfato8z-fill" data-item-order="0" transform="translate(357, 69)"></g><g id="g-root-tx_resolved_18hl1qifamozs-fill" data-item-order="0" transform="translate(615, 381)"><g id="tx_resolved_18hl1qifamozs-fill" stroke="none" fill="#484848"><g><text style="font-style: normal; font-variant-caps: normal; font-weight: normal; font-stretch: normal; font-size: 20px; line-height: normal; font-family: Roboto, sans-serif; font-size-adjust: none; font-kerning: auto; font-variant-alternates: normal; font-variant-ligatures: normal; font-variant-numeric: normal; font-variant-east-asian: normal; font-variant-position: normal; font-variant-emoji: normal; font-feature-settings: normal; font-optical-sizing: auto; font-variation-settings: normal; white-space: pre;"><tspan x="17.32" y="34" dominant-baseline="ideographic">Resolve Double Bookings</tspan></text></g></g></g><g id="g-root-cu_qn6nt6fatp1d-fill" data-item-order="0" transform="translate(447, 390)"></g><g id="g-root-cu_dccmiyfato91-fill" data-item-order="0" transform="translate(519, 69)"></g><g id="g-root-cu_8wj4eifatp1c-fill" data-item-order="0" transform="translate(519, 69)"></g><g id="g-root-cu_hs64nefatngh-fill" data-item-order="0" transform="translate(591, 369)"></g><g id="g-root-cu_dccmiyfatngu-fill" data-item-order="0" transform="translate(591, 369)"></g><g id="g-root-tx_bookingp_1ut1vyifamp6u-fill" data-item-order="0" transform="translate(543, 81)"><g id="tx_bookingp_1ut1vyifamp6u-fill" stroke="none" fill="#484848"><g><text style="font-style: normal; font-variant-caps: normal; font-weight: normal; font-stretch: normal; font-size: 20px; line-height: normal; font-family: Roboto, sans-serif; font-size-adjust: none; font-kerning: auto; font-variant-alternates: normal; font-variant-ligatures: normal; font-variant-numeric: normal; font-variant-east-asian: normal; font-variant-position: normal; font-variant-emoji: normal; font-feature-settings: normal; font-optical-sizing: auto; font-variation-settings: normal; white-space: pre;"><tspan x="17.32" y="34" dominant-baseline="ideographic">Booking Patterns</tspan></text></g></g></g><g id="g-root-tx_wellinfo_qu1vrefamolp-fill" data-item-order="0" transform="translate(135, 117)"><g id="tx_wellinfo_qu1vrefamolp-fill" stroke="none" fill="#484848"><g><text style="font-style: normal; font-variant-caps: normal; font-weight: normal; font-stretch: normal; font-size: 20px; line-height: normal; font-family: Roboto, sans-serif; font-size-adjust: none; font-kerning: auto; font-variant-alternates: normal; font-variant-ligatures: normal; font-variant-numeric: normal; font-variant-east-asian: normal; font-variant-position: normal; font-variant-emoji: normal; font-feature-settings: normal; font-optical-sizing: auto; font-variation-settings: normal; white-space: pre;"><tspan x="12" y="34" dominant-baseline="ideographic">Well-Informed Meetings</tspan></text></g></g></g><g id="g-root-cu_8wj4eifato9a-fill" data-item-order="0" transform="translate(285, 369)"></g><g id="g-root-cu_hs64nefatngj-fill" data-item-order="0" transform="translate(285, 369)"></g><g id="g-root-tx_peakusag_vbqt56fammtr-fill" data-item-order="0" transform="translate(543, 117)"><g id="tx_peakusag_vbqt56fammtr-fill" stroke="none" fill="#484848"><g><text style="font-style: normal; font-variant-caps: normal; font-weight: normal; font-stretch: normal; font-size: 20px; line-height: normal; font-family: Roboto, sans-serif; font-size-adjust: none; font-kerning: auto; font-variant-alternates: normal; font-variant-ligatures: normal; font-variant-numeric: normal; font-variant-east-asian: normal; font-variant-position: normal; font-variant-emoji: normal; font-feature-settings: normal; font-optical-sizing: auto; font-variation-settings: normal; white-space: pre;"><tspan x="17.17" y="34" dominant-baseline="ideographic">Peak Usage Times</tspan></text></g></g></g><g id="g-root-tx_communic_hvai2yfamozt-fill" data-item-order="0" transform="translate(615, 417)"><g id="tx_communic_hvai2yfamozt-fill" stroke="none" fill="#484848"><g><text style="font-style: normal; font-variant-caps: normal; font-weight: normal; font-stretch: normal; font-size: 20px; line-height: normal; font-family: Roboto, sans-serif; font-size-adjust: none; font-kerning: auto; font-variant-alternates: normal; font-variant-ligatures: normal; font-variant-numeric: normal; font-variant-east-asian: normal; font-variant-position: normal; font-variant-emoji: normal; font-feature-settings: normal; font-optical-sizing: auto; font-variation-settings: normal; white-space: pre;"><tspan x="14.11" y="34" dominant-baseline="ideographic">Communication Tools</tspan></text></g></g></g><g id="g-root-cu_v305xmfato92-fill" data-item-order="0" transform="translate(471, 42)"></g><g id="g-root-tx_seamless_1luwzd6fammf6-fill" data-item-order="0" transform="translate(27, 381)"><g id="tx_seamless_1luwzd6fammf6-fill" stroke="none" fill="#484848"><g><text style="font-style: normal; font-variant-caps: normal; font-weight: normal; font-stretch: normal; font-size: 20px; line-height: normal; font-family: Roboto, sans-serif; font-size-adjust: none; font-kerning: auto; font-variant-alternates: normal; font-variant-ligatures: normal; font-variant-numeric: normal; font-variant-east-asian: normal; font-variant-position: normal; font-variant-emoji: normal; font-feature-settings: normal; font-optical-sizing: auto; font-variation-settings: normal; white-space: pre;"><tspan x="15.05" y="34" dominant-baseline="ideographic">Seamless Booking Process</tspan></text></g></g></g><g id="g-root-cu_qn6nt6fato99-fill" data-item-order="0" transform="translate(519, 332)"></g><g id="g-root-tx_effectiv_13yn66ifao2rl-fill" data-item-order="0" transform="translate(345, 567)"><g id="tx_effectiv_13yn66ifao2rl-fill" stroke="none" fill="#484848"><g><text style="font-style: normal; font-variant-caps: normal; font-weight: normal; font-stretch: normal; font-size: 20px; line-height: normal; font-family: Roboto, sans-serif; font-size-adjust: none; font-kerning: auto; font-variant-alternates: normal; font-variant-ligatures: normal; font-variant-numeric: normal; font-variant-east-asian: normal; font-variant-position: normal; font-variant-emoji: normal; font-feature-settings: normal; font-optical-sizing: auto; font-variation-settings: normal; white-space: pre;"><tspan x="14.2" y="34" dominant-baseline="ideographic">Effective Team Work</tspan></text></g></g></g><g id="g-root-cu_1480ah6fasb9j-fill" data-item-order="0" transform="translate(327, 192)"></g><g id="g-root-cu_v305xmfato8w-fill" data-item-order="0" transform="translate(327, 332)"></g><g id="g-root-cu_m7d5oqfatptt-fill" data-item-order="0" transform="translate(591, 219)"></g><g id="g-root-cu_v305xmfato8z-fill" data-item-order="0" transform="translate(399, 42)"></g><g id="g-root-cu_8wj4eifatp1e-fill" data-item-order="0" transform="translate(321, 519)"></g><g id="g-root-cu_hrjnkafatpu7-fill" data-item-order="0" transform="translate(285, 219)"></g><g id="g-root-cu_8wj4eifatp1h-fill" data-item-order="0" transform="translate(321, 519)"></g><g id="g-root-tx_reducesa_de81safamnlz-fill" data-item-order="0" transform="translate(615, 267)"><g id="tx_reducesa_de81safamnlz-fill" stroke="none" fill="#484848"><g><text style="font-style: normal; font-variant-caps: normal; font-weight: normal; font-stretch: normal; font-size: 20px; line-height: normal; font-family: Roboto, sans-serif; font-size-adjust: none; font-kerning: auto; font-variant-alternates: normal; font-variant-ligatures: normal; font-variant-numeric: normal; font-variant-east-asian: normal; font-variant-position: normal; font-variant-emoji: normal; font-feature-settings: normal; font-optical-sizing: auto; font-variation-settings: normal; white-space: pre;"><tspan x="16.16" y="34" dominant-baseline="ideographic">Reduces Administrative Overhead</tspan></text></g></g></g><g id="g-root-tx_reduceun_1il8qfamn0t-fill" data-item-order="0" transform="translate(75, 267)"><g id="tx_reduceun_1il8qfamn0t-fill" stroke="none" fill="#484848"><g><text style="font-style: normal; font-variant-caps: normal; font-weight: normal; font-stretch: normal; font-size: 20px; line-height: normal; font-family: Roboto, sans-serif; font-size-adjust: none; font-kerning: auto; font-variant-alternates: normal; font-variant-ligatures: normal; font-variant-numeric: normal; font-variant-east-asian: normal; font-variant-position: normal; font-variant-emoji: normal; font-feature-settings: normal; font-optical-sizing: auto; font-variation-settings: normal; white-space: pre;"><tspan x="14.27" y="34" dominant-baseline="ideographic">Reduce Unused Areas</tspan></text></g></g></g><g id="g-root-tx_insights_zjg556famm84-fill" data-item-order="0" transform="translate(99, 231)"><g id="tx_insights_zjg556famm84-fill" stroke="none" fill="#484848"><g><text style="font-style: normal; font-variant-caps: normal; font-weight: normal; font-stretch: normal; font-size: 20px; line-height: normal; font-family: Roboto, sans-serif; font-size-adjust: none; font-kerning: auto; font-variant-alternates: normal; font-variant-ligatures: normal; font-variant-numeric: normal; font-variant-east-asian: normal; font-variant-position: normal; font-variant-emoji: normal; font-feature-settings: normal; font-optical-sizing: auto; font-variation-settings: normal; white-space: pre;"><tspan x="14.41" y="34" dominant-baseline="ideographic">Insights into Usage</tspan></text></g></g></g><g id="g-root-cu_qn6nt6fatp1g-fill" data-item-order="0" transform="translate(285, 219)"></g><g id="g-root-tx_automate_140ilfufamnly-fill" data-item-order="0" transform="translate(615, 231)"><g id="tx_automate_140ilfufamnly-fill" stroke="none" fill="#484848"><g><text style="font-style: normal; font-variant-caps: normal; font-weight: normal; font-stretch: normal; font-size: 20px; line-height: normal; font-family: Roboto, sans-serif; font-size-adjust: none; font-kerning: auto; font-variant-alternates: normal; font-variant-ligatures: normal; font-variant-numeric: normal; font-variant-east-asian: normal; font-variant-position: normal; font-variant-emoji: normal; font-feature-settings: normal; font-optical-sizing: auto; font-variation-settings: normal; white-space: pre;"><tspan x="17.29" y="34" dominant-baseline="ideographic">Automates Scheduling</tspan></text></g></g></g><g id="g-root-cu_dccmiyfatngs-fill" data-item-order="0" transform="translate(591, 219)"></g><g id="g-root-tx_maximize_9mrd6famnm0-fill" data-item-order="0" transform="translate(345, 531)"><g id="tx_maximize_9mrd6famnm0-fill" stroke="none" fill="#484848"><g><text style="font-style: normal; font-variant-caps: normal; font-weight: normal; font-stretch: normal; font-size: 20px; line-height: normal; font-family: Roboto, sans-serif; font-size-adjust: none; font-kerning: auto; font-variant-alternates: normal; font-variant-ligatures: normal; font-variant-numeric: normal; font-variant-east-asian: normal; font-variant-position: normal; font-variant-emoji: normal; font-feature-settings: normal; font-optical-sizing: auto; font-variation-settings: normal; white-space: pre;"><tspan x="16.3" y="34" dominant-baseline="ideographic">Maximize Office Space</tspan></text></g></g></g><g id="g-root-cu_zito22fatngi-fill" data-item-order="0" transform="translate(519, 192)"></g><g id="g-root-1_1lza1hmfawgsv-fill" data-item-order="1000000000" transform="translate(423, 240)"></g><g id="g-root-tx_resource_qvakgafawiku-fill" data-item-order="1000000000" transform="translate(399, 294)"><g id="tx_resource_qvakgafawiku-fill" stroke="none" fill="#484848"><g><text style="font-style: normal; font-variant-caps: normal; font-weight: normal; font-stretch: normal; font-size: 20px; line-height: normal; font-family: Roboto, sans-serif; font-size-adjust: none; font-kerning: auto; font-variant-alternates: normal; font-variant-ligatures: normal; font-variant-numeric: normal; font-variant-east-asian: normal; font-variant-position: normal; font-variant-emoji: normal; font-feature-settings: normal; font-optical-sizing: auto; font-variation-settings: normal; white-space: pre;"><tspan x="13.69" y="34" dominant-baseline="ideographic">Resource </tspan><tspan x="18.69" y="58" dominant-baseline="ideographic">Booking </tspan><tspan x="18.69" y="82" dominant-baseline="ideographic">Benefits</tspan></text></g></g></g><g id="g-root-tx_streamli_mccs22fawirr-fill" data-item-order="1000000000" transform="translate(615, 180)"><g id="tx_streamli_mccs22fawirr-fill" stroke="none" fill="#ba5de5"><g><text style="font-style: normal; font-variant-caps: normal; font-weight: normal; font-stretch: normal; font-size: 20px; line-height: normal; font-family: Roboto, sans-serif; font-size-adjust: none; font-kerning: auto; font-variant-alternates: normal; font-variant-ligatures: normal; font-variant-numeric: normal; font-variant-east-asian: normal; font-variant-position: normal; font-variant-emoji: normal; font-feature-settings: normal; font-optical-sizing: auto; font-variation-settings: normal; white-space: pre;"><tspan x="16.22" y="34" dominant-baseline="ideographic">Streamlined Room Management</tspan></text></g></g></g><g id="g-root-tx_enhanced_zqxu6ifaqvpm-fill" data-item-order="1000000000" transform="translate(39, 330)"><g id="tx_enhanced_zqxu6ifaqvpm-fill" stroke="none" fill="#de8431"><g><text style="font-style: normal; font-variant-caps: normal; font-weight: normal; font-stretch: normal; font-size: 20px; line-height: normal; font-family: Roboto, sans-serif; font-size-adjust: none; font-kerning: auto; font-variant-alternates: normal; font-variant-ligatures: normal; font-variant-numeric: normal; font-variant-east-asian: normal; font-variant-position: normal; font-variant-emoji: normal; font-feature-settings: normal; font-optical-sizing: auto; font-variation-settings: normal; white-space: pre;"><tspan x="12.05" y="34" dominant-baseline="ideographic">Enhanced User Experience</tspan></text></g></g></g><g id="g-root-2_1qf3t3efaqupv-fill" data-item-order="1000000000" transform="translate(285, 327)"></g><g id="g-root-exch_18f2z2ifb3itj-fill" data-item-order="1000000000" transform="translate(579, 327)"></g><g id="g-root-4_1d0iqyyfawhs0-fill" data-item-order="1000000000" transform="translate(579, 177)"></g><g id="g-root-tx_conflict_i0wljefb258u-fill" data-item-order="1000000000" transform="translate(615, 330)"><g id="tx_conflict_i0wljefb258u-fill" stroke="none" fill="#e0cb15"><g><text style="font-style: normal; font-variant-caps: normal; font-weight: normal; font-stretch: normal; font-size: 20px; line-height: normal; font-family: Roboto, sans-serif; font-size-adjust: none; font-kerning: auto; font-variant-alternates: normal; font-variant-ligatures: normal; font-variant-numeric: normal; font-variant-east-asian: normal; font-variant-position: normal; font-variant-emoji: normal; font-feature-settings: normal; font-optical-sizing: auto; font-variation-settings: normal; white-space: pre;"><tspan x="15.2" y="34" dominant-baseline="ideographic">Conflict Resolution Made Simple</tspan></text></g></g></g><g id="g-root-flas_1cvj4lmfaqvpc-fill" data-item-order="1000000000" transform="translate(285, 177)"></g><g id="g-root-tx_optimize_m7d5oqfaqwp3-fill" data-item-order="1000000000" transform="translate(27, 180)"><g id="tx_optimize_m7d5oqfaqwp3-fill" stroke="none" fill="#1eabda"><g><text style="font-style: normal; font-variant-caps: normal; font-weight: normal; font-stretch: normal; font-size: 20px; line-height: normal; font-family: Roboto, sans-serif; font-size-adjust: none; font-kerning: auto; font-variant-alternates: normal; font-variant-ligatures: normal; font-variant-numeric: normal; font-variant-east-asian: normal; font-variant-position: normal; font-variant-emoji: normal; font-feature-settings: normal; font-optical-sizing: auto; font-variation-settings: normal; white-space: pre;"><tspan x="13.45" y="34" dominant-baseline="ideographic">Optimized Space Utilization</tspan></text></g></g></g><g id="g-root-tx_datadriv_qofitmfb23ns-fill" data-item-order="1000000000" transform="translate(543, 30)"><g id="tx_datadriv_qofitmfb23ns-fill" stroke="none" fill="#92bd39"><g><text style="font-style: normal; font-variant-caps: normal; font-weight: normal; font-stretch: normal; font-size: 20px; line-height: normal; font-family: Roboto, sans-serif; font-size-adjust: none; font-kerning: auto; font-variant-alternates: normal; font-variant-ligatures: normal; font-variant-numeric: normal; font-variant-east-asian: normal; font-variant-position: normal; font-variant-emoji: normal; font-feature-settings: normal; font-optical-sizing: auto; font-variation-settings: normal; white-space: pre;"><tspan x="14.27" y="34" dominant-baseline="ideographic">Data-Driven Decisions</tspan></text></g></g></g><g id="g-root-buil_1cua6fefamnsy-fill" data-item-order="1000000000" transform="translate(309, 477)"></g><g id="g-root-tx_improved_i0wop6fb7oxt-fill" data-item-order="1000000000" transform="translate(345, 480)"><g id="tx_improved_i0wop6fb7oxt-fill" stroke="none" fill="#de58a9"><g><text style="font-style: normal; font-variant-caps: normal; font-weight: normal; font-stretch: normal; font-size: 20px; line-height: normal; font-family: Roboto, sans-serif; font-size-adjust: none; font-kerning: auto; font-variant-alternates: normal; font-variant-ligatures: normal; font-variant-numeric: normal; font-variant-east-asian: normal; font-variant-position: normal; font-variant-emoji: normal; font-feature-settings: normal; font-optical-sizing: auto; font-variation-settings: normal; white-space: pre;"><tspan x="14.16" y="34" dominant-baseline="ideographic">Improved ROI on Facilities</tspan></text></g></g></g><g id="g-root-2_1lrsirufb251l-fill" data-item-order="1000000000" transform="translate(507, 27)"></g><g id="g-root-5_1hjgsuifas9ol-fill" data-item-order="1000000000" transform="translate(357, 27)"></g><g id="g-root-tx_reducedn_mfhbt6fasbgk-fill" data-item-order="1000000000" transform="translate(171, 30)"><g id="tx_reducedn_mfhbt6fasbgk-fill" stroke="none" fill="#7f64ea"><g><text style="font-style: normal; font-variant-caps: normal; font-weight: normal; font-stretch: normal; font-size: 20px; line-height: normal; font-family: Roboto, sans-serif; font-size-adjust: none; font-kerning: auto; font-variant-alternates: normal; font-variant-ligatures: normal; font-variant-numeric: normal; font-variant-east-asian: normal; font-variant-position: normal; font-variant-emoji: normal; font-feature-settings: normal; font-optical-sizing: auto; font-variation-settings: normal; white-space: pre;"><tspan x="13.15" y="34" dominant-baseline="ideographic">Reduced No-Shows</tspan></text></g></g></g><g id="g-root-ro_1d3n18qfawidc-stroke" data-item-order="-25056" transform="translate(375, 216)"><g id="ro_1d3n18qfawidc-stroke" fill="none" stroke-linecap="round" stroke-linejoin="round" stroke-miterlimit="4" stroke="#484848" stroke-width="2"><g><path d="M 34 10L 130 10C 130 10 154 10 154 34L 154 160C 154 160 154 184 130 184L 34 184C 34 184 10 184 10 160L 10 34C 10 34 10 10 34 10"></path></g></g></g><g id="g-root-ro_18f2z2ifb3itk-stroke" data-item-order="-19440" transform="translate(567, 315)"><g id="ro_18f2z2ifb3itk-stroke" fill="none" stroke-linecap="round" stroke-linejoin="round" stroke-miterlimit="4" stroke="#e0cb15" stroke-width="2"><g><path d="M 22 10L 358 10C 358 10 370 10 370 22L 370 52C 370 52 370 64 358 64L 22 64C 22 64 10 64 10 52L 10 22C 10 22 10 10 22 10"></path></g></g></g><g id="g-root-ro_144vqq2fawikp-stroke" data-item-order="-19440" transform="translate(567, 165)"><g id="ro_144vqq2fawikp-stroke" fill="none" stroke-linecap="round" stroke-linejoin="round" stroke-miterlimit="4" stroke="#ba5de5" stroke-width="2"><g><path d="M 22 10L 358 10C 358 10 370 10 370 22L 370 52C 370 52 370 64 358 64L 22 64C 22 64 10 64 10 52L 10 22C 10 22 10 10 22 10"></path></g></g></g><g id="g-root-ro_13zw4cqfaqwi1-stroke" data-item-order="-16848" transform="translate(15, 165)"><g id="ro_13zw4cqfaqwi1-stroke" fill="none" stroke-linecap="round" stroke-linejoin="round" stroke-miterlimit="4" stroke="#1eabda" stroke-width="2"><g><path d="M 22 10L 310 10C 310 10 322 10 322 22L 322 52C 322 52 322 64 310 64L 22 64C 22 64 10 64 10 52L 10 22C 10 22 10 10 22 10"></path></g></g></g><g id="g-root-ro_1qf3t3efaqupw-stroke" data-item-order="-16200" transform="translate(27, 315)"><g id="ro_1qf3t3efaqupw-stroke" fill="none" stroke-linecap="round" stroke-linejoin="round" stroke-miterlimit="4" stroke="#de8431" stroke-width="2"><g><path d="M 22 10L 298 10C 298 10 310 10 310 22L 310 52C 310 52 310 64 298 64L 22 64C 22 64 10 64 10 52L 10 22C 10 22 10 10 22 10"></path></g></g></g><g id="g-root-ro_13yn66ifamoln-stroke" data-item-order="-16200" transform="translate(297, 465)"><g id="ro_13yn66ifamoln-stroke" fill="none" stroke-linecap="round" stroke-linejoin="round" stroke-miterlimit="4" stroke="#de58a9" stroke-width="2"><g><path d="M 22 10L 298 10C 298 10 310 10 310 22L 310 52C 310 52 310 64 298 64L 22 64C 22 64 10 64 10 52L 10 22C 10 22 10 10 22 10"></path></g></g></g><g id="g-root-ro_1hclhqifb22o2-stroke" data-item-order="-14256" transform="translate(495, 15)"><g id="ro_1hclhqifb22o2-stroke" fill="none" stroke-linecap="round" stroke-linejoin="round" stroke-miterlimit="4" stroke="#92bd39" stroke-width="2"><g><path d="M 22 10L 262 10C 262 10 274 10 274 22L 274 52C 274 52 274 64 262 64L 22 64C 22 64 10 64 10 52L 10 22C 10 22 10 10 22 10"></path></g></g></g><g id="g-root-ro_18ntslmfasaha-stroke" data-item-order="-12960" transform="translate(159, 15)"><g id="ro_18ntslmfasaha-stroke" fill="none" stroke-linecap="round" stroke-linejoin="round" stroke-miterlimit="4" stroke="#7f64ea" stroke-width="2"><g><path d="M 22 10L 238 10C 238 10 250 10 250 22L 250 52C 250 52 250 64 238 64L 22 64C 22 64 10 64 10 52L 10 22C 10 22 10 10 22 10"></path></g></g></g><g id="g-root-tx_fewercom_mczfgqfamn7v-stroke" data-item-order="0" transform="translate(111, 417)"></g><g id="g-root-tx_automate_1qbzfnufamnt0-stroke" data-item-order="0" transform="translate(123, 81)"></g><g id="g-root-cu_dccmiyfato8w-stroke" data-item-order="0" transform="translate(357, 69)"><g id="cu_dccmiyfato8w-stroke" fill="none" stroke-linecap="round" stroke-linejoin="round" stroke-miterlimit="4" stroke="#969696" stroke-width="2" stroke-dasharray="5.0, 7.0"><g><path d="M 28 10L 28 22L 28 34L 19 34L 10 34"></path></g></g></g><g id="g-root-cu_dccmiyfato8z-stroke" data-item-order="0" transform="translate(357, 69)"><g id="cu_dccmiyfato8z-stroke" fill="none" stroke-linecap="round" stroke-linejoin="round" stroke-miterlimit="4" stroke="#969696" stroke-width="2" stroke-dasharray="5.0, 7.0"><g><path d="M 28 10L 28 17.5L 28 58C 27.999999 64.627415 22.627416 69.999998 16 69.999998L 15.9 70L 10 70"></path></g></g></g><g id="g-root-tx_resolved_18hl1qifamozs-stroke" data-item-order="0" transform="translate(615, 381)"></g><g id="g-root-cu_qn6nt6fatp1d-stroke" data-item-order="0" transform="translate(447, 390)"><g id="cu_qn6nt6fatp1d-stroke" fill="none" stroke-linecap="round" stroke-linejoin="round" stroke-miterlimit="4" stroke="#969696" stroke-width="2" stroke-dasharray="5.0, 7.0"><g><path d="M 10 10L 10 47.5L 10 85"></path></g></g></g><g id="g-root-cu_dccmiyfato91-stroke" data-item-order="0" transform="translate(519, 69)"><g id="cu_dccmiyfato91-stroke" fill="none" stroke-linecap="round" stroke-linejoin="round" stroke-miterlimit="4" stroke="#969696" stroke-width="2" stroke-dasharray="5.0, 7.0"><g><path d="M 10 10L 10 22L 10 34L 19 34L 28 34"></path></g></g></g><g id="g-root-cu_8wj4eifatp1c-stroke" data-item-order="0" transform="translate(519, 69)"><g id="cu_8wj4eifatp1c-stroke" fill="none" stroke-linecap="round" stroke-linejoin="round" stroke-miterlimit="4" stroke="#969696" stroke-width="2" stroke-dasharray="5.0, 7.0"><g><path d="M 10 10L 10 17.5L 10 58C 10.000002 64.627417 15.372585 70 22.000002 69.999999L 22.1 70L 28 70"></path></g></g></g><g id="g-root-cu_hs64nefatngh-stroke" data-item-order="0" transform="translate(591, 369)"><g id="cu_hs64nefatngh-stroke" fill="none" stroke-linecap="round" stroke-linejoin="round" stroke-miterlimit="4" stroke="#969696" stroke-width="2" stroke-dasharray="5.0, 7.0"><g><path d="M 10 10L 10 17.5L 10 58C 10.000002 64.627417 15.372585 70 22.000002 69.999999L 22.1 70L 28 70"></path></g></g></g><g id="g-root-cu_dccmiyfatngu-stroke" data-item-order="0" transform="translate(591, 369)"><g id="cu_dccmiyfatngu-stroke" fill="none" stroke-linecap="round" stroke-linejoin="round" stroke-miterlimit="4" stroke="#969696" stroke-width="2" stroke-dasharray="5.0, 7.0"><g><path d="M 10 10L 10 22L 10 34L 19 34L 28 34"></path></g></g></g><g id="g-root-tx_bookingp_1ut1vyifamp6u-stroke" data-item-order="0" transform="translate(543, 81)"></g><g id="g-root-tx_wellinfo_qu1vrefamolp-stroke" data-item-order="0" transform="translate(135, 117)"></g><g id="g-root-cu_8wj4eifato9a-stroke" data-item-order="0" transform="translate(285, 369)"><g id="cu_8wj4eifato9a-stroke" fill="none" stroke-linecap="round" stroke-linejoin="round" stroke-miterlimit="4" stroke="#969696" stroke-width="2" stroke-dasharray="5.0, 7.0"><g><path d="M 28 10L 28 17.5L 28 58C 27.999999 64.627415 22.627416 69.999998 16 69.999998L 15.9 70L 10 70"></path></g></g></g><g id="g-root-cu_hs64nefatngj-stroke" data-item-order="0" transform="translate(285, 369)"><g id="cu_hs64nefatngj-stroke" fill="none" stroke-linecap="round" stroke-linejoin="round" stroke-miterlimit="4" stroke="#969696" stroke-width="2" stroke-dasharray="5.0, 7.0"><g><path d="M 28 10L 28 22L 28 34L 19 34L 10 34"></path></g></g></g><g id="g-root-tx_peakusag_vbqt56fammtr-stroke" data-item-order="0" transform="translate(543, 117)"></g><g id="g-root-tx_communic_hvai2yfamozt-stroke" data-item-order="0" transform="translate(615, 417)"></g><g id="g-root-cu_v305xmfato92-stroke" data-item-order="0" transform="translate(471, 42)"><g id="cu_v305xmfato92-stroke" fill="none" stroke-linecap="round" stroke-linejoin="round" stroke-miterlimit="4" stroke="#969696" stroke-width="2" stroke-dasharray="5.0, 7.0"><g><path d="M 10 184L 10 162.3L 10 30.9C 10 19.357248 19.357248 10 30.899998 10L 31 10L 34 10"></path></g></g></g><g id="g-root-tx_seamless_1luwzd6fammf6-stroke" data-item-order="0" transform="translate(27, 381)"></g><g id="g-root-cu_qn6nt6fato99-stroke" data-item-order="0" transform="translate(519, 332)"><g id="cu_qn6nt6fato99-stroke" fill="none" stroke-linecap="round" stroke-linejoin="round" stroke-miterlimit="4" stroke="#969696" stroke-width="2" stroke-dasharray="5.0, 7.0"><g><path d="M 10 10L 13 10L 13.1 10C 16.360602 10.01615 19.962923 10.453815 23.800001 11.3C 26.03452 11.745014 29.638043 13.052174 34 15.000001C 38.361958 16.947827 41.965481 18.254987 44.200001 18.700001C 48.03708 19.546186 51.639401 19.983851 54.900002 20.000001L 55 20L 58 20"></path></g></g></g><g id="g-root-tx_effectiv_13yn66ifao2rl-stroke" data-item-order="0" transform="translate(345, 567)"></g><g id="g-root-cu_1480ah6fasb9j-stroke" data-item-order="0" transform="translate(327, 192)"><g id="cu_1480ah6fasb9j-stroke" fill="none" stroke-linecap="round" stroke-linejoin="round" stroke-miterlimit="4" stroke="#969696" stroke-width="2" stroke-dasharray="5.0, 7.0"><g><path d="M 58 92L 55 92L 54.9 92C 43.357247 92 33.999998 82.642751 33.999998 71.1L 34 71L 34 30.9C 33.999998 19.357248 24.64275 10 13.1 10L 13 10L 10 10"></path></g></g></g><g id="g-root-cu_v305xmfato8w-stroke" data-item-order="0" transform="translate(327, 332)"><g id="cu_v305xmfato8w-stroke" fill="none" stroke-linecap="round" stroke-linejoin="round" stroke-miterlimit="4" stroke="#969696" stroke-width="2" stroke-dasharray="5.0, 7.0"><g><path d="M 58 10L 55 10L 54.9 10C 51.639401 10.016148 48.03708 10.453814 44.200002 11.299999C 41.965481 11.745013 38.361958 13.052173 34 14.999999C 29.638043 16.947825 26.03452 18.254985 23.8 18.699999C 19.962923 19.546185 16.360601 19.98385 13.1 20L 13 20L 10 20"></path></g></g></g><g id="g-root-cu_m7d5oqfatptt-stroke" data-item-order="0" transform="translate(591, 219)"><g id="cu_m7d5oqfatptt-stroke" fill="none" stroke-linecap="round" stroke-linejoin="round" stroke-miterlimit="4" stroke="#969696" stroke-width="2" stroke-dasharray="5.0, 7.0"><g><path d="M 10 10L 10 22L 10 34L 19 34L 28 34"></path></g></g></g><g id="g-root-cu_v305xmfato8z-stroke" data-item-order="0" transform="translate(399, 42)"><g id="cu_v305xmfato8z-stroke" fill="none" stroke-linecap="round" stroke-linejoin="round" stroke-miterlimit="4" stroke="#969696" stroke-width="2" stroke-dasharray="5.0, 7.0"><g><path d="M 34 184L 34 162.3L 34 30.9C 33.999998 19.357248 24.64275 10 13.1 10L 13 10L 10 10"></path></g></g></g><g id="g-root-cu_8wj4eifatp1e-stroke" data-item-order="0" transform="translate(321, 519)"><g id="cu_8wj4eifatp1e-stroke" fill="none" stroke-linecap="round" stroke-linejoin="round" stroke-miterlimit="4" stroke="#969696" stroke-width="2" stroke-dasharray="5.0, 7.0"><g><path d="M 10 10L 10 22L 10 34L 19 34L 28 34"></path></g></g></g><g id="g-root-cu_hrjnkafatpu7-stroke" data-item-order="0" transform="translate(285, 219)"><g id="cu_hrjnkafatpu7-stroke" fill="none" stroke-linecap="round" stroke-linejoin="round" stroke-miterlimit="4" stroke="#969696" stroke-width="2" stroke-dasharray="5.0, 7.0"><g><path d="M 28 10L 28 17.5L 28 58C 27.999999 64.627415 22.627416 69.999998 16 69.999998L 15.9 70L 10 70"></path></g></g></g><g id="g-root-cu_8wj4eifatp1h-stroke" data-item-order="0" transform="translate(321, 519)"><g id="cu_8wj4eifatp1h-stroke" fill="none" stroke-linecap="round" stroke-linejoin="round" stroke-miterlimit="4" stroke="#969696" stroke-width="2" stroke-dasharray="5.0, 7.0"><g><path d="M 10 10L 10 17.5L 10 58C 10.000002 64.627417 15.372585 70 22.000002 69.999999L 22.1 70L 28 70"></path></g></g></g><g id="g-root-tx_reducesa_de81safamnlz-stroke" data-item-order="0" transform="translate(615, 267)"></g><g id="g-root-tx_reduceun_1il8qfamn0t-stroke" data-item-order="0" transform="translate(75, 267)"></g><g id="g-root-tx_insights_zjg556famm84-stroke" data-item-order="0" transform="translate(99, 231)"></g><g id="g-root-cu_qn6nt6fatp1g-stroke" data-item-order="0" transform="translate(285, 219)"><g id="cu_qn6nt6fatp1g-stroke" fill="none" stroke-linecap="round" stroke-linejoin="round" stroke-miterlimit="4" stroke="#969696" stroke-width="2" stroke-dasharray="5.0, 7.0"><g><path d="M 28 10L 28 22L 28 34L 19 34L 10 34"></path></g></g></g><g id="g-root-tx_automate_140ilfufamnly-stroke" data-item-order="0" transform="translate(615, 231)"></g><g id="g-root-cu_dccmiyfatngs-stroke" data-item-order="0" transform="translate(591, 219)"><g id="cu_dccmiyfatngs-stroke" fill="none" stroke-linecap="round" stroke-linejoin="round" stroke-miterlimit="4" stroke="#969696" stroke-width="2" stroke-dasharray="5.0, 7.0"><g><path d="M 10 10L 10 17.5L 10 58C 10.000002 64.627417 15.372585 70 22.000002 69.999999L 22.1 70L 28 70"></path></g></g></g><g id="g-root-tx_maximize_9mrd6famnm0-stroke" data-item-order="0" transform="translate(345, 531)"></g><g id="g-root-cu_zito22fatngi-stroke" data-item-order="0" transform="translate(519, 192)"><g id="cu_zito22fatngi-stroke" fill="none" stroke-linecap="round" stroke-linejoin="round" stroke-miterlimit="4" stroke="#969696" stroke-width="2" stroke-dasharray="5.0, 7.0"><g><path d="M 10 92L 13 92L 13.1 92C 24.642748 92.000003 33.999998 82.642755 33.999998 71.100003L 34 71L 34 30.9C 33.999999 19.357249 43.357248 10.000001 54.899999 10.000002L 55 10L 58 10"></path></g></g></g><g id="g-root-1_1lza1hmfawgsv-stroke" data-item-order="1000000000" transform="translate(423, 240)"><g id="1_1lza1hmfawgsv-stroke" fill="none" stroke-linecap="round" stroke-linejoin="round" stroke-miterlimit="4" stroke="#484848" stroke-width="2"><g><path d="M 21.001999 52L 47.001999 52M 35.001999 40L 35.001999 52M 57 24C 57 26.209139 55.209141 28 53 28L 15 28C 12.790861 28 11 26.209139 11 24L 11 20C 11 17.790861 12.790861 16 15 16L 53 16C 55.209141 16 57 17.790861 57 20ZM 19.5 21.5C 19.223858 21.5 19 21.723858 19 22C 19 22.276142 19.223858 22.5 19.5 22.5C 19.776142 22.5 20 22.276142 20 22C 20 21.723858 19.776142 21.5 19.5 21.5L 19.5 21.5M 26.5 21.5C 26.223858 21.5 26 21.723858 26 22C 26 22.276142 26.223858 22.5 26.5 22.5C 26.776142 22.5 27 22.276142 27 22C 27 21.723858 26.776142 21.5 26.5 21.5L 26.5 21.5M 57 36C 57 38.209137 55.209141 40 53 40L 15 40C 12.790861 40 11 38.209137 11 36L 11 32C 11 29.790861 12.790861 28 15 28L 53 28C 55.209141 28 57 29.790861 57 32ZM 19.5 33.5C 19.223858 33.5 19 33.723858 19 34C 19 34.276142 19.223858 34.5 19.5 34.5C 19.776142 34.5 20 34.276142 20 34C 20 33.723858 19.776142 33.5 19.5 33.5L 19.5 33.5M 26.5 33.5C 26.223858 33.5 26 33.723858 26 34C 26 34.276142 26.223858 34.5 26.5 34.5C 26.776142 34.5 27 34.276142 27 34C 27 33.723858 26.776142 33.5 26.5 33.5L 26.5 33.5M 16.5 51C 16.223858 51 16 51.223858 16 51.5C 16 51.776142 16.223858 52 16.5 52C 16.776142 52 17 51.776142 17 51.5C 17 51.223858 16.776142 51 16.5 51L 16.5 51M 11.5 51C 11.223858 51 11 51.223858 11 51.5C 11 51.776142 11.223858 52 11.5 52C 11.776142 52 12 51.776142 12 51.5C 12 51.223858 11.776142 51 11.5 51L 11.5 51M 56.5 51C 56.223858 51 56 51.223858 56 51.5C 56 51.776142 56.223858 52 56.5 52C 56.776142 52 57 51.776142 57 51.5C 57 51.223858 56.776142 51 56.5 51L 56.5 51M 51.5 51C 51.223858 51 51 51.223858 51 51.5C 51 51.776142 51.223858 52 51.5 52C 51.776142 52 52 51.776142 52 51.5C 52 51.223858 51.776142 51 51.5 51L 51.5 51"></path></g></g></g><g id="g-root-tx_resource_qvakgafawiku-stroke" data-item-order="1000000000" transform="translate(399, 294)"></g><g id="g-root-tx_streamli_mccs22fawirr-stroke" data-item-order="1000000000" transform="translate(615, 180)"></g><g id="g-root-tx_enhanced_zqxu6ifaqvpm-stroke" data-item-order="1000000000" transform="translate(39, 330)"></g><g id="g-root-2_1qf3t3efaqupv-stroke" data-item-order="1000000000" transform="translate(285, 327)"><g id="2_1qf3t3efaqupv-stroke" fill="none" stroke-linecap="round" stroke-linejoin="round" stroke-miterlimit="4" stroke="#de8431" stroke-width="2"><g><path d="M 10.625 20.465L 13.125 20.465C 13.815356 20.465 14.375 21.024645 14.375 21.715L 14.375 36.715C 14.375 37.405354 13.815356 37.965 13.125 37.965L 10.625 37.965M 14.375 34.215C 23.54875 38.872498 23.10125 38.258751 30.956249 38.258751C 34.24625 38.258751 35.903748 36.115002 36.87125 32.973751L 36.87125 32.953751L 39.254997 24.953751L 39.254997 24.938751C 39.483421 24.183556 39.341942 23.364849 38.873333 22.730106C 38.40472 22.095366 37.663971 21.719082 36.875 21.715L 30.75 21.715C 29.974485 21.715046 29.242861 21.355186 28.769526 20.740877C 28.296188 20.12657 28.134745 19.327377 28.3325 18.577499L 29.435001 14.3975C 29.698784 13.394311 29.20558 12.346316 28.264431 11.910189C 27.32328 11.474062 26.204874 11.775237 25.610001 12.625L 19.5 21.28125C 19.031639 21.945076 18.26992 22.33992 17.4575 22.34L 14.375 22.34"></path></g></g></g><g id="g-root-exch_18f2z2ifb3itj-stroke" data-item-order="1000000000" transform="translate(579, 327)"><g id="exch_18f2z2ifb3itj-stroke" fill="none" stroke-linecap="round" stroke-linejoin="round" stroke-miterlimit="4" stroke="#e0cb15" stroke-width="2"><g><path d="M 28.75 30C 28.749802 29.142439 29.331436 28.394033 30.162502 28.182501C 30.435329 28.11359 30.626104 27.867645 30.625 27.58625L 30.625 25C 30.625 24.309643 30.065355 23.75 29.375 23.75L 11.875 23.75C 11.184644 23.75 10.625 24.309643 10.625 25L 10.625 27.58625C 10.623898 27.867645 10.814672 28.11359 11.0875 28.182501C 11.919247 28.393368 12.501719 29.141939 12.501719 30C 12.501719 30.858061 11.919247 31.606634 11.0875 31.817501C 10.814672 31.88641 10.623898 32.132355 10.625 32.41375L 10.625 35C 10.625 35.690353 11.184644 36.25 11.875 36.25L 29.375 36.25C 30.065355 36.25 30.625 35.690353 30.625 35L 30.625 32.41375C 30.626104 32.132355 30.435329 31.88641 30.162502 31.817501C 29.331436 31.605968 28.749802 30.857563 28.75 30ZM 33.125 26.25L 38.125 26.25C 38.815353 26.25 39.375 25.690357 39.375 25L 39.375 22.41375C 39.376102 22.132355 39.185329 21.886412 38.912502 21.817501C 38.080753 21.606632 37.49828 20.858061 37.49828 20C 37.49828 19.141939 38.080753 18.393368 38.912502 18.182501C 39.185329 18.113588 39.376102 17.867645 39.375 17.58625L 39.375 15C 39.375 14.309644 38.815353 13.75 38.125 13.75L 20.625 13.75C 19.934645 13.75 19.375 14.309644 19.375 15L 19.375 17.58625C 19.373898 17.867645 19.564671 18.113588 19.8375 18.182501C 20.472862 18.344114 20.977669 18.825842 21.168818 19.452951C 21.359966 20.080061 21.20969 20.761463 20.772499 21.25M 10.625 19.375C 10.625 16.613577 12.863576 14.375 15.625 14.375L 16.875 14.375M 14.375 11.875L 16.875 14.375L 14.375 16.875M 39.375 30.625C 39.375 33.386425 37.136425 35.625 34.375 35.625L 33.125 35.625M 35.625 38.125L 33.125 35.625L 35.625 33.125M 16.25 26.5625C 16.25 26.735088 16.110088 26.875 15.9375 26.875C 15.764912 26.875 15.625 26.735088 15.625 26.5625C 15.625 26.389912 15.764912 26.25 15.9375 26.25C 16.110088 26.25 16.25 26.389912 16.25 26.5625M 16.25 29.6875C 16.25 29.860088 16.110088 30 15.9375 30C 15.764912 30 15.625 29.860088 15.625 29.6875C 15.625 29.514912 15.764912 29.375 15.9375 29.375C 16.110088 29.375 16.25 29.514912 16.25 29.6875M 16.25 32.8125C 16.25 32.985088 16.110088 33.125 15.9375 33.125C 15.764912 33.125 15.625 32.985088 15.625 32.8125C 15.625 32.639912 15.764912 32.5 15.9375 32.5C 16.110088 32.5 16.25 32.639912 16.25 32.8125M 25 16.5625C 25 16.735088 24.860088 16.875 24.6875 16.875C 24.514912 16.875 24.375 16.735088 24.375 16.5625C 24.375 16.389912 24.514912 16.25 24.6875 16.25C 24.860088 16.25 25 16.389912 25 16.5625M 25 19.6875C 25 19.860088 24.860088 20 24.6875 20C 24.514912 20 24.375 19.860088 24.375 19.6875C 24.375 19.514912 24.514912 19.375 24.6875 19.375C 24.860088 19.375 25 19.514912 25 19.6875"></path></g></g></g><g id="g-root-4_1d0iqyyfawhs0-stroke" data-item-order="1000000000" transform="translate(579, 177)"><g id="4_1d0iqyyfawhs0-stroke" fill="none" stroke-linecap="round" stroke-linejoin="round" stroke-miterlimit="4" stroke="#ba5de5" stroke-width="2"><g><path d="M 10.9375 10.9375L 10.9375 39.0625L 39.0625 39.0625M 23.75 15.3125L 15 15.3125C 14.625 15.3125 14.375 15.0625 14.375 14.6875L 14.375 12.1875C 14.375 11.8125 14.625 11.5625 15 11.5625L 23.75 11.5625C 24.125 11.5625 24.375 11.8125 24.375 12.1875L 24.375 14.6875C 24.375 15.0625 24.125 15.3125 23.75 15.3125ZM 32.8125 21.875L 19.6875 21.875C 19.3125 21.875 19.0625 21.625 19.0625 21.25L 19.0625 18.75C 19.0625 18.375 19.3125 18.125 19.6875 18.125L 32.8125 18.125C 33.1875 18.125 33.4375 18.375 33.4375 18.75L 33.4375 21.25C 33.4375 21.625 33.1875 21.875 32.8125 21.875ZM 36.5625 28.4375L 25.9375 28.4375C 25.5625 28.4375 25.3125 28.1875 25.3125 27.8125L 25.3125 25.3125C 25.3125 24.9375 25.5625 24.6875 25.9375 24.6875L 36.5625 24.6875C 36.9375 24.6875 37.1875 24.9375 37.1875 25.3125L 37.1875 27.8125C 37.1875 28.1875 36.9375 28.4375 36.5625 28.4375ZM 26.25 35L 15.625 35C 15.25 35 15 34.75 15 34.375L 15 31.875C 15 31.5 15.25 31.25 15.625 31.25L 26.25 31.25C 26.625 31.25 26.875 31.5 26.875 31.875L 26.875 34.375C 26.875 34.75 26.625 35 26.25 35ZM 38.4375 35L 33.4375 35C 33.0625 35 32.8125 34.75 32.8125 34.375L 32.8125 31.875C 32.8125 31.5 33.0625 31.25 33.4375 31.25L 38.4375 31.25C 38.8125 31.25 39.0625 31.5 39.0625 31.875L 39.0625 34.375C 39.0625 34.75 38.8125 35 38.4375 35Z"></path></g></g></g><g id="g-root-tx_conflict_i0wljefb258u-stroke" data-item-order="1000000000" transform="translate(615, 330)"></g><g id="g-root-flas_1cvj4lmfaqvpc-stroke" data-item-order="1000000000" transform="translate(285, 177)"><g id="flas_1cvj4lmfaqvpc-stroke" fill="none" stroke-linecap="round" stroke-linejoin="round" stroke-miterlimit="4" stroke="#1eabda" stroke-width="2"><g><path d="M 31.5625 20.2925C 31.5625 22.190979 33.101524 23.73 35 23.73C 36.898479 23.73 38.4375 22.190979 38.4375 20.2925C 38.4375 18.394022 36.898479 16.855 35 16.855C 33.101524 16.855 31.5625 18.394022 31.5625 20.2925ZM 39.375 29.355C 39.375 26.938755 37.416245 24.980001 35 24.980001C 32.583755 24.980001 30.625 26.938755 30.625 29.355001L 30.625 33.105L 32.603752 33.105L 33.125 39.355L 36.875 39.355L 37.396248 33.105L 39.375 33.105ZM 11.5625 20.2925C 11.5625 22.190979 13.101521 23.73 15 23.73C 16.898479 23.73 18.4375 22.190979 18.4375 20.2925C 18.4375 18.394022 16.898479 16.855 15 16.855C 13.101521 16.855 11.5625 18.394022 11.5625 20.2925ZM 19.375 29.355C 19.375 26.938755 17.416246 24.980001 15 24.980001C 12.583755 24.980001 10.625 26.938755 10.625 29.355001L 10.625 33.105L 12.60375 33.105L 13.125 39.355L 16.875 39.355L 17.39625 33.105L 19.375 33.105ZM 21.25 19.356251L 23.125 19.356251L 23.125 24.356249L 29.225 16.637501C 29.383581 16.452099 29.419785 16.19137 29.317719 15.969775C 29.215649 15.748181 28.993971 15.606234 28.75 15.60625L 26.875 15.60625L 26.875 10.60625L 20.776251 18.32375C 20.617008 18.508934 20.580225 18.769911 20.682079 18.991896C 20.783936 19.213881 21.005764 19.356197 21.25 19.356251Z"></path></g></g></g><g id="g-root-tx_optimize_m7d5oqfaqwp3-stroke" data-item-order="1000000000" transform="translate(27, 180)"></g><g id="g-root-tx_datadriv_qofitmfb23ns-stroke" data-item-order="1000000000" transform="translate(543, 30)"></g><g id="g-root-buil_1cua6fefamnsy-stroke" data-item-order="1000000000" transform="translate(309, 477)"><g id="buil_1cua6fefamnsy-stroke" fill="none" stroke-linecap="round" stroke-linejoin="round" stroke-miterlimit="4" stroke="#de58a9" stroke-width="2"><g><path d="M 10.9375 37.8125L 39.0625 37.8125M 36.875 19.6875L 36.875 37.8125L 13.125 37.8125L 13.125 19.6875M 22.75 37.8125L 22.75 32.437374C 22.75 31.187374 23.749874 30.187376 24.999874 30.187376C 26.249874 30.187376 27.25 31.187374 27.25 32.437374L 27.25 37.8125M 39.0625 18.4375C 39.0625 19.1875 38.5625 19.6875 37.8125 19.6875L 12.1875 19.6875C 11.4375 19.6875 10.9375 19.1875 10.9375 18.4375L 10.9375 14.6875C 10.9375 13.9375 11.4375 13.4375 12.1875 13.4375L 37.8125 13.4375C 38.5625 13.4375 39.0625 13.9375 39.0625 14.6875L 39.0625 18.4375ZM 18.125074 32.437374C 17.987 32.437374 17.875063 32.3255 17.875063 32.187378C 17.875063 32.049374 17.987 31.937374 18.125074 31.937374M 18.124926 32.437374C 18.263 32.437374 18.374937 32.3255 18.374937 32.187378C 18.374937 32.049374 18.263 31.937374 18.124926 31.937374M 18.125074 25.562374C 17.987 25.562374 17.875063 25.4505 17.875063 25.312374C 17.875063 25.174374 17.987 25.062374 18.125074 25.062374M 18.124926 25.562374C 18.263 25.562374 18.374937 25.4505 18.374937 25.312374C 18.374937 25.174374 18.263 25.062374 18.124926 25.062374M 25.000126 25.562374C 24.862 25.562374 24.75 25.4505 24.75 25.312374C 24.75 25.174374 24.862 25.062374 25.000126 25.062374M 24.999874 25.562374C 25.138 25.562374 25.25 25.4505 25.25 25.312374C 25.25 25.174374 25.138 25.062374 24.999874 25.062374M 31.875124 25.562374C 31.737001 25.562374 31.625 25.4505 31.625 25.312374C 31.625 25.174374 31.737001 25.062374 31.875124 25.062374M 31.874876 25.562374C 32.013 25.562374 32.125 25.4505 32.125 25.312374C 32.125 25.174374 32.013 25.062374 31.874876 25.062374M 31.875124 32.437374C 31.737001 32.437374 31.625 32.3255 31.625 32.187378C 31.625 32.049374 31.737001 31.937374 31.875124 31.937374M 31.874876 32.437374C 32.013 32.437374 32.125 32.3255 32.125 32.187378C 32.125 32.049374 32.013 31.937374 31.874876 31.937374"></path></g></g></g><g id="g-root-tx_improved_i0wop6fb7oxt-stroke" data-item-order="1000000000" transform="translate(345, 480)"></g><g id="g-root-2_1lrsirufb251l-stroke" data-item-order="1000000000" transform="translate(507, 27)"><g id="2_1lrsirufb251l-stroke" fill="none" stroke-linecap="round" stroke-linejoin="round" stroke-miterlimit="4" stroke="#92bd39" stroke-width="2"><g><path d="M 39.053749 39.0625L 10.9375 39.0625L 10.9375 10.9375M 10 10M 10.9375 17.65625L 19.365524 23.4375L 30.322001 17.03125L 38.75 22.03125M 10.9375 35.429749L 21.25 29.169624L 24.375 31.488125L 35 34.270374L 38.75 28.242249M 10 10M 10.9375 24.53125L 19.960938 14.53125L 28.320374 27.65625L 38.75 14.53125"></path></g></g></g><g id="g-root-5_1hjgsuifas9ol-stroke" data-item-order="1000000000" transform="translate(357, 27)"><g id="5_1hjgsuifas9ol-stroke" fill="none" stroke-linecap="round" stroke-linejoin="round" stroke-miterlimit="4" stroke="#7f64ea" stroke-width="2"><g><path d="M 11.071428 22.857143L 11.071428 13.214286C 11.071428 12.030818 12.030818 11.071428 13.214286 11.071428L 36.785713 11.071428C 37.969181 11.071428 38.92857 12.030818 38.92857 13.214286L 38.92857 36.785713C 38.92857 37.969181 37.969181 38.92857 36.785713 38.92857L 27.142857 38.92857M 18.571428 38.92857L 11.071428 38.92857L 11.071428 31.42857M 11.071428 38.92857L 25 25"></path></g></g></g><g id="g-root-tx_reducedn_mfhbt6fasbgk-stroke" data-item-order="1000000000" transform="translate(171, 30)"></g></g></g></svg>