<svg fill="none" height="44" viewBox="0 0 117 44" width="117" xmlns="http://www.w3.org/2000/svg" xmlns:xlink="http://www.w3.org/1999/xlink"><linearGradient id="a" gradientUnits="userSpaceOnUse" x1="14.3547" x2="32.1664" y1="28.9476" y2="16.6563"><stop offset=".2" stop-color="#ff5800"/><stop offset=".2422" stop-color="#ff5800"/><stop offset=".3192" stop-color="#ffb414"/><stop offset=".3963" stop-color="#ffb414"/><stop offset=".4725" stop-color="#ffb414"/><stop offset=".5476" stop-color="#ffb414"/><stop offset=".62" stop-color="#ffb414"/><stop offset=".6597" stop-color="#ffb414"/><stop offset=".7244" stop-color="#ffb414"/><stop offset=".8061" stop-color="#ff5800"/><stop offset=".9" stop-color="#ff5800"/></linearGradient><linearGradient id="b" gradientUnits="userSpaceOnUse" x1="10.3746" x2="33.5957" y1="26.3957" y2="26.3957"><stop offset=".09" stop-color="#ff5800"/><stop offset=".1898" stop-color="#ff5800"/><stop offset=".3059" stop-color="#ffb414"/><stop offset=".4034" stop-color="#ffb414"/><stop offset=".47" stop-color="#ffb414"/><stop offset=".5314" stop-color="#ffb414"/><stop offset=".6235" stop-color="#ffb414"/><stop offset=".7342" stop-color="#ff5800"/><stop offset=".82" stop-color="#ff5800"/></linearGradient><linearGradient id="c" gradientUnits="userSpaceOnUse" x1="5.94847" x2="24.573" y1="27.3198" y2="40.0004"><stop offset=".5" stop-color="#ff5800"/><stop offset=".64" stop-color="#ce056a" stop-opacity=".99"/><stop offset=".7559" stop-color="#ce056a"/><stop offset=".8091" stop-color="#ce056a" stop-opacity=".9955"/><stop offset=".8494" stop-color="#ce056a" stop-opacity=".9968"/><stop offset=".8833" stop-color="#ce056a" stop-opacity=".9978"/><stop offset=".9131" stop-color="#ff5800" stop-opacity=".9988"/><stop offset=".9397" stop-color="#ff5800" stop-opacity=".9997"/><stop offset=".95" stop-color="#ff5800"/></linearGradient><linearGradient id="d" gradientUnits="userSpaceOnUse" x1="15.0882" x2="32.3785" y1="34.9422" y2="22.9589"><stop offset="0" stop-color="#ff5800"/><stop offset=".0624571" stop-color="#ff5800"/><stop offset=".1272" stop-color="#ff5800"/><stop offset=".1929" stop-color="#dc4600"/><stop offset=".259" stop-color="#c80000"/><stop offset=".3" stop-color="#c80000"/><stop offset=".48" stop-color="#c80000"/><stop offset=".91" stop-color="#ff5800"/></linearGradient><g clip-rule="evenodd" fill="#ff5800" fill-rule="evenodd"><path d="m45.4224 27.819c-.4093.1138-.8759.1701-1.3984.1701-1.3193 0-1.9785-.4765-1.9785-1.4296 0-.9982.7275-1.4977 2.183-1.4977.591 0 .9891.0342 1.1939.1023zm-1.8421-8.1691c-.5686 0-1.1204.051-1.6543.1531-.5347.1022-.9611.2442-1.2793.4255l.1705 1.5997c.4778-.136.904-.2323 1.2793-.2892.3751-.0563.7558-.0852 1.1427-.0852 1.4551 0 2.1831.5564 2.1831 1.6678v.3745c-.3411-.0681-.8188-.102-1.4325-.102-1.274 0-2.2802.284-3.0188.851-.7393.5674-1.1087 1.3503-1.1087 2.3483 0 2.0423 1.3987 3.0635 4.1956 3.0635 1.1368 0 2.3195-.1702 3.5474-.5107v-5.8544c0-2.4276-1.342-3.6419-4.025-3.6419z"/><path d="m48.5947 19.8882h2.4218l2.3538 7.3521 2.3876-7.3521h2.3196l-3.6158 9.5304h-2.2515z"/><path d="m64.1487 27.819c-.4093.1138-.8756.1701-1.3984.1701-1.319 0-1.9785-.4765-1.9785-1.4296 0-.9982.7275-1.4977 2.1832-1.4977.5909 0 .989.0342 1.1937.1023zm-1.8409-8.1691c-.5686 0-1.1203.051-1.6543.1531-.5344.1022-.961.2442-1.2793.4255l.1708 1.5997c.4775-.136.9037-.2323 1.279-.2892.3753-.0563.7559-.0852 1.1428-.0852 1.4551 0 2.183.5564 2.183 1.6678v.3745c-.341-.0681-.8186-.102-1.4324-.102-1.274 0-2.2803.284-3.019.851-.7392.5674-1.1086 1.3503-1.1086 2.3483 0 2.0423 1.3987 3.0635 4.1956 3.0635 1.1368 0 2.3198-.1702 3.5475-.5107v-5.8544c0-2.4276-1.3421-3.6419-4.0251-3.6419z"/><path d="m74.777 23.8028c0-.862-.1653-1.4579-.4947-1.787-.3299-.3285-.9156-.4934-1.7566-.4934-.2048 0-.4493.0227-.7335.0679-.2846.0459-.5515.1022-.8017.1701v7.6585h-2.2171v-9.0539c.568-.2265 1.2163-.4025 1.9443-.5276.7275-.1244 1.4327-.187 2.115-.187 2.7741 0 4.1613 1.248 4.1613 3.7439v6.0246h-2.217z"/><path d="m84.2928 27.819c-.4093.1138-.8757.1701-1.3985.1701-1.3192 0-1.9782-.4765-1.9782-1.4296 0-.9982.7273-1.4977 2.183-1.4977.5908 0 .9889.0342 1.1937.1023zm-1.8404-8.1691c-.5687 0-1.1204.051-1.6544.1531-.5344.1022-.961.2442-1.2792.4255l.1707 1.5997c.4776-.136.9038-.2323 1.2791-.2892.3752-.0563.7558-.0852 1.1427-.0852 1.4551 0 2.1831.5564 2.1831 1.6678v.3745c-.3411-.0681-.8187-.102-1.4325-.102-1.274 0-2.28.284-3.0188.851-.7394.5674-1.1087 1.3503-1.1087 2.3483 0 2.0423 1.3986 3.0635 4.1955 3.0635 1.1371 0 2.3198-.1702 3.5475-.5107v-5.8544c0-2.4276-1.342-3.6419-4.025-3.6419z"/><path d="m94.7312 27.6828c-.2506.0909-.7051.1362-1.3644.1362-1.8878 0-2.8311-1.0324-2.8311-3.0975 0-1.0435.2441-1.8492.7332-2.4166.4888-.567 1.177-.851 2.0637-.851.546 0 1.0117.0797 1.3986.2383zm.0009-11.4704v3.6419c-.4093-.136-.9439-.2041-1.6032-.2041-1.4557 0-2.6382.471-3.5477 1.4125-.9097.9417-1.3644 2.1731-1.3644 3.6931 0 1.5884.4437 2.8027 1.3304 3.6419.8869.8396 2.183 1.2592 3.8885 1.2592 1.0688 0 2.2399-.1701 3.5135-.5104v-12.9341z"/><path d="m101.008 23.6663c.069-.726.29-1.2934.665-1.7018.376-.4084.858-.6128 1.45-.6128.591 0 1.069.2044 1.433.6128.363.4084.545.9758.545 1.7018zm6.242.4765c0-1.3838-.364-2.479-1.091-3.2847-.728-.805-1.718-1.2082-2.968-1.2082-1.364 0-2.451.4542-3.2575 1.3615-.8075.9077-1.2108 2.1444-1.2108 3.71 0 1.5658.4317 2.7799 1.2963 3.6421.864.8626 2.092 1.2934 3.684 1.2934 1.045 0 2.035-.182 2.967-.5447l-.239-1.6678c-.796.2722-1.649.4084-2.558.4084-1.865 0-2.82-.8392-2.865-2.5187h6.242z"/></g><path d="m16.2811 15.8119c-.7539 1.4439-1.3402 2.6158-1.8218 3.4737-.4606.858-.9003 1.5695-1.2773 2.1136-.3978.5441-.7956.9835-1.2354 1.3184-.4397.3348-.9841.7115-1.6542 1.13l-.37687-.565c.41877-.3139.79567-.6278 1.13067-.9208.3351-.293.691-.7324 1.0889-1.2765.3978-.5441.8376-1.2556 1.3401-2.1763.5025-.8999 1.1307-2.1345 1.8845-3.6622.5444-1.1091 1.047-2.0298 1.5286-2.7413s.9423-1.2765 1.4029-1.6741c.4397-.4185.8795-.6906 1.2982-.858.4188-.16741.8376-.23019 1.2773-.20926.4188.02092.8167.12556 1.2355.31386.3978.1884.8585.565 1.3191 1.1091.4816.5441 1.026 1.3393 1.6123 2.3647s1.2983 2.3856 2.1149 4.0597c.5235 1.0882 1.026 1.988 1.4867 2.7205.4607.7324.9423 1.3183 1.4448 1.7996s1.026.858 1.6123 1.151c.5863.2929 1.2354.5441 1.9892.7742l.4607.7952c-.9004-.1046-1.717-.272-2.4289-.5231-.712-.2511-1.3611-.6487-1.9683-1.1719-.6073-.5231-1.1936-1.1928-1.7589-2.0089-.5654-.8161-1.1517-1.8625-1.7589-3.0971-.7538-1.5067-1.382-2.7204-1.9055-3.6621s-.9841-1.6741-1.382-2.1973c-.3978-.5232-.7747-.8789-1.0888-1.0672-.3141-.1884-.6491-.293-.9632-.293-.356-.0209-.691.0628-1.026.2092-.3351.1465-.6701.4186-1.047.8162-.356.3976-.7538.8998-1.1517 1.5485-.4606.6278-.9003 1.4439-1.3819 2.4066z" fill="url(#a)"/><path d="m27.3581 25.3331c1.1098.0419 2.1986-.0209 3.2665-.1674s2.0311-.3767 2.8478-.6696l.1047.5859c-1.4867.9417-3.5806 1.3812-6.2609 1.2765-1.2144-.0418-2.2614-.1883-3.1408-.4185-.8795-.2302-1.6542-.5232-2.3452-.858-.5026-.2302-1.0051-.4813-1.4658-.7324-.4606-.2511-.9422-.4813-1.4239-.7115-.4816-.2302-.9841-.3976-1.4866-.5441-.5026-.1465-1.047-.2302-1.6124-.2511-.8375-.0209-1.696.0418-2.5545.1883s-1.7171.3976-2.5546.7115l-.3769-.4394.691-.3348c.67-.3976 1.4238-.6906 2.3033-.8999.8585-.2092 1.717-.293 2.5336-.272.6491.0209 1.2564.1046 1.8008.2511s1.0679.3348 1.5495.565.9841.4604 1.4657.7324c.4816.2721 1.0051.5232 1.5286.7534.691.3139 1.4029.565 2.1777.7952.8166.272 1.8008.3976 2.9524.4394z" fill="url(#b)"/><path d="m28.9493 17.3601c-.3979-.0209-.7538.0837-1.1098.2721-.356.1883-.7538.565-1.2354 1.0882-.4607.5231-1.0051 1.2555-1.6333 2.1763-.6281.9208-1.382 2.1136-2.3033 3.5993-1.2354 2.009-2.3871 3.4529-3.455 4.3318s-2.1776 1.3184-3.3502 1.2765c-1.2354-.0419-2.408-.6696-3.4759-1.8415-1.0889-1.1928-1.9055-2.846-2.47087-4.9386l1.02597.2092c.5654 1.6741 1.2983 3.0134 2.1777 3.997.8795 1.0044 1.8008 1.5067 2.7849 1.5485.9004.0419 1.8218-.3557 2.764-1.1509.9213-.7952 1.9474-2.0927 3.0781-3.9133 1.0051-1.6113 1.8636-2.9297 2.5546-3.9341.691-1.0045 1.2982-1.7997 1.8007-2.3438.5235-.565 1.0051-.9417 1.4449-1.13.4397-.1883.9213-.272 1.4448-.2511 1.1726.0418 2.2195.7324 3.1199 2.0926s1.717 3.4319 2.429 6.2151l-1.1308-.4603c-.691-2.3019-1.4029-4.0179-2.1358-5.1061-.7328-1.1509-1.5076-1.7159-2.3242-1.7369z" fill="url(#c)"/><path d="m24.9714 33.0762c.5444.0209 1.0888-.1674 1.6123-.5441.5444-.3767 1.2145-1.1091 2.0311-2.1973.6282-.8161 1.1517-1.5067 1.5705-2.0508.4188-.544.7957-1.0253 1.1516-1.4229.356-.4186.7329-.8162 1.1098-1.1928.3769-.3767.8585-.8371 1.4239-1.3812l.6491.3558c-.5235.5859-.9632 1.0881-1.2982 1.5067-.356.4185-.691.837-1.047 1.2765-.335.4394-.7119.9207-1.1307 1.4648s-.9423 1.2347-1.5705 2.0717c-.8585 1.1719-1.6332 1.988-2.3242 2.4903-.6701.4813-1.4239.7115-2.2196.6905-.4397-.0209-.8375-.0837-1.1726-.2302-.3559-.1255-.7538-.3766-1.2354-.7533-.4606-.3767-1.0051-.8998-1.6332-1.5904-.6282-.6906-1.4239-1.5695-2.3871-2.6786-.7329-.837-1.382-1.5276-1.9683-2.0926s-1.1726-1.0254-1.7589-1.3602c-.5863-.3558-1.1935-.6278-1.8426-.8162-.6492-.1883-1.403-.3348-2.2615-.4394l.2513-.7743c.8794.0837 1.6751.1883 2.3661.3348s1.3401.3976 1.9683.7534c.6072.3557 1.2354.8161 1.8636 1.3811.6282.586 1.3401 1.3184 2.1149 2.2182.9632 1.1091 1.7379 1.9671 2.3452 2.6367.6072.6487 1.1097 1.151 1.5076 1.5067.3978.3558.7329.586 1.026.6906.2722.0837.5654.1465.8585.1465z" fill="url(#d)"/></svg>