<svg enable-background="new 0 0 576 66.3" viewBox="0 0 576 66.3" xmlns="http://www.w3.org/2000/svg"><g fill="#003b71"><path d="m118.3 16.4c-.6-.4-1.2-.8-1.7-1s-1-.4-1.3-.6c-.4-.2-.8.1-.7.5.5 10-2.8 16.2-9.1 21.5-5.2 4.4-12.3 8.2-24.1 10.2h-.1c-1.5.2-3 .4-4.6.6-4.9.5-9.7.2-13.5-.6-11.3-2.4-18.4-9.3-12.3-14.8.5-.5-.1-1.2-.7-.8-7.7 5.6-4.2 9.9-.5 13.3 1 .9 3.5 2.4 3.5 2.4 11.6 6.2 34.8 5.4 52.2.3.4-.1.8-.2 1.1-.3 18.4-5.9 31-17.1 11.8-30.7z"/><path d="m59.6 1.8c17.3 4.9 26 9.5 31.7 15 5.3 5.1 8.1 10.7 3.6 17.8-5.6 8.7-30.4 11.8-39.5 3.5-.5-.5-1.2.2-.7.7 5.4 6.1 13.6 6.6 20.9 6.6 39.4-.1 50.8-48.9-11.8-45.3-2 .1-3.2.4-4.1.6-.7.1-.7.9-.1 1.1z"/><path d="m8.8 19.6c16.7-5.3 28.9-6.9 41-6.7 11.2.1 22.5 1.7 32.4 7.5 11 6.4 5.3 19-13.8 18.9-.7 0-.7 1 0 1 12.6.7 17.6-2.7 21.3-6.1 10.1-9.1-4.8-21.2-23.5-26.9-19.1-5.9-44-5.9-56.9 9.4-.4.5-.7 1-.9 1.3-.2.4-.2.7-.3.9-.2.5.2.8.7.7z"/><path d="m22.4 29.5c5.9-4.9 14.1-9.2 28.8-10.8 18.8-2 34 8.1 25.8 15.4-.5.5.1 1.2.7.8 7.7-5.6 4.2-9.9.5-13.3-9.7-8.6-36.4-8.2-55.7-2.6-17.7 5.2-30.5 15.5-16.6 28 1.1 1 2.3 1.9 3.7 2.9.6.4 1.2.8 1.7 1.1.5.2.9.5 1.3.6.5.1.8-.1.8-.6-.1-1.4-.1-2.7 0-4 .4-7.8 3.6-13 9-17.5z"/><path d="m119.1 46.7c-.2.1-.5.1-.7.2h-.1c-16.3 5.2-28.3 6.7-40.2 6.5-10.5-.1-21.1-1.5-30.5-6.4-.6-.3-1.3-.7-1.9-1.1-11-6.4-5.3-19 13.8-18.9.7 0 .7-1 0-1-12.6-.6-17.6 2.8-21.4 6.1-5.1 4.6-3.8 10 1.1 14.9 4.8 4.8 13.2 9.2 22.4 12 19.1 5.9 44 5.9 56.9-9.4.4-.5.7-1 .9-1.3.2-.4.2-.7.3-.9s.1-.3 0-.4c0-.3-.3-.4-.6-.3z"/><path d="m68.3 64.5c-17.3-4.9-26-9.5-31.7-15-.9-.9-1.7-1.7-2.4-2.6-3.6-4.4-4.9-9.3-1.1-15.2 5.6-8.7 30.4-11.8 39.5-3.5.5.5 1.2-.2.7-.7-5.4-6.1-13.6-6.6-20.9-6.6-20.9 0-33.9 13.8-32.2 26.1 1.5 11 14.6 20.8 44 19.1 2-.1 3.2-.4 4.1-.6.5-.1.6-.8 0-1z"/><path d="m174.7 38.4c-2 4.7-5.8 7.1-11 7.1-7.3 0-10.3-4.1-8.7-11.7s6.4-11.8 13.7-11.8c5.7 0 8.4 2.9 7.8 8.3h19.3c2-12.5-6.5-19.5-24.8-19.5-19.5 0-31 7.9-34.3 23-3.2 15.1 5 23 24.5 23 17.4 0 28.6-6.3 32.9-18.3h-19.4z"/><path d="m486.8 10.8c-19.5 0-31 7.9-34.3 23-3.2 15.1 5 23 24.5 23s31-7.9 34.3-23c3.2-15.2-5-23-24.5-23zm5.7 22.9c-1.6 7.6-6.4 11.7-13.7 11.7s-10.3-4.1-8.7-11.7 6.4-11.8 13.7-11.8 10.3 4.2 8.7 11.8z"/><path d="m554.5 11.9-5.4 25.2-11.5-25.2h-20l-9.3 43.7h16l5.4-25.6 12.9 25.6h19l9.2-43.7z"/><path d="m455.3 23.6c.9-4.2-.1-7.6-3-9.5-2.4-1.7-7.1-2.2-14-2.2h-33.2l-9.3 43.6h17.2l2.8-13.3h10.1c4.2 0 5.5 1.1 5.2 4.4-.4 3.7-1.6 6.8-.8 8.9h18.8l.1-.7c-1.8-1-1.1-4.6 0-10.9.8-5 .8-7.4-3.5-9.3 5-1.6 8.5-5.8 9.6-11zm-19.3 3.2c-.7 3.1-3.2 4-7.9 4h-9.9l1.7-7.8h9.4c5 0 7.4.5 6.7 3.8z"/><path d="m403.6 11.9h-48.6l-1.3 6.2c-2.6-5.1-10.5-7.4-23.6-7.4-17 0-26 4.1-28.1 14-1.6 7.3 2.8 11.7 13 13l12.3 1.6c3.9.5 5.7 1.6 5.3 3.4-.4 2.1-3 3.1-7.5 3.1-4.7 0-7-1.4-6.8-3.7h-20.5c-.1.7-.2 1.4-.2 2.1h-30.3l1.2-5.7h23.8l2.3-10.8h-23.8l1.1-5.2h29.3l2.3-10.7h-46.2l-9.3 43.6h47.7l2-9.5c.8 6.9 8.3 10.8 22.5 10.8 20.1 0 30.7-4.6 33-15.5 1.5-7.2-2.4-11.4-11.7-12.8l-15-2.2c-4.2-.6-6.2-1.1-5.8-3.1.4-1.7 2.7-2.9 6.7-2.9 5.3 0 7.8 1.5 7.6 4.2h19.6c.1-.6.1-1.1.1-1.6h13.7l-6.9 32.6h16.9l6.9-32.6h15.8z"/><path d="m252.2 23.6c.9-4.2-.1-7.6-3-9.5-2.4-1.7-7.1-2.2-14-2.2h-33.2l-9.3 43.6h17.2l2.8-13.3h10.1c4.2 0 5.5 1.1 5.2 4.4-.4 3.7-1.6 6.8-.8 8.9h18.8l.1-.7c-1.8-1-1.1-4.6 0-10.9.8-5 .8-7.4-3.5-9.3 4.9-1.6 8.5-5.8 9.6-11zm-19.4 3.2c-.7 3.1-3.2 4-7.9 4h-9.9l1.7-7.8h9.4c5.1 0 7.4.5 6.7 3.8z"/><path d="m573.2 49.1c0-1.2-.7-1.7-2.1-1.7h-2.3v6h.9v-2.6h1l1.6 2.6h1l-1.7-2.6c.9-.1 1.6-.6 1.6-1.7zm-3.5.9v-1.8h1.2c.6 0 1.3.1 1.3.9 0 .9-.7 1-1.4 1h-1.1z"/><path d="m570.8 45.3c-2.8 0-5.2 2.2-5.2 5.1 0 3 2.4 5.2 5.2 5.2s5.2-2.2 5.2-5.2-2.4-5.1-5.2-5.1zm0 9.4c-2.4 0-4.2-1.8-4.2-4.3 0-2.4 1.8-4.3 4.2-4.3 2.3 0 4.2 1.8 4.2 4.3s-1.9 4.3-4.2 4.3z"/></g></svg>