<svg height="263" viewBox="0 0 1019 263" width="1019" xmlns="http://www.w3.org/2000/svg"><path d="m-149-149.809814h1306v565.619598h-1306z" fill="#fff"/><g fill="#17384c"><path d="m386.307922 89.951569c0-15.20517-7.437988-22.80777-22.346984-22.80777h-8.853241v46.109222h7.141845c16.027985 0 24.05838-7.767151 24.05838-23.301452zm17.311524-.394959c0 11.683655-3.686096 20.602692-11.058289 26.7901-7.339294 6.220307-17.969726 9.313996-31.858459 9.313996h-22.248291v-70.825867h24.650818c12.835571 0 22.774902 3.060791 29.850891 9.149444 7.108886 6.121552 10.66333 14.645661 10.66333 25.572327z"/><path d="m424.584167 54.834839h16.653321v70.825867h-16.653321z"/><path d="m513.41272 105.979523c0 6.417785-2.53418 11.453277-7.635498 15.139373-5.101319 3.653199-12.210205 5.496247-21.293824 5.496247-8.392456 0-15.797607-1.415192-22.248291-4.245606v-13.954528c5.298768 2.139251 9.774781 3.620269 13.460877 4.50888 3.653198.855713 7.010193 1.316467 10.070984 1.316467 3.653198 0 6.450683-.658233 8.392456-1.908874 1.941772-1.250641 2.929138-3.126617 2.929138-5.627899 0-1.382263-.427856-2.600006-1.283569-3.686096-.855713-1.086091-2.139222-2.139252-3.784851-3.126618-1.678467-.987335-5.06836-2.600006-10.169678-4.805084-4.805115-2.040527-8.425354-3.9823-10.795044-5.858276-2.402527-1.875977-4.344299-4.048127-5.759522-6.549408-1.44812-2.468384-2.139282-5.364594-2.139282-8.721589 0-6.253234 2.336731-11.189971 7.043152-14.744415 4.70636-3.587372 11.222839-5.397522 19.516602-5.397522 4.080993 0 7.997497.427857 11.683593 1.316467 3.719056.855713 7.6026 2.106354 11.650757 3.686097l-5.397522 11.650726c-4.179809-1.546844-7.635498-2.632935-10.367187-3.225342-2.731629-.625305-5.43042-.921509-8.096253-.921509-3.159546 0-5.562072.658234-7.240539 1.974701-1.678528 1.316437-2.534241 3.060761-2.534241 5.200013 0 1.316467.329163 2.468383 1.020264 3.455749.691162.987335 1.777221 1.941773 3.2583 2.863312 1.481019.921509 5.002564 2.567108 10.564637 4.969635 7.339294 3.159515 12.341858 6.319061 15.073486 9.511474 2.731689 3.192444 4.081055 7.07602 4.081055 11.683625z"/><path d="m549.681396 86.265472h5.364563c5.26587 0 9.149415-.789886 11.650757-2.369659 2.53418-1.579742 3.78479-4.048126 3.78479-7.470947 0-3.356964-1.283508-5.726624-3.850647-7.141815-2.567077-1.448121-6.516479-2.139252-11.881103-2.139252h-5.06836zm0 12.210205v27.185029h-16.65332v-70.825867h22.873596c10.696289 0 18.562195 1.744324 23.696411 5.265869 5.134217 3.488617 7.668396 8.820313 7.668396 15.962128 0 4.146881-1.250671 7.865905-3.784851 11.124145-2.567077 3.225342-6.15448 5.759552-10.795044 7.6026 11.815308 15.92923 19.483704 26.230591 23.071106 30.871125h-18.46344l-18.759643-27.185029z"/><path d="m673.692444 54.834839v45.813019c0 5.23294-1.316467 9.840576-3.916504 13.757049-2.599976 3.949402-6.319031 6.977295-11.222839 9.083618-4.936768 2.073456-10.729187 3.126618-17.410279 3.126618-10.103882 0-17.936828-2.336731-23.531799-6.977265-5.594971-4.673461-8.392456-11.058319-8.392456-19.154571v-45.648468h16.620361v43.344635c0 5.463348 1.217713 9.478546 3.653198 12.012756 2.435425 2.567108 6.450684 3.850647 12.078553 3.850647 5.43042 0 9.379821-1.283539 11.848205-3.850647 2.435486-2.567108 3.653199-6.615234 3.653199-12.11148v-43.245911z"/><path d="m712.429443 88.174347h5.463379c5.134217 0 8.951966-.921539 11.486145-2.73169 2.567078-1.843048 3.817749-4.50888 3.817749-7.997528 0-3.521545-1.053161-6.121551-3.192444-7.800048-2.139221-1.678498-5.463317-2.501282-10.005126-2.501282h-7.569703zm37.585144-11.255798c0 7.635498-2.632934 13.460876-7.931701 17.509002-5.265869 4.015229-12.769776 6.055756-22.511597 6.055756h-7.141846v25.177399h-16.653259v-70.825867h25.078674c9.511475 0 16.752015 1.843048 21.72168 5.562073 4.969666 3.686096 7.438049 9.182342 7.438049 16.521637z"/><path d="m797.999756 125.660706h-16.65332v-58.319428h-21.326722v-12.506439h59.273865v12.506439h-21.293823z"/><path d="m835.519043 54.834839h16.653259v70.825867h-16.653259z"/><path d="m924.643799 54.834839h16.817871l-26.691406 70.825867h-18.167237l-26.625488-70.825867h16.784912l14.777344 42.15982c.822754 2.468384 1.678467 5.364594 2.567139 8.68866.855712 3.291168 1.415161 5.595001 1.61267 6.911469.394898-2.994965 1.744263-8.195008 4.048096-15.600129z"/><path d="m1000.669678 125.660706h-45.220581v-70.825867h45.220581v12.30896h-28.567261v15.534302h26.592529v12.30896h-26.592529v18.26596h28.567261z"/><path d="m378.178772 162.521744v10.268432h-3.653198l-.296204-6.878524h-13.855804v41.89653l5.595001.427841v2.929138h-15.303925v-2.929138l5.594971-.427841v-41.89653h-13.855804l-.263306 6.878524h-3.686096v-10.268432zm46.866211 25.111587h-20.471069v20.174851h23.597656l.296203-7.273484h3.620301v10.630463h-37.190186v-2.929138l5.594971-.427841v-41.89653l-5.594971-.427857v-2.962051h5.594971 31.463562v10.663376h-3.653198l-.296204-7.273468h-23.433105v18.298874h20.471069zm65.856201-9.906402h-3.159546l-.592407-7.372208c-1.349365-1.513931-3.060791-2.797485-5.200012-3.719025-2.106385-.954437-4.574768-1.415191-7.372254-1.415191-5.562072 0-10.005127 1.974701-13.296264 5.924087-3.291199 3.949402-4.936768 9.050705-4.936768 15.336838v.691147c0 6.253204 1.612671 11.354507 4.903809 15.336822 3.225341 3.982315 7.503906 5.989914 12.835571 5.989914 2.797485 0 5.364624-.493667 7.668396-1.448105 2.270935-.954437 4.081055-2.172164 5.397522-3.686111l.592407-7.405121h3.159546v8.557038c-1.546875 2.106338-3.817749 3.850662-6.779846 5.232955-2.994934 1.415192-6.351929 2.106339-10.038025 2.106339-6.384888 0-11.617798-2.303818-15.698853-6.944351-4.081054-4.607636-6.121582-10.531738-6.121582-17.73938v-.625321c0-7.24057 2.040528-13.164657 6.088685-17.805206 4.048095-4.607635 9.379821-6.944351 15.929199-6.944351 3.686096 0 7.010193.724045 9.939331 2.139252 2.929138 1.415191 5.134216 3.159515 6.681091 5.232956zm18.693787-12.243134v-2.962051h15.270996v2.962051l-5.594971.427857v19.450775h28.369873v-19.450775l-5.562073-.427857v-2.962051h5.562073 4.080994 5.595032v2.962051l-5.595032.427857v41.89653l5.595032.427841v2.929138h-15.238099v-2.929138l5.562073-.427841v-19.022934h-28.369873v19.022934l5.594971.427841v2.929138h-15.270996v-2.929138l5.59497-.427841v-41.89653zm112.821167-2.962051v2.962051l-5.562073.427857v45.253509h-4.081055l-28.369873-41.830704-.197449.032914v38.440811l5.594971.427841v2.929138h-15.303894v-2.929138l5.562073-.427841v-41.89653l-5.562073-.427857v-2.962051h5.562073 4.14685l28.336915 41.764877.230407-.032898v-38.342071l-5.59497-.427857v-2.962051h9.676025zm60.985229 24.650833c0 7.306381-1.97467 13.263382-5.989868 17.838104-3.982361 4.574722-9.182373 6.845627-15.600159 6.845627-6.31903 0-11.420349-2.270905-15.369751-6.87854-3.949401-4.60762-5.891174-10.531723-5.891174-17.805191v-.625321c0-7.306396 1.941773-13.263397 5.891174-17.838119 3.916504-4.607636 9.050721-6.911438 15.369751-6.911438 6.384888 0 11.5849 2.303802 15.600159 6.911438 3.9823 4.574722 5.989868 10.531723 5.989868 17.838119zm-4.080993-.691147c0-6.319046-1.579773-11.420349-4.739319-15.303925-3.159485-3.916473-7.437989-5.858261-12.769715-5.858261-5.298767 0-9.478515 1.941788-12.539306 5.858261-3.093689 3.883576-4.640564 8.984879-4.640564 15.303925v.691147c0 6.351944 1.546875 11.453247 4.640564 15.369736 3.093689 3.883575 7.273437 5.858276 12.539306 5.858276 5.43042 0 9.708924-1.941788 12.835572-5.858276 3.126587-3.850663 4.673462-8.984879 4.673462-15.369736zm22.511535 24.683731v-2.929138l5.594971-.427841v-41.89653l-5.594971-.427857v-2.962051h5.594971 4.113953 5.59497v2.962051l-5.59497.427857v41.89653h20.767272l.296204-6.845627h3.6203v10.202606zm94.423523-23.992584c0 7.306381-1.97467 13.263382-5.989929 17.838104-3.9823 4.574722-9.182312 6.845627-15.600098 6.845627-6.286133 0-11.420349-2.270905-15.369751-6.87854-3.916504-4.60762-5.891174-10.531723-5.891174-17.805191v-.625321c0-7.306396 1.97467-13.263397 5.891174-17.838119 3.916504-4.607636 9.050721-6.911438 15.369751-6.911438 6.384827 0 11.5849 2.303802 15.600098 6.911438 3.9823 4.574722 5.989929 10.531723 5.989929 17.838119zm-4.081055-.691147c0-6.319046-1.579773-11.420349-4.739257-15.303925-3.159546-3.916473-7.43805-5.858261-12.769715-5.858261-5.298767 0-9.478576 1.941788-12.539367 5.858261-3.093689 3.883576-4.640503 8.984879-4.640503 15.303925v.691147c0 6.351944 1.546814 11.453247 4.640503 15.369736 3.093689 3.883575 7.273498 5.858276 12.539367 5.858276 5.43042 0 9.708924-1.941788 12.835511-5.858276 3.126647-3.850663 4.673461-8.984879 4.673461-15.369736zm62.565064 19.352051c-1.184815 1.415191-3.225342 2.764572-6.187378 4.081039-2.962097 1.283554-6.648193 1.941788-11.091248 1.941788-6.483581 0-11.74945-2.270905-15.830505-6.845627-4.081055-4.541809-6.088684-10.49881-6.088684-17.838104v-1.020264c0-7.24057 2.007629-13.098831 6.088684-17.574829 4.081055-4.508896 9.41272-6.779785 16.027954-6.779785 3.719055 0 7.043091.62532 9.906433 1.843048 2.896241 1.217728 5.232971 2.863312 7.043091 4.96965v8.458298h-3.192444l-.72406-7.108917c-1.349365-1.448105-3.093689-2.600022-5.23291-3.488632-2.139282-.822785-4.640564-1.250641-7.503906-1.250641-5.693665 0-10.13678 1.941787-13.39502 5.79245-3.291137 3.883575-4.936767 8.886139-4.936767 15.040619v1.119003c0 6.319031 1.612671 11.453247 4.838012 15.402649 3.192444 3.949402 7.536805 5.924087 13.000122 5.924087 3.25824 0 6.022828-.427841 8.359559-1.250641 2.303833-.822784 3.916503-1.678482 4.838012-2.632934v-11.782364l-9.57727-.164551v-3.258255h13.658325zm21.524231-40.349686v-2.962051h15.270996v2.962051l-5.594971.427857v41.89653l5.594971.427841v2.929138h-15.270996v-2.929138l5.594971-.427841v-41.89653zm63.091553 22.149536h-20.438111v20.174851h23.56482l.329101-7.273484h3.620239v10.630463h-37.190185v-2.929138l5.594971-.427841v-41.89653l-5.594971-.427857v-2.962051h5.594971 31.430664v10.663376h-3.653199l-.296142-7.273468h-23.400269v18.298874h20.438111zm61.380249-10.696289h-3.356934l-.55957-6.878525c-1.250611-1.513931-2.929077-2.698761-5.035401-3.587371-2.139282-.822785-4.640625-1.250641-7.503906-1.250641-4.113892 0-7.306396.855697-9.610229 2.600021-2.303833 1.744309-3.455689 3.916489-3.455689 6.483597 0 2.468368 1.053223 4.508896 3.126587 6.121567 2.073486 1.645584 5.62793 3.093689 10.729248 4.34433 5.397461 1.34938 9.478516 3.126602 12.276001 5.397506 2.797485 2.270905 4.17981 5.298783 4.17981 9.017792 0 3.850662-1.612671 6.944366-4.870972 9.248184-3.225342 2.303803-7.405029 3.422806-12.440552 3.422806-3.554443 0-6.87854-.592407-9.906372-1.843048-3.060791-1.217743-5.562134-2.962052-7.503906-5.232956v-8.524124h3.356933l.592408 7.14183c1.514038 1.678498 3.422851 2.929138 5.79248 3.784836 2.336792.888626 4.903809 1.316467 7.668457 1.316467 3.916504 0 7.108887-.855697 9.577271-2.534195 2.402588-1.711395 3.620239-3.949386 3.620239-6.713974 0-2.665847-1.020264-4.838012-3.027832-6.51651-2.073486-1.678482-5.594971-3.159515-10.630493-4.443069-5.496216-1.349381-9.610108-3.093689-12.440552-5.232956-2.797485-2.139252-4.212646-5.035477-4.212646-8.655762 0-3.719009 1.61267-6.746887 4.838012-9.083603 3.192383-2.336731 7.306275-3.521545 12.341797-3.521545 3.653198 0 6.87854.62532 9.741821 1.843048 2.830445 1.217728 5.068482 2.896225 6.71399 4.96965z"/><path d="m378.178772 162.521744v10.268432h-3.653198l-.296204-6.878524h-13.855804v41.89653l5.595001.427841v2.929138h-15.303925v-2.929138l5.594971-.427841v-41.89653h-13.855804l-.263306 6.878524h-3.686096v-10.268432zm46.866211 25.111587h-20.471069v20.174851h23.597656l.296203-7.273484h3.620301v10.630463h-37.190186v-2.929138l5.594971-.427841v-41.89653l-5.594971-.427857v-2.962051h5.594971 31.463562v10.663376h-3.653198l-.296204-7.273468h-23.433105v18.298874h20.471069zm65.856201-9.906402h-3.159546l-.592407-7.372208c-1.349365-1.513931-3.060791-2.797485-5.200012-3.719025-2.106385-.954437-4.574768-1.415191-7.372254-1.415191-5.562072 0-10.005127 1.974701-13.296264 5.924087-3.291199 3.949402-4.936768 9.050705-4.936768 15.336838v.691147c0 6.253204 1.612671 11.354507 4.903809 15.336822 3.225341 3.982315 7.503906 5.989914 12.835571 5.989914 2.797485 0 5.364624-.493667 7.668396-1.448105 2.270935-.954437 4.081055-2.172164 5.397522-3.686111l.592407-7.405121h3.159546v8.557038c-1.546875 2.106338-3.817749 3.850662-6.779846 5.232955-2.994934 1.415192-6.351929 2.106339-10.038025 2.106339-6.384888 0-11.617798-2.303818-15.698853-6.944351-4.081054-4.607636-6.121582-10.531738-6.121582-17.73938v-.625321c0-7.24057 2.040528-13.164657 6.088685-17.805206 4.048095-4.607635 9.379821-6.944351 15.929199-6.944351 3.686096 0 7.010193.724045 9.939331 2.139252 2.929138 1.415191 5.134216 3.159515 6.681091 5.232956zm18.693787-12.243134v-2.962051h15.270996v2.962051l-5.594971.427857v19.450775h28.369873v-19.450775l-5.562073-.427857v-2.962051h5.562073 4.080994 5.595032v2.962051l-5.595032.427857v41.89653l5.595032.427841v2.929138h-15.238099v-2.929138l5.562073-.427841v-19.022934h-28.369873v19.022934l5.594971.427841v2.929138h-15.270996v-2.929138l5.59497-.427841v-41.89653zm112.821167-2.962051v2.962051l-5.562073.427857v45.253509h-4.081055l-28.369873-41.830704-.197449.032914v38.440811l5.594971.427841v2.929138h-15.303894v-2.929138l5.562073-.427841v-41.89653l-5.562073-.427857v-2.962051h5.562073 4.14685l28.336915 41.764877.230407-.032898v-38.342071l-5.59497-.427857v-2.962051h9.676025zm60.985229 24.650833c0 7.306381-1.97467 13.263382-5.989868 17.838104-3.982361 4.574722-9.182373 6.845627-15.600159 6.845627-6.31903 0-11.420349-2.270905-15.369751-6.87854-3.949401-4.60762-5.891174-10.531723-5.891174-17.805191v-.625321c0-7.306396 1.941773-13.263397 5.891174-17.838119 3.916504-4.607636 9.050721-6.911438 15.369751-6.911438 6.384888 0 11.5849 2.303802 15.600159 6.911438 3.9823 4.574722 5.989868 10.531723 5.989868 17.838119zm-4.080993-.691147c0-6.319046-1.579773-11.420349-4.739319-15.303925-3.159485-3.916473-7.437989-5.858261-12.769715-5.858261-5.298767 0-9.478515 1.941788-12.539306 5.858261-3.093689 3.883576-4.640564 8.984879-4.640564 15.303925v.691147c0 6.351944 1.546875 11.453247 4.640564 15.369736 3.093689 3.883575 7.273437 5.858276 12.539306 5.858276 5.43042 0 9.708924-1.941788 12.835572-5.858276 3.126587-3.850663 4.673462-8.984879 4.673462-15.369736zm22.511535 24.683731v-2.929138l5.594971-.427841v-41.89653l-5.594971-.427857v-2.962051h5.594971 4.113953 5.59497v2.962051l-5.59497.427857v41.89653h20.767272l.296204-6.845627h3.6203v10.202606zm94.423523-23.992584c0 7.306381-1.97467 13.263382-5.989929 17.838104-3.9823 4.574722-9.182312 6.845627-15.600098 6.845627-6.286133 0-11.420349-2.270905-15.369751-6.87854-3.916504-4.60762-5.891174-10.531723-5.891174-17.805191v-.625321c0-7.306396 1.97467-13.263397 5.891174-17.838119 3.916504-4.607636 9.050721-6.911438 15.369751-6.911438 6.384827 0 11.5849 2.303802 15.600098 6.911438 3.9823 4.574722 5.989929 10.531723 5.989929 17.838119zm-4.081055-.691147c0-6.319046-1.579773-11.420349-4.739257-15.303925-3.159546-3.916473-7.43805-5.858261-12.769715-5.858261-5.298767 0-9.478576 1.941788-12.539367 5.858261-3.093689 3.883576-4.640503 8.984879-4.640503 15.303925v.691147c0 6.351944 1.546814 11.453247 4.640503 15.369736 3.093689 3.883575 7.273498 5.858276 12.539367 5.858276 5.43042 0 9.708924-1.941788 12.835511-5.858276 3.126647-3.850663 4.673461-8.984879 4.673461-15.369736zm62.565064 19.352051c-1.184815 1.415191-3.225342 2.764572-6.187378 4.081039-2.962097 1.283554-6.648193 1.941788-11.091248 1.941788-6.483581 0-11.74945-2.270905-15.830505-6.845627-4.081055-4.541809-6.088684-10.49881-6.088684-17.838104v-1.020264c0-7.24057 2.007629-13.098831 6.088684-17.574829 4.081055-4.508896 9.41272-6.779785 16.027954-6.779785 3.719055 0 7.043091.62532 9.906433 1.843048 2.896241 1.217728 5.232971 2.863312 7.043091 4.96965v8.458298h-3.192444l-.72406-7.108917c-1.349365-1.448105-3.093689-2.600022-5.23291-3.488632-2.139282-.822785-4.640564-1.250641-7.503906-1.250641-5.693665 0-10.13678 1.941787-13.39502 5.79245-3.291137 3.883575-4.936767 8.886139-4.936767 15.040619v1.119003c0 6.319031 1.612671 11.453247 4.838012 15.402649 3.192444 3.949402 7.536805 5.924087 13.000122 5.924087 3.25824 0 6.022828-.427841 8.359559-1.250641 2.303833-.822784 3.916503-1.678482 4.838012-2.632934v-11.782364l-9.57727-.164551v-3.258255h13.658325zm21.524231-40.349686v-2.962051h15.270996v2.962051l-5.594971.427857v41.89653l5.594971.427841v2.929138h-15.270996v-2.929138l5.594971-.427841v-41.89653zm63.091553 22.149536h-20.438111v20.174851h23.56482l.329101-7.273484h3.620239v10.630463h-37.190185v-2.929138l5.594971-.427841v-41.89653l-5.594971-.427857v-2.962051h5.594971 31.430664v10.663376h-3.653199l-.296142-7.273468h-23.400269v18.298874h20.438111zm61.380249-10.696289h-3.356934l-.55957-6.878525c-1.250611-1.513931-2.929077-2.698761-5.035401-3.587371-2.139282-.822785-4.640625-1.250641-7.503906-1.250641-4.113892 0-7.306396.855697-9.610229 2.600021-2.303833 1.744309-3.455689 3.916489-3.455689 6.483597 0 2.468368 1.053223 4.508896 3.126587 6.121567 2.073486 1.645584 5.62793 3.093689 10.729248 4.34433 5.397461 1.34938 9.478516 3.126602 12.276001 5.397506 2.797485 2.270905 4.17981 5.298783 4.17981 9.017792 0 3.850662-1.612671 6.944366-4.870972 9.248184-3.225342 2.303803-7.405029 3.422806-12.440552 3.422806-3.554443 0-6.87854-.592407-9.906372-1.843048-3.060791-1.217743-5.562134-2.962052-7.503906-5.232956v-8.524124h3.356933l.592408 7.14183c1.514038 1.678498 3.422851 2.929138 5.79248 3.784836 2.336792.888626 4.903809 1.316467 7.668457 1.316467 3.916504 0 7.108887-.855697 9.577271-2.534195 2.402588-1.711395 3.620239-3.949386 3.620239-6.713974 0-2.665847-1.020264-4.838012-3.027832-6.51651-2.073486-1.678482-5.594971-3.159515-10.630493-4.443069-5.496216-1.349381-9.610108-3.093689-12.440552-5.232956-2.797485-2.139252-4.212646-5.035477-4.212646-8.655762 0-3.719009 1.61267-6.746887 4.838012-9.083603 3.192383-2.336731 7.306275-3.521545 12.341797-3.521545 3.653198 0 6.87854.62532 9.741821 1.843048 2.830445 1.217728 5.068482 2.896225 6.71399 4.96965z"/></g><path d="m21.449417 259.479462c-7.800049 0-14.119095-6.319031-14.119095-14.086182v-224.78656c0-7.767151 6.319046-14.086182 14.119095-14.086182h224.753647c7.767151 0 14.086182 6.319031 14.086182 14.086182v224.78656c0 7.767151-6.319031 14.086182-14.086182 14.086182z" fill="#fff"/><path d="m21.449417 259.479462c-7.800049 0-14.119095-6.319031-14.119095-14.086182v-224.78656c0-7.767151 6.319046-14.086182 14.119095-14.086182h224.753647c7.767151 0 14.086182 6.319031 14.086182 14.086182v224.78656c0 7.767151-6.319031 14.086182-14.086182 14.086182zm-6.05574-8.063355c1.546844 1.546845 3.686111 2.501282 6.05574 2.501282h224.753647c2.336731 0 4.475983-.954437 6.022827-2.501282l.032929.032913c1.513916-1.546844 2.468353-3.686111 2.468353-6.05574v-224.78656c0-2.336731-.954437-4.475983-2.501282-6.022827-1.546844-1.546845-3.686096-2.501282-6.022827-2.501282h-224.753647c-2.369629 0-4.508896.954437-6.05574 2.501282-1.546845 1.546844-2.501282 3.686096-2.501282 6.022827v224.78656c0 2.336731.954437 4.475983 2.501282 6.022827z" fill="#17384c" fill-rule="evenodd"/><path d="m52.945877 40.748657c0 6.286133-5.101318 11.387421-11.387436 11.387421-6.319031 0-11.420349-5.101288-11.420349-11.387421 0-6.319031 5.101318-11.420349 11.420349-11.420349 6.286118 0 11.387436 5.101318 11.387436 11.420349z" fill="#ff5331"/></svg>