<svg height="262" viewBox="0 0 1000 262" width="1000" xmlns="http://www.w3.org/2000/svg" xmlns:xlink="http://www.w3.org/1999/xlink"><linearGradient id="a" x1="17.372%" x2="82.628%" y1="-6.51%" y2="106.51%"><stop offset="0" stop-color="#5a62c3"/><stop offset=".5" stop-color="#4d55bd"/><stop offset="1" stop-color="#3940ab"/></linearGradient><g fill="none" fill-rule="evenodd"><path d="m417.727 113.102h-9.667l-20.58 45.59c-.587 1.172-1.64 3.863-3.149 8.056h-.33c-.468-1.757-1.455-4.376-2.966-7.872l-20.141-45.774h-10.18v65.656h7.435v-44.014c0-5.905-.128-10.18-.367-12.817h.184c.676 3.149 1.327 5.4 1.94 6.738l22.446 50.093h3.773l22.373-50.459c.587-1.291 1.246-3.415 1.977-6.372h.184c-.44 5.008-.658 9.255-.658 12.744v44.087h7.726zm16.221 65.656h7.508v-46.908h-7.508zm7.361-67.12c-.95-.953-2.124-1.43-3.514-1.43-1.42 0-2.59.495-3.515 1.467-.935.95-1.393 2.087-1.393 3.404 0 1.465.458 2.656 1.393 3.553.95.878 2.124 1.318 3.515 1.318 1.335 0 2.498-.458 3.478-1.39.97-.927 1.466-2.088 1.466-3.48 0-1.337-.477-2.491-1.43-3.442m46.903 57.82c-3.588 2.692-7.434 4.028-11.536 4.028-4.86 0-8.733-1.584-11.607-4.76-2.883-3.168-4.32-7.489-4.32-12.964 0-5.492 1.51-9.968 4.54-13.438 3.049-3.461 7.003-5.2 11.864-5.2 3.928 0 7.654 1.226 11.169 3.661v-7.689c-3.15-1.584-6.765-2.38-10.84-2.38-7.397 0-13.319 2.362-17.76 7.068-4.449 4.687-6.664 10.912-6.664 18.674 0 4.495.934 8.55 2.82 12.157 1.904 3.59 4.549 6.372 7.945 8.35 3.415 1.95 7.26 2.93 11.536 2.93 4.952 0 9.237-1.099 12.853-3.296zm35.815-37.79c-1.026-.412-2.517-.623-4.467-.623-2.81 0-5.3.943-7.47 2.82-2.178 1.886-3.773 4.43-4.797 7.653h-.183v-9.667h-7.508v46.908h7.508v-23.912c0-4.997 1.034-9.063 3.111-12.193 2.07-3.122 4.771-4.688 8.094-4.688 2.462 0 4.366.503 5.712 1.501v-7.8zm34.924 36.557c-2.59 3.104-6.326 4.651-11.205 4.651-4.816 0-8.632-1.574-11.46-4.724-2.813-3.167-4.212-7.56-4.212-13.183 0-5.858 1.4-10.4 4.211-13.622 2.8-3.222 6.627-4.833 11.46-4.833 4.853 0 8.58 1.574 11.17 4.724 2.608 3.149 3.917 7.671 3.917 13.548 0 5.842-1.299 10.318-3.88 13.44m5.674-31.565c-3.936-4.368-9.373-6.555-16.33-6.555-7.453 0-13.293 2.26-17.541 6.775-4.248 4.494-6.372 10.619-6.372 18.381 0 7.205 2.06 13.018 6.189 17.431 4.147 4.394 9.686 6.591 16.624 6.591 7.104 0 12.763-2.252 16.992-6.774 4.248-4.541 6.372-10.528 6.372-17.98 0-7.561-1.977-13.522-5.934-17.87m40.444 21.13c-1.813-2.098-4.945-4.084-9.412-5.97-3.615-1.538-6.005-2.856-7.176-3.954-1.155-1.117-1.721-2.72-1.721-4.797 0-1.922.741-3.498 2.232-4.724 1.51-1.218 3.516-1.83 6.007-1.83 4.028 0 7.56 1.125 10.619 3.367v-7.579c-3.003-1.464-6.353-2.197-10.035-2.197-4.787 0-8.742 1.31-11.863 3.918-3.104 2.59-4.651 5.822-4.651 9.704 0 3.35.851 6.042 2.564 8.093 1.702 2.032 4.632 3.918 8.788 5.675 4.101 1.904 6.738 3.425 7.91 4.54 1.172 1.1 1.757 2.528 1.757 4.285 0 4.376-2.984 6.555-8.936 6.555-4.447 0-8.513-1.483-12.193-4.468v8.056c3.315 1.877 7.196 2.82 11.645 2.82 5.173 0 9.319-1.254 12.45-3.771 3.149-2.537 4.724-5.842 4.724-9.925 0-3.121-.906-5.72-2.71-7.799m44.671 10.436c-2.59 3.104-6.327 4.651-11.206 4.651-4.815 0-8.632-1.574-11.46-4.724-2.812-3.167-4.211-7.56-4.211-13.183 0-5.858 1.4-10.4 4.211-13.622 2.8-3.222 6.626-4.833 11.46-4.833 4.853 0 8.58 1.574 11.17 4.724 2.608 3.149 3.917 7.671 3.917 13.548 0 5.842-1.299 10.318-3.88 13.44m5.674-31.565c-3.936-4.368-9.373-6.555-16.33-6.555-7.453 0-13.294 2.26-17.541 6.775-4.248 4.494-6.372 10.619-6.372 18.381 0 7.205 2.06 13.018 6.188 17.431 4.148 4.394 9.687 6.591 16.625 6.591 7.104 0 12.763-2.252 16.992-6.774 4.248-4.541 6.372-10.528 6.372-17.98 0-7.561-1.977-13.522-5.934-17.87m39.105-28.123c-1.346-.531-3.15-.806-5.419-.806-4.35 0-7.929 1.466-10.729 4.394-2.812 2.93-4.213 6.775-4.213 11.536v7.58h-7.982v6.37h7.982v40.539h7.508v-40.538h10.986v-6.372h-10.986v-7.213c0-6.61 2.619-9.924 7.872-9.924 1.85 0 3.517.403 4.981 1.209zm29.56 62.728c-1.392 1.026-3.022 1.537-4.871 1.537-2.517 0-4.311-.658-5.382-1.977-1.053-1.336-1.575-3.588-1.575-6.738v-26.474h11.827v-6.372h-11.827v-13.841l-7.507 2.417v11.425h-8.056v6.372h8.056v27.757c0 9.226 4.083 13.84 12.266 13.84 2.902 0 5.256-.511 7.068-1.537v-6.408zm71.737-58.773h-45.59v6.958h18.968v58.698h7.69v-58.698h18.932zm3.755 37.321c.64-4.176 2.209-7.535 4.714-10.06 2.524-2.542 5.549-3.823 9.093-3.823 3.732 0 6.627 1.226 8.686 3.675 2.05 2.432 3.118 5.828 3.193 10.208zm33.48 2.45c0-7.201-1.736-12.806-5.197-16.814-3.442-4.01-8.239-6.014-14.4-6.014-4.083 0-7.796 1.076-11.136 3.229-3.342 2.135-5.967 5.142-7.87 9.02-1.912 3.888-2.858 8.184-2.858 12.88 0 7.72 1.903 13.77 5.717 18.15 3.805 4.38 9.104 6.571 15.887 6.571 6.847 0 12.36-1.532 16.517-4.604v-7.09c-4.436 3.472-9.345 5.198-14.737 5.198-4.806 0-8.555-1.411-11.245-4.231-2.7-2.84-4.111-6.942-4.233-12.287h33.555zm37.158 6.569c0 3.99-1.243 7.313-3.712 9.985-2.45 2.653-5.559 3.971-9.317 3.971-2.673 0-4.862-.715-6.57-2.152-1.688-1.43-2.525-3.342-2.525-5.717 0-2.942.78-5.066 2.339-6.383 1.577-1.31 4.343-2.246 8.277-2.822l11.507-1.632v4.75zm7.609-11.618c0-11.849-5.587-17.78-16.741-17.78-2.654 0-5.66.502-9.019 1.485-3.368.966-5.745 1.986-7.128 3.045v7.794c4.605-3.88 9.763-5.827 15.479-5.827 6.533 0 9.8 4.027 9.8 12.062l-14.256 2.007c-10.447 1.484-15.663 6.661-15.663 15.515 0 4.212 1.374 7.562 4.12 10.06 2.746 2.476 6.403 3.71 10.987 3.71 6.432 0 11.302-2.858 14.625-8.575h.185v7.425h7.61v-30.92zm81.861 1.634c0-12.937-5.234-19.413-15.701-19.413-6.978 0-12.239 3.303-15.775 9.911-.965-3.137-2.69-5.577-5.16-7.313-2.476-1.725-5.261-2.598-8.351-2.598-6.44 0-11.34 2.895-14.699 8.685h-.185v-7.534h-7.61v47.547h7.61v-27.095c0-4.454 1.076-8.074 3.23-10.876 2.17-2.822 4.936-4.23 8.277-4.23 7.2 0 10.801 4.667 10.801 13.992v28.21h7.61v-27.096c0-4.13 1.13-7.684 3.414-10.653 2.274-2.97 5.029-4.454 8.277-4.454 3.833 0 6.57 1.17 8.202 3.488 1.635 2.302 2.45 6.115 2.45 11.432v27.282h7.61zm37.573 8.648c-1.837-2.125-5.01-4.14-9.54-6.05-3.665-1.56-6.087-2.895-7.274-4.01-1.17-1.13-1.744-2.755-1.744-4.862 0-1.949.751-3.545 2.263-4.787 1.531-1.235 3.564-1.856 6.087-1.856 4.083 0 7.666 1.141 10.764 3.415v-7.684c-3.043-1.485-6.44-2.227-10.17-2.227-4.853 0-8.861 1.327-12.026 3.97-3.145 2.628-4.714 5.903-4.714 9.837 0 3.397.863 6.125 2.599 8.204 1.725 2.06 4.695 3.971 8.908 5.754 4.158 1.928 6.83 3.47 8.017 4.602 1.188 1.113 1.783 2.56 1.783 4.343 0 4.436-3.025 6.644-9.057 6.644-4.51 0-8.63-1.504-12.362-4.529v8.166c3.36 1.902 7.295 2.858 11.804 2.858 5.244 0 9.446-1.27 12.62-3.823 3.193-2.57 4.789-5.92 4.789-10.06 0-3.163-.92-5.798-2.747-7.905" fill="#555aac"/><path d="m109.468 104.657h-24.973v69.822h-15.913v-69.822h-24.86v-13.547h65.746z" fill="#fff"/><g fill-rule="nonzero"><path d="m196.454 98.25h72.75c6.874 0 12.446 5.572 12.446 12.445v66.266c0 25.261-20.478 45.739-45.739 45.739h-.216c-25.26.003-45.741-20.471-45.745-45.732v-72.214a6.504 6.504 0 0 1 6.504-6.504" fill="#5059c9"/><circle cx="245.625" cy="55.675" fill="#5059c9" r="29.475"/><circle cx="153.925" cy="42.575" fill="#7b83eb" r="42.575"/><path d="m210.694 98.25h-120.088c-6.791.168-12.164 5.804-12.006 12.596v75.58c-.948 40.756 31.296 74.577 72.05 75.574 40.754-.997 72.998-34.818 72.05-75.574v-75.58c.157-6.792-5.215-12.428-12.006-12.596" fill="#7b83eb"/><g fill="#000"><path d="m157.2 98.25v105.913a12.059 12.059 0 0 1 -7.467 11.07 11.6 11.6 0 0 1 -4.52.917h-60.85c-.85-2.162-1.637-4.323-2.292-6.55a79.774 79.774 0 0 1 -3.471-23.187v-75.587c-.158-6.78 5.206-12.408 11.986-12.576z" opacity=".1"/><path d="m150.65 98.25v112.463a11.6 11.6 0 0 1 -.917 4.52 12.058 12.058 0 0 1 -11.07 7.467h-51.22c-1.114-2.162-2.162-4.323-3.08-6.55a64.965 64.965 0 0 1 -2.292-6.55 79.773 79.773 0 0 1 -3.471-23.187v-75.587c-.158-6.78 5.206-12.408 11.986-12.576z" opacity=".2"/><path d="m150.65 98.25v99.363c-.05 6.6-5.387 11.937-11.987 11.987h-56.591a79.773 79.773 0 0 1 -3.472-23.187v-75.587c-.157-6.78 5.206-12.408 11.986-12.576z" opacity=".2"/><path d="m144.1 98.25v99.363c-.05 6.6-5.387 11.937-11.987 11.987h-50.041a79.773 79.773 0 0 1 -3.472-23.187v-75.587c-.157-6.78 5.206-12.408 11.986-12.576z" opacity=".2"/><path d="m157.2 64.387v20.632c-1.114.065-2.162.131-3.275.131-1.114 0-2.162-.065-3.275-.131a35.948 35.948 0 0 1 -6.55-1.048 42.575 42.575 0 0 1 -29.475-25.02 36.396 36.396 0 0 1 -2.096-6.55h32.684c6.61.024 11.962 5.376 11.987 11.986" opacity=".1"/><path d="m150.65 70.936v14.084a35.948 35.948 0 0 1 -6.55-1.048 42.575 42.575 0 0 1 -29.475-25.02h24.038c6.61.024 11.962 5.376 11.987 11.985z" opacity=".2"/><path d="m150.65 70.936v14.084a35.948 35.948 0 0 1 -6.55-1.048 42.575 42.575 0 0 1 -29.475-25.02h24.038c6.61.024 11.962 5.376 11.987 11.985z" opacity=".2"/><path d="m144.1 70.936v13.035a42.575 42.575 0 0 1 -29.475-25.021h17.488c6.61.025 11.962 5.377 11.987 11.986" opacity=".2"/></g><path d="m12.006 58.95h120.088c6.63 0 12.006 5.375 12.006 12.006v120.088c0 6.63-5.376 12.006-12.006 12.006h-120.088c-6.63 0-12.006-5.376-12.006-12.006v-120.088c0-6.63 5.375-12.006 12.006-12.006" fill="url(#a)"/><path d="m103.647 104.656h-24.006v65.369h-15.294v-65.37h-23.894v-12.68h63.194z" fill="#fff"/></g></g></svg>